<svg width="121" height="132" viewBox="0 0 121 132" version="1.1" xmlns="http://www.w3.org/2000/svg" xmlns:xlink="http://www.w3.org/1999/xlink">
<title>Group</title>
<desc>Created using Figma</desc>
<g id="Canvas" transform="translate(-5940 425)">
<g id="Group">
<g id="Group">
<g id="Vector">
<use xlink:href="#path0_fill" transform="translate(5961.27 -415.667)" fill="#CCCCCC"/>
</g>
<g id="Vector">
<use xlink:href="#path1_fill" transform="translate(5940 -425)" fill="#CCCCCC"/>
</g>
<g id="Vector" opacity="0.5">
<use xlink:href="#path2_fill" transform="translate(5989.2 -399.802)" fill="#29ABE2"/>
</g>
<g id="Vector">
<use xlink:href="#path3_fill" transform="translate(6031.75 -341.141)" fill="#CCCCCC"/>
</g>
<g id="Vector">
<use xlink:href="#path4_fill" transform="translate(6023.77 -387.803)" fill="#FFFFFF"/>
</g>
<g id="Vector">
<use xlink:href="#path5_fill" transform="translate(6015.92 -395.136)"/>
</g>
<g id="Vector">
<use xlink:href="#path6_fill" transform="translate(5982.55 -407.668)"/>
</g>
<g id="Vector">
<use xlink:href="#path7_fill" transform="translate(6004.89 -336.474)"/>
</g>
<g id="Vector">
<use xlink:href="#path8_fill" transform="translate(6004.89 -330.875)"/>
</g>
<g id="Vector">
<use xlink:href="#path9_fill" transform="translate(5997.97 -372.604)"/>
</g>
<g id="Vector">
<use xlink:href="#path10_fill" transform="translate(6022.97 -388.07)"/>
</g>
<g id="Vector">
<use xlink:href="#path11_fill" transform="translate(5990.93 -385.27)"/>
</g>
<g id="Vector">
<use xlink:href="#path12_fill" transform="translate(5990.93 -379.671)"/>
</g>
<g id="Vector">
<use xlink:href="#path13_fill" transform="translate(6007.68 -385.27)"/>
</g>
<g id="Vector">
<use xlink:href="#path14_fill" transform="translate(6007.68 -379.671)"/>
</g>
</g>
<g id="Vector">
<use xlink:href="#path15_fill" transform="matrix(0.9999 -0.0104411 0.0103856 0.9999 5964 -298.3)" fill="#E6E6E6"/>
</g>
</g>
</g>
<defs>
<path id="path0_fill" d="M 65.5527 0L 16.7538 0C 16.6209 0 16.4879 -1.29132e-07 16.3549 0.133322L 16.222 0.133322C 16.089 0.266644 15.956 0.266644 15.8231 0.399966L 0.3989 15.732C 0.265933 15.8653 0.265935 15.9986 0.132968 16.132L 0.132968 16.2653C 0.132968 16.3986 0 16.5319 0 16.6652L 0 82.393C 0 83.1929 0.531868 83.7262 1.32967 83.7262L 9.70659 83.7262L 9.70659 80.9264L 2.79231 80.9264L 2.79231 18.1318L 16.7538 18.1318C 17.5516 18.1318 18.0835 17.5985 18.0835 16.7986L 18.0835 2.79976L 64.0901 2.79976L 64.0901 6.93274L 66.8824 6.93274L 66.8824 1.33322C 66.8824 0.533288 66.3506 0 65.5527 0ZM 15.2912 15.332L 4.65385 15.332L 9.97253 9.99915L 15.2912 4.66627L 15.2912 15.332Z"/>
<path id="path1_fill" d="M 65.5527 0L 16.7538 0C 16.6209 0 16.4879 0 16.3549 0.133322L 16.222 0.133322C 16.089 0.266644 15.956 0.266644 15.8231 0.399966L 0.398901 15.732C 0.265934 15.8653 0.265934 15.9986 0.132967 16.132L 0.132967 16.2653C 0.132967 16.3986 0 16.5319 0 16.6652L 0 82.393C 0 83.1929 0.531868 83.7262 1.32967 83.7262L 9.70659 83.7262L 9.70659 80.9264L 2.79231 80.9264L 2.79231 18.1318L 16.7538 18.1318C 17.5516 18.1318 18.0835 17.5985 18.0835 16.7986L 18.0835 2.79976L 64.0901 2.79976L 64.0901 6.93274L 66.8824 6.93274L 66.8824 1.33322C 66.8824 0.533288 66.3505 0 65.5527 0ZM 15.2912 15.332L 4.65385 15.332L 9.97253 9.99915L 15.2912 4.66627L 15.2912 15.332Z"/>
<path id="path2_fill" d="M 15.956 -5.08583e-07L 15.956 13.8655C 15.956 15.4653 14.6264 16.7986 12.8978 16.7986L 0 16.7986L 0 79.0599C 0 80.2598 1.06374 81.3264 2.26044 81.3264L 61.5637 81.3264C 62.7604 81.3264 63.8242 80.2598 63.8242 79.0599L 63.8242 2.26647C 63.8242 1.06658 62.7604 -5.08583e-07 61.5637 -5.08583e-07L 15.956 -5.08583e-07Z"/>
<path id="path3_fill" d="M 14.6264 2.03433e-06L 0 2.03433e-06L 0 17.3319L 14.6264 17.3319L 14.6264 2.03433e-06Z"/>
<path id="path4_fill" d="M 14.6264 29.3308C 22.7043 29.3308 29.2527 22.7649 29.2527 14.6654C 29.2527 6.56593 22.7043 0 14.6264 0C 6.54845 0 0 6.56593 0 14.6654C 0 22.7649 6.54845 29.3308 14.6264 29.3308Z"/>
<path id="path5_fill" d="M 45.0758 22.3981C 45.0758 10.1325 35.1033 -5.08583e-07 22.7374 -5.08583e-07C 10.2385 -5.08583e-07 -2.02892e-06 9.99915 -2.02892e-06 22.3981L 2.79231 22.3981C 2.79231 11.599 11.7011 2.79976 22.7374 2.79976C 33.5077 2.79976 42.2835 11.599 42.2835 22.3981C 42.2835 31.8639 35.6352 39.9966 26.1945 41.7298C 25.5297 41.8631 25.1308 42.3964 25.1308 43.063L 25.1308 51.7289L 21.0088 51.7289L 21.0088 43.3296L 18.2165 43.3296L 18.2165 51.7289L 15.4242 51.7289C 14.6264 51.7289 14.0945 52.2622 14.0945 53.0621L 14.0945 71.1939L 16.8868 71.1939L 16.8868 65.5944L 23.8011 65.5944L 23.8011 62.7946L 16.8868 62.7946L 16.8868 59.9949L 23.8011 59.9949L 23.8011 57.1951L 16.8868 57.1951L 16.8868 54.3954L 29.3857 54.3954L 29.3857 71.1939L 32.178 71.1939L 32.178 53.1955C 32.178 52.3955 31.6462 51.8622 30.8484 51.8622L 28.056 51.8622L 28.056 44.2629C 38.0286 41.8631 45.0758 32.9305 45.0758 22.3981Z"/>
<path id="path6_fill" d="M 30.7154 54.5287L 16.7538 54.5287C 11.3022 54.5287 7.04725 58.9283 7.04725 64.2612L 7.04725 81.0597L 2.92528 81.0597L 2.92528 18.1318L 16.8868 18.1318C 17.6846 18.1318 18.2165 17.5985 18.2165 16.7986L 18.2165 2.79976L 64.2231 2.79976L 64.2231 9.7325L 67.0154 9.7325L 67.0154 1.33322C 67.0154 0.533288 66.4835 0 65.6857 0L 16.7538 0C 16.6209 0 16.4879 5.06596e-07 16.3549 0.133322L 16.222 0.133322C 16.089 0.266644 15.956 0.266644 15.8231 0.399966L 0.3989 15.732C 0.265933 15.8653 0.265932 15.9986 0.132965 16.132L 0.132965 16.2653C 0.132965 16.3986 9.44788e-15 16.5319 9.44788e-15 16.6652L 9.44788e-15 82.393C 9.44788e-15 83.1929 0.531868 83.7262 1.32967 83.7262L 40.289 83.7262L 40.289 64.2612C 40.422 58.795 36.0341 54.5287 30.7154 54.5287ZM 4.78681 15.332L 10.1055 9.99915L 15.4242 4.66627L 15.4242 15.332L 4.78681 15.332ZM 26.0615 57.3284L 23.8011 63.1946L 21.5407 57.3284L 26.0615 57.3284ZM 37.6297 81.0597L 33.5077 81.0597L 33.5077 68.5275L 30.7154 68.5275L 30.7154 81.0597L 16.7538 81.0597L 16.7538 68.5275L 13.9615 68.5275L 13.9615 81.0597L 9.83956 81.0597L 9.83956 64.2612C 9.83956 60.3948 12.8978 57.3284 16.7538 57.3284L 18.6154 57.3284L 22.4714 67.7275C 22.6044 68.1275 23.1363 68.5275 23.6681 68.5275C 24.2 68.5275 24.7319 68.1275 25.2637 67.7275L 29.1198 57.3284L 30.7154 57.3284C 34.5714 57.3284 37.6297 60.3948 37.6297 64.2612L 37.6297 81.0597Z"/>
<path id="path7_fill" d="M 2.79231 2.03433e-06L 0 2.03433e-06L 0 2.79976L 2.79231 2.79976L 2.79231 2.03433e-06Z"/>
<path id="path8_fill" d="M 2.79231 -2.03433e-06L 0 -2.03433e-06L 0 2.79976L 2.79231 2.79976L 2.79231 -2.03433e-06Z"/>
<path id="path9_fill" d="M 6.91846 17.9985L 9.71077 17.9985C 13.5668 17.9985 16.6251 14.9321 16.6251 11.0657L 16.6251 6.93274C 16.6251 3.0664 13.5668 -1.01717e-06 9.71077 -1.01717e-06L 6.91846 -1.01717e-06C 3.06242 -1.01717e-06 0.00417386 3.0664 0.00417386 6.93274L 0.00417386 11.0657C -0.128793 14.9321 2.92945 17.9985 6.91846 17.9985ZM 2.66351 6.79942C 2.66351 4.39963 4.52506 2.66644 6.7855 2.66644L 9.5778 2.66644C 11.9712 2.66644 13.6998 4.53295 13.6998 6.79942L 13.6998 10.9324C 13.6998 13.3322 11.8382 15.0654 9.5778 15.0654L 6.7855 15.0654C 4.39209 15.0654 2.66351 13.1989 2.66351 10.9324L 2.66351 6.79942Z"/>
<path id="path10_fill" d="M 30.5824 15.332C 30.5824 6.79942 23.8011 1.01717e-06 15.2912 1.01717e-06C 6.78132 1.01717e-06 2.02892e-06 6.79942 2.02892e-06 15.332C 2.02892e-06 23.8646 6.78132 30.664 15.2912 30.664C 23.8011 30.664 30.5824 23.8646 30.5824 15.332ZM 2.79231 15.332C 2.79231 8.39928 8.37693 2.79976 15.2912 2.79976C 22.2055 2.79976 27.7901 8.39928 27.7901 15.332C 27.7901 22.2648 22.2055 27.8643 15.2912 27.8643C 8.37693 27.8643 2.79231 22.2648 2.79231 15.332Z"/>
<path id="path11_fill" d="M 13.9615 0L 0 0L 0 2.79976L 13.9615 2.79976L 13.9615 0Z"/>
<path id="path12_fill" d="M 13.9615 0L 0 0L 0 2.79976L 13.9615 2.79976L 13.9615 0Z"/>
<path id="path13_fill" d="M 2.79231 0L 2.02892e-06 0L 2.02892e-06 2.79976L 2.79231 2.79976L 2.79231 0Z"/>
<path id="path14_fill" d="M 2.79231 0L 2.02892e-06 0L 2.02892e-06 2.79976L 2.79231 2.79976L 2.79231 0Z"/>
<path id="path15_fill" d="M 33.5077 5.33288C 52.0135 5.33288 67.0154 4.13907 67.0154 2.66644C 67.0154 1.1938 52.0135 0 33.5077 0C 15.0019 0 0 1.1938 0 2.66644C 0 4.13907 15.0019 5.33288 33.5077 5.33288Z"/>
</defs>
</svg>
