<svg width="414" height="91" viewBox="0 0 414 91" version="1.1" xmlns="http://www.w3.org/2000/svg" xmlns:xlink="http://www.w3.org/1999/xlink">
<title>connect to worksmart</title>
<desc>Created using Figma</desc>
<g id="Canvas" transform="translate(-1554 417)">
<g id="connect to worksmart">
<g id="Vector" opacity="0.5">
<use xlink:href="#path0_fill" transform="translate(1566.5 -362)" fill="#02A8F3"/>
</g>
<g id="Vector">
<use xlink:href="#path1_fill" transform="translate(1755 -405)" fill="#F2F2F2"/>
</g>
<g id="Group">
<g id="Vector" opacity="0.5">
<use xlink:href="#path2_fill" transform="translate(1611.5 -390.5)" fill="#02A8F3"/>
</g>
<g id="Vector">
<use xlink:href="#path3_fill" transform="translate(1595 -397.5)"/>
</g>
</g>
<g id="Vector">
<use xlink:href="#path4_stroke" transform="translate(1680.5 -377.5)"/>
</g>
<g id="Group">
<g id="Vector">
<use xlink:href="#path5_stroke" transform="translate(1765.49 -377.2)"/>
</g>
<g id="Group">
<g id="Vector">
<use xlink:href="#path6_stroke" transform="matrix(0.983 -0.1835 0.1835 0.983 1778.75 -373.644)"/>
</g>
<g id="Vector">
<use xlink:href="#path7_stroke" transform="matrix(0.983 -0.1835 0.1835 0.983 1780.06 -366.748)"/>
</g>
</g>
</g>
<g id="Vector">
<use xlink:href="#path8_stroke" transform="translate(1807.9 -397.747)"/>
</g>
<g id="Group">
<g id="Vector">
<use xlink:href="#path9_stroke" transform="translate(1793.8 -382.217)"/>
</g>
</g>
<g id="Group">
<g id="Vector" opacity="0.5">
<use xlink:href="#path10_fill" transform="translate(1882 -409.503)" fill="#02A8F3"/>
</g>
<g id="Vector">
<use xlink:href="#path11_stroke" transform="translate(1879 -415)"/>
</g>
<g id="worksmart logo positive 1">
<g id="Layer 2 1">
<g id="Camada 1 1">
<g id="Vector">
<use xlink:href="#path12_fill" transform="translate(1888.1 -391.4)"/>
<use xlink:href="#path13_stroke" transform="translate(1888.1 -391.4)"/>
</g>
<g id="Vector">
<use xlink:href="#path14_fill" transform="translate(1897.7 -391.4)"/>
<use xlink:href="#path15_stroke" transform="translate(1897.7 -391.4)"/>
</g>
<g id="Vector">
<use xlink:href="#path16_fill" transform="translate(1905.4 -391.4)"/>
<use xlink:href="#path17_stroke" transform="translate(1905.4 -391.4)"/>
</g>
<g id="Vector">
<use xlink:href="#path18_fill" transform="translate(1911.8 -391.4)"/>
<use xlink:href="#path19_stroke" transform="translate(1911.8 -391.4)"/>
</g>
<g id="Vector">
<use xlink:href="#path20_fill" transform="translate(1923 -391.7)"/>
<use xlink:href="#path21_stroke" transform="translate(1923 -391.7)"/>
</g>
<g id="Vector">
<use xlink:href="#path22_fill" transform="translate(1929.1 -391.6)"/>
<use xlink:href="#path23_stroke" transform="translate(1929.1 -391.6)"/>
</g>
<g id="Vector">
<use xlink:href="#path24_fill" transform="translate(1935.7 -391.6)"/>
<use xlink:href="#path25_stroke" transform="translate(1935.7 -391.6)"/>
</g>
<g id="Vector">
<use xlink:href="#path26_fill" transform="translate(1943.5 -391.6)"/>
<use xlink:href="#path27_stroke" transform="translate(1943.5 -391.6)"/>
</g>
<g id="Vector">
<use xlink:href="#path28_fill" transform="translate(1950.1 -391.6)"/>
<use xlink:href="#path29_stroke" transform="translate(1950.1 -391.6)"/>
</g>
<g id="Vector">
<use xlink:href="#path30_fill" transform="translate(1919.7 -397.5)"/>
<use xlink:href="#path31_stroke" transform="translate(1919.7 -397.5)"/>
</g>
</g>
</g>
</g>
</g>
<g id="Group">
<g id="Vector">
<use xlink:href="#path32_fill" transform="translate(1555 -369.322)" fill="#1E1E1C"/>
<use xlink:href="#path33_stroke" transform="translate(1555 -369.322)" fill="#231F20"/>
</g>
<g id="Vector">
<use xlink:href="#path34_fill" transform="translate(1574.77 -380.39)" fill="#1E1E1C"/>
<use xlink:href="#path35_stroke" transform="translate(1574.77 -380.39)" fill="#231F20"/>
</g>
<g id="Vector">
<use xlink:href="#path36_fill" transform="translate(1567.57 -380.39)" fill="#1E1E1C"/>
<use xlink:href="#path37_stroke" transform="translate(1567.57 -380.39)" fill="#231F20"/>
</g>
</g>
</g>
</g>
<defs>
<path id="path0_fill" d="M 0 0L 1.6 17C 1.6 17 4 21 9.7 21C 15.4 21 17.8 21 18.6 19C 19.4 17 20 0.900002 20 0.900002C 20 0.900002 15.3 2 9.7 2C 4.1 2 0 0 0 0Z"/>
<path id="path1_fill" d="M 34 68C 52.7777 68 68 52.7777 68 34C 68 15.2223 52.7777 0 34 0C 15.2223 0 0 15.2223 0 34C 0 52.7777 15.2223 68 34 68Z"/>
<path id="path2_fill" d="M 68 41L 0 41L 0 5.5C 0 2.5 2.5 0 5.5 0L 62.5 0C 65.5 0 68 2.5 68 5.5L 68 41Z"/>
<path id="path3_fill" d="M 94 60.5C 94 60.4 94 60.3 93.9 60.2C 93.9 60.1 93.8 59.9 93.7 59.8C 93.7 59.8 93.7 59.7 93.6 59.7L 86.1 48.4L 86.1 7.8C 86.1 3.5 82.6 0 78.3 0L 15.7 0C 11.4 0 7.9 3.5 7.9 7.8L 7.9 48.3L 0.400002 59.6C 0.400002 59.7 0.399999 59.7 0.299999 59.8C 0.199999 59.9 0.199998 60 0.0999985 60.2C 0.0999985 60.3 0 60.4 0 60.6C 0 60.7 0 60.7 0 60.8L 0 62.8C 0 67.1 3.5 70.6 7.8 70.6L 86.1 70.6C 90.4 70.6 93.9 67.1 93.9 62.8L 93.9 60.8C 94 60.6 94 60.6 94 60.5ZM 11.7 7.8C 11.7 5.6 13.5 3.9 15.6 3.9L 78.3 3.9C 80.5 3.9 82.2 5.7 82.2 7.8L 82.2 47L 11.7 47L 11.7 7.8ZM 10.8 50.9L 83.1 50.9L 88.3 58.7L 56.8 58.7C 56.3 58.7 55.8 58.9 55.4 59.3L 54 60.7L 40 60.7L 38.6 59.3C 38.2 58.9 37.7 58.7 37.2 58.7L 5.6 58.7L 10.8 50.9ZM 86.2 66.6L 7.8 66.6C 5.6 66.6 3.9 64.8 3.9 62.7L 36.4 62.7L 37.8 64.1C 38.2 64.5 38.7 64.7 39.2 64.7L 54.9 64.7C 55.4 64.7 55.9 64.5 56.3 64.1L 57.7 62.7L 90.2 62.7C 90.1 64.8 88.3 66.6 86.2 66.6Z"/>
<path id="path4_stroke" d="M 27.4 32L 27.9262 33.9295L 27.9307 33.9283L 27.4 32ZM 0 29C -0.687163 30.8782 -0.686754 30.8784 -0.686282 30.8786C -0.686041 30.8787 -0.685506 30.8789 -0.685024 30.879C -0.684292 30.8793 -0.682845 30.8798 -0.681382 30.8804C -0.678922 30.8813 -0.674529 30.8828 -0.669624 30.8846C -0.660749 30.8878 -0.64603 30.8932 -0.628423 30.8995C -0.595102 30.9114 -0.542422 30.9302 -0.477009 30.9533C -0.350062 30.9979 -0.15565 31.0654 0.0880465 31.1474C 0.567323 31.3087 1.28116 31.5412 2.15679 31.8054C 3.89052 32.3282 6.37158 33.0075 9.17245 33.5841C 14.7139 34.7227 21.952 35.5589 27.9262 33.9295L 26.8738 30.0705C 21.848 31.4411 15.3861 30.7773 9.97755 29.6659C 7.30341 29.1175 4.99698 28.4843 3.31196 27.9758C 2.47822 27.7245 1.82486 27.5116 1.3643 27.3565C 1.13807 27.2803 0.969398 27.2218 0.85074 27.18C 0.793349 27.1599 0.752597 27.1453 0.723186 27.1348C 0.709427 27.1298 0.700456 27.1266 0.693481 27.124C 0.690462 27.123 0.688891 27.1224 0.687368 27.1218C 0.686838 27.1216 0.686789 27.1216 0.686523 27.1215C 0.686505 27.1215 0.686666 27.1216 0.686657 27.1216C 0.686879 27.1217 0.687163 27.1218 0 29ZM 27.9307 33.9283C 31.3318 32.9922 34.1627 30.1397 36.6241 26.9582C 39.1202 23.7265 41.5356 19.7541 44.0112 15.9698C 46.4863 12.1854 48.9603 8.65124 51.7401 6.02954C 54.4586 3.4522 57.2089 2 60.2 2L 60.2 -2C 55.7911 -2 52.1038 0.172796 48.9881 3.12671C 45.9334 6.03626 43.1762 9.93964 40.6637 13.7802C 38.1519 17.6209 35.8235 21.461 33.4603 24.5106C 31.0623 27.6103 28.9182 29.5078 26.8693 30.0717L 27.9307 33.9283ZM 60.2 2C 66.9197 2 70.5561 4.85936 73.8739 7.65453C 75.5656 9.07963 77.3082 10.5799 79.2477 11.5131C 81.3864 12.5184 83.7632 12.8132 86.6081 11.9053L 85.3919 8.09468C 83.5368 8.68676 82.2011 8.48156 80.9492 7.89311C 79.4981 7.23259 78.1719 6.04537 76.4511 4.59547C 72.9439 1.64064 68.3803 -2 60.2 -2L 60.2 2Z"/>
<path id="path5_stroke" d="M 15.2175 13.8L 15.5878 15.7654L 17.5532 15.3951L 17.1829 13.4297L 15.2175 13.8ZM 8.31746 15.1L 8.67979 17.0669L 8.68776 17.0654L 8.31746 15.1ZM 5.71746 1.3L 6.07978 3.26692L 6.08775 3.26542L 5.71746 1.3ZM 12.6175 -7.62939e-07L 14.5829 -0.370296L 14.2126 -2.33572L 12.2472 -1.96542L 12.6175 -7.62939e-07ZM 14.8472 11.8346L 7.94716 13.1346L 8.68776 17.0654L 15.5878 15.7654L 14.8472 11.8346ZM 7.95514 13.1331C 5.22063 13.6368 2.58045 11.8307 2.08437 9.13767L -1.84944 9.86232C -0.945524 14.7693 3.8143 17.9632 8.67979 17.0669L 7.95514 13.1331ZM 2.08437 9.13767C 1.58065 6.40316 3.38677 3.76299 6.07978 3.2669L 5.35513 -0.666908C 0.448147 0.23701 -2.74571 4.99684 -1.84944 9.86232L 2.08437 9.13767ZM 6.08775 3.26542L 12.9878 1.96542L 12.2472 -1.96542L 5.34716 -0.665423L 6.08775 3.26542ZM 10.652 0.370295L 13.252 14.1703L 17.1829 13.4297L 14.5829 -0.370296L 10.652 0.370295Z"/>
<path id="path6_stroke" d="M 6 2C 7.10457 2 8 1.10457 8 -7.62939e-07C 8 -1.10457 7.10457 -2 6 -2L 6 2ZM -3.05176e-06 -2C -1.10457 -2 -2 -1.10457 -2 -7.62939e-07C -2 1.10457 -1.10457 2 -3.05176e-06 2L -3.05176e-06 -2ZM 6 -7.62939e-07C 6 -2 5.99999 -2 5.99998 -2C 5.99997 -2 5.99996 -2 5.99994 -2C 5.99989 -2 5.99983 -2 5.99975 -2C 5.99959 -2 5.99934 -2 5.99902 -2C 5.99837 -2 5.99739 -2 5.99609 -2C 5.9935 -2 5.98963 -2 5.98451 -2C 5.97427 -2 5.95903 -2 5.93905 -2C 5.89909 -2 5.84015 -2 5.76424 -2C 5.61243 -2 5.39276 -2 5.12132 -2C 4.57842 -2 3.82842 -2 3 -2L 3 2C 3.82842 2 4.57842 2 5.12132 2C 5.39276 2 5.61243 2 5.76424 2C 5.84015 2 5.89909 2 5.93905 2C 5.95903 2 5.97427 2 5.98451 2C 5.98963 2 5.9935 2 5.99609 2C 5.99739 2 5.99837 2 5.99902 2C 5.99934 2 5.99959 2 5.99975 2C 5.99983 2 5.99989 2 5.99994 2C 5.99996 2 5.99997 2 5.99998 2C 5.99999 2 6 2 6 -7.62939e-07ZM 3 -2C 2.17157 -2 1.42157 -2 0.878677 -2C 0.60723 -2 0.38756 -2 0.235752 -2C 0.159848 -2 0.100909 -2 0.0609463 -2C 0.0409649 -2 0.0257276 -2 0.0154856 -2C 0.0103646 -2 0.00649244 -2 0.00390053 -2C 0.00260457 -2 0.00162868 -2 0.000976771 -2C 0.000650818 -2 0.000405862 -2 0.000242395 -2C 0.000160661 -2 9.92994e-05 -2 5.83712e-05 -2C 3.79071e-05 -2 2.25514e-05 -2 1.23117e-05 -2C 2.07194e-06 -2 -3.05176e-06 -2 -3.05176e-06 -7.62939e-07C -3.05176e-06 2 2.07194e-06 2 1.23117e-05 2C 2.25514e-05 2 3.79071e-05 2 5.83712e-05 2C 9.92994e-05 2 0.000160661 2 0.000242395 2C 0.000405862 2 0.000650818 2 0.000976771 2C 0.00162868 2 0.00260457 2 0.00390053 2C 0.00649244 2 0.0103646 2 0.0154856 2C 0.0257276 2 0.0409649 2 0.0609463 2C 0.100909 2 0.159848 2 0.235752 2C 0.38756 2 0.60723 2 0.878677 2C 1.42157 2 2.17157 2 3 2L 3 -2ZM -3.05176e-06 -7.62939e-07C -3.05176e-06 2 2.07194e-06 2 1.23117e-05 2C 2.25514e-05 2 3.79071e-05 2 5.83712e-05 2C 9.92994e-05 2 0.000160661 2 0.000242395 2C 0.000405862 2 0.000650818 2 0.000976771 2C 0.00162868 2 0.00260457 2 0.00390053 2C 0.00649244 2 0.0103646 2 0.0154856 2C 0.0257276 2 0.0409649 2 0.0609463 2C 0.100909 2 0.159848 2 0.235752 2C 0.38756 2 0.60723 2 0.878677 2C 1.42157 2 2.17157 2 3 2L 3 -2C 2.17157 -2 1.42157 -2 0.878677 -2C 0.60723 -2 0.38756 -2 0.235752 -2C 0.159848 -2 0.100909 -2 0.0609463 -2C 0.0409649 -2 0.0257276 -2 0.0154856 -2C 0.0103646 -2 0.00649244 -2 0.00390053 -2C 0.00260457 -2 0.00162868 -2 0.000976771 -2C 0.000650818 -2 0.000405862 -2 0.000242395 -2C 0.000160661 -2 9.92994e-05 -2 5.83712e-05 -2C 3.79071e-05 -2 2.25514e-05 -2 1.23117e-05 -2C 2.07194e-06 -2 -3.05176e-06 -2 -3.05176e-06 -7.62939e-07ZM 3 2C 3.82842 2 4.57842 2 5.12132 2C 5.39276 2 5.61243 2 5.76424 2C 5.84015 2 5.89909 2 5.93905 2C 5.95903 2 5.97427 2 5.98451 2C 5.98963 2 5.9935 2 5.99609 2C 5.99739 2 5.99837 2 5.99902 2C 5.99934 2 5.99959 2 5.99975 2C 5.99983 2 5.99989 2 5.99994 2C 5.99996 2 5.99997 2 5.99998 2C 5.99999 2 6 2 6 -7.62939e-07C 6 -2 5.99999 -2 5.99998 -2C 5.99997 -2 5.99996 -2 5.99994 -2C 5.99989 -2 5.99983 -2 5.99975 -2C 5.99959 -2 5.99934 -2 5.99902 -2C 5.99837 -2 5.99739 -2 5.99609 -2C 5.9935 -2 5.98963 -2 5.98451 -2C 5.97427 -2 5.95903 -2 5.93905 -2C 5.89909 -2 5.84015 -2 5.76424 -2C 5.61243 -2 5.39276 -2 5.12132 -2C 4.57842 -2 3.82842 -2 3 -2L 3 2Z"/>
<path id="path7_stroke" d="M 6 2C 7.10457 2 8 1.10457 8 7.62939e-07C 8 -1.10457 7.10457 -2 6 -2L 6 2ZM 0 -2C -1.10457 -2 -2 -1.10457 -2 7.62939e-07C -2 1.10457 -1.10457 2 0 2L 0 -2ZM 6 7.62939e-07C 6 -2 5.99999 -2 5.99998 -2C 5.99997 -2 5.99996 -2 5.99994 -2C 5.9999 -2 5.99984 -2 5.99975 -2C 5.99959 -2 5.99935 -2 5.99902 -2C 5.99837 -2 5.99739 -2 5.9961 -2C 5.9935 -2 5.98963 -2 5.98451 -2C 5.97427 -2 5.95903 -2 5.93905 -2C 5.89909 -2 5.84015 -2 5.76425 -2C 5.61244 -2 5.39277 -2 5.12132 -2C 4.57843 -2 3.82843 -2 3 -2L 3 2C 3.82843 2 4.57843 2 5.12132 2C 5.39277 2 5.61244 2 5.76425 2C 5.84015 2 5.89909 2 5.93905 2C 5.95903 2 5.97427 2 5.98451 2C 5.98963 2 5.9935 2 5.9961 2C 5.99739 2 5.99837 2 5.99902 2C 5.99935 2 5.99959 2 5.99975 2C 5.99984 2 5.9999 2 5.99994 2C 5.99996 2 5.99997 2 5.99998 2C 5.99999 2 6 2 6 7.62939e-07ZM 3 -2C 2.17157 -2 1.42157 -2 0.87868 -2C 0.607233 -2 0.387563 -2 0.235755 -2C 0.159851 -2 0.100912 -2 0.0609493 -2C 0.040968 -2 0.0257307 -2 0.0154887 -2C 0.0103677 -2 0.0064955 -2 0.00390358 -2C 0.00260762 -2 0.00163173 -2 0.000979822 -2C 0.000653869 -2 0.000408914 -2 0.000245446 -2C 0.000163713 -2 0.000102351 -2 6.1423e-05 -2C 4.09589e-05 -2 2.56031e-05 -2 1.53634e-05 -2C 5.12369e-06 -2 0 -2 0 7.62939e-07C 0 2 5.12369e-06 2 1.53634e-05 2C 2.56031e-05 2 4.09589e-05 2 6.1423e-05 2C 0.000102351 2 0.000163713 2 0.000245446 2C 0.000408914 2 0.000653869 2 0.000979822 2C 0.00163173 2 0.00260762 2 0.00390358 2C 0.0064955 2 0.0103677 2 0.0154887 2C 0.0257307 2 0.040968 2 0.0609493 2C 0.100912 2 0.159851 2 0.235755 2C 0.387563 2 0.607233 2 0.87868 2C 1.42157 2 2.17157 2 3 2L 3 -2ZM 0 7.62939e-07C 0 2 5.12369e-06 2 1.53634e-05 2C 2.56031e-05 2 4.09589e-05 2 6.1423e-05 2C 0.000102351 2 0.000163713 2 0.000245446 2C 0.000408914 2 0.000653869 2 0.000979822 2C 0.00163173 2 0.00260762 2 0.00390358 2C 0.0064955 2 0.0103677 2 0.0154887 2C 0.0257307 2 0.040968 2 0.0609493 2C 0.100912 2 0.159851 2 0.235755 2C 0.387563 2 0.607233 2 0.87868 2C 1.42157 2 2.17157 2 3 2L 3 -2C 2.17157 -2 1.42157 -2 0.87868 -2C 0.607233 -2 0.387563 -2 0.235755 -2C 0.159851 -2 0.100912 -2 0.0609493 -2C 0.040968 -2 0.0257307 -2 0.0154887 -2C 0.0103677 -2 0.0064955 -2 0.00390358 -2C 0.00260762 -2 0.00163173 -2 0.000979822 -2C 0.000653869 -2 0.000408914 -2 0.000245446 -2C 0.000163713 -2 0.000102351 -2 6.1423e-05 -2C 4.09589e-05 -2 2.56031e-05 -2 1.53634e-05 -2C 5.12369e-06 -2 0 -2 0 7.62939e-07ZM 3 2C 3.82843 2 4.57843 2 5.12132 2C 5.39277 2 5.61244 2 5.76425 2C 5.84015 2 5.89909 2 5.93905 2C 5.95903 2 5.97427 2 5.98451 2C 5.98963 2 5.9935 2 5.9961 2C 5.99739 2 5.99837 2 5.99902 2C 5.99935 2 5.99959 2 5.99975 2C 5.99984 2 5.9999 2 5.99994 2C 5.99996 2 5.99997 2 5.99998 2C 5.99999 2 6 2 6 7.62939e-07C 6 -2 5.99999 -2 5.99998 -2C 5.99997 -2 5.99996 -2 5.99994 -2C 5.9999 -2 5.99984 -2 5.99975 -2C 5.99959 -2 5.99935 -2 5.99902 -2C 5.99837 -2 5.99739 -2 5.9961 -2C 5.9935 -2 5.98963 -2 5.98451 -2C 5.97427 -2 5.95903 -2 5.93905 -2C 5.89909 -2 5.84015 -2 5.76425 -2C 5.61244 -2 5.39277 -2 5.12132 -2C 4.57843 -2 3.82843 -2 3 -2L 3 2Z"/>
<path id="path8_stroke" d="M 69.6 4.74741C 70.7393 3.10361 70.7387 3.10321 70.7381 3.10278C 70.7378 3.1026 70.7372 3.10214 70.7366 3.10179C 70.736 3.10132 70.7344 3.10025 70.7331 3.09933C 70.7311 3.09797 70.7271 3.09519 70.7231 3.09251C 70.7168 3.08813 70.7049 3.08007 70.6922 3.07145C 70.6697 3.05622 70.6314 3.03047 70.5868 3.00101C 70.5038 2.94618 70.37 2.85929 70.2081 2.75774C 69.8971 2.56296 69.4144 2.27245 68.8275 1.94873C 67.6819 1.31827 65.9594 0.470159 63.9555 -0.258263C 60.0101 -1.67967 54.3085 -2.7505 48.7357 -1.17133L 49.8643 2.66614C 54.4915 1.24531 58.9399 2.17448 62.5945 3.50307C 64.3906 4.14965 65.8306 4.86404 66.8975 5.45233C 67.4169 5.73799 67.8029 5.97091 68.0841 6.14722C 68.2183 6.23123 68.3114 6.2918 68.3813 6.33804C 68.4132 6.35912 68.4329 6.3723 68.4492 6.38339C 68.4559 6.38792 68.4587 6.38984 68.4621 6.39218C 68.4631 6.39285 68.4637 6.39328 68.4632 6.39294C 68.4634 6.39302 68.4624 6.39235 68.4624 6.39238C 68.4622 6.39224 68.4618 6.39194 68.4617 6.39187C 68.4612 6.39155 68.4607 6.3912 69.6 4.74741ZM 48.7357 -1.17133C 45.4943 -0.217987 43.36 2.17811 41.7723 4.80733C 40.2172 7.3972 39.014 10.4839 37.7688 13.3183C 35.1986 19.1712 32.6849 23.2474 27.2 23.2474L 27.2 27.2474C 35.5151 27.2474 38.9515 20.5736 41.4312 14.9265C 42.7111 12.0109 43.8078 9.1601 45.1965 6.87498C 46.5526 4.6292 48.0057 3.2128 49.8643 2.66614L 48.7357 -1.17133ZM 27.2 23.2474C 20.669 23.2817 16.3743 21.5736 12.3605 20.1391C 8.33573 18.7011 4.32167 17.5476 -0.651987 19.1567L 0.651975 22.9381C 4.37832 21.5472 7.06426 22.4937 11.0145 23.9058C 14.9757 25.3212 19.931 27.2131 27.2 27.2474L 27.2 23.2474Z"/>
<path id="path9_stroke" d="M 3.05176e-06 1.41746L -0.370294 -0.547961L -2.33571 -0.177664L -1.96542 1.78776L 3.05176e-06 1.41746ZM 6.9 0.117461L 6.53767 -1.84946L 6.5297 -1.84796L 6.9 0.117461ZM 9.5 13.9175L 9.13768 11.9505L 9.12971 11.952L 9.5 13.9175ZM 2.59999 15.2175L 0.634573 15.5878L 1.00487 17.5532L 2.97029 17.1829L 2.59999 15.2175ZM 0.3703 3.38288L 7.27029 2.08288L 6.5297 -1.84796L -0.370294 -0.547961L 0.3703 3.38288ZM 7.26232 2.08437C 9.99683 1.58064 12.637 3.38676 13.1331 6.07978L 17.0669 5.35513C 16.163 0.448154 11.4032 -2.74572 6.53767 -1.84945L 7.26232 2.08437ZM 13.1331 6.07978C 13.6368 8.8143 11.8307 11.4545 9.13768 11.9506L 9.86233 15.8844C 14.7693 14.9804 17.9632 10.2206 17.0669 5.35513L 13.1331 6.07978ZM 9.12971 11.952L 2.2297 13.252L 2.97029 17.1829L 9.8703 15.8829L 9.12971 11.952ZM 4.56542 14.8472L 1.96542 1.04716L -1.96542 1.78776L 0.634573 15.5878L 4.56542 14.8472Z"/>
<path id="path10_fill" d="M 85.0032 21.8029C 85.2032 10.0029 75.5032 0.202891 63.2032 0.00289105C 56.7032 -0.097109 50.8032 2.40289 46.6032 6.60289C 43.7032 3.50289 39.5032 1.40289 34.8032 1.30289C 31.1032 1.20289 27.7032 2.40289 24.9032 4.30289C 23.8032 4.10289 22.7032 4.00289 21.6032 4.00289C 9.90317 3.80289 0.203166 12.7029 0.00316623 24.0029C -0.196834 35.3029 9.10315 44.6029 20.8032 44.8029C 22.6032 44.8029 24.3032 44.6029 25.9032 44.3029C 30.1032 49.5029 36.5032 52.9029 43.9032 53.1029C 52.3032 53.3029 59.8032 49.1029 64.0032 42.7029C 75.6032 42.1029 84.8032 33.0029 85.0032 21.8029Z"/>
<path id="path11_stroke" d="M 45.8 7.2L 44.3409 8.56788L 45.8226 10.1483L 47.2799 8.54535L 45.8 7.2ZM 24.3 5.3L 23.9422 7.26774L 24.822 7.4277L 25.5279 6.8787L 24.3 5.3ZM 26 46.4L 27.5675 45.1578L 26.7663 44.1469L 25.5149 44.4597L 26 46.4ZM 63.7 43.9L 63.5588 41.905L 62.5316 41.9777L 61.9941 42.8561L 63.7 43.9ZM 86 22C 86 8.69543 75.3046 -2 62 -2L 62 2C 73.0954 2 82 10.9046 82 22L 86 22ZM 62 -2C 55.0073 -2 48.679 1.05983 44.3201 5.85465L 47.2799 8.54535C 50.9209 4.54017 56.1927 2 62 2L 62 -2ZM 47.2591 5.83212C 43.9141 2.26421 39.2995 0 34 0L 34 4C 38.1005 4 41.6858 5.73579 44.3409 8.56788L 47.2591 5.83212ZM 34 0C 30.0623 0.0287107 26.0408 1.445 23.0721 3.7213L 25.5279 6.8787C 27.9591 4.955 30.7377 3.97129 34 4L 34 0ZM 24.6578 3.33226C 23.4697 3.11827 22.1906 3.00205 21 3L 21 7C 22.0094 6.99795 22.9303 7.08173 23.9422 7.26774L 24.6578 3.33226ZM 21 3C 8.29543 3 -2 13.2954 -2 26L 2 26C 2 15.5046 10.5046 7 21 7L 21 3ZM -2 26C -2 38.7046 8.29543 49 21 49L 21 45C 10.5046 45 2 36.4954 2 26L -2 26ZM 21 49C 22.817 48.9966 24.7601 48.7673 26.4851 48.3403L 25.5149 44.4597C 24.0399 44.8327 22.583 45.0034 21 45L 21 49ZM 24.4325 47.6422C 29.0085 53.4167 36.0838 57 44 57L 44 53C 37.3162 53 31.3915 49.9833 27.5675 45.1578L 24.4325 47.6422ZM 44 57C 53.0275 57 60.9591 52.2107 65.4059 44.9439L 61.9941 42.8561C 58.2409 48.9893 51.5725 53 44 53L 44 57ZM 63.8413 45.895C 76.1856 45.0211 86 34.6525 86 22L 82 22C 82 32.5475 73.8144 41.1789 63.5588 41.905L 63.8413 45.895Z"/>
<path id="path12_fill" d="M 6.10352e-06 3.8147e-07L 0.699988 3.8147e-07L 2.29999 4.7L 3.9 3.8147e-07L 4.4 3.8147e-07L 6.00001 4.7L 7.60001 3.8147e-07L 8.29999 3.8147e-07L 6.19999 5.7L 5.69999 5.7L 4.19999 1.1L 2.60001 5.7L 2.10001 5.7L 6.10352e-06 3.8147e-07Z"/>
<path id="path13_stroke" d="M 6.10352e-06 3.8147e-07L 6.10352e-06 -0.25L -0.358527 -0.25L -0.23458 0.086427L 6.10352e-06 3.8147e-07ZM 0.699988 3.8147e-07L 0.93665 -0.0805659L 0.87897 -0.25L 0.699988 -0.25L 0.699988 3.8147e-07ZM 2.29999 4.7L 2.06333 4.78057L 2.29999 5.47576L 2.53666 4.78057L 2.29999 4.7ZM 3.9 3.8147e-07L 3.9 -0.25L 3.72102 -0.25L 3.66334 -0.0805659L 3.9 3.8147e-07ZM 4.4 3.8147e-07L 4.63666 -0.0805659L 4.57898 -0.25L 4.4 -0.25L 4.4 3.8147e-07ZM 6.00001 4.7L 5.76334 4.78057L 6.00001 5.47576L 6.23667 4.78057L 6.00001 4.7ZM 7.60001 3.8147e-07L 7.60001 -0.25L 7.42103 -0.25L 7.36335 -0.0805659L 7.60001 3.8147e-07ZM 8.29999 3.8147e-07L 8.53458 0.0864269L 8.65853 -0.25L 8.29999 -0.25L 8.29999 3.8147e-07ZM 6.19999 5.7L 6.19999 5.95L 6.37431 5.95L 6.43457 5.78643L 6.19999 5.7ZM 5.69999 5.7L 5.46231 5.7775L 5.51855 5.95L 5.69999 5.95L 5.69999 5.7ZM 4.19999 1.1L 4.43767 1.0225L 4.20763 0.317035L 3.96386 1.01787L 4.19999 1.1ZM 2.60001 5.7L 2.60001 5.95L 2.77775 5.95L 2.83614 5.78213L 2.60001 5.7ZM 2.10001 5.7L 1.86543 5.78643L 1.92569 5.95L 2.10001 5.95L 2.10001 5.7ZM 6.10352e-06 0.25L 0.699988 0.25L 0.699988 -0.25L 6.10352e-06 -0.25L 6.10352e-06 0.25ZM 0.463325 0.0805666L 2.06333 4.78057L 2.53666 4.61943L 0.93665 -0.0805659L 0.463325 0.0805666ZM 2.53666 4.78057L 4.13666 0.0805666L 3.66334 -0.0805659L 2.06333 4.61943L 2.53666 4.78057ZM 3.9 0.25L 4.4 0.25L 4.4 -0.25L 3.9 -0.25L 3.9 0.25ZM 4.16334 0.0805666L 5.76334 4.78057L 6.23667 4.61943L 4.63666 -0.0805659L 4.16334 0.0805666ZM 6.23667 4.78057L 7.83667 0.0805666L 7.36335 -0.0805659L 5.76334 4.61943L 6.23667 4.78057ZM 7.60001 0.25L 8.29999 0.25L 8.29999 -0.25L 7.60001 -0.25L 7.60001 0.25ZM 8.06541 -0.0864262L 5.9654 5.61357L 6.43457 5.78643L 8.53458 0.0864269L 8.06541 -0.0864262ZM 6.19999 5.45L 5.69999 5.45L 5.69999 5.95L 6.19999 5.95L 6.19999 5.45ZM 5.93767 5.62249L 4.43767 1.0225L 3.96231 1.17751L 5.46231 5.7775L 5.93767 5.62249ZM 3.96386 1.01787L 2.36389 5.61787L 2.83614 5.78213L 4.43611 1.18213L 3.96386 1.01787ZM 2.60001 5.45L 2.10001 5.45L 2.10001 5.95L 2.60001 5.95L 2.60001 5.45ZM 2.3346 5.61357L 0.234592 -0.0864262L -0.23458 0.086427L 1.86543 5.78643L 2.3346 5.61357Z"/>
<path id="path14_fill" d="M 1.2207e-05 2.9C 1.2207e-05 1.3 1.30001 3.8147e-07 2.90001 3.8147e-07C 4.50001 3.8147e-07 5.8 1.3 5.8 2.9C 5.8 4.5 4.50001 5.8 2.90001 5.8C 1.30001 5.8 1.2207e-05 4.4 1.2207e-05 2.9ZM 5.09999 2.9C 5.09999 1.7 4.20001 0.600001 2.90001 0.600001C 2.90001 0.600001 2.9 0.600001 2.8 0.600001C 1.6 0.600001 0.599988 1.6 0.599988 2.8L 0.599988 2.9C 0.599988 4.1 1.5 5.2 2.8 5.2C 2.8 5.2 2.80001 5.2 2.90001 5.2C 4.10001 5.2 5.09999 4.2 5.09999 2.9Z"/>
<path id="path15_stroke" d="M 0.250012 2.9C 0.250012 1.43807 1.43808 0.25 2.90001 0.25L 2.90001 -0.25C 1.16193 -0.25 -0.249988 1.16193 -0.249988 2.9L 0.250012 2.9ZM 2.90001 0.25C 4.36193 0.25 5.55 1.43807 5.55 2.9L 6.05 2.9C 6.05 1.16193 4.63808 -0.25 2.90001 -0.25L 2.90001 0.25ZM 5.55 2.9C 5.55 4.36193 4.36193 5.55 2.90001 5.55L 2.90001 6.05C 4.63808 6.05 6.05 4.63807 6.05 2.9L 5.55 2.9ZM 2.90001 5.55C 1.44359 5.55 0.250012 4.26751 0.250012 2.9L -0.249988 2.9C -0.249988 4.53249 1.15642 6.05 2.90001 6.05L 2.90001 5.55ZM 5.34999 2.9C 5.34999 1.58417 4.35931 0.350001 2.90001 0.350001L 2.90001 0.850001C 4.0407 0.850001 4.84999 1.81583 4.84999 2.9L 5.34999 2.9ZM 2.90001 0.600001C 2.90001 0.350001 2.90001 0.350001 2.90001 0.350001C 2.90001 0.350001 2.90001 0.350001 2.90001 0.350001C 2.90001 0.350001 2.9 0.350001 2.9 0.350001C 2.9 0.350001 2.89999 0.350001 2.89998 0.350001C 2.89996 0.350001 2.89991 0.350001 2.89981 0.350001C 2.89962 0.350001 2.89922 0.350001 2.89844 0.350001C 2.89688 0.350001 2.89375 0.350001 2.8875 0.350001C 2.875 0.350001 2.85 0.350001 2.8 0.350001L 2.8 0.850001C 2.85 0.850001 2.875 0.850001 2.8875 0.850001C 2.89375 0.850001 2.89688 0.850001 2.89844 0.850001C 2.89922 0.850001 2.89962 0.850001 2.89981 0.850001C 2.89991 0.850001 2.89996 0.850001 2.89998 0.850001C 2.89999 0.850001 2.9 0.850001 2.9 0.850001C 2.9 0.850001 2.90001 0.850001 2.90001 0.850001C 2.90001 0.850001 2.90001 0.850001 2.90001 0.850001C 2.90001 0.850001 2.90001 0.850001 2.90001 0.600001ZM 2.8 0.350001C 1.46193 0.350001 0.349988 1.46193 0.349988 2.8L 0.849988 2.8C 0.849988 1.73807 1.73807 0.850001 2.8 0.850001L 2.8 0.350001ZM 0.349988 2.8L 0.349988 2.9L 0.849988 2.9L 0.849988 2.8L 0.349988 2.8ZM 0.349988 2.9C 0.349988 4.21584 1.3407 5.45 2.8 5.45L 2.8 4.95C 1.6593 4.95 0.849988 3.98416 0.849988 2.9L 0.349988 2.9ZM 2.8 5.2C 2.8 5.45 2.8 5.45 2.8 5.45C 2.8 5.45 2.8 5.45 2.8 5.45C 2.8 5.45 2.8 5.45 2.8 5.45C 2.80001 5.45 2.80001 5.45 2.80002 5.45C 2.80005 5.45 2.8001 5.45 2.8002 5.45C 2.80039 5.45 2.80078 5.45 2.80156 5.45C 2.80313 5.45 2.80625 5.45 2.8125 5.45C 2.825 5.45 2.85001 5.45 2.90001 5.45L 2.90001 4.95C 2.85001 4.95 2.825 4.95 2.8125 4.95C 2.80625 4.95 2.80313 4.95 2.80156 4.95C 2.80078 4.95 2.80039 4.95 2.8002 4.95C 2.8001 4.95 2.80005 4.95 2.80002 4.95C 2.80001 4.95 2.80001 4.95 2.8 4.95C 2.8 4.95 2.8 4.95 2.8 4.95C 2.8 4.95 2.8 4.95 2.8 4.95C 2.8 4.95 2.8 4.95 2.8 5.2ZM 2.90001 5.45C 4.24528 5.45 5.34999 4.33076 5.34999 2.9L 4.84999 2.9C 4.84999 4.06924 3.95474 4.95 2.90001 4.95L 2.90001 5.45Z"/>
<path id="path16_fill" d="M -6.10352e-06 3.8147e-07L 2.39999 3.8147e-07C 2.99999 3.8147e-07 3.59999 0.200001 3.99999 0.600001C 4.29999 0.900001 4.39999 1.3 4.39999 1.7C 4.39999 2.6 3.79999 3.2 2.89999 3.3L 4.6 5.6L 3.80001 5.6L 2.20001 3.4L 0.6 3.4L 0.6 5.6L -6.10352e-06 5.6L -6.10352e-06 3.8147e-07ZM 2.39999 2.9C 3.29999 2.9 3.89999 2.5 3.89999 1.7C 3.89999 0.899999 3.39999 0.600001 2.49999 0.600001L 0.800012 0.600001L 0.800012 2.9L 2.39999 2.9Z"/>
<path id="path17_stroke" d="M 2.89999 3.3L 2.87238 3.05153L 2.44089 3.09947L 2.69894 3.4486L 2.89999 3.3ZM 4.6 5.6L 4.6 5.85L 5.09566 5.85L 4.80104 5.4514L 4.6 5.6ZM 3.80001 5.6L 3.59783 5.74704L 3.67271 5.85L 3.80001 5.85L 3.80001 5.6ZM 2.20001 3.4L 2.40219 3.25296L 2.32731 3.15L 2.20001 3.15L 2.20001 3.4ZM 0.6 3.4L 0.6 3.15L 0.35 3.15L 0.35 3.4L 0.6 3.4ZM 0.6 5.6L 0.6 5.85L 0.85 5.85L 0.85 5.6L 0.6 5.6ZM -6.10352e-06 5.6L -0.250006 5.6L -0.250006 5.85L -6.10352e-06 5.85L -6.10352e-06 5.6ZM 0.800012 0.600001L 0.800012 0.350001L 0.550012 0.350001L 0.550012 0.600001L 0.800012 0.600001ZM 0.800012 2.9L 0.550012 2.9L 0.550012 3.15L 0.800012 3.15L 0.800012 2.9ZM -6.10352e-06 0.25L 2.39999 0.25L 2.39999 -0.25L -6.10352e-06 -0.25L -6.10352e-06 0.25ZM 2.39999 0.25C 2.95037 0.25 3.48071 0.434271 3.82322 0.776777L 4.17677 0.423224C 3.71928 -0.0342697 3.04961 -0.25 2.39999 -0.25L 2.39999 0.25ZM 3.82322 0.776777C 4.0598 1.01336 4.14999 1.33853 4.14999 1.7L 4.64999 1.7C 4.64999 1.26147 4.54019 0.786645 4.17677 0.423224L 3.82322 0.776777ZM 4.14999 1.7C 4.14999 2.09184 4.02069 2.40314 3.80665 2.62738C 3.59115 2.85315 3.27394 3.00691 2.87238 3.05153L 2.9276 3.54847C 3.42604 3.49309 3.85883 3.29685 4.16833 2.97262C 4.47928 2.64685 4.64999 2.20815 4.64999 1.7L 4.14999 1.7ZM 2.69894 3.4486L 4.39896 5.7486L 4.80104 5.4514L 3.10103 3.1514L 2.69894 3.4486ZM 4.6 5.35L 3.80001 5.35L 3.80001 5.85L 4.6 5.85L 4.6 5.35ZM 4.0022 5.45296L 2.40219 3.25296L 1.99782 3.54704L 3.59783 5.74704L 4.0022 5.45296ZM 2.20001 3.15L 0.6 3.15L 0.6 3.65L 2.20001 3.65L 2.20001 3.15ZM 0.35 3.4L 0.35 5.6L 0.85 5.6L 0.85 3.4L 0.35 3.4ZM 0.6 5.35L -6.10352e-06 5.35L -6.10352e-06 5.85L 0.6 5.85L 0.6 5.35ZM 0.249994 5.6L 0.249994 3.8147e-07L -0.250006 3.8147e-07L -0.250006 5.6L 0.249994 5.6ZM 2.39999 3.15C 2.88235 3.15 3.318 3.04343 3.639 2.79886C 3.96979 2.54683 4.14999 2.16984 4.14999 1.7L 3.64999 1.7C 3.64999 2.03016 3.53019 2.25317 3.33598 2.40114C 3.13198 2.55657 2.81763 2.65 2.39999 2.65L 2.39999 3.15ZM 4.14999 1.7C 4.14999 1.24386 4.00393 0.883153 3.68579 0.648736C 3.38395 0.426324 2.96865 0.350001 2.49999 0.350001L 2.49999 0.850001C 2.93134 0.850001 3.21604 0.923677 3.38919 1.05126C 3.54605 1.16685 3.64999 1.35613 3.64999 1.7L 4.14999 1.7ZM 2.49999 0.350001L 0.800012 0.350001L 0.800012 0.850001L 2.49999 0.850001L 2.49999 0.350001ZM 0.550012 0.600001L 0.550012 2.9L 1.05001 2.9L 1.05001 0.600001L 0.550012 0.600001ZM 0.800012 3.15L 2.39999 3.15L 2.39999 2.65L 0.800012 2.65L 0.800012 3.15Z"/>
<path id="path18_fill" d="M 0.0999939 3.8147e-07L 0.7 3.8147e-07L 0.7 3.4L 3.99999 3.8147e-07L 4.80001 3.8147e-07L 2.40001 2.5L 4.90001 5.7L 4.09999 5.7L 1.90001 2.9L 0.7 4.1L 0.7 5.6L -1.2207e-05 5.6L -1.2207e-05 3.8147e-07L 0.0999939 3.8147e-07Z"/>
<path id="path19_stroke" d="M 0.7 3.8147e-07L 0.95 3.8147e-07L 0.95 -0.25L 0.7 -0.25L 0.7 3.8147e-07ZM 0.7 3.4L 0.45 3.4L 0.45 4.01653L 0.879395 3.57412L 0.7 3.4ZM 3.99999 3.8147e-07L 3.99999 -0.25L 3.89424 -0.25L 3.82059 -0.174118L 3.99999 3.8147e-07ZM 4.80001 3.8147e-07L 4.98035 0.173133L 5.38656 -0.25L 4.80001 -0.25L 4.80001 3.8147e-07ZM 2.40001 2.5L 2.21967 2.32687L 2.06961 2.48317L 2.20301 2.65391L 2.40001 2.5ZM 4.90001 5.7L 4.90001 5.95L 5.41257 5.95L 5.09702 5.54609L 4.90001 5.7ZM 4.09999 5.7L 3.90341 5.85445L 3.97848 5.95L 4.09999 5.95L 4.09999 5.7ZM 1.90001 2.9L 2.09659 2.74555L 1.9225 2.52397L 1.72324 2.72322L 1.90001 2.9ZM 0.7 4.1L 0.523224 3.92322L 0.45 3.99645L 0.45 4.1L 0.7 4.1ZM 0.7 5.6L 0.7 5.85L 0.95 5.85L 0.95 5.6L 0.7 5.6ZM -1.2207e-05 5.6L -0.250012 5.6L -0.250012 5.85L -1.2207e-05 5.85L -1.2207e-05 5.6ZM -1.2207e-05 3.8147e-07L -1.2207e-05 -0.25L -0.250012 -0.25L -0.250012 3.8147e-07L -1.2207e-05 3.8147e-07ZM 0.0999939 0.25L 0.7 0.25L 0.7 -0.25L 0.0999939 -0.25L 0.0999939 0.25ZM 0.45 3.8147e-07L 0.45 3.4L 0.95 3.4L 0.95 3.8147e-07L 0.45 3.8147e-07ZM 0.879395 3.57412L 4.17938 0.174119L 3.82059 -0.174118L 0.520604 3.22588L 0.879395 3.57412ZM 3.99999 0.25L 4.80001 0.25L 4.80001 -0.25L 3.99999 -0.25L 3.99999 0.25ZM 4.61966 -0.173132L 2.21967 2.32687L 2.58036 2.67313L 4.98035 0.173133L 4.61966 -0.173132ZM 2.20301 2.65391L 4.70301 5.85391L 5.09702 5.54609L 2.59702 2.34609L 2.20301 2.65391ZM 4.90001 5.45L 4.09999 5.45L 4.09999 5.95L 4.90001 5.95L 4.90001 5.45ZM 4.29657 5.54554L 2.09659 2.74555L 1.70343 3.05445L 3.90341 5.85445L 4.29657 5.54554ZM 1.72324 2.72322L 0.523224 3.92322L 0.876776 4.27678L 2.07679 3.07678L 1.72324 2.72322ZM 0.45 4.1L 0.45 5.6L 0.95 5.6L 0.95 4.1L 0.45 4.1ZM 0.7 5.35L -1.2207e-05 5.35L -1.2207e-05 5.85L 0.7 5.85L 0.7 5.35ZM 0.249988 5.6L 0.249988 3.8147e-07L -0.250012 3.8147e-07L -0.250012 5.6L 0.249988 5.6ZM -1.2207e-05 0.25L 0.0999939 0.25L 0.0999939 -0.25L -1.2207e-05 -0.25L -1.2207e-05 0.25Z"/>
<path id="path20_fill" d="M 0 4.9L 0.399994 4.4C 0.899994 4.9 1.59999 5.2 2.29999 5.2C 3.09999 5.2 3.60001 4.8 3.60001 4.2C 3.60001 3.6 3.30001 3.4 2.10001 3.1C 0.800006 2.8 0.200012 2.4 0.200012 1.5C 0.200012 0.599999 1.00001 -7.62939e-07 2.10001 -7.62939e-07C 2.80001 -7.62939e-07 3.50001 0.2 4.10001 0.7L 3.70001 1.2C 3.20001 0.8 2.70001 0.6 2.10001 0.6C 1.40001 0.6 0.899994 0.999999 0.899994 1.5C 0.899994 2 1.19999 2.3 2.39999 2.6C 3.59999 2.9 4.20001 3.3 4.20001 4.2C 4.20001 5.2 3.39999 5.8 2.29999 5.8C 1.49999 5.9 0.7 5.5 0 4.9Z"/>
<path id="path21_stroke" d="M 0 4.9L -0.195218 4.74383L -0.346185 4.93254L -0.162698 5.08981L 0 4.9ZM 0.399994 4.4L 0.576771 4.22322L 0.379263 4.02572L 0.204776 4.24383L 0.399994 4.4ZM 2.10001 3.1L 2.16065 2.85742L 2.15622 2.8564L 2.10001 3.1ZM 4.10001 0.7L 4.29522 0.856172L 4.4483 0.664821L 4.26005 0.507945L 4.10001 0.7ZM 3.70001 1.2L 3.54384 1.39522L 3.73906 1.55139L 3.89523 1.35617L 3.70001 1.2ZM 2.29999 5.8L 2.29999 5.55L 2.28442 5.55L 2.26898 5.55193L 2.29999 5.8ZM 0.195218 5.05617L 0.595212 4.55617L 0.204776 4.24383L -0.195218 4.74383L 0.195218 5.05617ZM 0.223217 4.57678C 0.768159 5.12172 1.53099 5.45 2.29999 5.45L 2.29999 4.95C 1.66899 4.95 1.03183 4.67828 0.576771 4.22322L 0.223217 4.57678ZM 2.29999 5.45C 2.7389 5.45 3.12303 5.34046 3.40348 5.12234C 3.68983 4.89963 3.85001 4.57658 3.85001 4.2L 3.35001 4.2C 3.35001 4.42342 3.26017 4.60037 3.09651 4.72766C 2.92696 4.85954 2.66108 4.95 2.29999 4.95L 2.29999 5.45ZM 3.85001 4.2C 3.84931 4.03141 3.82155 3.85603 3.76365 3.71751C 3.70054 3.57855 3.58337 3.43625 3.44638 3.33483C 3.17633 3.13979 2.75391 3.00578 2.16064 2.85746L 2.03937 3.34254C 2.6461 3.49422 2.97369 3.61021 3.15363 3.74017C 3.24164 3.80125 3.27447 3.8402 3.30511 3.91687C 3.34096 3.99397 3.3507 4.06859 3.35001 4.2L 3.85001 4.2ZM 2.15622 2.8564C 1.51277 2.70791 1.08484 2.54271 0.818683 2.32978C 0.571723 2.13221 0.450012 1.88241 0.450012 1.5L -0.0499878 1.5C -0.0499878 2.01758 0.128298 2.41779 0.506335 2.72022C 0.865175 3.00729 1.38724 3.19209 2.04379 3.3436L 2.15622 2.8564ZM 0.450012 1.5C 0.450012 1.13161 0.61078 0.827783 0.890995 0.609837C 1.17576 0.388353 1.59324 0.249999 2.10001 0.249999L 2.10001 -0.250001C 1.50678 -0.250001 0.974257 -0.0883547 0.584024 0.215162C 0.189241 0.522216 -0.0499878 0.968388 -0.0499878 1.5L 0.450012 1.5ZM 2.10001 0.249999C 2.76533 0.247583 3.38312 0.420991 3.93996 0.892055L 4.26005 0.507945C 3.61689 -0.0209914 2.83468 -0.247584 2.10001 -0.250001L 2.10001 0.249999ZM 3.90479 0.543828L 3.50479 1.04383L 3.89523 1.35617L 4.29522 0.856172L 3.90479 0.543828ZM 3.85619 1.00478C 3.32588 0.583998 2.74728 0.35451 2.10001 0.35L 2.10001 0.85C 2.65273 0.845489 3.07414 1.016 3.54384 1.39522L 3.85619 1.00478ZM 2.10001 0.35C 1.32838 0.35 0.649994 0.803758 0.649994 1.5L 1.14999 1.5C 1.14999 1.19624 1.47164 0.85 2.10001 0.85L 2.10001 0.35ZM 0.649994 1.5C 0.649994 1.81636 0.752578 2.09372 1.04651 2.32234C 1.31559 2.53162 1.73488 2.69141 2.33936 2.84254L 2.46063 2.35746C 1.86511 2.20858 1.5344 2.06838 1.35348 1.92766C 1.19741 1.80627 1.14999 1.68364 1.14999 1.5L 0.649994 1.5ZM 2.33936 2.84254C 2.93181 2.99065 3.33534 3.15487 3.58996 3.36706C 3.82748 3.56499 3.95001 3.81675 3.95001 4.2L 4.45001 4.2C 4.45001 3.68325 4.27253 3.28501 3.91005 2.98294C 3.56466 2.69513 3.06818 2.50935 2.46063 2.35746L 2.33936 2.84254ZM 3.95001 4.2C 3.95001 4.62692 3.78223 4.95497 3.50458 5.18119C 3.22169 5.41169 2.80684 5.55 2.29999 5.55L 2.29999 6.05C 2.89314 6.05 3.4283 5.88831 3.82042 5.56881C 4.21779 5.24503 4.45001 4.77308 4.45001 4.2L 3.95001 4.2ZM 2.26898 5.55193C 1.57226 5.63902 0.84165 5.29215 0.162698 4.71019L -0.162698 5.08981C 0.55835 5.70786 1.42772 6.16098 2.331 6.04807L 2.26898 5.55193Z"/>
<path id="path22_fill" d="M 6.10352e-06 -3.8147e-07L 0.699988 -3.8147e-07L 2.79999 3.1L 4.9 -3.8147e-07L 5.50001 -3.8147e-07L 5.50001 5.7L 4.9 5.7L 4.9 1.1L 2.79999 4.1L 0.699988 1.1L 0.699988 5.7L 0.100012 5.7L 6.10352e-06 -3.8147e-07Z"/>
<path id="path23_stroke" d="M 6.10352e-06 -3.8147e-07L 6.10352e-06 -0.25L -0.254419 -0.25L -0.249955 0.00438518L 6.10352e-06 -3.8147e-07ZM 0.699988 -3.8147e-07L 0.906967 -0.140213L 0.832595 -0.25L 0.699988 -0.25L 0.699988 -3.8147e-07ZM 2.79999 3.1L 2.59301 3.24021L 2.79999 3.54575L 3.00697 3.24021L 2.79999 3.1ZM 4.9 -3.8147e-07L 4.9 -0.25L 4.76739 -0.25L 4.69302 -0.140213L 4.9 -3.8147e-07ZM 5.50001 -3.8147e-07L 5.75001 -3.8147e-07L 5.75001 -0.25L 5.50001 -0.25L 5.50001 -3.8147e-07ZM 5.50001 5.7L 5.50001 5.95L 5.75001 5.95L 5.75001 5.7L 5.50001 5.7ZM 4.9 5.7L 4.65 5.7L 4.65 5.95L 4.9 5.95L 4.9 5.7ZM 4.9 1.1L 5.15 1.1L 5.15 0.306911L 4.69519 0.956634L 4.9 1.1ZM 2.79999 4.1L 2.59519 4.24337L 2.79999 4.53595L 3.0048 4.24337L 2.79999 4.1ZM 0.699988 1.1L 0.904796 0.956634L 0.449988 0.306911L 0.449988 1.1L 0.699988 1.1ZM 0.699988 5.7L 0.699988 5.95L 0.949988 5.95L 0.949988 5.7L 0.699988 5.7ZM 0.100012 5.7L -0.149949 5.70439L -0.14564 5.95L 0.100012 5.95L 0.100012 5.7ZM 6.10352e-06 0.25L 0.699988 0.25L 0.699988 -0.25L 6.10352e-06 -0.25L 6.10352e-06 0.25ZM 0.493008 0.140212L 2.59301 3.24021L 3.00697 2.95979L 0.906967 -0.140213L 0.493008 0.140212ZM 3.00697 3.24021L 5.10698 0.140212L 4.69302 -0.140213L 2.59301 2.95979L 3.00697 3.24021ZM 4.9 0.25L 5.50001 0.25L 5.50001 -0.25L 4.9 -0.25L 4.9 0.25ZM 5.25001 -3.8147e-07L 5.25001 5.7L 5.75001 5.7L 5.75001 -3.8147e-07L 5.25001 -3.8147e-07ZM 5.50001 5.45L 4.9 5.45L 4.9 5.95L 5.50001 5.95L 5.50001 5.45ZM 5.15 5.7L 5.15 1.1L 4.65 1.1L 4.65 5.7L 5.15 5.7ZM 4.69519 0.956634L 2.59519 3.95663L 3.0048 4.24337L 5.10481 1.24337L 4.69519 0.956634ZM 3.0048 3.95663L 0.904796 0.956634L 0.49518 1.24337L 2.59519 4.24337L 3.0048 3.95663ZM 0.449988 1.1L 0.449988 5.7L 0.949988 5.7L 0.949988 1.1L 0.449988 1.1ZM 0.699988 5.45L 0.100012 5.45L 0.100012 5.95L 0.699988 5.95L 0.699988 5.45ZM 0.349974 5.69561L 0.249968 -0.00438594L -0.249955 0.00438518L -0.149949 5.70439L 0.349974 5.69561Z"/>
<path id="path24_fill" d="M 2.69999 -3.8147e-07L 3.3 -3.8147e-07L 5.90001 5.7L 5.19999 5.7L 4.50001 4.2L 1.40001 4.2L 0.699994 5.7L 1.2207e-05 5.7L 2.69999 -3.8147e-07ZM 4.3 3.6L 3.00001 0.7L 1.69999 3.6L 4.3 3.6Z"/>
<path id="path25_stroke" d="M 2.69999 -3.8147e-07L 2.69999 -0.25L 2.54179 -0.25L 2.47406 -0.107021L 2.69999 -3.8147e-07ZM 3.3 -3.8147e-07L 3.52745 -0.103752L 3.46074 -0.25L 3.3 -0.25L 3.3 -3.8147e-07ZM 5.90001 5.7L 5.90001 5.95L 6.28882 5.95L 6.12746 5.59625L 5.90001 5.7ZM 5.19999 5.7L 4.97345 5.80572L 5.04078 5.95L 5.19999 5.95L 5.19999 5.7ZM 4.50001 4.2L 4.72656 4.09428L 4.65923 3.95L 4.50001 3.95L 4.50001 4.2ZM 1.40001 4.2L 1.40001 3.95L 1.24079 3.95L 1.17346 4.09428L 1.40001 4.2ZM 0.699994 5.7L 0.699994 5.95L 0.859209 5.95L 0.926539 5.80572L 0.699994 5.7ZM 1.2207e-05 5.7L -0.225923 5.59298L -0.395037 5.95L 1.2207e-05 5.95L 1.2207e-05 5.7ZM 4.3 3.6L 4.3 3.85L 4.68604 3.85L 4.52813 3.49774L 4.3 3.6ZM 3.00001 0.7L 3.22814 0.597737L 3.00001 0.0888383L 2.77189 0.597735L 3.00001 0.7ZM 1.69999 3.6L 1.47187 3.49773L 1.31395 3.85L 1.69999 3.85L 1.69999 3.6ZM 2.69999 0.25L 3.3 0.25L 3.3 -0.25L 2.69999 -0.25L 2.69999 0.25ZM 3.07255 0.103751L 5.67255 5.80375L 6.12746 5.59625L 3.52745 -0.103752L 3.07255 0.103751ZM 5.90001 5.45L 5.19999 5.45L 5.19999 5.95L 5.90001 5.95L 5.90001 5.45ZM 5.42654 5.59428L 4.72656 4.09428L 4.27347 4.30572L 4.97345 5.80572L 5.42654 5.59428ZM 4.50001 3.95L 1.40001 3.95L 1.40001 4.45L 4.50001 4.45L 4.50001 3.95ZM 1.17346 4.09428L 0.473449 5.59428L 0.926539 5.80572L 1.62655 4.30572L 1.17346 4.09428ZM 0.699994 5.45L 1.2207e-05 5.45L 1.2207e-05 5.95L 0.699994 5.95L 0.699994 5.45ZM 0.225947 5.80702L 2.92593 0.107021L 2.47406 -0.107021L -0.225923 5.59298L 0.225947 5.80702ZM 4.52813 3.49774L 3.22814 0.597737L 2.77188 0.802264L 4.07187 3.70226L 4.52813 3.49774ZM 2.77189 0.597735L 1.47187 3.49773L 1.92812 3.70227L 3.22814 0.802266L 2.77189 0.597735ZM 1.69999 3.85L 4.3 3.85L 4.3 3.35L 1.69999 3.35L 1.69999 3.85Z"/>
<path id="path26_fill" d="M 0 -3.8147e-07L 2.39999 -3.8147e-07C 2.99999 -3.8147e-07 3.6 0.2 4 0.6C 4.3 0.9 4.39999 1.3 4.39999 1.7C 4.39999 2.6 3.79999 3.2 2.89999 3.3L 4.60001 5.6L 3.79999 5.6L 2.20001 3.4L 0.600006 3.4L 0.600006 5.6L 0 5.6L 0 -3.8147e-07ZM 2.39999 2.9C 3.29999 2.9 3.89999 2.5 3.89999 1.7C 3.89999 1 3.4 0.6 2.5 0.6L 0.799988 0.6L 0.799988 2.9L 2.39999 2.9Z"/>
<path id="path27_stroke" d="M 0 -3.8147e-07L 0 -0.25L -0.25 -0.25L -0.25 -3.8147e-07L 0 -3.8147e-07ZM 2.89999 3.3L 2.87239 3.05153L 2.4409 3.09947L 2.69895 3.4486L 2.89999 3.3ZM 4.60001 5.6L 4.60001 5.85L 5.09567 5.85L 4.80105 5.4514L 4.60001 5.6ZM 3.79999 5.6L 3.5978 5.74704L 3.67268 5.85L 3.79999 5.85L 3.79999 5.6ZM 2.20001 3.4L 2.4022 3.25296L 2.32732 3.15L 2.20001 3.15L 2.20001 3.4ZM 0.600006 3.4L 0.600006 3.15L 0.350006 3.15L 0.350006 3.4L 0.600006 3.4ZM 0.600006 5.6L 0.600006 5.85L 0.850006 5.85L 0.850006 5.6L 0.600006 5.6ZM 0 5.6L -0.25 5.6L -0.25 5.85L 0 5.85L 0 5.6ZM 0.799988 0.6L 0.799988 0.35L 0.549988 0.35L 0.549988 0.6L 0.799988 0.6ZM 0.799988 2.9L 0.549988 2.9L 0.549988 3.15L 0.799988 3.15L 0.799988 2.9ZM 0 0.25L 2.39999 0.25L 2.39999 -0.25L 0 -0.25L 0 0.25ZM 2.39999 0.25C 2.95037 0.25 3.48072 0.43427 3.82322 0.776777L 4.17678 0.423223C 3.71928 -0.0342704 3.04961 -0.25 2.39999 -0.25L 2.39999 0.25ZM 3.82322 0.776777C 4.0598 1.01336 4.14999 1.33853 4.14999 1.7L 4.64999 1.7C 4.64999 1.26147 4.5402 0.786645 4.17678 0.423223L 3.82322 0.776777ZM 4.14999 1.7C 4.14999 2.09185 4.0207 2.40315 3.80665 2.62738C 3.59115 2.85315 3.27395 3.00691 2.87239 3.05153L 2.9276 3.54847C 3.42604 3.49309 3.85884 3.29685 4.16833 2.97262C 4.47929 2.64686 4.64999 2.20816 4.64999 1.7L 4.14999 1.7ZM 2.69895 3.4486L 4.39896 5.7486L 4.80105 5.4514L 3.10104 3.1514L 2.69895 3.4486ZM 4.60001 5.35L 3.79999 5.35L 3.79999 5.85L 4.60001 5.85L 4.60001 5.35ZM 4.00217 5.45296L 2.4022 3.25296L 1.99783 3.54704L 3.5978 5.74704L 4.00217 5.45296ZM 2.20001 3.15L 0.600006 3.15L 0.600006 3.65L 2.20001 3.65L 2.20001 3.15ZM 0.350006 3.4L 0.350006 5.6L 0.850006 5.6L 0.850006 3.4L 0.350006 3.4ZM 0.600006 5.35L 0 5.35L 0 5.85L 0.600006 5.85L 0.600006 5.35ZM 0.25 5.6L 0.25 -3.8147e-07L -0.25 -3.8147e-07L -0.25 5.6L 0.25 5.6ZM 2.39999 3.15C 2.88236 3.15 3.318 3.04343 3.639 2.79886C 3.9698 2.54683 4.14999 2.16984 4.14999 1.7L 3.64999 1.7C 3.64999 2.03016 3.53019 2.25317 3.33598 2.40114C 3.13198 2.55657 2.81763 2.65 2.39999 2.65L 2.39999 3.15ZM 4.14999 1.7C 4.14999 1.28488 3.99837 0.932826 3.69241 0.69128C 3.39521 0.456644 2.98248 0.35 2.5 0.35L 2.5 0.85C 2.91752 0.85 3.20479 0.943356 3.38259 1.08372C 3.55163 1.21717 3.64999 1.41512 3.64999 1.7L 4.14999 1.7ZM 2.5 0.35L 0.799988 0.35L 0.799988 0.85L 2.5 0.85L 2.5 0.35ZM 0.549988 0.6L 0.549988 2.9L 1.04999 2.9L 1.04999 0.6L 0.549988 0.6ZM 0.799988 3.15L 2.39999 3.15L 2.39999 2.65L 0.799988 2.65L 0.799988 3.15Z"/>
<path id="path28_fill" d="M 1.9 0.6L 6.10352e-06 0.6L 6.10352e-06 -3.8147e-07L 4.4 -3.8147e-07L 4.4 0.6L 2.50001 0.6L 2.50001 5.7L 1.9 5.7L 1.9 0.6Z"/>
<path id="path29_stroke" d="M 1.9 0.6L 2.15 0.6L 2.15 0.35L 1.9 0.35L 1.9 0.6ZM 6.10352e-06 0.6L -0.249994 0.6L -0.249994 0.85L 6.10352e-06 0.85L 6.10352e-06 0.6ZM 6.10352e-06 -3.8147e-07L 6.10352e-06 -0.25L -0.249994 -0.25L -0.249994 -3.8147e-07L 6.10352e-06 -3.8147e-07ZM 4.4 -3.8147e-07L 4.65 -3.8147e-07L 4.65 -0.25L 4.4 -0.25L 4.4 -3.8147e-07ZM 4.4 0.6L 4.4 0.85L 4.65 0.85L 4.65 0.6L 4.4 0.6ZM 2.50001 0.6L 2.50001 0.35L 2.25001 0.35L 2.25001 0.6L 2.50001 0.6ZM 2.50001 5.7L 2.50001 5.95L 2.75001 5.95L 2.75001 5.7L 2.50001 5.7ZM 1.9 5.7L 1.65 5.7L 1.65 5.95L 1.9 5.95L 1.9 5.7ZM 1.9 0.35L 6.10352e-06 0.35L 6.10352e-06 0.85L 1.9 0.85L 1.9 0.35ZM 0.250006 0.6L 0.250006 -3.8147e-07L -0.249994 -3.8147e-07L -0.249994 0.6L 0.250006 0.6ZM 6.10352e-06 0.25L 4.4 0.25L 4.4 -0.25L 6.10352e-06 -0.25L 6.10352e-06 0.25ZM 4.15 -3.8147e-07L 4.15 0.6L 4.65 0.6L 4.65 -3.8147e-07L 4.15 -3.8147e-07ZM 4.4 0.35L 2.50001 0.35L 2.50001 0.85L 4.4 0.85L 4.4 0.35ZM 2.25001 0.6L 2.25001 5.7L 2.75001 5.7L 2.75001 0.6L 2.25001 0.6ZM 2.50001 5.45L 1.9 5.45L 1.9 5.95L 2.50001 5.95L 2.50001 5.45ZM 2.15 5.7L 2.15 0.6L 1.65 0.6L 1.65 5.7L 2.15 5.7Z"/>
<path id="path30_fill" d="M 0.500012 0L 1.2207e-05 0L 1.2207e-05 17.7L 0.500012 17.7L 0.500012 0Z"/>
<path id="path31_stroke" d="M 1.2207e-05 0L 1.2207e-05 -0.25L -0.249988 -0.25L -0.249988 0L 1.2207e-05 0ZM 0.500012 0L 0.750012 0L 0.750012 -0.25L 0.500012 -0.25L 0.500012 0ZM 0.500012 17.7L 0.500012 17.95L 0.750012 17.95L 0.750012 17.7L 0.500012 17.7ZM 1.2207e-05 17.7L -0.249988 17.7L -0.249988 17.95L 1.2207e-05 17.95L 1.2207e-05 17.7ZM 1.2207e-05 0.25L 0.500012 0.25L 0.500012 -0.25L 1.2207e-05 -0.25L 1.2207e-05 0.25ZM 0.250012 0L 0.250012 17.7L 0.750012 17.7L 0.750012 0L 0.250012 0ZM 0.500012 17.45L 1.2207e-05 17.45L 1.2207e-05 17.95L 0.500012 17.95L 0.500012 17.45ZM 0.250012 17.7L 0.250012 0L -0.249988 0L -0.249988 17.7L 0.250012 17.7Z"/>
<path id="path32_fill" d="M 5.9026 6.32245C 2.9026 6.92245 0.00259812 9.02245 0.00259812 12.4224C -0.0974019 16.0224 2.7026 18.4225 6.1026 19.1225C 6.1026 21.1225 6.0026 23.1225 6.0026 25.1225C 6.0026 25.4225 6.1026 25.6224 6.2026 25.8224C 6.2026 26.0224 6.3026 26.2224 6.5026 26.4224C 10.9026 31.2224 28.5026 31.8224 31.1026 25.5224C 31.2026 25.2224 31.2026 25.0224 31.1026 24.8224C 31.0026 18.3224 30.5026 11.9224 30.9026 5.42245C 31.0026 5.12245 31.1026 4.92245 31.1026 4.62245C 31.2026 2.82245 29.5026 1.62245 28.0026 1.12245C 25.4026 0.122448 22.5026 0.0224482 19.7026 0.122448C 19.6026 0.122448 19.5026 0.0224497 19.3026 0.0224497C 16.0026 -0.0775503 12.6026 0.122449 9.5026 1.32245C 8.2026 1.82245 6.6026 2.72245 6.0026 4.12245C 5.8026 4.32245 5.8026 4.52245 5.8026 4.82245C 5.9026 5.22245 5.9026 5.72245 5.9026 6.32245ZM 28.6026 4.02245C 28.9026 4.32245 28.9026 4.42245 28.9026 4.52245C 28.7026 5.12245 28.1026 5.52245 27.3026 5.82245C 27.2026 5.82245 27.2026 5.72245 27.1026 5.72245C 21.7026 3.12245 15.6026 3.42245 10.5026 6.52245C 10.4026 6.52245 10.4026 6.52245 10.3026 6.42245C 9.7026 6.22245 8.9026 6.02245 8.5026 5.52245C 8.2026 5.22245 8.2026 5.12245 8.2026 5.02245C 8.5026 4.02245 10.4026 3.42245 11.5026 3.12245C 16.1026 1.92245 22.2026 1.62245 26.7026 3.12245C 27.3026 3.22245 28.1026 3.52245 28.6026 4.02245ZM 13.6026 7.12245C 17.0026 5.72245 20.7026 5.52245 24.2026 6.72245C 20.9026 7.42245 17.1026 7.72245 13.6026 7.12245ZM 29.0026 25.0224C 27.1026 29.5224 11.4026 28.4224 8.1026 25.0224C 8.2026 19.4224 8.3026 13.7224 8.1026 8.12245C 8.4026 8.22245 8.6026 8.42245 8.9026 8.52245C 11.5026 9.52245 14.4026 9.62245 17.2026 9.52245C 17.3026 9.52245 17.4026 9.62245 17.6026 9.62245C 20.9026 9.72245 24.3026 9.52245 27.4026 8.32245C 27.8026 8.12245 28.2026 8.02245 28.7026 7.72245C 28.5026 13.4225 28.9026 19.2224 29.0026 25.0224C 29.0026 24.9224 29.0026 25.0224 29.0026 25.0224ZM 6.1026 16.9224C 4.0026 16.3224 1.9026 14.9224 2.1026 12.4224C 2.3026 10.2224 4.0026 8.92245 6.0026 8.42245C 6.1026 11.2224 6.1026 14.0224 6.1026 16.9224Z"/>
<path id="path33_stroke" d="M 5.9026 6.32245L 6.00066 6.81274L 6.4026 6.73235L 6.4026 6.32245L 5.9026 6.32245ZM 0.00259812 12.4224L 0.502598 12.4363L 0.502598 12.4224L 0.00259812 12.4224ZM 6.1026 19.1225L 6.6026 19.1225L 6.6026 18.7149L 6.20342 18.6327L 6.1026 19.1225ZM 6.2026 25.8224L 6.7026 25.8224L 6.7026 25.7044L 6.64981 25.5988L 6.2026 25.8224ZM 6.5026 26.4224L 6.87118 26.0846L 6.86383 26.0766L 6.85615 26.0689L 6.5026 26.4224ZM 31.1026 25.5224L 31.5648 25.7132L 31.5714 25.6971L 31.5769 25.6806L 31.1026 25.5224ZM 31.1026 24.8224L 30.6027 24.8301L 30.6044 24.9441L 30.6554 25.0461L 31.1026 24.8224ZM 30.9026 5.42245L 30.4283 5.26433L 30.4076 5.32642L 30.4035 5.39174L 30.9026 5.42245ZM 31.1026 4.62245L 30.6034 4.59471L 30.6026 4.60857L 30.6026 4.62245L 31.1026 4.62245ZM 28.0026 1.12245L 27.8231 1.58912L 27.8337 1.5932L 27.8445 1.59679L 28.0026 1.12245ZM 19.7026 0.122448L 19.7026 0.622448L 19.7115 0.622448L 19.7204 0.62213L 19.7026 0.122448ZM 19.3026 0.0224497L 19.2875 0.52222L 19.295 0.52245L 19.3026 0.52245L 19.3026 0.0224497ZM 9.5026 1.32245L 9.68209 1.78912L 9.68309 1.78873L 9.5026 1.32245ZM 6.0026 4.12245L 6.35615 4.476L 6.42424 4.40791L 6.46217 4.31941L 6.0026 4.12245ZM 5.8026 4.82245L 5.3026 4.82245L 5.3026 4.884L 5.31753 4.94372L 5.8026 4.82245ZM 28.9026 4.52245L 29.3769 4.68056L 29.4026 4.60359L 29.4026 4.52245L 28.9026 4.52245ZM 27.3026 5.82245L 27.3026 6.32245L 27.3933 6.32245L 27.4782 6.29061L 27.3026 5.82245ZM 27.1026 5.72245L 26.8857 6.17295L 26.9885 6.22245L 27.1026 6.22245L 27.1026 5.72245ZM 10.5026 6.52245L 10.5026 7.02245L 10.6426 7.02245L 10.7623 6.94971L 10.5026 6.52245ZM 10.3026 6.42245L 10.6562 6.06889L 10.5727 5.98543L 10.4607 5.94811L 10.3026 6.42245ZM 8.5026 5.52245L 8.89303 5.2101L 8.87573 5.18848L 8.85615 5.1689L 8.5026 5.52245ZM 8.2026 5.02245L 7.72368 4.87878L 7.7026 4.94907L 7.7026 5.02245L 8.2026 5.02245ZM 11.5026 3.12245L 11.3764 2.63861L 11.371 2.64007L 11.5026 3.12245ZM 26.7026 3.12245L 26.5445 3.59679L 26.5817 3.6092L 26.6204 3.61565L 26.7026 3.12245ZM 13.6026 7.12245L 13.4122 6.66011L 11.8056 7.32168L 13.5181 7.61526L 13.6026 7.12245ZM 24.2026 6.72245L 24.3064 7.21157L 26.076 6.83619L 24.3648 6.24948L 24.2026 6.72245ZM 29.0026 25.0224L 29.4632 25.2169L 29.5026 25.1237L 29.5026 25.0224L 29.0026 25.0224ZM 8.1026 25.0224L 7.60268 25.0135L 7.59896 25.2215L 7.74381 25.3707L 8.1026 25.0224ZM 8.1026 8.12245L 8.26071 7.64811L 7.5772 7.42027L 7.60292 8.14029L 8.1026 8.12245ZM 8.9026 8.52245L 9.08209 8.05578L 9.07149 8.0517L 9.06071 8.04811L 8.9026 8.52245ZM 17.2026 9.52245L 17.2026 9.02245L 17.1937 9.02245L 17.1848 9.02277L 17.2026 9.52245ZM 17.6026 9.62245L 17.6177 9.12268L 17.6102 9.12245L 17.6026 9.12245L 17.6026 9.62245ZM 27.4026 8.32245L 27.5831 8.78873L 27.6051 8.78021L 27.6262 8.76966L 27.4026 8.32245ZM 28.7026 7.72245L 29.2023 7.73998L 29.2346 6.82018L 28.4454 7.2937L 28.7026 7.72245ZM 6.1026 16.9224L 5.96524 17.4032L 6.6026 17.5853L 6.6026 16.9224L 6.1026 16.9224ZM 2.1026 12.4224L 1.60462 12.3772L 1.60419 12.3826L 2.1026 12.4224ZM 6.0026 8.42245L 6.50228 8.4046L 6.48025 7.78765L 5.88133 7.93738L 6.0026 8.42245ZM 5.80454 5.83216C 2.69298 6.45447 -0.497402 8.67838 -0.497402 12.4224L 0.502598 12.4224C 0.502598 9.36652 3.11221 7.39043 6.00066 6.81274L 5.80454 5.83216ZM -0.497209 12.4086C -0.606301 16.3359 2.45848 18.8827 6.00177 19.6122L 6.20342 18.6327C 2.94671 17.9622 0.411497 15.709 0.502405 12.4363L -0.497209 12.4086ZM 5.6026 19.1225C 5.60275 21.11 5.50275 23.11 5.5026 25.1225L 6.5026 25.1225C 6.50244 23.1349 6.60244 21.1349 6.6026 19.1225L 5.6026 19.1225ZM 5.5026 25.1225C 5.51597 25.5373 5.65539 25.8461 5.75538 26.0461L 6.64981 25.5988C 6.54981 25.3988 6.48922 25.3076 6.5026 25.1225L 5.5026 25.1225ZM 5.7026 25.8224C 5.7026 26.2018 5.89455 26.5215 6.14904 26.776L 6.85615 26.0689C 6.71065 25.9234 6.7026 25.8431 6.7026 25.8224L 5.7026 25.8224ZM 6.13402 26.7603C 7.32854 28.0634 9.36207 29.033 11.7048 29.675C 14.0498 30.3162 16.8116 30.6529 19.4812 30.6349C 22.152 30.6148 24.8172 30.2358 26.9509 29.466C 29.0913 28.691 30.8365 27.478 31.5648 25.7132L 30.6404 25.3317C 30.0687 26.7169 28.6389 27.7913 26.6105 28.5258C 24.5755 29.2654 22.0782 29.6176 19.474 29.635C 16.8686 29.6545 14.2429 29.335 11.9691 28.7105C 9.69312 28.0869 7.87665 27.1815 6.87118 26.0846L 6.13402 26.7603ZM 31.5769 25.6806C 31.7013 25.3074 31.73 24.9593 31.5498 24.5988L 30.6554 25.0461C 30.6725 25.0804 30.6776 25.1041 30.6776 25.1349C 30.6776 25.1743 30.6687 25.2429 30.6283 25.3643L 31.5769 25.6806ZM 31.6025 24.8148C 31.5021 18.2991 31.0026 11.9183 31.4017 5.45316L 30.4035 5.39174C 30.0026 11.9266 30.5031 18.3458 30.6027 24.8301L 31.6025 24.8148ZM 31.3769 5.58056C 31.4645 5.31379 31.5892 5.03733 31.6026 4.62245L 30.6026 4.62245C 30.616 4.80757 30.5407 4.9311 30.4283 5.26433L 31.3769 5.58056ZM 31.6018 4.65018C 31.6619 3.56909 31.1753 2.68659 30.5024 2.02769C 29.8478 1.39391 28.9496 0.912905 28.1607 0.648107L 27.8445 1.59679C 28.5556 1.83199 29.2574 2.20099 29.8028 2.7422C 30.3299 3.2583 30.6433 3.87581 30.6034 4.59471L 31.6018 4.65018ZM 28.1821 0.655775C 25.5023 -0.367503 22.5023 -0.477552 19.6848 -0.377233L 19.7204 0.62213C 22.5029 0.522448 25.3029 0.6124 27.8231 1.58912L 28.1821 0.655775ZM 19.7026 -0.377552C 19.732 -0.377552 19.7552 -0.373858 19.7702 -0.37064C 19.7663 -0.371579 19.7882 -0.366121 19.7869 -0.366435C 19.7859 -0.366777 19.791 -0.365213 19.7924 -0.364673C 19.8005 -0.362231 19.7658 -0.375707 19.7258 -0.391791C 19.6496 -0.422044 19.4827 -0.471094 19.3026 -0.47755L 19.3026 0.52245C 19.3225 0.515994 19.3056 0.516943 19.3544 0.536689C 19.3769 0.545604 19.4146 0.562012 19.4596 0.57832C 19.5092 0.59581 19.5957 0.622448 19.7026 0.622448L 19.7026 -0.377552ZM 19.3177 -0.477321C 15.9955 -0.5775 12.4964 -0.366141 9.3221 0.856165L 9.68309 1.78873C 12.7088 0.611039 16.0097 0.422399 19.2875 0.52222L 19.3177 -0.477321ZM 9.32311 0.855776C 8.00611 1.36231 6.22914 2.32457 5.54303 3.92549L 6.46217 4.31941C 6.97606 3.12033 8.39909 2.28258 9.68209 1.78912L 9.32311 0.855776ZM 5.64904 3.7689C 5.28553 4.13241 5.3026 4.5411 5.3026 4.82245L 6.3026 4.82245C 6.3026 4.6571 6.30498 4.5916 6.31569 4.54341C 6.32047 4.52191 6.32471 4.50745 6.35615 4.476L 5.64904 3.7689ZM 5.31753 4.94372C 5.40634 5.28354 5.4026 5.72245 5.4026 6.32245L 6.4026 6.32245C 6.4026 5.72245 6.39885 5.16136 6.28767 4.70118L 5.31753 4.94372ZM 28.249 4.376C 28.315 4.44191 28.3574 4.48998 28.3845 4.52402C 28.4116 4.55818 28.4187 4.57261 28.4179 4.57106C 28.4155 4.56623 28.4086 4.54999 28.4047 4.52652C 28.4017 4.50848 28.4026 4.49457 28.4026 4.52245L 29.4026 4.52245C 29.4026 4.47245 29.3892 4.30757 29.3123 4.12384C 29.2387 3.97667 29.1187 3.83144 28.9562 3.6689L 28.249 4.376ZM 28.4283 4.36434C 28.3047 4.73487 27.9018 5.06374 27.127 5.35428L 27.4782 6.29061C 28.3034 5.98116 29.1005 5.51003 29.3769 4.68056L 28.4283 4.36434ZM 27.3026 5.32245C 27.3701 5.32245 27.4401 5.34183 27.5005 5.37808C 27.546 5.40542 27.5752 5.43796 27.5562 5.4189C 27.5502 5.41296 27.496 5.35542 27.4192 5.30933C 27.3276 5.25433 27.2201 5.22245 27.1026 5.22245L 27.1026 6.22245C 27.0351 6.22245 26.9651 6.20307 26.9047 6.16682C 26.8592 6.13948 26.83 6.10694 26.849 6.126C 26.855 6.13194 26.9092 6.18948 26.986 6.23557C 27.0776 6.29057 27.1851 6.32245 27.3026 6.32245L 27.3026 5.32245ZM 27.3195 5.27195C 21.7672 2.5986 15.4878 2.90712 10.2429 6.09519L 10.7623 6.94971C 15.7174 3.93778 21.638 3.64631 26.8857 6.17295L 27.3195 5.27195ZM 10.5026 6.02245C 10.4901 6.02245 10.4842 6.02247 10.4794 6.02235C 10.476 6.02229 10.4821 6.02228 10.493 6.02337C 10.5215 6.02622 10.5713 6.03528 10.6262 6.06274C 10.6501 6.07471 10.6681 6.08675 10.6797 6.09521C 10.6853 6.09938 10.6896 6.10279 10.6922 6.10498C 10.6914 6.10423 10.6959 6.10805 10.6965 6.10862C 10.6989 6.1107 10.6932 6.10563 10.6858 6.09835C 10.6778 6.09055 10.6687 6.08139 10.6562 6.06889L 9.94904 6.776C 9.97404 6.801 10.0022 6.82892 10.0275 6.8519C 10.0562 6.87779 10.1076 6.92147 10.179 6.95716C 10.3315 7.03343 10.4905 7.02245 10.5026 7.02245L 10.5026 6.02245ZM 10.4607 5.94811C 10.1504 5.84478 9.819 5.75095 9.52242 5.62446C 9.2252 5.49872 9.01591 5.36371 8.89303 5.2101L 8.11216 5.8348C 8.38928 6.18119 8.78 6.39618 9.13278 6.54543C 9.4862 6.69395 9.85483 6.80011 10.1445 6.89679L 10.4607 5.94811ZM 8.85615 5.1689C 8.79024 5.10299 8.74775 5.05492 8.72072 5.02088C 8.69358 4.98672 8.68654 4.97229 8.68731 4.97384C 8.68972 4.97867 8.69657 4.99491 8.70048 5.01838C 8.70349 5.03642 8.7026 5.05033 8.7026 5.02245L 7.7026 5.02245C 7.7026 5.07245 7.71597 5.23733 7.79288 5.42106C 7.86647 5.56823 7.9865 5.71346 8.14904 5.876L 8.85615 5.1689ZM 8.68151 5.16612C 8.76382 4.89176 9.12228 4.57162 9.76925 4.26058C 10.3833 3.96365 11.0902 3.75313 11.6342 3.60483L 11.371 2.64007C 10.815 2.79176 10.0219 3.03125 9.33595 3.35932C 8.68292 3.67328 7.94138 4.15314 7.72368 4.87878L 8.68151 5.16612ZM 11.6288 3.60626C 16.1695 2.42172 22.1651 2.13699 26.5445 3.59679L 26.8607 2.64811C 22.2401 1.10791 16.0357 1.42317 11.3764 2.63864L 11.6288 3.60626ZM 26.6204 3.61565C 27.1605 3.70566 27.8484 3.9754 28.249 4.376L 28.9562 3.6689C 28.3568 3.0695 27.4447 2.73924 26.7848 2.62925L 26.6204 3.61565ZM 13.793 7.58479C 17.1128 6.21014 20.6337 6.01769 24.0404 7.19542L 24.3648 6.24948C 20.7715 5.02721 16.8924 5.23475 13.4122 6.66011L 13.793 7.58479ZM 24.0988 6.23333C 20.8309 6.92762 17.1253 7.22297 13.6871 6.62964L 13.5181 7.61526C 17.0799 8.22193 20.9743 7.91728 24.3064 7.21157L 24.0988 6.23333ZM 28.542 24.828C 28.1632 25.725 27.0338 26.4466 25.2709 26.9158C 23.5244 27.3827 21.3528 27.5538 19.0926 27.4852C 16.8312 27.4179 14.5555 27.11 12.619 26.6057C 10.6688 26.0988 9.18504 25.4198 8.46139 24.6742L 7.74381 25.3707C 8.67016 26.3251 10.3864 27.0586 12.3674 27.5736C 14.3622 28.0911 16.749 28.4145 19.0626 28.4847C 21.3774 28.5535 23.6933 28.3684 25.5281 27.8822C 27.3463 27.3983 28.892 26.5698 29.4632 25.2169L 28.542 24.828ZM 8.60252 25.0314C 8.70252 19.4313 8.80258 13.7179 8.60228 8.1046L 7.60292 8.14029C 7.80262 13.727 7.70268 19.4136 7.60268 25.0135L 8.60252 25.0314ZM 7.94448 8.59679C 8.04367 8.6267 8.12035 8.67619 8.24535 8.75119C 8.37035 8.82619 8.54367 8.92671 8.74448 8.99679L 9.06071 8.04811C 8.96153 8.01819 8.88485 7.9687 8.75985 7.8937C 8.63485 7.8187 8.46153 7.71819 8.26071 7.64811L 7.94448 8.59679ZM 8.72311 8.98912C 11.4029 10.0124 14.4029 10.1224 17.2204 10.0221L 17.1848 9.02277C 14.4023 9.12245 11.6023 9.0325 9.08209 8.05578L 8.72311 8.98912ZM 17.2026 10.0224C 17.1732 10.0224 17.15 10.0188 17.135 10.0155C 17.1389 10.0165 17.117 10.011 17.1183 10.0113C 17.1193 10.0117 17.1142 10.0101 17.1128 10.0096C 17.1047 10.0071 17.1394 10.0206 17.1794 10.0367C 17.2556 10.0669 17.4225 10.116 17.6026 10.1224L 17.6026 9.12245C 17.5827 9.1289 17.5996 9.12796 17.5508 9.10821C 17.5283 9.09929 17.4906 9.08289 17.4456 9.06658C 17.396 9.04909 17.3095 9.02245 17.2026 9.02245L 17.2026 10.0224ZM 17.5875 10.1222C 20.9097 10.2224 24.4088 10.011 27.5831 8.78873L 27.2221 7.85616C 24.1964 9.03386 20.8955 9.2225 17.6177 9.12268L 17.5875 10.1222ZM 27.6262 8.76966C 27.9761 8.59139 28.3939 8.48439 28.9598 8.1512L 28.4454 7.2937C 28.0113 7.56051 27.6291 7.65351 27.179 7.87524L 27.6262 8.76966ZM 28.2029 7.70492C 28.0027 13.4309 28.4031 19.244 28.5027 25.0311L 29.5025 25.0138C 29.4021 19.2009 29.0025 13.414 29.2023 7.73998L 28.2029 7.70492ZM 29.5026 25.0224C 29.5026 24.9974 29.5026 24.9849 29.5026 24.9803C 29.5026 24.9791 29.5026 24.9784 29.5026 24.9781C 29.5026 24.9781 29.5026 24.978 29.5026 24.978C 29.5026 24.978 29.5026 24.978 29.5026 24.978C 29.5026 24.978 29.0026 24.978 28.5026 24.978C 28.5026 24.978 28.5026 24.978 28.5026 24.978C 28.5026 24.978 28.5026 24.978 28.5026 24.978C 28.5026 24.9781 28.5026 24.9783 28.5026 24.9785C 28.5026 24.9795 28.5026 24.9818 28.5026 24.9849C 28.5026 24.9912 28.5026 25.0006 28.5026 25.0084C 28.5026 25.0123 28.5026 25.0158 28.5026 25.0183C 28.5026 25.0196 28.5026 25.0206 28.5026 25.0213C 28.5026 25.0217 28.5026 25.022 28.5026 25.0222C 28.5026 25.0223 28.5026 25.0223 28.5026 25.0224C 28.5026 25.0224 28.5026 25.0224 28.5026 25.0224C 28.5026 25.0224 28.5026 25.0224 28.5026 25.0224L 28.5026 25.0224C 28.5026 25.0224 28.5026 25.0224 29.0026 25.0224C 29.5026 25.0224 29.5026 25.0224 29.5026 25.0224L 29.5026 25.0224C 29.5026 25.0224 29.5026 25.0224 29.5026 25.0224C 29.5026 25.0224 29.5026 25.0224 29.5026 25.0224C 29.5026 25.0223 29.5026 25.0223 29.5026 25.0222C 29.5026 25.022 29.5026 25.0217 29.5026 25.0213C 29.5026 25.0206 29.5026 25.0196 29.5026 25.0183C 29.5026 25.0158 29.5026 25.0123 29.5026 25.0084C 29.5026 25.0006 29.5026 24.9912 29.5026 24.9849C 29.5026 24.9818 29.5026 24.9795 29.5026 24.9785C 29.5026 24.9783 29.5026 24.9781 29.5026 24.978C 29.5026 24.978 29.5026 24.978 29.5026 24.978C 29.5026 24.978 29.5026 24.978 29.5026 24.978C 29.0026 24.978 28.5026 24.978 28.5026 24.978C 28.5026 24.978 28.5026 24.978 28.5026 24.978C 28.5026 24.978 28.5026 24.9781 28.5026 24.9781C 28.5026 24.9784 28.5026 24.9791 28.5026 24.9803C 28.5026 24.9849 28.5026 24.9974 28.5026 25.0224L 29.5026 25.0224ZM 6.23996 16.4417C 4.18848 15.8555 2.43176 14.5779 2.60101 12.4623L 1.60419 12.3826C 1.37344 15.267 3.81671 16.7893 5.96524 17.4032L 6.23996 16.4417ZM 2.60054 12.4677C 2.77413 10.5583 4.24118 9.37819 6.12387 8.90752L 5.88133 7.93738C 3.76402 8.4667 1.83107 9.88658 1.60465 12.3772L 2.60054 12.4677ZM 5.50292 8.44029C 5.60268 11.2314 5.6026 14.0224 5.6026 16.9224L 6.6026 16.9224C 6.6026 14.0224 6.60252 11.2135 6.50228 8.4046L 5.50292 8.44029Z"/>
<path id="path34_fill" d="M 2.43533 6.4901C 4.63533 4.6901 4.43533 2.1901 2.43533 0.290103C 1.53533 -0.609897 0.135328 0.790101 1.03533 1.6901C 2.23533 2.8901 2.43533 3.9901 1.03533 5.0901C 0.935328 5.1901 0.835329 5.2901 0.835329 5.2901C 0.735329 5.3901 0.735329 5.3901 0.735329 5.3901C -0.564671 7.1901 -0.0646713 9.0901 1.63533 10.3901C 2.03533 10.6901 2.73533 10.4901 3.03533 9.9901C 3.33533 9.4901 3.13533 8.9901 2.63533 8.5901C 1.73533 8.0901 1.83533 7.2901 2.43533 6.4901C 2.33533 6.5901 2.43533 6.4901 2.43533 6.4901Z"/>
<path id="path35_stroke" d="M 2.43533 6.4901L 2.11871 6.10312L 2.09941 6.11891L 2.08178 6.13655L 2.43533 6.4901ZM 2.43533 0.290103L 2.08166 0.643773L 2.09096 0.652603L 2.43533 0.290103ZM 1.03533 5.0901L 0.726418 4.69694L 0.702912 4.71541L 0.681775 4.73655L 1.03533 5.0901ZM 0.835329 5.2901L 1.18888 5.64366L 1.18889 5.64365L 0.835329 5.2901ZM 0.735329 5.3901L 1.22054 5.26939L 0.960538 4.22429L 0.329989 5.09736L 0.735329 5.3901ZM 1.63533 10.3901L 1.33159 10.7873L 1.33533 10.7901L 1.63533 10.3901ZM 2.63533 8.5901L 2.94768 8.19967L 2.91487 8.17342L 2.87815 8.15302L 2.63533 8.5901ZM 2.75195 6.87708C 3.95105 5.89599 4.53929 4.68177 4.5102 3.41611C 4.48139 2.16306 3.84972 0.944117 2.7797 -0.0723965L 2.09096 0.652603C 3.02094 1.53609 3.48927 2.51714 3.51046 3.43909C 3.53137 4.34843 3.11961 5.28421 2.11871 6.10312L 2.75195 6.87708ZM 2.78888 -0.0634501C 2.46336 -0.388971 2.06502 -0.526157 1.67198 -0.495924C 1.29276 -0.466754 0.953712 -0.285387 0.706776 -0.0384517C 0.45984 0.208484 0.278472 0.547532 0.249301 0.926753C 0.219068 1.31979 0.356254 1.71813 0.681775 2.04365L 1.38888 1.33655C 1.2644 1.21207 1.23909 1.09792 1.24636 1.00345C 1.25469 0.895171 1.31082 0.77172 1.41388 0.668656C 1.51695 0.565592 1.6404 0.509459 1.74868 0.50113C 1.84314 0.493864 1.9573 0.519178 2.08178 0.643657L 2.78888 -0.0634501ZM 0.681775 2.04365C 1.25387 2.61575 1.49426 3.07707 1.51082 3.4498C 1.52586 3.78823 1.35903 4.19989 0.726418 4.69694L 1.34424 5.48326C 2.11163 4.88031 2.54479 4.19197 2.50984 3.4054C 2.4764 2.65313 2.01679 1.96446 1.38888 1.33655L 0.681775 2.04365ZM 0.681775 4.73655C 0.631774 4.78655 0.581773 4.83655 0.544273 4.87405C 0.525523 4.8928 0.509898 4.90843 0.498961 4.91937C 0.493492 4.92483 0.489195 4.92913 0.486265 4.93206C 0.4848 4.93353 0.483677 4.93465 0.48292 4.93541C 0.482542 4.93578 0.482255 4.93607 0.482063 4.93626C 0.481967 4.93636 0.481894 4.93643 0.481846 4.93648C 0.481821 4.9365 0.481803 4.93652 0.481791 4.93653C 0.481785 4.93654 0.48178 4.93655 0.481777 4.93655C 0.481776 4.93655 0.481775 4.93655 0.481774 4.93655C 0.481773 4.93655 0.481773 4.93655 0.835329 5.2901C 1.18889 5.64365 1.18889 5.64365 1.18889 5.64365C 1.18889 5.64365 1.18889 5.64365 1.18889 5.64365C 1.18889 5.64365 1.1889 5.64364 1.1889 5.64364C 1.18892 5.64362 1.18893 5.6436 1.18896 5.64358C 1.18901 5.64353 1.18908 5.64346 1.18918 5.64336C 1.18937 5.64317 1.18966 5.64288 1.19003 5.64251C 1.19079 5.64175 1.19191 5.64063 1.19338 5.63916C 1.19631 5.63623 1.2006 5.63194 1.20607 5.62647C 1.21701 5.61553 1.23263 5.5999 1.25138 5.58115C 1.28888 5.54365 1.33888 5.49366 1.38888 5.44366L 0.681775 4.73655ZM 0.481776 4.93655C 0.431778 4.98655 0.406781 5.01154 0.394283 5.02404C 0.388036 5.03029 0.384918 5.03341 0.383358 5.03497C 0.382584 5.03574 0.382207 5.03612 0.382018 5.03631C 0.381934 5.03639 0.38189 5.03643 0.381901 5.03642C 0.381887 5.03644 0.382012 5.03631 0.381988 5.03634C 0.381935 5.03639 0.382255 5.03607 0.382201 5.03612C 0.382093 5.03623 0.382743 5.03558 0.382634 5.03569C 0.382417 5.03591 0.383722 5.03461 0.383505 5.03483C 0.383942 5.0344 0.384819 5.03353 0.385259 5.0331C 0.871433 4.90898 1.22054 5.26939 0.735329 5.3901C 0.250119 5.51081 0.599226 5.87122 1.0854 5.7471C 1.08584 5.74667 1.08672 5.74581 1.08715 5.74538C 1.08737 5.74516 1.08781 5.74473 1.08802 5.74451C 1.08813 5.7444 1.08835 5.74419 1.08846 5.74408C 1.08851 5.74403 1.08862 5.74392 1.08868 5.74386C 1.08871 5.74383 1.08877 5.74377 1.08881 5.74373C 1.08884 5.74369 1.08892 5.74362 1.08903 5.74351C 1.08923 5.74331 1.08964 5.7429 1.09042 5.74211C 1.09199 5.74055 1.09512 5.73742 1.10138 5.73116C 1.11388 5.71866 1.13888 5.69366 1.18888 5.64366L 0.481776 4.93655ZM 0.329989 5.09736C -0.390795 6.09537 -0.635958 7.1604 -0.429686 8.17702C -0.225283 9.18444 0.409352 10.082 1.3316 10.7873L 1.93905 9.99292C 1.16131 9.39817 0.695941 8.69576 0.550344 7.97818C 0.406616 7.2698 0.561453 6.48484 1.14067 5.68285L 0.329989 5.09736ZM 1.33533 10.7901C 1.69389 11.059 2.14262 11.0759 2.51019 10.9709C 2.88237 10.8645 3.24252 10.6166 3.46407 10.2473L 2.60658 9.73285C 2.52813 9.8636 2.38829 9.96567 2.23547 10.0093C 2.07804 10.0543 1.97677 10.0212 1.93533 9.9901L 1.33533 10.7901ZM 3.46407 10.2473C 3.68446 9.88003 3.73212 9.48205 3.61212 9.10204C 3.49779 8.73999 3.24608 8.43839 2.94768 8.19967L 2.32298 8.98054C 2.52457 9.14181 2.62287 9.29022 2.65854 9.40317C 2.68853 9.49815 2.68619 9.60017 2.60658 9.73285L 3.46407 10.2473ZM 2.87815 8.15302C 2.54637 7.9687 2.47772 7.78581 2.47253 7.63537C 2.46574 7.43849 2.56455 7.15114 2.83533 6.7901L 2.03533 6.1901C 1.70611 6.62906 1.45492 7.14171 1.47313 7.66983C 1.49294 8.2444 1.82428 8.7115 2.39251 9.02718L 2.87815 8.15302ZM 2.08178 6.13655C 2.05678 6.16155 2.04428 6.17405 2.03959 6.17873C 2.03842 6.17991 2.03773 6.18059 2.03747 6.18086C 2.0374 6.18093 2.03736 6.18097 2.03734 6.18098C 2.03734 6.18099 2.03733 6.18099 2.03733 6.18099C 2.03733 6.18099 2.39089 6.53454 2.74444 6.8881C 2.74444 6.8881 2.74444 6.8881 2.74444 6.8881C 2.74444 6.88809 2.74446 6.88808 2.74447 6.88807C 2.74454 6.888 2.74469 6.88784 2.74494 6.8876C 2.74591 6.88662 2.74826 6.88428 2.75138 6.88115C 2.75763 6.8749 2.76701 6.86553 2.77482 6.85772C 2.77873 6.85381 2.78224 6.85029 2.78478 6.84776C 2.78605 6.84649 2.78708 6.84546 2.78778 6.84475C 2.78814 6.8444 2.78841 6.84412 2.7886 6.84394C 2.78869 6.84384 2.78876 6.84377 2.78881 6.84373C 2.78884 6.8437 2.78885 6.84368 2.78887 6.84367C 2.78887 6.84367 2.78888 6.84366 2.78888 6.84366C 2.78888 6.84366 2.78888 6.84366 2.78888 6.84366C 2.78888 6.84365 2.78888 6.84365 2.43533 6.4901C 2.08178 6.13655 2.08178 6.13655 2.08178 6.13655C 2.08177 6.13655 2.08177 6.13655 2.08177 6.13655C 2.08177 6.13655 2.08176 6.13656 2.08176 6.13657C 2.08175 6.13658 2.08173 6.1366 2.0817 6.13662C 2.08166 6.13667 2.08159 6.13674 2.08149 6.13683C 2.08131 6.13702 2.08103 6.13729 2.08068 6.13765C 2.07997 6.13835 2.07894 6.13938 2.07767 6.14065C 2.07514 6.14319 2.07162 6.1467 2.06771 6.15061C 2.0599 6.15842 2.05053 6.1678 2.04428 6.17405C 2.04115 6.17717 2.03881 6.17952 2.03783 6.18049C 2.03759 6.18074 2.03743 6.1809 2.03736 6.18096C 2.03735 6.18098 2.03734 6.18099 2.03733 6.18099C 2.03733 6.18099 2.03733 6.18099 2.03733 6.18099C 2.39089 6.53454 2.74444 6.8881 2.74444 6.8881C 2.74444 6.8881 2.74444 6.88809 2.74445 6.88809C 2.74446 6.88807 2.7445 6.88803 2.74457 6.88797C 2.74484 6.8877 2.74552 6.88701 2.7467 6.88584C 2.75138 6.88115 2.76388 6.86865 2.78888 6.84365L 2.08178 6.13655Z"/>
<path id="path36_fill" d="M 2.43533 6.4901C 4.63533 4.6901 4.43533 2.1901 2.43533 0.290103C 1.53533 -0.609897 0.135329 0.790101 1.03533 1.6901C 2.23533 2.8901 2.43533 3.9901 1.03533 5.0901C 0.935329 5.1901 0.835329 5.2901 0.835329 5.2901L 0.735329 5.3901C -0.564671 7.1901 -0.0646712 9.0901 1.63533 10.3901C 2.03533 10.6901 2.73533 10.4901 3.03533 9.9901C 3.33533 9.4901 3.13533 8.9901 2.63533 8.5901C 1.73533 8.0901 1.83533 7.2901 2.43533 6.4901C 2.33533 6.5901 2.33533 6.4901 2.43533 6.4901Z"/>
<path id="path37_stroke" d="M 2.43533 0.290103L 2.08166 0.643773L 2.09095 0.652603L 2.43533 0.290103ZM 1.03533 5.0901L 0.726419 4.69694L 0.702913 4.71541L 0.681776 4.73655L 1.03533 5.0901ZM 0.835329 5.2901L 1.18888 5.64366L 1.18888 5.64366L 0.835329 5.2901ZM 0.735329 5.3901L 0.381778 5.03655L 0.353447 5.06488L 0.32999 5.09736L 0.735329 5.3901ZM 1.63533 10.3901L 1.33159 10.7873L 1.33533 10.7901L 1.63533 10.3901ZM 2.63533 8.5901L 2.94768 8.19967L 2.91487 8.17342L 2.87815 8.15302L 2.63533 8.5901ZM 2.75195 6.87708C 3.95105 5.89599 4.53929 4.68177 4.5102 3.41611C 4.48139 2.16306 3.84972 0.944117 2.7797 -0.0723965L 2.09095 0.652603C 3.02094 1.53609 3.48927 2.51714 3.51046 3.43909C 3.53137 4.34843 3.11961 5.28421 2.11871 6.10312L 2.75195 6.87708ZM 2.78888 -0.0634501C 2.46336 -0.388971 2.06501 -0.526157 1.67198 -0.495924C 1.29276 -0.466754 0.953712 -0.285387 0.706776 -0.0384515C 0.459841 0.208484 0.278473 0.547533 0.249302 0.926753C 0.219069 1.31979 0.356255 1.71813 0.681776 2.04365L 1.38888 1.33655C 1.2644 1.21207 1.23909 1.09792 1.24636 1.00345C 1.25469 0.895171 1.31082 0.77172 1.41388 0.668656C 1.51695 0.565592 1.6404 0.509459 1.74868 0.50113C 1.84314 0.493864 1.9573 0.519178 2.08178 0.643657L 2.78888 -0.0634501ZM 0.681776 2.04365C 1.25387 2.61575 1.49426 3.07707 1.51082 3.4498C 1.52586 3.78823 1.35903 4.19989 0.726419 4.69694L 1.34424 5.48326C 2.11163 4.88031 2.5448 4.19197 2.50984 3.4054C 2.4764 2.65313 2.01679 1.96446 1.38888 1.33655L 0.681776 2.04365ZM 0.681776 4.73655C 0.631776 4.78655 0.581776 4.83655 0.544276 4.87405C 0.525526 4.8928 0.509901 4.90842 0.498963 4.91936C 0.493494 4.92483 0.489197 4.92913 0.486268 4.93206C 0.484803 4.93352 0.48368 4.93465 0.482923 4.9354C 0.482544 4.93578 0.482257 4.93607 0.482065 4.93626C 0.481969 4.93636 0.481897 4.93643 0.481848 4.93648C 0.481824 4.9365 0.481806 4.93652 0.481794 4.93653C 0.481788 4.93654 0.481783 4.93654 0.48178 4.93655C 0.481778 4.93655 0.481777 4.93655 0.481776 4.93655C 0.481776 4.93655 0.481775 4.93655 0.835329 5.2901C 1.18888 5.64366 1.18888 5.64366 1.18888 5.64366C 1.18888 5.64365 1.18889 5.64365 1.18889 5.64365C 1.18889 5.64365 1.18889 5.64364 1.1889 5.64364C 1.18891 5.64363 1.18893 5.64361 1.18895 5.64358C 1.189 5.64354 1.18908 5.64346 1.18917 5.64337C 1.18936 5.64317 1.18965 5.64289 1.19003 5.64251C 1.19079 5.64175 1.19191 5.64063 1.19337 5.63916C 1.1963 5.63623 1.2006 5.63194 1.20607 5.62647C 1.21701 5.61553 1.23263 5.59991 1.25138 5.58116C 1.28888 5.54366 1.33888 5.49366 1.38888 5.44366L 0.681776 4.73655ZM 0.481777 4.93655L 0.381778 5.03655L 1.08888 5.74366L 1.18888 5.64366L 0.481777 4.93655ZM 0.32999 5.09736C -0.390795 6.09537 -0.635957 7.1604 -0.429686 8.17702C -0.225283 9.18444 0.409353 10.082 1.3316 10.7873L 1.93905 9.99292C 1.16131 9.39817 0.695941 8.69576 0.550344 7.97818C 0.406616 7.2698 0.561453 6.48484 1.14067 5.68285L 0.32999 5.09736ZM 1.33533 10.7901C 1.69389 11.059 2.14262 11.0759 2.51019 10.9709C 2.88237 10.8645 3.24252 10.6166 3.46408 10.2473L 2.60658 9.73285C 2.52813 9.8636 2.38829 9.96567 2.23547 10.0093C 2.07804 10.0543 1.97677 10.0212 1.93533 9.9901L 1.33533 10.7901ZM 3.46408 10.2473C 3.68447 9.88003 3.73213 9.48205 3.61212 9.10203C 3.49779 8.73999 3.24608 8.43839 2.94768 8.19967L 2.32298 8.98054C 2.52457 9.14181 2.62287 9.29022 2.65854 9.40317C 2.68853 9.49815 2.68619 9.60017 2.60658 9.73285L 3.46408 10.2473ZM 2.87815 8.15302C 2.54638 7.9687 2.47772 7.78581 2.47253 7.63537C 2.46574 7.43849 2.56455 7.15114 2.83533 6.7901L 2.03533 6.1901C 1.70611 6.62906 1.45492 7.14171 1.47313 7.66983C 1.49294 8.2444 1.82428 8.7115 2.39251 9.02718L 2.87815 8.15302ZM 2.08178 6.13655C 2.08045 6.13735 2.1142 6.10976 2.10793 6.11481C 2.12176 6.10472 2.15425 6.0826 2.20352 6.06412C 2.23756 6.05136 2.36043 6.00877 2.51415 6.05681C 2.60166 6.08415 2.69779 6.14175 2.76898 6.24187C 2.83894 6.34025 2.86033 6.44515 2.86033 6.5276C 2.86033 6.67713 2.79389 6.77859 2.76273 6.81949C 2.72358 6.87088 2.68037 6.90548 2.64408 6.92816C 2.56863 6.97532 2.4935 6.9901 2.43533 6.9901L 2.43533 5.9901C 2.32716 5.9901 2.21453 6.01738 2.11408 6.08016C 2.07013 6.11011 1.99889 6.17524 1.9673 6.21345C 1.92989 6.26255 1.86033 6.37182 1.86033 6.5276C 1.86516 6.59851 1.91011 6.74721 1.95402 6.82139C 2.02678 6.9237 2.12525 6.98296 2.21588 7.01129C 2.37585 7.06128 2.50809 7.01791 2.55464 7.00045C 2.66601 6.95869 2.74509 6.88745 2.78888 6.84365L 2.08178 6.13655Z"/>
</defs>
</svg>
