<svg width="79" height="107" viewBox="0 0 79 107" version="1.1" xmlns="http://www.w3.org/2000/svg" xmlns:xlink="http://www.w3.org/1999/xlink">
<title>finishing up</title>
<desc>Created using Figma</desc>
<g id="Canvas" transform="translate(-8774 412)">
<g id="finishing up">
<g id="Vector" opacity="0.5">
<use xlink:href="#path0_fill" transform="translate(8781.6 -406.1)" fill="#29ABE2"/>
</g>
<g id="Vector">
<use xlink:href="#path1_fill" transform="translate(8791.85 -394.2)" fill="#FFFFFF"/>
</g>
<g id="Vector">
<use xlink:href="#path2_fill" transform="matrix(0.9999 -0.0104133 0.0104133 0.9999 8791 -312.565)" fill="#E6E6E6"/>
</g>
<g id="Group">
<g id="Vector">
<use xlink:href="#path3_fill" transform="translate(8774 -412)"/>
</g>
<g id="Vector">
<use xlink:href="#path4_fill" transform="translate(8787.83 -391.375)"/>
</g>
<g id="Vector">
<use xlink:href="#path5_fill" transform="translate(8811.4 -366.644)"/>
</g>
<g id="Vector">
<use xlink:href="#path6_fill" transform="translate(8843.4 -374.5)"/>
</g>
</g>
</g>
</g>
<defs>
<path id="path0_fill" d="M 35.6 71.2C 55.2613 71.2 71.2 55.2613 71.2 35.6C 71.2 15.9387 55.2613 0 35.6 0C 15.9387 0 0 15.9387 0 35.6C 0 55.2613 15.9387 71.2 35.6 71.2Z"/>
<path id="path1_fill" d="M 16.95 38.2C 15.45 38.2 13.95 37.6 12.95 36.5L 1.65 25.2C -0.55 23 -0.55 19.3 1.65 17.1C 2.75 16 4.15 15.4 5.65 15.4C 7.15 15.4 8.65 16 9.65 17.1L 16.95 24.4L 39.65 1.7C 40.75 0.6 42.15 -7.62939e-07 43.65 -7.62939e-07C 45.15 -7.62939e-07 46.65 0.6 47.65 1.7C 48.75 2.8 49.35 4.2 49.35 5.7C 49.35 7.2 48.75 8.7 47.65 9.7L 21.05 36.5C 19.95 37.6 18.55 38.2 16.95 38.2Z"/>
<path id="path2_fill" d="M 20.9 6.8C 32.4427 6.8 41.8 5.27777 41.8 3.4C 41.8 1.52223 32.4427 -3.05176e-06 20.9 -3.05176e-06C 9.35725 -3.05176e-06 0 1.52223 0 3.4C 0 5.27777 9.35725 6.8 20.9 6.8Z"/>
<path id="path3_fill" d="M 39 78C 28.6 78 18.8 73.9 11.4 66.6C 4.1 59.2 0 49.4 0 39C 0 28.6 4.1 18.8 11.4 11.4C 18.8 4.1 28.6 0 39 0C 49.4 0 59.2 4.1 66.6 11.4C 73.9 18.8 78 28.6 78 39C 78 49.4 73.9 59.2 66.6 66.6C 59.2 73.9 49.4 78 39 78ZM 39 3.1C 19.2 3.1 3.1 19.2 3.1 39C 3.1 58.8 19.2 74.9 39 74.9C 58.8 74.9 74.9 58.8 74.9 39C 74.9 19.2 58.8 3.1 39 3.1Z"/>
<path id="path4_fill" d="M 16.775 37.675C 15.275 37.675 13.975 37.075 12.975 36.075L 1.575 24.675C -0.525 22.575 -0.525 19.075 1.575 16.975C 3.675 14.875 7.175 14.875 9.275 16.975L 16.775 24.475L 39.675 1.575C 41.775 -0.524999 45.275 -0.524999 47.375 1.575C 49.475 3.675 49.475 7.175 47.375 9.275L 20.675 36.075C 19.575 37.075 18.275 37.675 16.775 37.675ZM 5.475 18.575C 4.875 18.575 4.275 18.775 3.875 19.275C 2.975 20.175 2.975 21.675 3.875 22.575L 15.175 33.875C 15.575 34.275 16.175 34.575 16.775 34.575C 17.375 34.575 17.975 34.375 18.375 33.875L 45.175 7.175C 46.075 6.275 46.075 4.775 45.175 3.875C 44.275 2.975 42.775 2.975 41.875 3.875L 17.875 27.875C 17.275 28.475 16.275 28.475 15.675 27.875L 7.075 19.275C 6.675 18.775 6.075 18.575 5.475 18.575Z"/>
<path id="path5_fill" d="M 1.6 27.2441C 0.7 27.2441 1.52588e-06 26.5441 1.52588e-06 25.6441C 1.52588e-06 24.7441 0.7 24.0441 1.6 24.0441C 15.5 24.0441 27.7 14.6441 31.1 1.1441C 31.3 0.344101 32.2 -0.155897 33 0.0441027C 33.8 0.244103 34.3 1.1441 34.1 1.9441C 30.3 16.8441 17 27.2441 1.6 27.2441Z"/>
<path id="path6_fill" d="M 1.6 4.5C 1.6 4.5 1.5 4.5 1.6 4.5C 0.7 4.5 1.52588e-06 3.7 1.52588e-06 2.9C 1.52588e-06 2.5 1.52588e-06 2 1.52588e-06 1.6C 1.52588e-06 0.699998 0.7 0 1.6 0C 2.5 0 3.2 0.699998 3.2 1.6C 3.2 2.1 3.2 2.6 3.2 3.1C 3.1 3.8 2.4 4.5 1.6 4.5Z"/>
</defs>
</svg>
