<svg width="75" height="95" viewBox="0 0 75 95" version="1.1" xmlns="http://www.w3.org/2000/svg" xmlns:xlink="http://www.w3.org/1999/xlink">
<title>location details</title>
<desc>Created using Figma</desc>
<g id="Canvas" transform="translate(-3147 426)">
<g id="location details">
<g id="Vector" opacity="0.5">
<use xlink:href="#path0_fill" transform="translate(3153 -407.2)" fill="#02A8F3"/>
</g>
<g id="Group">
<g id="Vector">
<use xlink:href="#path1_fill" transform="translate(3147 -413.5)"/>
</g>
<g id="Vector">
<use xlink:href="#path2_fill" transform="translate(3150.8 -426)"/>
</g>
<g id="Vector">
<use xlink:href="#path3_fill" transform="translate(3155.9 -420.9)"/>
</g>
<g id="Vector">
<use xlink:href="#path4_fill" transform="translate(3201.6 -391.7)"/>
</g>
<g id="Vector">
<use xlink:href="#path5_fill" transform="translate(3206.7 -386.6)"/>
</g>
<g id="Vector">
<use xlink:href="#path6_fill" transform="translate(3162.3 -381.5)"/>
</g>
<g id="Vector">
<use xlink:href="#path7_fill" transform="translate(3167.4 -376.4)"/>
</g>
</g>
<g id="Vector">
<use xlink:href="#path8_fill" transform="translate(3166 -335.2)" fill="#E6E6E6"/>
</g>
</g>
</g>
<defs>
<path id="path0_fill" d="M 31 62C 48.1208 62 62 48.1208 62 31C 62 13.8792 48.1208 0 31 0C 13.8792 0 0 13.8792 0 31C 0 48.1208 13.8792 62 31 62Z"/>
<path id="path1_fill" d="M 64.2 48.8C 63.6 48.5 62.8 48.7 62.5 49.3C 62.4 49.4 62.3 49.6 62.3 49.7L 57.2 49.7C 57.8 48.2 58.2 46.6 58.6 44.9C 58.8 44.2 58.3 43.5 57.7 43.4C 57 43.2 56.3 43.7 56.2 44.3C 55.8 46.2 55.2 48 54.5 49.7L 44.7 49.7C 45.4 45.3 45.8 40.5 45.8 35.7L 52.2 35.7C 52.9 35.7 53.5 35.1 53.5 34.4C 53.5 33.7 52.9 33.1 52.2 33.1L 45.8 33.1C 45.7 27.9 45.3 22.6 44.5 17.8L 54 17.8C 54.6 19.1 55.1 20.5 55.5 22C 55.7 22.5 56.2 22.9 56.7 22.9C 56.8 22.9 56.9 22.9 57.1 22.8C 57.8 22.6 58.2 21.9 57.9 21.2C 57.5 20 57.1 18.9 56.7 17.8L 61.5 17.8C 61.6 18 61.8 18.2 61.9 18.4C 62.1 18.8 62.6 19 63 19C 63.2 19 63.4 18.9 63.6 18.8C 64.2 18.4 64.4 17.7 64.1 17.1C 63.9 16.8 63.8 16.5 63.6 16.2C 63.5 15.9 63.3 15.6 63.1 15.4C 60.2 11 56.3 7.3 51.8 4.7C 46.5 1.6 40.5 -3.55271e-15 34.4 -3.55271e-15C 31.7 -3.55271e-15 29.1 0.3 26.5 0.9C 25.8 1.1 25.4 1.7 25.6 2.4C 25.8 3.1 26.4 3.5 27.1 3.3C 27.9 3.1 28.8 2.9 29.6 2.8C 27.5 5.5 25.9 10 24.8 15.1L 14.3 15.1C 14.1 15.1 13.9 15.1 13.7 15.1L 8.9 15.1C 9.2 14.7 9.5 14.3 9.9 13.9C 10.3 13.4 10.3 12.6 9.7 12.1C 9.2 11.7 8.4 11.7 7.9 12.3C 7.1 13.3 6.3 14.3 5.6 15.4C 5.3 15.6 5.1 15.9 5.1 16.2C 1.8 21.9 0 28.2 0 34.5C 0 43.7 3.6 52.3 10.1 58.8C 16.6 65.3 25.2 68.9 34.4 68.9C 47.2 68.9 58.8 61.9 64.8 50.6C 65 49.9 64.8 49.2 64.2 48.8ZM 53.3 52.3C 51.8 55.3 50 58 47.8 60.2C 45.3 62.7 42.5 64.5 39.5 65.5C 41.6 62.5 43.1 57.8 44.2 52.3L 53.3 52.3ZM 43.9 15.5C 42.9 10.6 41.4 6.3 39.5 3.6C 44.8 5.3 49.4 9.5 52.6 15.5L 43.9 15.5ZM 50.4 7.1C 54 9.2 57.2 12.1 59.7 15.4L 55.4 15.4C 53.6 11.7 51.3 8.6 48.6 6.1C 49.3 6.5 49.9 6.8 50.4 7.1ZM 29 9.6C 30.6 5.3 32.6 2.8 34.3 2.8C 36.3 2.8 38.6 6.1 40.3 11.6C 40.7 12.8 41 14.1 41.3 15.5L 27.3 15.5C 27.8 13.3 28.4 11.3 29 9.6ZM 24.3 29.4C 25 29.4 25.6 28.9 25.6 28.2C 25.8 24.6 26.2 21.1 26.8 18L 41.8 18C 42.6 22.6 43.1 27.8 43.2 33.3L 36.9 33.3C 36.2 33.3 35.6 33.9 35.6 34.6C 35.6 35.3 36.2 35.9 36.9 35.9L 43.2 35.9C 43.1 40.9 42.7 45.6 42.1 49.9L 36.9 49.9C 36.2 49.9 35.6 50.5 35.6 51.2C 35.6 51.9 36.2 52.5 36.9 52.5L 41.6 52.5C 41.2 54.4 40.8 56.1 40.3 57.7C 38.6 63.2 36.4 66.5 34.3 66.5C 32.6 66.5 30.7 64.2 29.1 60.1C 28.8 59.4 28.1 59.1 27.5 59.4C 26.8 59.7 26.5 60.4 26.8 61C 27.6 63 28.4 64.6 29.2 65.7C 23.5 63.9 18.6 59.1 15.4 52.5C 16 52.4 16.6 51.9 16.6 51.2C 16.6 50.5 16 49.9 15.3 49.9L 14.3 49.9C 12.6 45.7 11.7 41 11.5 35.9L 14 35.9C 14.7 35.9 15.3 35.3 15.3 34.6C 15.3 33.9 14.7 33.3 14 33.3L 11.5 33.3C 11.7 27.9 12.8 22.7 14.8 18L 24.2 18C 23.6 21.2 23.2 24.7 23 28.1C 23 28.8 23.6 29.4 24.3 29.4ZM 2.6 35.8L 8.9 35.8C 9 40.7 9.9 45.5 11.5 49.8L 6.4 49.8C 4.2 45.6 2.8 40.9 2.6 35.8ZM 12 18C 10.1 22.7 9 27.9 8.9 33.3L 2.6 33.3C 2.8 27.9 4.4 22.6 7.2 18L 12 18ZM 8 52.3L 12.6 52.3C 13.6 54.6 14.8 56.7 16.3 58.6C 17.5 60.2 18.7 61.6 20 62.8C 15.1 60.4 11 56.8 8 52.3ZM 48.6 62.9C 48.9 62.6 49.2 62.3 49.5 62C 52.1 59.3 54.3 56 56 52.3L 60.6 52.3C 57.6 56.9 53.4 60.5 48.6 62.9Z"/>
<path id="path2_fill" d="M 9.4 25.2C 9.6 25.4 9.9 25.4 10.1 25.4C 10.4 25.4 10.6 25.3 10.9 25.2C 11.3 24.9 20.3 18.2 20.3 10.2C 20.4 4.6 15.8 0 10.2 0C 4.6 0 -4.76837e-08 4.6 -4.76837e-08 10.2C -4.76837e-08 18.4 9.1 24.9 9.4 25.2ZM 10.2 2.5C 14.4 2.5 17.8 5.9 17.8 10.1C 17.8 15.6 12.2 20.8 10.2 22.5C 8.1 20.8 2.6 15.8 2.6 10.1C 2.6 6 6 2.5 10.2 2.5Z"/>
<path id="path3_fill" d="M 10.2 5.1C 10.2 4.4 9.6 3.8 8.9 3.8C 8.2 3.8 7.6 4.4 7.6 5.1C 7.6 6.5 6.5 7.6 5.1 7.6C 3.7 7.6 2.6 6.5 2.6 5.1C 2.6 3.7 3.7 2.6 5.1 2.6C 5.8 2.6 6.4 2 6.4 1.3C 6.4 0.6 5.8 -9.53674e-08 5.1 -9.53674e-08C 2.3 -9.53674e-08 -3.8147e-07 2.3 -3.8147e-07 5.1C -3.8147e-07 7.9 2.3 10.2 5.1 10.2C 7.9 10.2 10.2 7.9 10.2 5.1Z"/>
<path id="path4_fill" d="M 10.2 -7.62939e-07C 4.6 -7.62939e-07 -1.52588e-06 4.6 -1.52588e-06 10.2C -1.52588e-06 18.4 9 24.9 9.4 25.2C 9.6 25.4 9.9 25.4 10.1 25.4C 10.4 25.4 10.6 25.3 10.9 25.2C 11.3 24.9 20.3 18.2 20.3 10.2C 20.4 4.6 15.8 -7.62939e-07 10.2 -7.62939e-07ZM 10.2 22.6C 8.1 20.9 2.6 15.9 2.6 10.2C 2.6 6 6 2.6 10.2 2.6C 14.4 2.6 17.8 6 17.8 10.2C 17.9 15.7 12.3 20.9 10.2 22.6Z"/>
<path id="path5_fill" d="M 8.9 3.8C 8.2 3.8 7.6 4.4 7.6 5.1C 7.6 6.5 6.5 7.6 5.1 7.6C 3.7 7.6 2.6 6.5 2.6 5.1C 2.6 3.7 3.7 2.6 5.1 2.6C 5.8 2.6 6.4 2 6.4 1.3C 6.4 0.600001 5.8 1.52588e-06 5.1 1.52588e-06C 2.3 1.52588e-06 7.62939e-07 2.3 7.62939e-07 5.1C 7.62939e-07 7.9 2.3 10.2 5.1 10.2C 7.9 10.2 10.2 7.9 10.2 5.1C 10.2 4.4 9.6 3.8 8.9 3.8Z"/>
<path id="path6_fill" d="M 1.90735e-07 10.2C 1.90735e-07 18.4 9 24.9 9.4 25.2C 9.6 25.4 9.9 25.4 10.1 25.4C 10.4 25.4 10.6 25.3 10.9 25.2C 11.3 24.9 20.3 18.2 20.3 10.2C 20.3 4.6 15.7 0 10.1 0C 4.5 0 1.90735e-07 4.6 1.90735e-07 10.2ZM 10.1 2.5C 14.3 2.5 17.7 5.9 17.7 10.1C 17.7 15.6 12.1 20.8 10.1 22.5C 8 20.8 2.5 15.8 2.5 10.1C 2.5 6 5.9 2.5 10.1 2.5Z"/>
<path id="path7_fill" d="M 5.00314 10.1C 7.80314 10.1 10.1031 7.8 10.1031 5C 10.1031 4.3 9.50314 3.7 8.80314 3.7C 8.10314 3.7 7.60314 4.4 7.60314 5.1C 7.60314 6.5 6.50314 7.6 5.10314 7.6C 3.70314 7.6 2.60314 6.5 2.60314 5.1C 2.60314 3.7 3.70314 2.6 5.10314 2.6C 5.80314 2.6 6.40314 2 6.40314 1.3C 6.40314 0.600002 5.80314 -1.52588e-06 5.10314 -1.52588e-06C 2.30314 -1.52588e-06 0.00314201 2.3 0.00314201 5.1C -0.096858 7.9 2.20314 10.1 5.00314 10.1Z"/>
<path id="path8_fill" d="M 13 4C 20.1797 4 26 3.10457 26 2C 26 0.895434 20.1797 3.05176e-06 13 3.05176e-06C 5.8203 3.05176e-06 0 0.895434 0 2C 0 3.10457 5.8203 4 13 4Z"/>
</defs>
</svg>
