<svg width="99" height="308" viewBox="0 0 99 308" version="1.1" xmlns="http://www.w3.org/2000/svg" xmlns:xlink="http://www.w3.org/1999/xlink">
<title>male character</title>
<desc>Created using Figma</desc>
<g id="Canvas" transform="translate(27 258)">
<g id="male character">
<g id="Ellipse 4">
<use xlink:href="#path0_fill" transform="translate(-22 32)" fill="#000000" fill-opacity="0.05"/>
</g>
<g id="Group">
<g id="Group">
<g id="Group">
<g id="Vector">
<use xlink:href="#path1_fill" transform="translate(-9.23011 -182.026)" fill="#F9A02B"/>
</g>
<g id="Vector">
<use xlink:href="#path2_fill" transform="translate(31.1418 -235.971)" fill="#FFD5B8"/>
</g>
<g id="Vector">
<use xlink:href="#path3_fill" transform="translate(32.2952 -234.18)" fill="#FFA78F"/>
</g>
<g id="Vector">
<use xlink:href="#path4_fill" transform="translate(0.266701 -1.54022)" fill="#FFD5B8"/>
</g>
<g id="Vector">
<use xlink:href="#path5_fill" transform="translate(-2.76181 24.5925)" fill="#F9A02B"/>
</g>
<g id="Vector">
<use xlink:href="#path6_fill" transform="translate(-2.6099 33.6182)" fill="#FFFFFF"/>
</g>
<g id="Vector">
<use xlink:href="#path7_fill" transform="translate(28.608 2.46878)" fill="#FFD5B8"/>
</g>
<g id="Vector">
<use xlink:href="#path8_fill" transform="translate(26.0234 28.5499)" fill="#F9A02B"/>
</g>
<g id="Vector">
<use xlink:href="#path9_fill" transform="translate(26.2338 37.7839)" fill="#FFFFFF"/>
</g>
<g id="Vector">
<use xlink:href="#path10_fill" transform="translate(0.111349 -98.1564)" fill="#1F1F1F"/>
</g>
<g id="Vector">
<use xlink:href="#path11_fill" transform="translate(-4.21207 -119.818)" fill="#292929"/>
</g>
<g id="Vector">
<use xlink:href="#path12_fill" transform="translate(23.5167 14.8032)" fill="#292929"/>
</g>
<g id="Vector">
<use xlink:href="#path13_fill" transform="translate(19.7196 -114.603)" fill="#11211E"/>
</g>
<g id="Vector">
<use xlink:href="#path14_fill" transform="translate(-5.2574 -195.217)" fill="#02A8F3"/>
</g>
<g id="Vector">
<use xlink:href="#path15_fill" transform="translate(1.46557 -177.915)" fill="#FFC176"/>
</g>
<g id="Group">
<g id="Group">
<g id="Group">
<g id="Group">
<g id="Vector">
<use xlink:href="#path16_fill" transform="translate(-23.2026 -175.999)" fill="#F9A02B"/>
</g>
</g>
</g>
</g>
</g>
<g id="Vector">
<use xlink:href="#path17_fill" transform="translate(-27 -137.717)" fill="#FFC176"/>
</g>
<g id="Group">
<g id="Vector">
<use xlink:href="#path18_fill" transform="translate(-24.4169 -177.809)" fill="#FFC176"/>
</g>
</g>
<g id="Vector">
<use xlink:href="#path19_fill" transform="translate(-23.4415 -171.387)" fill="#F9A02B"/>
</g>
<g id="Vector">
<use xlink:href="#path20_fill" transform="translate(-8.66538 -239.304)" fill="#FFD5B8"/>
</g>
<g id="Vector">
<use xlink:href="#path21_fill" transform="translate(-12.9934 -239.512)" fill="#492A19"/>
</g>
<g id="Group">
<g id="Vector">
<use xlink:href="#path22_fill" transform="translate(14.5935 -206.539)" fill="#772C1B"/>
</g>
<g id="Vector">
<use xlink:href="#path23_fill" transform="translate(14.6677 -206.547)" fill="#FFEADC"/>
</g>
<g id="Vector">
<use xlink:href="#path24_fill" transform="translate(18.0823 -202.07)" fill="#994B36"/>
</g>
</g>
<g id="Vector">
<use xlink:href="#path25_fill" transform="translate(12.6546 -222.78)" fill="#FFA78F"/>
</g>
<g id="Vector">
<use xlink:href="#path26_fill" transform="translate(-13.6268 -217.718)" fill="#FFD5B8"/>
</g>
<g id="Vector">
<use xlink:href="#path27_fill" transform="translate(-11.4552 -215.566)" fill="#FFA78F"/>
</g>
<g id="Vector">
<use xlink:href="#path28_fill" transform="translate(-3.38516 -225.547)" fill="#492A19"/>
</g>
<g id="Vector">
<use xlink:href="#path29_fill" transform="translate(16.7301 -233.819)" fill="#492A19"/>
</g>
<g id="Vector">
<use xlink:href="#path30_fill" transform="translate(-13.0497 -258)" fill="#593524"/>
</g>
<g id="Vector">
<use xlink:href="#path31_fill" transform="translate(2.74729 -218.656)" fill="#492A19"/>
</g>
<g id="Vector">
<use xlink:href="#path32_fill" transform="translate(22.9687 -226.973)" fill="#492A19"/>
</g>
<g id="Vector">
<use xlink:href="#path33_fill" transform="translate(-2.40089 9.38779)" fill="#1F1F1F"/>
</g>
<g id="Vector">
<use xlink:href="#path34_fill" transform="translate(6.36584 -153.623)" fill="#FFD5B8"/>
</g>
<g id="Group">
<g id="Vector">
<use xlink:href="#path35_fill" transform="translate(26.3035 -165.293)" fill="#99455D"/>
</g>
<g id="Vector">
<use xlink:href="#path36_fill" transform="translate(7.18385 -168.604)" fill="#0289C7"/>
</g>
</g>
</g>
<g id="Vector">
<use xlink:href="#path37_fill" transform="translate(-7.83522 -204.728)" fill="#3A1F12"/>
</g>
<g id="Vector">
<use xlink:href="#path38_fill" transform="translate(-4.98646 -198.688)" fill="#3A1F12"/>
</g>
<g id="Vector">
<use xlink:href="#path39_fill" transform="translate(-2.19188 -205.66)" fill="#3A1F12"/>
</g>
<g id="Vector">
<use xlink:href="#path40_fill" transform="translate(0.587217 -196.189)" fill="#3A1F12"/>
</g>
<g id="Vector">
<use xlink:href="#path41_fill" transform="translate(4.05849 -202.715)" fill="#3A1F12"/>
</g>
<g id="Group">
<g id="Vector">
<use xlink:href="#path42_fill" transform="translate(-10.9007 -197.439)" fill="#3A1F12"/>
</g>
<g id="Vector">
<use xlink:href="#path43_fill" transform="translate(-10.4827 -196.883)" fill="#3A1F12"/>
</g>
</g>
<g id="Vector">
<use xlink:href="#path44_fill" transform="translate(-1.88766 -188.343)" fill="#3A1F12"/>
</g>
<g id="Vector">
<use xlink:href="#path45_fill" transform="translate(4.65329 -191.676)" fill="#3A1F12"/>
</g>
<g id="Vector">
<use xlink:href="#path46_fill" transform="translate(7.10699 -198.827)" fill="#3A1F12"/>
</g>
<g id="Vector">
<use xlink:href="#path47_fill" transform="translate(11.1849 -203.753)" fill="#3A1F12"/>
</g>
<g id="Vector">
<use xlink:href="#path48_fill" transform="translate(13.2751 -193.072)" fill="#3A1F12"/>
</g>
<g id="Vector">
<use xlink:href="#path49_fill" transform="translate(8.93545 -186.122)" fill="#3A1F12"/>
</g>
<g id="Vector">
<use xlink:href="#path50_fill" transform="translate(4.73107 -183.206)" fill="#3A1F12"/>
</g>
<g id="Vector">
<use xlink:href="#path51_fill" transform="translate(14.7423 -183.969)" fill="#3A1F12"/>
</g>
<g id="Vector">
<use xlink:href="#path52_fill" transform="translate(18.9532 -191.294)" fill="#3A1F12"/>
</g>
<g id="Vector">
<use xlink:href="#path53_fill" transform="translate(26.8299 -197.219)" fill="#3A1F12"/>
</g>
<g id="Vector">
<use xlink:href="#path54_fill" transform="translate(16.6193 -196.38)" fill="#3A1F12"/>
</g>
<g id="Vector">
<use xlink:href="#path55_fill" transform="translate(23.49 -184.872)" fill="#3A1F12"/>
</g>
<g id="Group">
<g id="Vector">
<use xlink:href="#path56_fill" transform="translate(27.4879 -189.044)" fill="#3A1F12"/>
</g>
</g>
<g id="Vector">
<use xlink:href="#path57_fill" transform="translate(21.8446 -195.015)" fill="#3A1F12"/>
</g>
<g id="Vector">
<use xlink:href="#path58_fill" transform="translate(27.9059 -179.458)" fill="#3A1F12"/>
</g>
<g id="Vector">
<use xlink:href="#path59_fill" transform="translate(20.4311 -175.777)" fill="#3A1F12"/>
</g>
<g id="Vector">
<use xlink:href="#path60_fill" transform="translate(25.3361 -174.458)" fill="#3A1F12"/>
</g>
<g id="Vector">
<use xlink:href="#path61_fill" transform="translate(32.2234 -188.482)" fill="#3A1F12"/>
</g>
<g id="Vector">
<use xlink:href="#path62_fill" transform="translate(38.8965 -191.244)" fill="#3A1F12"/>
</g>
<g id="Vector">
<use xlink:href="#path63_fill" transform="translate(34.0892 -196.397)" fill="#3A1F12"/>
</g>
<g id="Vector">
<use xlink:href="#path64_fill" transform="translate(40.168 -201.1)" fill="#3A1F12"/>
</g>
<g id="Vector">
<use xlink:href="#path65_fill" transform="translate(31.317 -203.895)" fill="#3A1F12"/>
</g>
<g id="Vector">
<use xlink:href="#path66_fill" transform="translate(37.2418 -209.148)" fill="#3A1F12"/>
</g>
<g id="Vector">
<use xlink:href="#path67_fill" transform="translate(32.0165 -212.839)" fill="#3A1F12"/>
</g>
<g id="Vector">
<use xlink:href="#path68_fill" transform="translate(26.1367 -210.171)" fill="#3A1F12"/>
</g>
<g id="Vector">
<use xlink:href="#path69_fill" transform="translate(33.3203 -219.517)" fill="#3A1F12"/>
</g>
<g id="Vector">
<use xlink:href="#path70_fill" transform="translate(36.4554 -214.865)" fill="#3A1F12"/>
</g>
<g id="Vector">
<use xlink:href="#path71_fill" transform="translate(38.6353 -223.573)" fill="#3A1F12"/>
</g>
<g id="Vector">
<use xlink:href="#path72_fill" transform="translate(35.082 -227.64)" fill="#3A1F12"/>
</g>
<g id="Vector">
<use xlink:href="#path73_fill" transform="translate(43.0168 -214.796)" fill="#3A1F12"/>
</g>
<g id="Vector">
<use xlink:href="#path74_fill" transform="translate(40.2996 -215.629)" fill="#3A1F12"/>
</g>
<g id="Vector">
<use xlink:href="#path75_fill" transform="translate(42.6065 -207.089)" fill="#3A1F12"/>
</g>
<g id="Vector">
<use xlink:href="#path76_fill" transform="translate(45.861 -209.588)" fill="#3A1F12"/>
</g>
<g id="Vector">
<use xlink:href="#path77_fill" transform="translate(44.836 -194.412)" fill="#3A1F12"/>
</g>
<g id="Vector">
<use xlink:href="#path78_fill" transform="translate(-8.97007 -238.203)" fill="#492A19"/>
</g>
<g id="Vector">
<use xlink:href="#path79_fill" transform="translate(13.9892 -246.594)" fill="#492A19"/>
</g>
<g id="Vector" opacity="0.52">
<use xlink:href="#path80_fill" transform="translate(7.9104 -123.498)" fill="#FFA78F"/>
</g>
</g>
</g>
</g>
</g>
<defs>
<path id="path0_fill" d="M 94 9C 94 13.9706 72.9574 18 47 18C 21.0426 18 0 13.9706 0 9C 0 4.02944 21.0426 0 47 0C 72.9574 0 94 4.02944 94 9Z"/>
<path id="path1_fill" d="M 10.8005 2.29113C 10.1734 0.833139 8.84967 0 7.24724 0C 5.22679 0 3.55469 1.04142 2.16127 2.42998C 1.39489 3.26312 -0.764909 5.69311 0.280154 6.87338C 0.558837 7.22052 1.46456 6.94281 1.74324 6.73452C 2.78831 6.04024 3.41534 4.9294 4.18172 4.02683C 4.59975 3.54084 5.01777 3.05484 5.4358 2.63827C 5.64481 2.42999 5.85382 2.29113 6.06284 2.08284C 6.06284 2.08284 6.13251 2.08284 6.13251 2.01342C 6.34152 2.29113 8.15296 3.9574 8.29231 4.23511L 10.8005 2.29113Z"/>
<path id="path2_fill" d="M 0.87475 0.485475C -0.658009 1.94347 0.108374 4.30402 1.0141 6.10915C 1.22311 6.66458 1.50179 7.22 1.85014 7.706C 2.05916 8.40028 2.40751 9.09456 3.03455 9.37227C 4.14929 9.99712 4.70665 8.67799 4.91566 7.77543C 5.19435 6.59515 4.98533 5.34544 4.70665 4.16516C 4.35829 2.98489 2.89521 -1.45851 0.87475 0.485475Z"/>
<path id="path3_fill" d="M 2.64749 4.04123C 2.22947 3.20809 2.02045 2.58324 1.74177 1.61125C 1.60243 1.12525 1.1844 0.0838284 0.627038 0.0144003C 0 -0.124456 -1.06309e-06 0.778108 -1.06309e-06 1.12525C 0.0696698 2.7221 0.627039 4.24951 1.25408 5.7075C 1.46309 6.12407 2.1598 7.51263 2.78683 6.88778C 3.48354 6.1935 2.99585 4.59665 2.64749 4.04123Z"/>
<path id="path4_fill" d="M 9.52481 0.722052C 9.52481 0.652624 9.45514 0.513772 9.45514 0.444344C 9.24613 -0.388793 7.29534 0.166627 6.80765 0.374912C 5.9716 0.722052 4.57818 1.27747 4.36917 2.31889L 4.29949 2.52719C 3.39377 3.56861 2.62739 4.61003 2.1397 5.99859C 1.652 7.17887 1.58233 8.42857 1.37332 9.67827C 1.09463 11.9694 0.955293 14.2605 0.746281 16.5517C 0.537268 18.8428 0.328255 21.1339 0.258584 23.3556C 0.119242 25.7162 -0.159442 28.2156 0.119242 30.5761C 0.258584 31.4093 2.07003 31.5481 2.55772 31.5481C 3.8118 31.5481 4.9962 31.201 6.18061 30.7844C 8.13139 30.0901 11.4059 28.6321 11.8239 26.341C 12.242 24.1193 12.1026 21.5505 12.1723 19.3288C 12.242 17.1071 12.1723 14.8854 12.1723 12.6637C 12.1723 10.442 12.1723 8.22029 12.033 5.99859C 11.9633 4.88774 11.9633 3.63804 11.4756 2.59662C 11.1272 1.5552 10.4305 1.13862 9.52481 0.722052Z"/>
<path id="path5_fill" d="M 1.05763 13.0525C 3.77479 13.8856 6.6313 13.955 9.55747 14.0939C 10.6722 14.1633 11.7173 14.2328 12.832 14.3022C 14.6434 14.2328 16.4549 14.3716 18.2663 14.441C 19.3114 14.5105 20.2868 14.5799 21.3319 14.6493C 21.7499 14.6493 22.2376 14.7187 22.6556 14.7187C 22.8646 14.7187 24.467 14.7882 23.631 14.7882C 23.0736 14.7882 23.422 14.7882 23.7703 14.7882C 26.5572 14.7188 29.4833 14.2328 31.7825 12.6359C 32.5489 12.0805 33.1759 11.4556 33.5939 10.7614C 33.2456 10.2754 32.8275 9.8588 32.4095 9.44223C 30.1801 9.23395 28.0203 8.95622 25.8605 8.26194C 23.1433 7.42881 20.7048 6.24852 18.8934 3.95739C 17.918 2.77712 17.3606 1.45799 17.0123 4.23756e-06C 14.8525 1.11085 12.5533 2.36056 10.1148 2.77713C 7.60669 3.1937 6.00426 1.80512 3.84446 0.833129C 3.70512 0.624844 3.2871 0.555425 2.93874 0.624853C 1.82401 2.56884 0.500261 4.44339 0.151906 6.80395C -0.126777 8.60908 0.012565 10.4836 0.291248 12.2888C 0.500261 12.5665 0.778944 12.7748 1.05763 13.0525Z"/>
<path id="path6_fill" d="M 0.905721 4.02683C 3.62288 4.85996 6.47939 4.92939 9.40557 5.06825C 10.5203 5.13768 11.5654 5.20712 12.6801 5.27654C 14.4915 5.20712 16.303 5.34596 18.1144 5.41539C 19.1595 5.48482 20.1349 5.55426 21.1799 5.62368C 21.598 5.62368 22.0857 5.6931 22.5037 5.6931C 22.7127 5.6931 24.3151 5.76253 23.4791 5.76253C 22.9217 5.76253 23.2701 5.76253 23.6184 5.76253C 26.4053 5.6931 29.3314 5.2071 31.6306 3.61025C 32.397 3.05483 33.024 2.42999 33.442 1.73571C 33.0937 1.24971 32.6756 0.833146 32.2576 0.416577C 31.0732 0.277721 29.9585 0.13886 28.8437 4.23756e-06C 28.0774 0.833141 27.311 1.59684 26.3356 2.22169C 23.7578 3.88797 20.0652 3.26311 17.139 2.91597C 14.0038 2.56883 10.9383 2.08284 7.80314 2.36056C 5.71301 2.56884 2.29914 2.91597 -9.90083e-15 1.87455C 0.0696709 2.36055 0.139342 2.77712 0.139342 3.26311C 0.348355 3.54082 0.627037 3.74911 0.905721 4.02683Z"/>
<path id="path7_fill" d="M 13.8591 4.97504C 13.6501 3.72533 13.5804 2.54506 12.7444 1.50363C 11.56 -0.0237848 8.84282 -0.162641 6.75269 0.115071C 4.8019 0.392784 3.1298 0.809365 2.36342 2.40621C 1.80605 3.51706 1.80605 4.76675 1.66671 6.01646C 1.38803 8.37702 1.17902 10.807 1.03968 13.1676C 0.691325 17.7498 0.551981 22.4015 0.133956 26.9838C -0.632424 28.164 2.08474 29.0666 3.33882 29.3443C 3.40849 29.3443 3.54783 29.4137 3.6175 29.4137C 5.84697 29.8303 8.6338 29.6915 10.8633 29.136C 12.0477 28.8583 14.2771 28.2335 14.3468 26.9838C 14.6255 22.0544 14.8345 17.125 14.4862 12.1956C 14.4862 9.69615 14.2075 7.33559 13.8591 4.97504Z"/>
<path id="path8_fill" d="M 1.46449 15.413C 4.53001 16.1767 7.73488 16.1073 10.9397 16.0379C 12.1241 16.0379 13.3782 16.0379 14.5626 16.0379C 16.5831 15.899 18.5339 15.899 20.5543 15.899C 21.6691 15.899 22.8535 15.9685 23.9682 15.9685C 24.4559 15.9685 24.9436 15.9685 25.4313 15.9685C 25.71 15.9685 27.4517 15.9685 26.546 15.9685C 25.919 15.9685 26.337 15.9685 26.6854 15.9685C 29.8205 15.6907 33.0254 15.0659 35.4639 13.1219C 36.2999 12.4276 36.927 11.7333 37.345 10.9002C 36.927 10.4142 36.4393 9.92822 35.9516 9.51165C 33.5131 9.37279 31.0049 9.23395 28.6361 8.60909C 25.5706 7.84538 22.7838 6.66509 20.624 4.23511C 19.5093 2.9854 18.8125 1.52741 18.3249 -8.47511e-06C 15.956 1.38855 13.5176 2.84654 10.8701 3.4714C 8.08323 4.09625 6.27179 2.63828 3.8333 1.66628C 3.62429 1.458 3.20627 1.38856 2.78824 1.45799C 1.67351 3.67969 0.280088 5.83196 0.0710754 8.4008C -0.137937 10.4142 0.140749 12.4276 0.558775 14.441C 0.837458 14.8576 1.18581 15.0659 1.46449 15.413Z"/>
<path id="path9_fill" d="M 1.25407 6.1791C 4.31959 6.94281 7.52446 6.87338 10.7293 6.80395C 11.9137 6.80395 13.1678 6.80395 14.3522 6.80395C 16.3727 6.66509 18.3234 6.66511 20.3439 6.66511C 21.4586 6.66511 22.643 6.73452 23.7578 6.73452C 24.2455 6.73452 24.7332 6.73452 25.2209 6.73452C 25.4995 6.73452 27.2413 6.73452 26.3356 6.73452C 25.7086 6.73452 26.1266 6.73452 26.4749 6.73452C 29.6101 6.4568 32.815 5.83197 35.2535 3.88798C 36.0895 3.1937 36.7165 2.49941 37.1346 1.66627C 36.7165 1.18028 36.2289 0.694281 35.7412 0.277712C 34.4871 0.208284 33.1633 0.13886 31.9093 4.23755e-06C 31.1429 0.971998 30.3068 1.87455 29.2618 2.63826C 26.4749 4.58225 22.3644 4.16568 19.1595 3.95739C 15.6759 3.74911 12.2621 3.40199 8.70886 3.88798C 6.40972 4.23512 2.64749 4.79054 1.06309e-06 3.74912C 0.0696719 4.23511 0.139344 4.79055 0.278686 5.27654C 0.62704 5.62368 0.97539 5.83196 1.25407 6.1791Z"/>
<path id="path10_fill" d="M 42.2165 2.11878e-06C 40.614 4.30454 38.8723 8.60908 37.3395 12.9136C 36.9911 13.955 36.5731 14.9965 36.3641 16.0379C 36.1551 17.357 36.0158 18.6762 35.8764 19.9953C 35.6674 22.5641 35.5281 25.2024 35.4584 27.7712C 35.4584 27.9101 35.4584 27.9795 35.4584 28.1184C 35.1797 29.2987 34.9707 30.4789 34.692 31.5898C 32.0445 43.8091 29.8847 56.1673 28.0036 68.595C 26.4012 79.634 25.2168 90.6731 23.684 101.712C 23.6143 102.268 23.5447 102.823 23.475 103.448C 23.1963 104.489 22.848 105.531 22.4996 106.572C 21.1759 110.044 19.2251 113.168 15.6719 114.348C 13.4424 115.112 11.0039 114.904 8.77444 114.556C 8.28675 114.487 7.79905 114.418 7.31135 114.348C 7.10234 114.348 6.89333 114.279 6.68432 114.279L 6.61465 114.279C 6.61465 114.279 6.54497 114.279 6.4753 114.348C 6.19662 114.487 5.91794 114.626 5.63925 114.765C 4.31551 115.598 2.22538 115.251 0.901633 114.765C 0.831962 114.765 0.692619 114.695 0.483606 114.626C -0.143431 109.766 -0.073759 104.698 0.204924 99.7682C 0.553279 94.5611 1.24999 89.354 2.08604 84.2163C 2.99176 79.0092 4.38518 73.9409 5.63925 68.8032C 5.70892 68.2478 5.84827 67.6924 5.91794 67.137C 6.19662 65.7484 6.4753 64.3599 6.89333 63.0407C 6.89333 62.9713 6.963 62.8324 6.963 62.763C 6.963 54.1539 5.63925 45.6837 4.66386 37.144C 4.10649 32.0758 3.6188 26.9381 3.68847 21.8004C 3.68847 19.301 4.73353 11.4556 5.01221 8.95622C 5.08188 8.4008 5.15156 7.9148 5.22123 7.35937C 5.08189 7.84537 42.2165 2.11878e-06 42.2165 2.11878e-06Z"/>
<path id="path11_fill" d="M 48.2817 48.4608C 47.7243 44.2951 47.0973 40.1989 46.4005 36.1026C 46.3309 35.6861 46.2612 35.2695 46.1915 34.8529C 46.8186 31.3121 47.5153 27.7018 48.1423 24.161C 49.4661 16.1767 50.5111 7.91481 48.3513 4.23756e-06C 46.1219 4.23756e-06 43.8227 0.34714 42.3596 0.624853C 37.413 1.66627 32.4664 2.63826 27.5894 3.67969C 25.0813 4.16568 22.5731 4.72111 20.1346 5.27653C 17.7658 5.83196 15.1183 6.24853 13.0979 7.56766C 13.0979 7.56766 13.0282 7.56767 13.0282 7.63709C 12.9585 7.63709 12.8888 7.63709 12.8192 7.63709C 11.9831 6.94281 9.893 7.4288 9.12662 7.70652C 9.05695 7.70652 8.98728 7.77595 8.98728 7.77595C 9.33563 6.87338 9.61432 5.90139 9.54465 4.99883C 9.40531 3.9574 6.96683 4.4434 6.40946 4.65168C 5.29472 5.20711 4.389 5.90139 3.69229 6.73453C 3.41361 6.24853 2.92592 5.83196 2.22921 5.55425C 1.74151 5.4154 1.18414 5.34596 0.696447 5.48482C 0.348092 11.9416 -0.348617 18.4679 0.20875 24.9247C 0.417762 27.7018 0.835787 30.3401 2.15953 32.8395C 3.2046 34.714 4.52834 36.2415 5.92176 37.4912C 9.40531 40.7543 13.5159 43.8786 15.4667 48.322C 16.9298 51.6545 17.7658 55.1259 18.3232 58.7362C 19.1592 61.3745 19.9256 64.0821 20.692 66.7204C 22.0157 71.4415 23.4788 76.0238 23.8968 80.9532C 24.1755 84.0774 24.1755 87.2711 24.0362 90.3954C 24.1059 90.7425 24.1755 91.0897 24.2452 91.4368C 24.2452 91.5062 24.2452 91.6451 24.2452 91.7145C 24.1755 93.1031 24.1059 94.4222 24.1059 95.8802C 24.1059 96.4356 24.1059 96.9911 24.1755 97.5465C 23.9665 102.684 23.5485 107.822 23.7575 113.029C 23.8969 117.958 24.3149 122.888 25.0116 127.748C 25.0813 128.025 25.1509 128.373 25.2206 128.65C 26.4747 133.441 28.2164 138.092 30.3066 142.605C 31.6303 142.605 33.0934 142.328 33.9991 141.564C 34.2778 141.356 34.4868 141.147 34.7655 141.008C 34.8352 140.939 34.9049 140.939 34.9049 140.939L 34.9745 140.939C 35.1835 140.939 35.3925 140.87 35.6712 140.87C 36.2286 140.8 36.7163 140.8 37.2737 140.8C 39.7121 140.661 42.29 140.314 44.5194 139.134C 45.0768 138.856 45.5645 138.509 45.9825 138.162C 47.2366 138.162 49.8841 138.023 50.0234 136.565C 52.2529 107.266 52.0439 77.69 48.2817 48.4608Z"/>
<path id="path12_fill" d="M 6.40972 8.88679C 7.73347 9.1645 9.05722 9.3728 10.381 9.51166C 14.1432 8.8868 17.8357 8.05365 21.1799 6.80395C 22.5734 6.31795 23.8274 5.76253 24.8725 5.13767C 25.1512 3.9574 25.3602 2.77712 25.4995 1.59684C 25.5692 1.11084 25.5692 0.624861 25.6389 0.138865C 25.6389 0.0694366 25.6389 0.0694281 25.6389 0C 21.18 0.763709 16.5817 1.2497 12.0531 1.59684C 8.01215 1.94398 4.04091 2.15228 -9.90083e-15 2.22171C 0.139342 4.09627 0.487698 6.04024 0.905724 7.9148C 2.78684 8.19251 4.59828 8.53965 6.40972 8.88679Z"/>
<path id="path13_fill" d="M 14.4567 4.57428C 14.5264 4.08828 14.6657 2.69972 13.8297 2.83857L 13.76 2.83857C 13.76 2.21372 13.551 1.72772 13.133 1.58887C 10.7642 0.964013 8.32567 0.408595 5.88719 0.130882C 4.98147 0.061454 3.79706 -0.216256 3.03068 0.339169C 2.19463 0.964021 1.84628 2.21372 1.63727 3.18571C 1.21924 5.6157 1.14957 8.11511 0.870888 10.4757C 0.661875 12.7668 0.243849 15.1968 0.243849 17.5573C -0.0348344 18.321 -0.174178 19.1542 0.383189 19.2236C 3.65772 19.9179 7.41995 16.9325 9.4404 14.7108C 12.0879 12.0725 13.8993 8.39282 14.4567 4.57428Z"/>
<path id="path14_fill" d="M 56.5031 79.2869C 56.5031 79.2175 56.5031 79.2175 56.5728 79.148C 55.8064 63.5961 53.7163 48.0443 49.536 33.0478C 47.0975 24.9247 43.9623 17.0099 39.9911 9.51165C 38.8067 9.30336 37.6223 9.09508 36.3682 8.8868C 27.7987 7.35938 19.1595 5.27654 11.217 1.66628C 10.0326 1.11085 8.91787 0.624853 7.80314 1.97327e-14C 6.89742 2.2217 6.06137 4.51283 5.36466 6.80396C 4.66795 9.02566 4.04091 11.3168 3.55321 13.5385C 3.41387 14.1633 3.27453 14.7188 3.13519 15.3436C 3.06552 15.5519 2.92618 16.1767 2.92618 16.3156C 2.71717 17.357 2.57782 18.3984 2.36881 19.3704C 0.836049 28.8821 0.278683 38.4632 0.139341 48.1137C -2.69926e-07 57.3476 0.0696714 85.952 5.31547e-07 86.924C 6.20071 86.7851 12.4711 86.1603 18.6021 85.8131C 25.6389 85.3966 32.6756 84.9106 39.7124 84.4246C 44.868 84.0774 50.0237 83.7303 55.1793 83.3832C 55.5974 82.1334 56.0154 80.6755 56.5031 79.2869Z"/>
<path id="path15_fill" d="M 27.6944 3.80404C 23.7232 0.888056 18.7766 -0.43108 13.8996 0.124345C 10.9734 0.471485 8.11693 1.37405 5.5391 2.83204C 4.28503 3.52632 3.17029 4.35946 2.12523 5.26202C 1.35885 5.88688 -0.452592 7.20601 0.104775 8.31686C 0.453129 9.08057 2.05556 8.73343 2.61293 8.45572C 4.63338 7.4143 5.95713 5.40088 7.90791 4.15118C 9.58002 3.10976 11.3915 2.34605 13.3422 2.13776C 17.3135 1.65176 21.4241 3.24861 24.4199 5.81745C 28.1125 9.01114 29.8542 13.4545 30.4813 18.2451C 31.1083 22.6885 31.178 27.3402 30.5509 31.7836C 29.9239 36.227 28.3912 40.3232 25.1166 43.5169C 24.4896 44.1418 25.3953 44.4889 25.883 44.5583C 26.719 44.6972 27.9731 44.4889 28.6698 43.9335C 32.3624 41.0869 34.2435 36.8518 34.9402 32.339C 35.7763 27.4096 35.7066 22.0636 34.9402 17.1342C 34.1738 11.8577 32.014 6.99773 27.6944 3.80404Z"/>
<path id="path16_fill" d="M 27.7688 5.98444C 25.1213 5.29016 22.5435 4.31816 20.0353 3.13788C 18.7813 2.58246 17.5272 1.9576 16.2731 1.40218C 15.5067 1.05504 14.6707 0.638469 13.8346 0.360757C 14.1133 -0.0558117 13.0683 -0.0558075 12.3715 0.0830487L 12.3019 0.0830487C 12.0929 0.0830487 11.6052 0.152473 11.4658 0.360757C 11.4658 0.430185 11.3962 0.499615 11.3962 0.569043C 8.26097 2.99903 6.24051 6.05386 4.77742 9.73355C 3.17499 13.7604 2.33894 18.0649 1.57256 22.3C -0.16921 31.8811 -0.796248 41.8788 1.43322 51.3904C 1.99059 53.751 2.6873 56.1115 3.66269 58.3332C 4.42907 60.0689 5.47413 61.7352 7.14623 62.7072C 8.95767 63.7486 11.2568 63.7486 13.2773 63.6792C 15.9248 63.5403 18.5026 63.1932 21.0804 62.7072C 23.5189 62.2906 26.0967 61.8741 28.3262 60.9021C 30.2073 60.1383 31.3917 58.8192 31.4614 56.7364C 31.531 54.4452 30.8343 52.0847 30.5556 49.7936C 30.2073 47.2942 29.8589 44.7253 29.5803 42.1565C 29.5106 41.3233 29.6499 39.5876 29.7893 39.6571C 35.781 41.8788 35.781 38.4074 35.781 38.3379C 35.8506 38.0602 29.7196 37.3659 29.3712 37.2965C 29.3016 37.2965 29.2319 37.2965 29.1622 37.2271C 28.2565 27.2989 27.9778 17.3012 28.2565 7.30357C 28.2565 7.23414 28.2565 7.16471 28.1868 7.09528C 28.7442 6.67871 28.6049 6.19272 27.7688 5.98444Z"/>
<path id="path17_fill" d="M 22.9967 0.0562885C 21.7426 -0.151996 20.4885 0.264581 19.2344 0.542294C 16.7263 1.09772 14.2181 1.792 11.6403 2.06971C 8.85349 2.34742 6.48468 1.86142 3.83719 1.16714C 3.5585 1.09771 1.60772 1.44486 1.39871 1.93086C 0.562655 2.13914 -0.0643829 2.62513 0.00528794 3.11113C 0.562655 6.02711 1.25936 8.87366 2.16509 11.7202C 2.93146 14.3585 3.69784 17.2745 5.02159 19.7044C 6.206 21.9261 8.85349 21.7873 11.0133 21.4401C 13.3821 21.093 15.6812 20.5376 17.9107 19.7044C 19.8615 18.9407 21.8819 17.7605 23.2057 16.0942C 24.6688 14.2196 25.2261 11.9979 25.3655 9.63737C 25.5048 7.06853 25.2261 4.4997 24.7385 1.93086C 24.4598 0.889434 24.1811 0.195145 22.9967 0.0562885Z"/>
<path id="path18_fill" d="M 30.2372 8.62745C 30.2372 8.55802 30.2372 8.41916 30.1675 8.34973C 30.8642 7.72488 30.7249 7.16946 29.7495 6.89174C 26.6839 6.05861 23.6881 4.94776 20.7619 3.62862C 19.2988 2.93434 17.8357 2.24006 16.4423 1.61521C 15.5366 1.19864 14.6309 0.712641 13.6555 0.365501C 14.0038 -0.120496 11.844 0.0183601 11.844 0.0183601C 11.5654 0.0183601 4.80729 7.0306 3.06552 11.3351C 1.95078 14.1123 1.1844 16.9588 0.557367 19.8748C 0.278684 22.0965 0.139342 24.2488 3.32217e-08 26.4705C 0.209013 26.6093 0.418025 26.6787 0.696709 26.8176C 7.10643 29.9419 14.7006 30.289 21.6676 30.3584C 24.5938 30.3584 27.5897 30.289 30.5158 30.1502C 30.0978 22.9296 30.0281 15.7785 30.2372 8.62745Z"/>
<path id="path19_fill" d="M 25.2905 0.608676C 23.8971 3.66351 23.7578 6.99607 23.8971 10.2592C 23.9668 11.9949 24.1061 13.7306 24.1061 15.4663C 24.1061 16.3689 24.1061 17.3409 24.1061 18.2434C 24.0365 19.0071 24.1758 20.4651 23.5488 20.9511C 22.9217 21.3677 21.1103 20.9511 20.3439 20.9511C 19.2988 20.8817 18.1841 20.8123 17.139 20.7428C 14.9096 20.5345 12.6801 20.3263 10.4506 20.0485C 8.63919 19.7708 6.75808 19.5626 5.0163 19.0766C 3.27453 18.5211 2.02046 17.4797 0.557367 16.5771C 0.418025 16.5077 -6.64433e-08 16.5771 -6.64433e-08 16.716C 0.139342 18.3823 2.22947 19.2848 3.62289 19.7708C 5.504 20.3957 7.45478 20.6734 9.3359 21.0205C 11.844 21.4371 14.3522 21.7148 16.8604 21.9231C 19.0201 22.1314 21.4586 22.548 23.6881 22.2702C 24.5241 22.1314 25.4995 21.9231 26.0569 21.2288C 26.5446 20.6734 26.5446 19.7708 26.6143 19.0766C 26.8233 16.9243 26.6839 14.8414 26.6143 12.6892C 26.4053 8.59291 26.0569 4.35779 27.938 0.539249C 28.147 -0.224461 25.6389 -0.155034 25.2905 0.608676Z"/>
<path id="path20_fill" d="M 0.412138 24.8553C 1.03918 28.4655 2.15391 32.5618 3.89568 35.9638C 4.24404 36.4498 4.66206 36.9358 5.14976 37.4217C 5.91614 38.3937 6.82186 39.2269 8.00626 39.7129C 10.5144 40.6849 13.5799 39.7823 16.2274 38.8797C 16.2971 38.8797 16.3668 38.8797 16.4364 38.8797C 23.3339 37.9772 30.4403 36.0332 36.432 32.4924C 41.518 29.4375 44.5138 24.7858 43.1901 18.1207C 42.0057 11.8722 38.3131 6.24853 33.0878 3.05484C 31.2067 1.87456 29.2559 1.11085 27.2354 0.555424C 27.0961 0.555424 26.9567 0.485997 26.8871 0.485997C 26.8174 0.485997 26.6781 0.416569 26.6084 0.416569C 26.3994 0.347141 26.26 0.34714 26.051 0.277712C 25.2846 0.138856 24.4486 1.47995e-14 23.6822 1.47995e-14C 22.0798 0.277712 20.4774 0.624853 18.9446 1.18028C 11.5595 3.67969 5.42844 8.81737 0.690821 15.2048C -0.2149 18.1902 -0.145229 21.5227 0.412138 24.8553Z"/>
<path id="path21_fill" d="M 59.8498 24.9941C 58.9441 23.3973 57.7597 21.9393 56.4359 20.5507C 56.2269 20.1341 55.9482 19.6482 55.7392 19.2316C 53.7884 15.8296 50.8622 13.1913 48.0754 10.4836C 45.5673 7.98423 43.1288 5.41539 40.3419 3.26312C 39.2272 2.42998 37.9731 1.59685 36.6494 0.971994C 36.2314 0.763709 35.7437 0.555425 35.256 0.347141C 34.6986 0.138857 34.2109 5.29694e-07 33.6535 5.29694e-07C 33.1658 5.29694e-07 32.7478 0 32.3298 0.208284C 32.2601 0.208284 32.2601 0.34714 32.3298 0.416568C 36.7191 1.45799 40.551 5.20711 42.9894 8.81737C 43.8952 9.92822 45.7066 14.8576 45.6369 16.1767C 45.5673 17.0793 45.3583 17.9819 45.0796 18.815C 44.6615 20.9673 43.8255 23.1196 42.2927 24.9941C 39.2969 28.535 34.5593 30.1318 30.17 31.7286C 25.7807 33.3255 20.9734 34.9918 16.2358 34.6446C 11.7769 34.2975 7.66631 32.2146 6.55157 28.1878C 6.55157 28.1184 6.4819 27.9795 6.41223 27.9101C 6.13355 27.077 5.92454 26.2438 5.78519 25.4107C 5.64585 23.7444 5.50651 22.0781 5.43684 20.3424C 5.50651 19.301 5.57618 18.1902 5.57618 17.1487C 5.64585 16.8016 5.64585 16.5239 5.71552 16.1767C 5.71552 16.0379 5.64585 15.6908 5.50651 15.5519C 5.50651 15.5519 5.50651 15.5519 5.50651 15.4825C 5.50651 15.413 5.43684 15.1353 5.36717 15.2048C 5.2975 15.2742 5.22783 15.3436 5.22783 15.4825C 4.11309 15.6908 4.18276 17.4265 4.18276 18.2596C 4.18276 20.273 4.39178 22.217 4.46145 24.2304C 4.53112 26.2438 4.53112 28.2572 4.53112 30.2707C 4.53112 30.3401 4.53112 30.4095 4.53112 30.4789C 4.04342 32.2841 3.41638 34.0892 2.51066 35.8943C 1.32626 38.3243 -0.0671593 40.6154 0.00251155 43.2537C 0.141853 46.9334 3.41638 50.8908 7.52697 50.4048C 7.24828 54.7094 8.71137 59.2222 12.1949 61.7216C 14.4244 63.3879 17.4899 63.3184 20.0677 61.9299C 21.5308 61.1662 22.7152 60.1247 23.6906 58.9445C 24.5963 64.9847 28.5676 70.539 35.8133 70.539C 39.8543 70.539 43.1985 68.3867 45.0099 64.9847C 46.264 62.5547 46.6123 59.847 46.4033 57.2088C 50.5139 59.2222 55.9482 57.6253 58.5957 53.3902C 61.5916 48.5997 60.6858 43.1843 58.4564 38.5326C 63.3333 36.172 61.8006 28.6044 59.8498 24.9941Z"/>
<path id="path22_fill" d="M 9.61985 0.00490001C 9.55018 0.00490001 9.48051 0.0743324 9.48051 0.0743324C 8.85347 0.0743324 8.29611 0.42147 7.73874 0.629754C 7.18137 0.838038 6.624 1.04632 6.06664 1.25461C 4.53388 1.46289 3.00112 1.7406 1.53803 2.29603C 0.562638 2.64317 -0.0644007 3.26802 0.00527023 4.17059C 0.00527023 4.24001 0.00527023 4.30944 0.00527023 4.37887C 0.00527023 5.14258 0.562637 5.97572 1.05033 6.53114C 2.65276 8.4057 4.9519 8.68342 7.32071 8.12799C 9.48051 7.64199 11.919 6.46172 12.1977 4.03173C 12.4067 2.7126 11.3616 -0.133956 9.61985 0.00490001Z"/>
<path id="path23_fill" d="M 5.85235 3.83185C 7.87281 3.48471 10.2416 2.65157 10.8687 0.4993C 10.5203 0.15216 10.1023 -0.0561277 9.61458 0.0133004C 9.54491 0.0133004 9.47524 0.0827328 9.47524 0.0827328C 8.8482 0.0827328 8.29084 0.42987 7.73347 0.638154C 7.1761 0.846439 6.61873 1.05472 6.06137 1.26301C 4.52861 1.47129 2.99585 1.74901 1.53276 2.30443C 0.627038 2.65157 -5.31547e-07 3.207 -5.31547e-07 4.04013C 1.95078 4.24842 3.90157 4.17899 5.85235 3.83185Z"/>
<path id="path24_fill" d="M -2.12619e-06 3.65916C 1.1844 4.0063 2.50815 4.0063 3.8319 3.65916C 5.78268 3.24259 7.87281 2.2706 8.56952 0.326609C 5.57367 -0.78424 1.95078 1.09032 -2.12619e-06 3.65916Z"/>
<path id="path25_fill" d="M 0.550797 6.6651C 0.75981 8.05366 0.899152 10.1365 2.29257 10.9002C 3.47697 11.5945 5.28841 11.1085 6.12446 10.0671C 7.16953 10.5531 8.35394 10.6225 9.399 10.2059C 10.0957 9.92822 10.7924 9.37279 10.6531 8.53965C 10.5834 8.19251 10.4441 7.9148 10.235 7.63709C 10.8621 7.49823 11.3498 7.28995 11.5588 6.87338C 12.2555 5.6931 11.0711 4.58225 10.026 4.30454C 9.18999 4.09626 8.35394 4.16569 7.58756 3.88797C 6.75151 3.61026 5.91546 3.12426 5.21875 2.63827C 4.24335 1.94399 3.4073 1.11085 2.36224 0.555424C 2.15323 0.347139 1.87454 0.138856 1.45652 -5.29694e-07C 1.31718 -5.29694e-07 0.341784 0.277713 0.759809 0.41657C 0.550797 0.485998 0.411456 0.555425 0.341785 0.624853C 0.202443 0.694282 0.0631005 0.833138 0.0631005 0.971994C -0.145912 2.84655 0.202443 4.85997 0.550797 6.6651ZM 3.82533 6.59567C 3.82533 6.73452 3.82533 6.94281 3.82533 7.08167C 3.82533 7.01224 3.82533 6.94281 3.75566 6.80395C 3.75566 6.6651 3.68599 6.59567 3.68599 6.45681C 3.68599 6.45681 3.75566 6.52624 3.82533 6.59567C 3.82533 6.52624 3.82533 6.52624 3.82533 6.59567Z"/>
<path id="path26_fill" d="M 6.41863 5.14383C 6.07028 3.47755 5.16456 1.74185 4.11949 0.769855C 2.72607 -0.549279 1.12364 -0.0632841 0.426935 1.39471C 0.357264 1.53356 0.217923 1.67242 0.148252 1.8807C -0.130432 2.57498 0.0089108 3.33869 0.357265 4.1024C 0.844961 5.97696 2.37772 7.43495 4.04982 8.33752C 5.51291 9.10123 6.27929 8.33752 6.41863 7.2961C 6.4883 7.08781 6.4883 6.8101 6.4883 6.53239C 6.83666 6.8101 6.69731 5.83811 6.62764 5.69925C 6.62764 5.49097 6.55797 5.28268 6.41863 5.14383ZM 1.68101 3.47755C 1.68101 3.61641 1.75068 3.68583 1.82035 3.82469C 1.75068 3.75526 1.68101 3.68583 1.61134 3.61641C 1.54167 3.54698 1.61134 3.54698 1.68101 3.47755Z"/>
<path id="path27_fill" d="M 2.22658 1.25638C 1.87823 0.631523 1.25119 0.0760987 0.554482 0.00667063C 0.136456 -0.0627575 -0.00288604 0.42324 0.0667848 0.839808C -0.142228 1.3258 0.206127 2.64494 0.206127 2.78379C 0.345469 3.26979 0.624153 3.75579 0.972507 4.17235C 1.39053 4.65835 2.01757 5.00549 2.71428 4.79721C 2.92329 4.72778 2.99296 4.38064 3.06263 4.17235C 3.06263 3.20036 2.78395 2.08951 2.22658 1.25638Z"/>
<path id="path28_fill" d="M 8.16037 2.21206C 8.0907 2.14263 8.0907 2.0732 8.0907 2.0732C 7.53333 1.37892 6.90629 -0.634497 5.16452 0.19864C 5.02518 0.268069 4.88584 0.337498 4.7465 0.476354C 4.60716 0.545782 4.39814 0.61521 4.18913 0.684638C 2.86538 1.37892 3.21374 2.21206 3.56209 3.04519C 3.49242 3.11462 3.42275 3.18405 3.35308 3.25348C 2.72604 2.69805 1.61131 2.42034 0.914599 3.46176C 0.635916 3.87833 0.635915 4.36433 0.775257 4.7809C 0.287561 5.05861 -0.0607926 5.33632 0.00887832 5.89175C 0.00887832 6.37774 0.28756 6.93317 0.984269 6.93317C 1.05394 6.93317 1.12361 6.93317 1.12361 6.86374C 3.00472 4.7809 5.58255 3.8089 8.43905 3.39233C 8.85708 3.25348 8.50872 2.21206 8.16037 2.21206Z"/>
<path id="path29_fill" d="M 6.85627 1.05939e-06C 6.08989 1.05939e-06 5.74154 0.416569 5.53253 0.902566C 5.25384 0.555425 4.83582 0.347141 4.20878 0.555425C 3.58175 0.76371 3.23339 1.24971 3.02438 1.7357C 2.258 1.18028 1.14326 0.833138 0.376882 1.94399C -0.59851 3.33255 0.516226 4.65168 1.49162 5.48482C 1.70063 5.6931 1.83997 5.55425 1.83997 5.34596C 1.90964 5.48482 2.04899 5.62368 2.18833 5.55425C 2.258 5.48482 2.32767 5.48482 2.39734 5.41539C 2.39734 5.41539 2.39734 5.41539 2.46701 5.41539C 3.37273 4.85997 4.27845 4.30454 5.32352 3.81855C 6.29891 3.40198 7.69233 3.26312 8.38904 2.63827C 8.52838 2.49941 8.52838 2.2217 8.38904 2.01341C 8.24969 1.24971 7.97101 0.0694292 6.85627 1.05939e-06Z"/>
<path id="path30_fill" d="M 40.6769 7.65725C 38.8655 6.82411 36.9844 6.96297 35.3123 7.65725C 35.1729 6.47697 34.8942 5.29669 34.3369 4.25527C 32.3164 0.297871 27.9968 -0.465838 23.9559 0.228443C 14.62 1.68643 9.95206 10.6427 6.7472 18.6269C 6.32917 19.5989 5.98082 20.6403 5.70214 21.6817C 5.42345 21.6123 5.0751 21.6123 4.79641 21.6123C 3.96036 21.4734 3.12431 21.4734 2.35793 21.8206C -0.846928 23.2786 -0.0805488 27.6525 0.61616 30.2908C 1.59155 33.8316 3.26365 37.0253 4.72674 40.3579C 4.72674 42.2324 4.72674 44.3153 5.56279 45.9121C 5.63246 46.051 6.05049 46.8147 6.32917 46.4676C 6.81687 45.7733 6.53818 44.8013 6.46851 44.0376C 6.39884 43.4822 6.39884 42.9267 6.32917 42.3019C 6.39884 42.163 6.46851 41.9547 6.39884 41.677C 6.39884 41.3299 6.32917 40.9133 6.2595 40.5662C 6.2595 38.1362 6.39884 35.7062 6.67753 33.3456C 6.67753 33.0679 6.67753 32.7208 6.60786 32.4431C 10.7184 28.694 16.2921 27.4443 21.7264 27.0971C 23.9559 26.9583 27.4394 27.3748 28.1362 24.5977C 28.2058 24.2506 28.2755 23.7646 28.2755 23.348C 31.2713 24.0423 34.4762 23.834 37.4024 22.7926C 40.4679 21.6817 44.1605 19.46 44.7875 15.9886C 45.5539 12.6561 43.7424 9.04581 40.6769 7.65725ZM 5.00543 24.9448C 4.93576 24.806 4.93575 24.7366 4.86608 24.6671C 4.93575 24.6671 4.93576 24.5977 5.00543 24.5977L 5.0751 24.5977C 5.0751 24.7366 5.0751 24.8754 5.00543 24.9448Z"/>
<path id="path31_fill" d="M 1.74924 0.180379C 1.54022 -0.0279048 1.40088 -0.0279053 1.19187 0.0415228C 0.982858 0.0415228 0.773843 0.110951 0.634502 0.180379C 0.286147 0.319236 0.0771362 0.666377 0.00746527 1.01352C -0.0622056 1.7078 0.355819 3.16579 1.26154 2.88808C 1.40088 2.81865 1.54022 2.74922 1.67956 2.67979L 1.74924 2.67979C 2.65496 2.26322 2.23693 0.735804 1.74924 0.180379Z"/>
<path id="path32_fill" d="M 1.80201 0.443807C 1.73234 0.30495 1.593 0.0966661 1.38399 0.0966661C 1.31431 0.0966661 1.24465 0.166093 1.17498 0.166093C 1.03563 0.027237 0.826619 -0.0421917 0.617607 0.0272365C 0.478265 0.0966646 0.408597 0.166092 0.408597 0.23552C 0.269256 0.304948 0.129914 0.443805 0.0602429 0.582661C -0.14877 1.20751 0.199583 2.17951 0.896291 2.24894C 0.965962 2.24894 1.03564 2.31836 1.10531 2.31836C 1.31432 2.31836 1.52333 2.17951 1.593 2.04065C 1.73234 1.97122 1.87168 1.9018 1.94135 1.83237C 2.22004 1.4158 2.01103 0.790947 1.80201 0.443807Z"/>
<path id="path33_fill" d="M 16.512 4.09626C 13.9342 3.67969 11.426 2.9854 8.98754 2.22169C 6.75808 1.52741 4.59828 0.69429 2.43848 8.47511e-06C 1.53276 3.05485 0.696708 6.17911 -5.31547e-07 9.30337C 4.94663 10.6225 10.1023 11.9416 15.1883 11.1779C 17.8357 10.7613 20.0652 9.78937 22.016 8.33138C 22.1553 7.84538 22.2947 7.35938 22.434 6.87339C 22.643 6.10968 22.852 5.34596 23.1307 4.58225C 20.9013 4.58225 18.6718 4.51283 16.512 4.09626Z"/>
<path id="path34_fill" d="M 21.4008 15.893C 21.8188 13.8102 22.3065 11.7273 22.6548 9.57505C 22.8638 8.39477 23.1425 7.00622 23.0729 5.68708C 23.8392 5.27051 24.745 4.43738 23.6302 3.95138C 23.2122 3.7431 22.8638 3.60424 22.4458 3.39595C 22.4458 3.32653 22.3761 3.2571 22.3761 3.2571C 22.2368 3.04882 21.8188 2.97938 21.4704 2.97938C 19.9377 2.35453 18.3352 1.86853 16.7328 1.45197C 14.4337 0.827113 12.1345 0.341116 9.83539 0.410544L 9.83539 0.341112C 9.76572 -0.283741 8.02394 0.0634076 7.81493 0.479976C 7.74526 0.618832 7.60592 0.757686 7.53625 0.965971C 7.1879 1.17426 6.90921 1.45196 7.04855 1.72967C 6.63053 2.42395 6.14283 3.11824 5.86415 3.95138C 5.44612 5.06223 5.0281 6.17308 4.67974 7.35335C 3.98303 9.57505 3.356 11.8662 2.79863 14.1573C 1.6839 18.3924 0.569161 22.697 0.151136 27.0015C -0.545573 34.5692 1.05686 43.2477 7.25757 48.3159C 10.8108 51.2319 15.4787 52.8288 20.0073 53.4536C 21.0524 53.5925 22.3762 53.4536 23.3515 53.037C 23.9786 51.9956 24.5359 50.9542 25.0933 49.9822C 23.9089 48.4548 22.3761 47.1357 21.2614 45.5388C 20.1467 43.942 19.45 42.1368 18.9623 40.2623C 18.0566 36.4437 18.1959 32.4863 18.8229 28.5984C 19.3803 24.2244 20.495 20.0587 21.4008 15.893Z"/>
<path id="path35_fill" d="M 0.0696698 0.0698768C -1.06413e-06 -2.13462e-06 0 4.26507e-06 0 4.26507e-06C 0.0696709 0.0698832 0.0696698 0.0698768 0.0696698 0.0698768C 0.0696698 0.139756 0.0696698 0.0698768 0.0696698 0.0698768Z"/>
<path id="path36_fill" d="M 25.7384 24.347C 26.6441 21.2227 26.9228 17.9596 26.8531 14.7659C 26.7835 11.5723 26.6441 7.96198 25.0417 5.11543C 24.345 3.7963 22.9516 2.54659 21.3491 1.64403C 21.1401 1.43574 20.8614 1.29689 20.7221 1.22746C 18.1443 -0.161099 14.9394 -0.43882 12.2222 0.741458C 9.50508 1.92174 7.69364 4.21287 6.23055 6.71228C 4.62812 9.62826 3.37404 12.7525 2.25931 15.8768C 1.70194 17.4736 1.21424 19.0011 0.726547 20.6673C 0.378192 21.917 -0.388185 23.6527 0.238853 24.9024C 1.77161 27.8184 6.85758 27.8184 9.71409 28.3044C 13.128 28.8598 16.5418 29.4847 19.9557 29.9013C 21.3491 30.1095 22.7425 30.1095 23.6483 28.9293C 24.763 27.5407 25.3204 25.8744 25.7384 24.347Z"/>
<path id="path37_fill" d="M 0.696709 1.11085C 0.696709 1.04142 0.627038 0.902565 0.627038 0.833137C 0.627038 0.694281 0.557366 0.624853 0.557366 0.485997C 0.557366 0.208284 0.487696 2.11878e-06 0.348354 2.11878e-06C 0.348354 2.11878e-06 0.348354 2.11878e-06 0.278683 2.11878e-06C 0.139341 0.0694302 0.139342 0.624851 0.139342 0.624851C 0.0696714 1.38856 2.47521e-15 2.15227 2.47521e-15 2.91598C 2.47521e-15 3.33255 2.64735e-07 3.74912 0.0696711 4.16569C 0.0696711 4.16569 0.209012 4.72111 0.209012 4.65168C 0.348354 4.4434 0.348355 4.16569 0.418026 3.9574C 0.487696 3.40198 0.487696 2.84655 0.557366 2.29113C 0.557366 2.15227 0.557366 1.2497 0.557366 0.555424C 0.557366 0.763708 0.627038 0.902566 0.696709 1.11085Z"/>
<path id="path38_fill" d="M 0.286425 0C 0.00774121 0 0.00774147 1.94399 0.00774147 2.15227C 0.00774147 2.36055 -0.0619299 4.37397 0.216754 4.37397C 0.495437 4.37397 0.495437 2.42998 0.495437 2.2217C 0.495437 2.01341 0.565108 0 0.286425 0Z"/>
<path id="path39_fill" d="M 0.418026 0.653612C 0.418026 0.445328 0.348353 0.237041 0.348353 0.0981851C 0.348353 0.028757 0.278684 -0.04067 0.278684 0.0287581C 0.139342 0.0981862 0.0696714 1.00075 0.0696714 1.07018C 5.2947e-07 1.83389 -1.06309e-06 2.5976 -1.06309e-06 3.29188C -1.06309e-06 3.56959 0.0696714 3.91673 0.0696714 4.19444C 0.0696714 4.3333 0.139343 4.54159 0.209014 4.40273C 0.348355 4.19445 0.348353 3.63902 0.348353 3.43074C 0.348353 3.22245 0.418026 2.94474 0.418026 2.73645C 0.487697 2.1116 0.487697 1.34789 0.418026 0.653612Z"/>
<path id="path40_fill" d="M 0.286425 -1.05939e-06C 0.00774121 -1.05939e-06 0.00774015 1.94398 0.00774015 2.15227C 0.00774015 2.36055 -0.0619286 4.30454 0.216755 4.30454C 0.495438 4.30454 0.495437 2.36055 0.495437 2.15227C 0.425766 1.94398 0.495437 -1.05939e-06 0.286425 -1.05939e-06Z"/>
<path id="path41_fill" d="M 0.298697 -2.11878e-06C -0.0496577 -2.11878e-06 -0.119327 4.09626 0.229027 4.09626C 0.577381 4.09626 0.57738 -2.11878e-06 0.298697 -2.11878e-06Z"/>
<path id="path42_fill" d="M 0.348355 0.138856C 0.348355 0.0694281 0.278684 2.11878e-06 0.278684 2.11878e-06C 0.278684 2.11878e-06 0.278684 1.06042e-06 0.278684 0.0694292C 0.139342 1.06042e-06 0.139342 0.555427 0.0696714 0.694283C 5.2947e-07 1.24971 2.65773e-07 1.80513 2.65773e-07 2.36055C 2.65773e-07 2.56884 5.2947e-07 2.77712 0.0696714 3.05483C 0.0696714 3.05483 0.139341 3.4714 0.139341 3.40197C 0.418025 2.98541 0.348355 2.2217 0.348355 1.7357C 0.348355 1.66628 0.348355 0.902565 0.348355 0.485997C 0.348355 0.555425 0.418026 0.624855 0.418026 0.694283C 0.418026 0.416571 0.348355 0.208284 0.348355 0.138856Z"/>
<path id="path43_fill" d="M 5.31547e-07 -1.05939e-06L 5.31547e-07 0.069426C 0.139342 0.485995 0.0696714 0.277711 5.31547e-07 -1.05939e-06Z"/>
<path id="path44_fill" d="M 0.322822 1.05939e-06C -0.0952029 1.05939e-06 -0.0952018 4.4434 0.253153 4.4434C 0.601507 4.51283 0.671177 1.05939e-06 0.322822 1.05939e-06Z"/>
<path id="path45_fill" d="M 0.53995 0.277712C 0.470279 0.138856 0.47028 0.069427 0.330938 -1.05939e-06C 0.261267 0.069427 0.191595 0.208283 0.191595 0.347139C 0.121925 0.833136 0.0522532 1.31913 0.0522532 1.80513C -0.0174177 2.56884 -0.0174177 3.40197 0.0522532 4.23511C 0.0522532 4.23511 0.121925 5.20711 0.330938 4.85997C 0.748963 4.16568 0.818632 3.33255 0.818632 2.49941C 0.888303 1.7357 0.888304 0.971993 0.53995 0.277712Z"/>
<path id="path46_fill" d="M 0.385377 2.11878e-06C -0.102319 2.11878e-06 -0.102319 5.34596 0.246035 5.34596C 0.733731 5.34596 0.803403 2.11878e-06 0.385377 2.11878e-06Z"/>
<path id="path47_fill" d="M 0.627038 1.38486C 0.627038 0.96829 0.557368 0.41287 0.418026 0.0657294C 0.278685 -0.142555 0.278682 0.204582 0.209012 0.274011C 0.0696698 0.760007 0.0696719 1.31543 0.0696719 1.87086C 0.0696719 2.35686 0.0696719 2.77342 0.0696719 3.25942C 0.0696719 3.18999 0.0696703 3.12056 -5.31547e-07 3.05113C -5.31547e-07 3.18999 0.0696719 3.39828 0.0696719 3.53713C 0.0696719 3.74542 0.0696698 4.02313 0.209012 4.23142L 0.209012 4.30084C 0.278682 4.30084 0.278683 4.37027 0.348354 4.37027C 0.418025 4.4397 0.418025 4.30084 0.487696 4.23142C 0.487696 4.16199 0.487696 4.16198 0.487696 4.09256C 0.487696 4.09256 0.487696 4.09256 0.487696 4.16198C 0.487696 4.09256 0.487696 4.09256 0.487696 4.02313C 0.557367 3.81484 0.557366 3.60656 0.557366 3.4677C 0.627037 2.77342 0.696709 2.07914 0.627038 1.38486Z"/>
<path id="path48_fill" d="M 0.627038 0.493259C 0.627038 0.354403 0.557368 -0.201026 0.418026 0.076686C 0.209014 0.423827 0.209013 0.840398 0.139342 1.25697C 0.0696709 1.67354 -5.31547e-07 2.0901 -5.31547e-07 2.50667C -5.31547e-07 2.92324 -5.31547e-07 3.27038 -5.31547e-07 3.68695C -5.31547e-07 3.96466 0.348355 5.00608 0.418026 4.93665C 0.627039 4.86723 0.627038 4.38123 0.627038 4.24237C 0.696709 3.54809 0.766381 2.85381 0.766381 2.15953C 0.69671 1.6041 0.696709 1.04868 0.627038 0.493259Z"/>
<path id="path49_fill" d="M 0.298697 -1.05939e-06C -0.0496577 -1.05939e-06 -0.119327 4.23511 0.229027 4.23511C 0.577381 4.23511 0.57738 -1.05939e-06 0.298697 -1.05939e-06Z"/>
<path id="path50_fill" d="M 0.322822 2.11878e-06C -0.0952029 2.11878e-06 -0.0952018 4.65168 0.253153 4.65168C 0.601507 4.65168 0.671177 2.11878e-06 0.322822 2.11878e-06Z"/>
<path id="path51_fill" d="M 0.413825 -2.11878e-06C -0.0738711 -2.11878e-06 -0.143543 5.48482 0.274483 5.48482C 0.762179 5.48482 0.83185 -2.11878e-06 0.413825 -2.11878e-06Z"/>
<path id="path52_fill" d="M 0.522529 0.590139C 0.522529 0.451283 0.45286 0.243 0.45286 0.104144C 0.383189 -0.0347119 0.31352 -0.0347119 0.31352 0.104144C 0.243849 0.312429 0.174175 0.590141 0.174175 0.798425C 0.104504 1.07614 0.104505 1.42327 0.104505 1.70099C 0.0348344 2.53412 0.0348344 3.36726 0.104505 4.13097C 0.104505 4.2004 0.104505 4.47811 0.104505 4.75582C -0.0348365 4.33926 -0.0348365 4.33926 0.104505 4.75582C 0.104505 4.82525 0.104504 4.89468 0.174175 4.89468C 0.174175 5.17239 0.243849 5.38068 0.31352 5.45011C 0.383191 5.51953 0.383189 5.51953 0.45286 5.38068C 0.45286 5.31125 0.522529 5.17239 0.522529 5.10296C 0.731542 4.33926 0.731544 3.50612 0.731544 2.74241C 0.661873 2.04813 0.661871 1.35385 0.522529 0.590139Z"/>
<path id="path53_fill" d="M 1.00636 0.335489C 1.00636 0.266061 0.936687 -0.150509 0.797346 0.0577755L 0.797346 0.127208L 0.867015 0.0577755C 0.658003 0.26606 0.588331 0.543772 0.588331 0.752056C 0.448989 0.960341 0.309647 1.0992 0.239976 1.30748C 0.100635 1.65462 0.030967 2.07119 0.030967 2.41833C 0.030967 2.90433 -0.0387039 3.39033 0.030967 3.80689C 0.100638 4.29289 0.309647 4.64003 0.588331 5.0566L 0.658001 5.12603C 0.867013 4.98717 0.867014 4.77889 0.936685 4.5706C 1.07603 4.08461 1.07603 3.52918 1.07603 3.11261C 1.07603 2.55719 1.07603 2.07119 1.07603 1.51577C 1.07603 1.0992 1.07603 0.682629 1.00636 0.335489Z"/>
<path id="path54_fill" d="M 0.418026 0.538067C 0.418026 0.329782 0.348353 0.190928 0.348353 0.0520721C 0.278682 -0.017356 0.278685 -0.017356 0.209014 0.0520721C 0.139343 0.190928 0.139342 0.399211 0.0696714 0.538067C 5.2947e-07 0.815779 -1.06309e-06 1.09349 -1.06309e-06 1.44063C -1.06309e-06 2.06549 -1.06309e-06 2.75976 -1.06309e-06 3.38462C -1.06309e-06 3.45405 -1.06309e-06 3.45405 -1.06309e-06 3.52348C -1.06309e-06 3.59291 1.05894e-06 4.21776 0.209014 4.00947C 0.278685 3.87062 0.278684 3.66233 0.278684 3.52348C 0.278684 3.24576 0.348353 2.96805 0.348353 2.69034C 0.348353 2.62091 0.348353 2.55148 0.348353 2.48206C 0.418024 1.8572 0.487697 1.16292 0.418026 0.538067Z"/>
<path id="path55_fill" d="M 0.374984 1.05939e-06C -0.112712 1.05939e-06 -0.112711 5.20711 0.305314 5.20711C 0.723339 5.20711 0.793009 1.05939e-06 0.374984 1.05939e-06Z"/>
<path id="path56_fill" d="M 0.557367 1.18697C 0.557367 0.839828 0.557369 0.492686 0.418027 0.214974C 0.418027 0.145546 0.348353 -0.132165 0.278682 0.0761197C 0.0696698 0.42326 0.069673 0.839827 0.069673 1.2564C 2.12307e-06 1.88125 -2.12619e-06 2.43668 -2.12619e-06 3.06153C -2.12619e-06 3.33924 2.12307e-06 3.68638 0.069673 4.03352C 0.069673 3.96409 0.069673 3.96409 0.069673 3.89467C 0.069673 3.96409 0.069673 4.03352 0.069673 4.10295C 0.069673 4.17238 0.069673 4.17238 0.069673 4.24181L 0.069673 4.31123C 0.069673 4.24181 0.0696688 4.17238 -2.12619e-06 4.10295C -2.12619e-06 4.38066 0 4.72781 0.209013 4.79723C 0.278684 4.86666 0.278681 4.7278 0.348352 4.65837C 0.418023 4.38066 0.487697 3.96409 0.487697 3.68638C 0.627039 2.85324 0.627038 2.02011 0.557367 1.18697Z"/>
<path id="path57_fill" d="M 0.418023 0.562172C 0.418023 0.423315 0.418026 -0.062678 0.209014 0.00675008C 0.069672 0.0761782 0.0696688 0.631602 0.0696688 0.770458C -2.12826e-06 1.32588 -1.06309e-06 1.95073 -1.06309e-06 2.57559C -1.06309e-06 2.64502 -1.06309e-06 2.64501 -1.06309e-06 2.71444C -1.06309e-06 3.13101 -2.12826e-06 3.54758 0.0696688 3.89472C 0.0696688 3.96415 0.069673 4.103 0.139344 4.103C 0.139344 4.24186 0.139343 4.24186 0.209014 4.103C 0.278685 3.96415 0.348353 3.61701 0.348353 3.61701C 0.348353 3.54758 0.348353 3.54758 0.348353 3.47815L 0.348353 3.40872C 0.348353 3.33929 0.348353 3.26987 0.348353 3.20044C 0.348353 3.06159 0.348352 2.92273 0.418023 2.71444C 0.418023 2.64501 0.418023 2.57559 0.418023 2.50616C 0.418023 2.3673 0.418023 2.29788 0.418023 2.15902C 0.418023 2.08959 0.418023 2.08959 0.418023 2.02016C 0.418023 1.53416 0.418023 1.04817 0.418023 0.562172Z"/>
<path id="path58_fill" d="M 0.627036 0.487308C 0.627036 0.41788 0.557368 -0.206972 0.418026 0.0707405C 0.278685 0.348453 0.209013 0.695589 0.139342 1.04273C 0 1.4593 2.12619e-06 1.9453 2.12619e-06 2.43129C 2.12619e-06 2.50072 1.03818e-06 5.06956 0.418026 4.93071C 0.557368 4.86128 0.627036 4.37528 0.627036 4.23643C 0.696707 3.54215 0.766381 2.84786 0.766381 2.15358C 0.69671 1.52873 0.696707 0.973305 0.627036 0.487308Z"/>
<path id="path59_fill" d="M 0.298697 0C -0.0496577 0 -0.119327 4.30454 0.229027 4.30454C 0.577381 4.37397 0.57738 0 0.298697 0Z"/>
<path id="path60_fill" d="M 0.270702 1.05939e-06C -0.0776525 1.05939e-06 -0.0776514 3.81855 0.201032 3.81855C 0.479716 3.81855 0.549385 1.05939e-06 0.270702 1.05939e-06Z"/>
<path id="path61_fill" d="M 0.350522 -2.11878e-06C -0.0675036 -2.11878e-06 -0.137173 4.85997 0.280852 4.85997C 0.629206 4.79054 0.698876 -2.11878e-06 0.350522 -2.11878e-06Z"/>
<path id="path62_fill" d="M 1.06248 1.85881C 1.06248 1.65053 1.06248 1.44224 0.99281 1.23396C 0.99281 1.16453 0.923141 0.956249 0.85347 1.09511C 1.41084 -0.0157443 0.85347 -0.154601 0.505116 0.123111C 0.365774 0.261967 0.365772 0.470248 0.296101 0.678532C 0.0870886 1.16453 0.0870875 1.71996 0.0174167 2.27538C 0.0174167 2.96966 -0.0522553 3.66394 0.0870865 4.35822C 0.0870865 4.49708 0.0870907 4.56651 0.156762 4.70536C 0.156762 4.63594 0.156757 4.56651 0.0870865 4.49708C 0.0870865 4.70536 0.22643 4.91365 0.296101 5.12193C 0.296101 5.26079 0.36577 5.39964 0.435441 5.46907C 0.505112 5.46907 0.574786 5.46907 0.574786 5.39965C 0.714127 5.33022 0.714124 4.98307 0.783795 4.84422C 0.853466 4.42765 0.853469 4.01109 0.92314 3.52509C 1.13215 2.96966 1.06248 2.34481 1.06248 1.85881Z"/>
<path id="path63_fill" d="M 0.7838 2.11878e-06C 0.574787 2.11878e-06 0.365772 0.208286 0.22643 0.347143C 0.0870886 0.416571 0.0870907 0.763709 0.0870907 0.833137C 0.0174198 1.18028 0.0174156 1.45799 0.0174156 1.80513C 0.0174156 2.36056 -0.052251 3.05484 0.0870907 3.61026C 0.156762 3.74912 0.226429 3.88797 0.2961 4.02683C 0.365771 4.4434 0.435443 4.79054 0.574785 5.20711C 0.714126 5.48482 0.7838 4.99882 0.7838 4.9294C 0.923141 4.30454 0.923138 3.67969 0.992809 2.98541C 0.992809 2.84655 1.13215 2.11878e-06 0.7838 2.11878e-06Z"/>
<path id="path64_fill" d="M 0.69671 0.467722C 0.69671 0.328865 0.696708 -0.15713 0.487695 0.0511541C 0.348353 0.120582 0.348357 0.19001 0.278686 0.398295L 0.20901 0.467722C 0.0696687 0.53715 0.0696709 0.884292 0.0696709 1.02315C 0 1.37029 1.06309e-06 1.71743 1.06309e-06 2.06457C 1.06309e-06 2.41171 1.06309e-06 2.82828 1.06309e-06 3.24485C 1.06309e-06 3.52256 0 3.8697 0.0696709 4.07799C 0.0696709 4.00856 0.0696719 3.93913 1.06309e-06 3.8697C 1.06309e-06 3.93913 0 4.00856 0.0696709 4.14741C 0.139342 4.28627 0.20901 4.3557 0.20901 4.49455L 0.278686 4.56398C 0.348357 4.56398 0.348354 4.56398 0.418025 4.56398C 0.557367 4.49455 0.557369 4.07798 0.62704 3.93913C 0.696711 3.31427 0.696709 2.68942 0.76638 2.06457C 0.76638 1.43972 0.766381 0.953718 0.69671 0.467722ZM 0.418025 3.45313C 0.418025 3.31428 0.348355 3.17542 0.348355 3.03656C 0.418026 2.06457 0.487694 1.09258 0.557365 0.0511541C 0.487694 1.23143 0.418025 2.34228 0.418025 3.45313Z"/>
<path id="path65_fill" d="M 0.69953 0.485995C 0.69953 0.416566 0.699532 0.0694281 0.56019 0C 0.420848 0 0.351177 0.208286 0.211836 0.208286C 0.00282295 0.138858 -0.0668458 3.05484 0.072496 3.40198C 0.142167 3.47141 0.420849 4.37397 0.49052 4.37397C 0.699533 4.30454 0.769205 2.91598 0.769205 2.77712C 0.769205 2.01341 0.769201 1.2497 0.69953 0.485995Z"/>
<path id="path66_fill" d="M 1.32375 0.878739C 1.32375 0.739883 1.32375 0.531601 1.25408 0.392745C 1.1844 0.253888 1.1844 0.184459 1.04506 0.115031C 0.97539 -0.023825 0.905724 -0.023824 0.766382 0.0456041C 0.557369 0.18446 0.487694 0.392747 0.348352 0.601031C -2.11788e-06 1.08703 -2.12619e-06 1.71188 -2.12619e-06 2.2673C -2.12619e-06 2.82273 -1.05894e-06 3.44758 0.278682 3.93358C 0.418024 4.14186 0.487694 4.35015 0.696707 4.41958C 0.836048 4.489 0.90572 4.489 0.975391 4.35014C 1.04506 4.28072 1.11474 4.14186 1.18441 4.07244C 1.32375 3.86415 1.32375 3.44758 1.32375 3.16987C 1.32375 2.7533 1.39342 2.33673 1.39342 1.92016C 1.39342 1.57302 1.39342 1.22588 1.32375 0.878739Z"/>
<path id="path67_fill" d="M 0.696707 0.612101C 0.696707 0.612101 0.627039 -0.221039 0.487697 0.0566739C 0.139343 0.750955 0.0696688 1.37581 -2.12619e-06 2.13952C -2.12619e-06 2.76437 -1.05894e-06 3.38923 0.278682 4.01408C 0.348353 4.15294 0.348357 4.22236 0.418027 4.29179C 0.487698 4.22236 0.557367 4.15294 0.557367 4.01408C 0.627038 3.59751 0.696707 3.18094 0.696707 2.76437C 0.766378 2.00066 0.766378 1.30638 0.696707 0.612101Z"/>
<path id="path68_fill" d="M 0.584808 0.166091C 0.515137 0.0272349 0.515139 -0.0421911 0.445468 0.027237C 0.375797 0.0966651 0.306123 0.513233 0.306123 0.790945C 0.236452 0.790945 0.166784 0.790945 0.166784 0.790945C -0.0422291 0.860373 -0.0422281 2.80436 0.0971137 2.87379C 0.166785 2.87379 0.236453 2.87379 0.236453 2.87379C 0.236453 3.08207 0.236452 3.35978 0.306123 3.56807C 0.375794 3.70692 0.306126 3.77635 0.445468 3.6375C 0.58481 3.49864 0.515137 3.1515 0.584808 2.94321C 0.654479 2.59607 0.654478 2.17951 0.654478 1.83237C 0.654478 1.34637 0.724149 0.652088 0.584808 0.166091Z"/>
<path id="path69_fill" d="M 0.298697 0C -0.0496577 0 -0.119327 4.37397 0.229027 4.37397C 0.577381 4.37397 0.57738 0 0.298697 0Z"/>
<path id="path70_fill" d="M 0.298697 5.29694e-07C -0.0496577 5.29694e-07 -0.119327 4.09626 0.229027 4.09626C 0.577381 4.09626 0.57738 5.29694e-07 0.298697 5.29694e-07Z"/>
<path id="path71_fill" d="M 0.139343 3.70936C 0.139343 3.43164 0.139343 2.80679 0.139343 1.97365C 0.348355 0.0990952 0.348355 -0.456329 0.139343 0.376808C 0.0696719 0.793377 -2.12619e-06 1.27937 -2.12619e-06 1.69594L -2.12619e-06 1.76537C -2.12619e-06 1.8348 -2.12619e-06 1.97365 -2.12619e-06 2.04308C -2.12619e-06 2.25137 -2.12619e-06 2.52908 -2.12619e-06 2.73736C -2.12619e-06 2.80679 -2.12619e-06 2.87622 -2.12619e-06 2.94565C -2.12619e-06 3.50107 0 4.47306 0.209013 4.47306C 0.209013 4.19535 0.139343 3.91764 0.139343 3.70936C 0.209014 3.77878 0.139343 3.77878 0.139343 3.70936Z"/>
<path id="path72_fill" d="M 0.627038 1.04142C 0.627038 0.902565 0.627039 0.69428 0.557368 0.555424L 0.557368 0.485997C 0.557368 0.485997 0.557368 0.485998 0.557368 0.41657C 0.557368 0.347142 0.557368 0.347141 0.557368 0.277713L 0.557368 0.34714C 0.557368 0.277712 0.487698 0.138857 0.487698 0.0694292C 0.487698 0.0694292 0.487694 -5.29694e-07 0.418023 -5.29694e-07C 0.348352 0.0694276 0.278685 0.0694292 0.209014 0.0694292C 1.05894e-06 0.0694292 -1.06309e-06 1.31913 -1.06309e-06 1.38856C -1.06309e-06 1.7357 -1.06309e-06 2.08284 -1.06309e-06 2.36056C -1.06309e-06 2.56884 -2.12826e-06 2.84655 0.0696688 3.05484C 0.13934 3.19369 0.209014 3.33255 0.209014 3.4714C 0.209014 3.4714 0.209013 3.54083 0.278684 3.54083C 0.278684 3.54083 0.348353 3.54083 0.348353 3.4714C 0.487695 3.40198 0.487698 3.05484 0.487698 2.98541C 0.557369 2.63827 0.557368 2.36056 0.557368 2.01342C 0.627039 1.7357 0.696709 1.38856 0.627038 1.04142Z"/>
<path id="path73_fill" d="M 0.356096 -5.29694e-07C 0.216754 -5.29694e-07 0.147081 0.69428 0.147081 0.69428C 0.07741 1.24971 0.0774121 1.80513 0.00774121 2.36055C 0.00774121 2.56884 -0.0619275 4.72111 0.216756 4.72111C 0.356098 4.72111 0.425765 4.02683 0.425765 4.02683C 0.495436 3.4714 0.495439 2.91598 0.56511 2.36055C 0.56511 2.15227 0.634779 -5.29694e-07 0.356096 -5.29694e-07Z"/>
<path id="path74_fill" d="M 0.286425 -1.05939e-06C 0.00774121 -1.05939e-06 0.00774015 1.94398 0.00774015 2.15227C 0.00774015 2.36055 -0.0619286 4.30454 0.216755 4.30454C 0.495438 4.30454 0.495439 2.36055 0.495439 2.15227C 0.425769 1.94398 0.495437 -1.05939e-06 0.286425 -1.05939e-06Z"/>
<path id="path75_fill" d="M 0.557365 0.763709C 0.557365 0.624853 0.557368 1.05939e-06 0.348355 1.05939e-06C 0.209014 1.05939e-06 0.139341 0.763709 0.139341 0.763709C 0.0696698 1.38856 1.06309e-06 2.01341 1.06309e-06 2.63827C 1.06309e-06 3.26312 0 3.88797 0.0696709 4.51283C 0.0696709 4.65168 0.069673 5.27654 0.278686 5.27654C 0.418027 5.27654 0.487695 4.51283 0.487695 4.51283C 0.557366 3.88797 0.62704 3.26312 0.62704 2.63827C 0.62704 2.01341 0.627036 1.38856 0.557365 0.763709Z"/>
<path id="path76_fill" d="M 0.298697 2.11878e-06C -0.0496577 2.11878e-06 -0.119327 3.9574 0.229027 3.9574C 0.50771 3.9574 0.57738 2.11878e-06 0.298697 2.11878e-06Z"/>
<path id="path77_fill" d="M 0.418023 0.723037C 0.418023 0.514753 0.348353 0.306473 0.348353 0.0981883C 0.348353 0.0287602 0.278684 -0.0406722 0.278684 0.0287559C 0.0696709 0.098184 0.0696687 1.07018 0.0696687 1.13961C -2.12826e-06 1.97275 -1.06309e-06 2.73646 -1.06309e-06 3.56959L -1.06309e-06 3.63902C -1.06309e-06 3.91673 -2.12826e-06 4.19444 0.0696687 4.47216C 0.0696687 4.61101 0.139343 4.8193 0.209014 4.74987C 0.278685 4.68044 0.348353 4.40273 0.348353 4.26387C 0.418024 3.84731 0.418027 3.43073 0.487698 3.01417L 0.487698 2.94474C 0.487698 2.31989 0.487694 1.48675 0.418023 0.723037Z"/>
<path id="path78_fill" d="M 20.9214 0.148822C 20.0853 5.49479 13.1879 5.07822 9.35601 6.25849C 5.73312 7.36934 2.38892 9.52162 0.020112 12.5765C -0.0495589 12.7153 0.0897829 13.0624 0.020112 13.1319C 3.92168 9.66047 7.54457 7.71649 12.7699 7.0222C 16.5321 6.46678 20.5033 5.70307 21.0607 1.3291C 21.0607 1.05139 20.991 -0.476031 20.9214 0.148822Z"/>
<path id="path79_fill" d="M 14.2651 0C 14.3348 0.0694281 14.1258 0.763709 14.1954 0.971993C 14.8225 4.37397 10.5029 6.6651 7.99474 7.84538C 5.41691 9.09508 2.83909 9.23394 0.0522542 9.78936C -0.0174167 9.78936 -0.0174167 10.4142 0.0522542 10.4836C 5.55625 13.3302 17.052 6.94281 14.2651 0Z"/>
<path id="path80_fill" d="M 4.59828 3.40197C 4.59828 2.56884 4.38927 1.66628 3.97124 1.04142C 3.55321 0.485999 2.92618 2.11878e-06 2.36881 2.11878e-06C 1.11473 0.0694302 -1.06309e-06 1.38856 -1.06309e-06 3.26312C -1.06309e-06 3.61026 -1.06309e-06 3.9574 -1.06309e-06 4.30454C -1.06309e-06 5.62368 0.348354 6.87338 1.1844 7.56766C 1.88111 8.12309 2.71716 8.19252 3.41387 7.63709C 4.24992 6.94281 4.66795 5.76253 4.66795 4.4434C 4.66795 4.16568 4.59828 3.81854 4.59828 3.40197Z"/>
</defs>
</svg>
