<?xml version="1.0" encoding="UTF-8" standalone="no"?>
<svg width="66px" height="66px" viewBox="0 0 66 66" version="1.1" xmlns="http://www.w3.org/2000/svg" xmlns:xlink="http://www.w3.org/1999/xlink">
    <!-- Generator: Sketch 39 (31667) - http://www.bohemiancoding.com/sketch -->
    <title>Check-In Chats Icon</title>
    <desc>Created with Sketch.</desc>
    <defs>
        <linearGradient x1="50%" y1="0%" x2="50%" y2="100%" id="linearGradient-1">
            <stop stop-color="#01E8ED" offset="0%"></stop>
            <stop stop-color="#019BD6" offset="100%"></stop>
        </linearGradient>
        <path d="M46.4545853,35.5769563 C46.4545853,35.9966034 46.3012324,36.4138134 45.9789971,36.7354941 C45.6582176,37.0581496 45.24135,37.2170403 44.8167176,37.2170403 L1.76773235,37.2170403 C1.34698235,37.2170403 0.931570588,37.0581496 0.610305882,36.7354941 C0.293408824,36.4138134 0.132776471,35.9966034 0.132776471,35.5769563 L0.132776471,8.37788067 L46.4545853,8.37788067 L46.4545853,35.5769563 Z" id="path-2"></path>
        <filter x="-50%" y="-50%" width="200%" height="200%" filterUnits="objectBoundingBox" id="filter-3">
            <feOffset dx="-1" dy="1" in="SourceAlpha" result="shadowOffsetOuter1"></feOffset>
            <feGaussianBlur stdDeviation="0.5" in="shadowOffsetOuter1" result="shadowBlurOuter1"></feGaussianBlur>
            <feColorMatrix values="0 0 0 0 0   0 0 0 0 0   0 0 0 0 0  0 0 0 0.219287817 0" type="matrix" in="shadowBlurOuter1"></feColorMatrix>
        </filter>
        <path d="M46.4545853,8.37802689 L0.132776471,8.37802689 L0.132776471,1.64417815 C0.132776471,1.21770756 0.293408824,0.801472269 0.610305882,0.478816807 C0.931570588,0.156161345 1.34698235,0.000194957983 1.76773235,0.000194957983 L44.8167176,0.000194957983 C45.24135,0.000194957983 45.6582176,0.156161345 45.9789971,0.478816807 C46.3012324,0.801472269 46.4545853,1.21770756 46.4545853,1.64417815 L46.4545853,8.37802689 Z" id="path-4"></path>
        <filter x="-50%" y="-50%" width="200%" height="200%" filterUnits="objectBoundingBox" id="filter-5">
            <feOffset dx="-1" dy="1" in="SourceAlpha" result="shadowOffsetOuter1"></feOffset>
            <feGaussianBlur stdDeviation="0.5" in="shadowOffsetOuter1" result="shadowBlurOuter1"></feGaussianBlur>
            <feColorMatrix values="0 0 0 0 0   0 0 0 0 0   0 0 0 0 0  0 0 0 0.219287817 0" type="matrix" in="shadowBlurOuter1"></feColorMatrix>
        </filter>
    </defs>
    <g id="Page-1" stroke="none" stroke-width="1" fill="none" fill-rule="evenodd">
        <g id="07-Apps" transform="translate(-415.000000, -248.000000)">
            <g id="Apps-01" transform="translate(80.000000, 80.000000)">
                <g id="Row-2" transform="translate(0.000000, 146.000000)">
                    <g id="03" transform="translate(300.000000, 0.000000)">
                        <g id="Check-In-Chats-Icon" transform="translate(35.000000, 22.000000)">
                            <rect id="icon_bg" fill="url(#linearGradient-1)" x="0" y="0" width="66" height="66" rx="14.625"></rect>
                            <g id="Group-8" transform="translate(10.352941, 14.235294)">
                                <g id="Fill-10">
                                    <use fill="black" fill-opacity="1" filter="url(#filter-3)" xlink:href="#path-2"></use>
                                    <use fill="#FEFEFE" fill-rule="evenodd" xlink:href="#path-2"></use>
                                </g>
                                <g id="Fill-11">
                                    <use fill="black" fill-opacity="1" filter="url(#filter-5)" xlink:href="#path-4"></use>
                                    <use fill="#FEFEFE" fill-rule="evenodd" xlink:href="#path-4"></use>
                                </g>
                                <path d="M5.58136765,4.18852605 C5.58136765,4.94252605 4.97329412,5.55371933 4.21866176,5.55371933 C3.46645588,5.55371933 2.85789706,4.94252605 2.85789706,4.18852605 C2.85789706,3.42770252 3.46645588,2.81602185 4.21866176,2.81602185 C4.97329412,2.81602185 5.58136765,3.42770252 5.58136765,4.18852605" id="Fill-12" fill="#D65A38"></path>
                                <path d="M9.66701029,4.18852605 C9.66701029,4.94252605 9.05845147,5.55371933 8.30673088,5.55371933 C7.55598088,5.55371933 6.944025,4.94252605 6.944025,4.18852605 C6.944025,3.42770252 7.55598088,2.81602185 8.30673088,2.81602185 C9.05845147,2.81602185 9.66701029,3.42770252 9.66701029,4.18852605" id="Fill-13" fill="#F6B947"></path>
                                <path d="M13.7597868,4.18852605 C13.7597868,4.94252605 13.1473456,5.55371933 12.3931985,5.55371933 C11.6424485,5.55371933 11.0300074,4.94252605 11.0300074,4.18852605 C11.0300074,3.42770252 11.6424485,2.81602185 12.3931985,2.81602185 C13.1473456,2.81602185 13.7597868,3.42770252 13.7597868,4.18852605" id="Fill-14" fill="#71BF8C"></path>
                                <path d="M30.154575,29.6977546 C28.4012074,31.4557882 25.971825,32.5441412 23.2910603,32.5441412 C17.9329279,32.5441412 13.5871191,28.1804941 13.5871191,22.8001412 C13.5871191,18.7352672 16.0621191,15.2528303 19.5814721,13.792595 L23.2910603,22.8001412 L30.154575,29.6977546 Z" id="Fill-15" fill="#333C49"></path>
                                <path d="M32.9981074,22.7971193 L23.292225,22.7971193 L23.292225,13.0511697 C28.6522985,13.0511697 32.9981074,17.4148168 32.9981074,22.7971193" id="Fill-16" fill="#9DE8F8"></path>
                                <path d="M32.9981074,22.7971193 C32.9981074,25.4929008 31.9149309,27.9279261 30.1567103,29.6947328 L23.292225,22.7971193 L32.9981074,22.7971193 Z" id="Fill-17" fill="#3CABDB"></path>
                                <path d="M23.2912544,13.050195 L23.2912544,22.8000437 L19.5811809,13.7924975 C20.7216221,13.3129008 21.9785338,13.050195 23.2912544,13.050195" id="Fill-18" fill="#6BC7D9"></path>
                            </g>
                        </g>
                    </g>
                </g>
            </g>
        </g>
    </g>
</svg>