<svg xmlns="http://www.w3.org/2000/svg" xmlns:xlink="http://www.w3.org/1999/xlink" viewBox="0 0 64 64"><defs><style>.cls-1{fill:url(#linear-gradient);}.cls-2{fill:#fff;}</style><linearGradient id="linear-gradient" x1="7.26" y1="2.95" x2="56.93" y2="61.28" gradientUnits="userSpaceOnUse"><stop offset="0" stop-color="#316dff"/><stop offset="1" stop-color="#3b5998"/></linearGradient></defs><title>community icon_64px</title><g id="Layer_2" data-name="Layer 2"><g id="Layer_1-2" data-name="Layer 1"><rect class="cls-1" width="64" height="64" rx="15.21" ry="15.21"/><path class="cls-2" d="M27.14,20.92a8.12,8.12,0,0,1,.9-.51v1.48H36V20.41a8.2,8.2,0,0,1,.9.51,2.48,2.48,0,0,0,3.81-2.36,2.43,2.43,0,0,0-1.12-1.8A13,13,0,0,0,34.93,15a4,4,0,1,0-5.85,0,13,13,0,0,0-4.61,1.74,2.43,2.43,0,0,0-1.12,1.8,2.48,2.48,0,0,0,3.81,2.36Zm2.48-8.54A2.37,2.37,0,1,1,32,14.76,2.38,2.38,0,0,1,29.63,12.39Zm-4.71,6.35a.85.85,0,0,1,.39-.64A12.39,12.39,0,0,1,32,16.34a12.38,12.38,0,0,1,6.69,1.76.85.85,0,0,1,.39.64.9.9,0,0,1-.26.74.88.88,0,0,1-1.1.13,10,10,0,0,0-2.31-1.12l-1-.35V20.3H29.63V18.12l-1,.35a10,10,0,0,0-2.31,1.12.88.88,0,0,1-1.1-.13A.9.9,0,0,1,24.91,18.74Z"/><path class="cls-2" d="M17.78,36.7A2.47,2.47,0,0,0,19,33.86a8.07,8.07,0,0,1-.21-1l1.4.46,2.45-7.53-1.4-.46a8.36,8.36,0,0,1,.77-.7A2.48,2.48,0,0,0,21,20.28a2.44,2.44,0,0,0-2.06.51,13,13,0,0,0-3.07,3.85,3.92,3.92,0,0,0-2.19-1.8A4,4,0,1,0,14,30.21a13.05,13.05,0,0,0,.23,4.91,2.44,2.44,0,0,0,1.36,1.63,2.48,2.48,0,0,0,2.15,0Zm-6.08-7.84a2.37,2.37,0,0,1-1.52-3,2.37,2.37,0,0,1,4.52,1.47h0A2.37,2.37,0,0,1,11.69,28.86Zm4.1,5.87a12.37,12.37,0,0,1,.4-6.91A12.37,12.37,0,0,1,19.93,22a.84.84,0,0,1,.54-.2l.18,0a.9.9,0,0,1,.62.48.88.88,0,0,1-.22,1.08,10,10,0,0,0-1.78,1.85l-.66.88,2.07.67-1.47,4.52-2.07-.67v1.1a10,10,0,0,0,.36,2.54.88.88,0,0,1-.46,1,.9.9,0,0,1-.78,0A.85.85,0,0,1,15.8,34.74Z"/><path class="cls-2" d="M28.85,45.56a8.14,8.14,0,0,1-1-.11l.87-1.19-6.4-4.65-.87,1.19a8.21,8.21,0,0,1-.42-.94,2.48,2.48,0,0,0-4.47-.33,2.44,2.44,0,0,0-.15,2.12,13,13,0,0,0,2.71,4.11,4,4,0,0,0,.81,7.82,4,4,0,0,0,.63,0,3.93,3.93,0,0,0,3.3-4.32,13.06,13.06,0,0,0,4.75,1.31h.16a2.43,2.43,0,0,0,1.8-.8,2.48,2.48,0,0,0-1.69-4.15Zm-7,5.45a2.37,2.37,0,1,1-2.29-3.74l.38,0A2.38,2.38,0,0,1,21.83,51Zm7.55-2.37a.83.83,0,0,1-.69.28,12.37,12.37,0,0,1-6.45-2.51,12.38,12.38,0,0,1-4.38-5.36h0a.85.85,0,0,1,.05-.75.9.9,0,0,1,.64-.45h.14a.87.87,0,0,1,.82.55,10,10,0,0,0,1.21,2.27l.64.9,1.28-1.76,3.84,2.79L25.2,46.36l1.05.33a9.93,9.93,0,0,0,2.53.45.88.88,0,0,1,.82.75A.9.9,0,0,1,29.37,48.64Z"/><path class="cls-2" d="M44.91,45.76a13,13,0,0,0,2.71-4.11,2.43,2.43,0,0,0-.15-2.12,2.48,2.48,0,0,0-4.47.33,8.09,8.09,0,0,1-.42.94l-.87-1.19-6.4,4.65.87,1.19a8.29,8.29,0,0,1-1,.11,2.48,2.48,0,0,0-1.69,4.15,2.44,2.44,0,0,0,1.8.8h.16a13,13,0,0,0,4.75-1.31,3.93,3.93,0,0,0,.72,2.74h0a3.93,3.93,0,0,0,2.58,1.58,4,4,0,0,0,.63,0,3.95,3.95,0,0,0,.81-7.82Zm-9.59,3.17a.83.83,0,0,1-.69-.28.9.9,0,0,1-.22-.75.88.88,0,0,1,.82-.75,10,10,0,0,0,2.53-.45l1.05-.33-1.28-1.76,3.84-2.79,1.28,1.76.64-.9a10,10,0,0,0,1.21-2.27.88.88,0,0,1,1-.54.9.9,0,0,1,.64.45.85.85,0,0,1,.05.75,12.38,12.38,0,0,1-4.38,5.36A12.36,12.36,0,0,1,35.32,48.92ZM46.44,50A2.37,2.37,0,1,1,46,48.22,2.37,2.37,0,0,1,46.44,50Z"/><path class="cls-2" d="M55.34,25.38a4,4,0,0,0-5-2.54,3.92,3.92,0,0,0-2.19,1.8,13,13,0,0,0-3.07-3.85A2.44,2.44,0,0,0,43,20.28,2.48,2.48,0,0,0,42,24.62a8.15,8.15,0,0,1,.77.7l-1.4.46,2.45,7.53,1.4-.46a7.81,7.81,0,0,1-.21,1A2.48,2.48,0,0,0,47.35,37a2.5,2.5,0,0,0,1-.22,2.44,2.44,0,0,0,1.36-1.63h0A13,13,0,0,0,50,30.22a3.93,3.93,0,0,0,1.6.35A4,4,0,0,0,55.1,28.4,3.93,3.93,0,0,0,55.34,25.38ZM48.2,34.74a.85.85,0,0,1-.48.57.89.89,0,0,1-.78,0,.88.88,0,0,1-.46-1,10,10,0,0,0,.36-2.54v-1.1l-2.07.67-1.47-4.52,2.07-.67-.66-.88a9.94,9.94,0,0,0-1.78-1.85.88.88,0,0,1-.22-1.08.9.9,0,0,1,.62-.48.85.85,0,0,1,.73.18,12.38,12.38,0,0,1,3.74,5.82A12.39,12.39,0,0,1,48.2,34.74Zm5.48-7.05a2.37,2.37,0,1,1-2.12-3.45,2.38,2.38,0,0,1,2.26,1.64A2.35,2.35,0,0,1,53.69,27.68Z"/></g></g></svg>