<?xml version="1.0" encoding="UTF-8"?>
<svg width="66px" height="66px" viewBox="0 0 66 66" version="1.1" xmlns="http://www.w3.org/2000/svg" xmlns:xlink="http://www.w3.org/1999/xlink">
    <!-- Generator: Sketch 41.2 (35397) - http://www.bohemiancoding.com/sketch -->
    <title>Learn App_Icon</title>
    <desc>Created with Sketch.</desc>
    <defs>
        <linearGradient x1="50%" y1="0%" x2="50%" y2="100%" id="linearGradient-1">
            <stop stop-color="#00ECB2" offset="0%"></stop>
            <stop stop-color="#02B7CE" offset="100%"></stop>
        </linearGradient>
        <filter x="-50%" y="-50%" width="200%" height="200%" filterUnits="objectBoundingBox" id="filter-2">
            <feGaussianBlur stdDeviation="0" in="SourceGraphic"></feGaussianBlur>
        </filter>
        <filter x="-50%" y="-50%" width="200%" height="200%" filterUnits="objectBoundingBox" id="filter-3">
            <feOffset dx="-1" dy="1" in="SourceAlpha" result="shadowOffsetOuter1"></feOffset>
            <feGaussianBlur stdDeviation="0.5" in="shadowOffsetOuter1" result="shadowBlurOuter1"></feGaussianBlur>
            <feColorMatrix values="0 0 0 0 0   0 0 0 0 0   0 0 0 0 0  0 0 0 0.22 0" type="matrix" in="shadowBlurOuter1" result="shadowMatrixOuter1"></feColorMatrix>
            <feMerge>
                <feMergeNode in="shadowMatrixOuter1"></feMergeNode>
                <feMergeNode in="SourceGraphic"></feMergeNode>
            </feMerge>
        </filter>
        <polygon id="path-4" points="0 46.3983539 52.3439746 46.3983539 52.3439746 0.00622796696 0 0.00622796696"></polygon>
        <polygon id="path-6" points="0.231667253 5.72275578 4.11777092 5.72275578 4.11777092 0.256379459 0.231667253 0.256379459"></polygon>
    </defs>
    <g id="Page-1" stroke="none" stroke-width="1" fill="none" fill-rule="evenodd">
        <g id="Learn-App_Icon">
            <g id="Group-31">
                <rect id="icon_bg" fill="url(#linearGradient-1)" x="0" y="0.323498916" width="66" height="65.0419455" rx="14.6199999"></rect>
                <g id="Group-26" transform="translate(11.705882, 6.689320)">
                    <ellipse id="Oval" fill-opacity="0.159999996" fill="#000000" filter="url(#filter-2)" cx="20.0588235" cy="47.0970874" rx="9.70588235" ry="0.961165049"></ellipse>
                    <g id="Page-1" filter="url(#filter-3)">
                        <polygon id="Fill-1" fill="#D4F9F9" points="26.5517058 45.4129961 14.8507009 45.4129961 16.1333769 38.1075908 25.1384713 38.1075908"></polygon>
                        <g id="Group-27" transform="translate(0.000000, 0.305170)">
                            <path d="M27.8122872,46.3983539 L13.4671559,46.3983539 C13.1078057,46.3983539 12.8165595,46.1093762 12.8165595,45.7531365 C12.8165595,45.3968968 13.1078057,45.1079191 13.4671559,45.1079191 L27.8122872,45.1079191 C28.1713235,45.1079191 28.4625697,45.3968968 28.4625697,45.7531365 C28.4625697,46.1093762 28.1713235,46.3983539 27.8122872,46.3983539 Z" id="Fill-2" fill="#2763A9"></path>
                            <polygon id="Fill-4" fill="#C7EFEF" points="25.9070098 41.7752406 25.1387223 37.8024204 16.1336279 37.8024204 15.4359552 41.7752406"></polygon>
                            <path d="M39.4817824,40.1021595 L2.10434805,40.1021595 C0.942187777,40.1021595 3.13842903e-05,39.1673417 3.13842903e-05,38.0142336 L3.13842903e-05,13.1036113 C3.13842903e-05,11.9505033 0.942187777,11.0156854 2.10434805,11.0156854 L39.4817824,11.0156854 C40.6439426,11.0156854 41.586099,11.9505033 41.586099,13.1036113 L41.586099,38.0142336 C41.586099,39.1673417 40.6439426,40.1021595 39.4817824,40.1021595" id="Fill-6" fill="#1F5993"></path>
                            <path d="M39.4817824,11.3878064 L2.10434805,11.3878064 C0.942187777,11.3878064 3.13842903e-05,12.3226243 3.13842903e-05,13.4757324 L3.13842903e-05,34.1158377 L41.586099,34.1158377 L41.586099,13.4757324 C41.586099,12.3226243 40.6439426,11.3878064 39.4817824,11.3878064" id="Fill-8" fill="#114977"></path>
                            <path d="M0,34.1158377 L0,38.3863546 C0,39.5394627 0.942156393,40.4742805 2.10431666,40.4742805 L39.481751,40.4742805 C40.6439112,40.4742805 41.5860676,39.5394627 41.5860676,38.3863546 L41.5860676,34.1158377 L0,34.1158377 Z" id="Fill-10" fill="#FFFFFE"></path>
                            <mask id="mask-5" fill="white">
                                <use xlink:href="#path-4"></use>
                            </mask>
                            <g id="Clip-13"></g>
                            <polygon id="Fill-12" fill="#FFFFFE" mask="url(#mask-5)" points="1.73555125 32.3418324 39.7362776 32.3418324 39.7362776 13.1207694 1.73555125 13.1207694"></polygon>
                            <path d="M29.0172248,13.1207694 L28.9753016,13.1207694 L13.7970105,13.1207694 L13.6670486,13.1207694 L1.29411765,13.1207694 L1.29411765,23.237613 C3.63203423,24.4872169 6.10131015,25.5366112 8.88710615,26.2345011 C15.9700292,27.9396958 22.9523365,28.2644677 30.3343117,27.0467152 C33.9194432,26.4017217 37.1754776,25.360859 40.2218961,24.0356077 L40.2218961,13.1207694 L29.0172248,13.1207694 Z" id="Fill-5" fill="#FAB801" mask="url(#mask-5)"></path>
                            <path d="M8.88709253,24.9208628 C6.10130152,23.9790414 3.63203004,22.5628551 1.29411765,20.877248 L1.29411765,32.3418324 L40.2218263,32.3418324 L40.2218263,21.9533961 C37.1754132,23.741859 33.9193846,25.1465315 30.3342595,26.016968 C22.9522977,27.6603581 15.9700028,27.2220696 8.88709253,24.9208628" id="Fill-7" fill="#FFA102" mask="url(#mask-5)"></path>
                            <path d="M21.8838262,37.2950903 C21.8838262,37.8739798 21.410865,38.3435685 20.8271172,38.3435685 C20.2436832,38.3435685 19.7704081,37.8739798 19.7704081,37.2950903 C19.7704081,36.7158893 20.2436832,36.246612 20.8271172,36.246612 C21.410865,36.246612 21.8838262,36.7158893 21.8838262,37.2950903" id="Fill-14" fill="#C7EFEF" mask="url(#mask-5)"></path>
                            <path d="M33.2111844,6.98107906 L30.2453327,11.6474851 C28.6367562,14.177622 41.0681289,22.0772002 42.695027,19.5184184 L45.6606311,14.8520124 L33.2111844,6.98107906 Z" id="Fill-15" fill="#1F5993" mask="url(#mask-5)"></path>
                            <polygon id="Fill-16" fill="#114977" mask="url(#mask-5)" points="31.6615337 9.41932994 36.6831052 15.1497961 44.1278163 17.2640877 45.6606311 14.8519877 33.2111844 6.98105437"></polygon>
                            <polygon id="Fill-17" fill="#14508C" mask="url(#mask-5)" points="28.5144479 4.14784928 37.3020741 14.1760416 50.1449374 17.8233304 41.3573112 7.79513813"></polygon>
                            <polygon id="Fill-18" fill="#14508C" mask="url(#mask-5)" points="50.4029237 17.4175603 28.7724342 3.74207914 28.5144479 4.14779989 50.1449374 17.823281"></polygon>
                            <polygon id="Fill-19" fill="#2763A9" mask="url(#mask-5)" points="28.7723352 3.74207914 37.5599614 13.7702714 50.4028247 17.4175603 41.6151985 7.38936799"></polygon>
                            <path d="M46.5194876,16.114562 L39.9282109,10.3865653 C39.8628478,10.327053 39.7652983,10.330757 39.7113242,10.3895285 C39.6568549,10.4483 39.6660157,10.5418899 39.7316264,10.5986858 L46.2067845,16.2259315 L46.5439988,16.3214969 L46.5546451,16.304952 C46.5922784,16.2454397 46.5776707,16.1649376 46.5194876,16.114562" id="Fill-20" fill="#14508C" mask="url(#mask-5)"></path>
                            <path d="M43.7318,20.4123129 C43.7318,20.4123129 42.9182272,20.1967351 42.8179542,21.1146073 C42.7176812,22.0322326 42.7595235,22.7127965 41.7662021,22.5540147 C41.7662021,22.5540147 42.769427,23.2750765 43.7553208,22.8026823 C44.740967,22.330288 45.1994992,20.7997601 43.7318,20.4123129" id="Fill-21" fill="#ECAD39" mask="url(#mask-5)"></path>
                            <path d="M44.5980594,21.073492 C44.5510178,21.5695924 44.1875592,22.0802623 43.6884226,22.3195461 C43.2677713,22.5210483 42.8443965,22.5047504 42.4967836,22.4205442 C42.3529352,22.5571014 42.129116,22.6121688 41.7661526,22.5541382 C41.7661526,22.5541382 42.7693775,23.2749531 43.7552713,22.8025588 C44.4220246,22.4832667 44.8463898,21.6799742 44.5980594,21.073492" id="Fill-22" fill="#EB9F3B" mask="url(#mask-5)"></path>
                            <path d="M44.059705,20.4962968 C43.9861715,20.4496253 43.9609175,20.3575171 44.0037502,20.2901028 L46.5266677,16.3205585 L39.6769095,10.3661187 C39.6112988,10.3090758 39.6021381,10.2154859 39.6566073,10.1569614 C39.7105814,10.0981899 39.8083785,10.0942389 39.8734941,10.1539981 L46.8237728,16.1958543 C46.8819559,16.2462299 46.8965635,16.326732 46.8589302,16.3862443 L44.270402,20.4587621 C44.2278169,20.5261764 44.1332385,20.5427213 44.059705,20.4962968" id="Fill-23" fill="#ECAD39" mask="url(#mask-5)"></path>
                            <path d="M44.588453,19.6643347 C44.5421541,19.6351959 44.493627,19.6139591 44.4446046,19.5966734 L44.0036511,20.290325 C43.9610661,20.3574924 43.9860724,20.4498476 44.0596059,20.4962721 C44.133387,20.5429436 44.2277179,20.5261517 44.2705506,20.4589843 L44.7112565,19.7653327 C44.6746135,19.7282919 44.6347519,19.6934735 44.588453,19.6643347" id="Fill-24" fill="#EB9F3B" mask="url(#mask-5)"></path>
                            <path d="M44.6275223,20.8124034 C44.4517352,21.0887281 44.064013,21.1576241 43.7609658,20.9662464 C43.4581662,20.7746217 43.3551697,20.3953235 43.5307093,20.1189987 C43.7064965,19.842674 44.0944663,19.773778 44.3972659,19.9651557 C44.7000655,20.1567804 44.8030619,20.5360787 44.6275223,20.8124034" id="Fill-25" fill="#ECAD39" mask="url(#mask-5)"></path>
                            <path d="M44.7094738,20.5489195 C44.5213073,20.7847462 44.1640384,20.8368504 43.8795602,20.6570788 C43.6658922,20.5220032 43.5542302,20.2933377 43.5673523,20.073315 C43.5552205,20.0886252 43.5413556,20.1022069 43.5307093,20.1189987 C43.3551697,20.3953235 43.4581662,20.7746217 43.7609658,20.9662464 C44.064013,21.1576241 44.4517352,21.0887281 44.6275223,20.8124034 C44.6792682,20.7311605 44.7040269,20.6407808 44.7094738,20.5489195" id="Fill-26" fill="#EB9F3B" mask="url(#mask-5)"></path>
                        </g>
                    </g>
                    <g id="Page-1" transform="translate(0.647059, 7.048544)">
                        <g id="Group-139" transform="translate(0.000000, 0.012951)">
                            <path d="M11.2438719,16.2897934 L14.5539655,16.2897934 L14.5539655,19.7391091 L12.30078,19.7391091 C12.3379653,18.5846185 11.8739052,17.2921792 11.2438719,16.2897934" id="Fill-38" fill="#D4DFE5"></path>
                            <path d="M1.71519186,16.2897934 L11.2439928,16.2897934 C11.8740261,17.2921792 12.3380862,18.5846185 12.300901,19.7391091 L1.71519186,19.7391091 L1.71519186,16.2897934 Z" id="Fill-40" fill="#FFFFFF"></path>
                            <polygon id="Fill-42" fill="#C4E9FB" points="1.7152221 17.1174846 15.292078 17.1174846 15.292078 16.9361636 1.7152221 16.9361636"></polygon>
                            <polygon id="Fill-44" fill="#C4E9FB" points="1.7152221 17.7759027 15.292078 17.7759027 15.292078 17.5945817 1.7152221 17.5945817"></polygon>
                            <polygon id="Fill-46" fill="#C4E9FB" points="1.7152221 18.4343208 15.292078 18.4343208 15.292078 18.2529998 1.7152221 18.2529998"></polygon>
                            <polygon id="Fill-48" fill="#C4E9FB" points="1.7152221 19.0930401 15.292078 19.0930401 15.292078 18.9120203 1.7152221 18.9120203"></polygon>
                            <path d="M14.1393649,17.8417746 C14.1393649,16.0728407 13.0869915,15.2815944 12.0158743,15.2815944 L15.2664111,15.2815944 C16.4125034,16.6884887 15.834469,19.0022893 14.9039303,20.7474286 L12.0158743,20.7474286 C13.0869915,20.7474286 14.1393649,20.015217 14.1393649,17.8417746" id="Fill-50" fill="#0096DF"></path>
                            <path d="M15.2663204,15.2815944 L25.2177637,15.2815944 C26.2888808,15.2815944 27.1571418,16.1469353 27.1571418,17.2134763 L27.1571418,18.8155467 C27.1571418,19.8826901 26.2888808,20.7474286 25.2177637,20.7474286 L14.9038396,20.7474286 C15.8343783,19.0022893 16.4127151,16.6884887 15.2663204,15.2815944" id="Fill-52" fill="#01ACE0"></path>
                            <path d="M1.04655234,20.2434646 C1.04655234,19.9648568 1.27298947,19.7389585 1.55263479,19.7389585 L14.0480947,19.7389585 C14.32774,19.7389585 14.5538748,19.9648568 14.5538748,20.2434646 C14.5538748,20.5217713 14.32774,20.7476695 14.0480947,20.7476695 L1.55263479,20.7476695 C1.27298947,20.7476695 1.04655234,20.5217713 1.04655234,20.2434646" id="Fill-54" fill="#0096DF"></path>
                            <path d="M1.04655234,15.7858294 C1.04655234,15.5075228 1.27298947,15.2816245 1.55263479,15.2816245 L14.0480947,15.2816245 C14.32774,15.2816245 14.5538748,15.5075228 14.5538748,15.7858294 C14.5538748,16.0638349 14.32774,16.2897331 14.0480947,16.2897331 L1.55263479,16.2897331 C1.27298947,16.2897331 1.04655234,16.0638349 1.04655234,15.7858294" id="Fill-56" fill="#0096DF"></path>
                            <path d="M13.8062695,21.7543926 L17.1160608,21.7543926 L17.1160608,25.2043108 L14.8628753,25.2043108 C14.9000606,24.0495189 14.4363029,22.7564773 13.8062695,21.7543926" id="Fill-58" fill="#D4DFE5"></path>
                            <path d="M4.27731741,21.7543926 L13.8061183,21.7543926 C14.4361517,22.7564773 14.9002118,24.0495189 14.8627242,25.2043108 L4.27731741,25.2043108 L4.27731741,21.7543926 Z" id="Fill-60" fill="#FFFFFF"></path>
                            <polygon id="Fill-62" fill="#C4E9FB" points="4.27737787 22.582114 17.8545361 22.582114 17.8545361 22.400793 4.27737787 22.400793"></polygon>
                            <polygon id="Fill-64" fill="#C4E9FB" points="4.27737787 23.2408333 17.8545361 23.2408333 17.8545361 23.0598135 4.27737787 23.0598135"></polygon>
                            <polygon id="Fill-66" fill="#C4E9FB" points="4.27737787 23.8992514 17.8545361 23.8992514 17.8545361 23.7182316 4.27737787 23.7182316"></polygon>
                            <polygon id="Fill-68" fill="#C4E9FB" points="4.27737787 24.5576695 17.8545361 24.5576695 17.8545361 24.3763485 4.27737787 24.3763485"></polygon>
                            <g id="Group-72" transform="translate(14.346423, 20.489694)">
                                <mask id="mask-7" fill="white">
                                    <use xlink:href="#path-6"></use>
                                </mask>
                                <g id="Clip-71"></g>
                                <path d="M2.35546009,2.81625848 C2.35546009,1.04822814 1.30248209,0.256379459 0.231667253,0.256379459 L3.48190168,0.256379459 C4.62829633,1.66327379 4.0502619,3.97737551 3.1197232,5.72281602 L0.231667253,5.72281602 C1.30248209,5.72281602 2.35546009,4.99030328 2.35546009,2.81625848" id="Fill-70" fill="#0D1D4E" mask="url(#mask-7)"></path>
                            </g>
                            <path d="M17.8284459,20.7461937 L27.7798892,20.7461937 C28.8510064,20.7461937 29.7192673,21.6112334 29.7192673,22.6783767 L29.7192673,24.280146 C29.7192673,25.3472893 28.8510064,26.212329 27.7798892,26.212329 L17.4662675,26.212329 C18.3965038,24.4671897 18.9748406,22.153088 17.8284459,20.7461937" id="Fill-73" fill="#293763"></path>
                            <path d="M3.60879882,25.7082145 C3.60879882,25.4299078 3.83523595,25.2043108 4.11488127,25.2043108 L16.6100388,25.2043108 C16.8896842,25.2043108 17.1161213,25.4299078 17.1161213,25.7082145 C17.1161213,25.9868223 16.8896842,26.2124194 16.6100388,26.2124194 L4.11488127,26.2124194 C3.83523595,26.2124194 3.60879882,25.9868223 3.60879882,25.7082145" id="Fill-75" fill="#0D1D4E"></path>
                            <path d="M3.60879882,21.2501576 C3.60879882,20.9721522 3.83523595,20.7462539 4.11488127,20.7462539 L16.6100388,20.7462539 C16.8896842,20.7462539 17.1161213,20.9721522 17.1161213,21.2501576 C17.1161213,21.5287655 16.8896842,21.7543625 16.6100388,21.7543625 L4.11488127,21.7543625 C3.83523595,21.7543625 3.60879882,21.5287655 3.60879882,21.2501576" id="Fill-77" fill="#0D1D4E"></path>
                            <path d="M13.8062695,10.8240797 L17.1160608,10.8240797 L17.1160608,14.2730942 L14.8628753,14.2730942 C14.9000606,13.1186036 14.4363029,11.8258632 13.8062695,10.8240797" id="Fill-79" fill="#D4DFE5"></path>
                            <path d="M4.27731741,10.8240797 L13.8061183,10.8240797 C14.4361517,11.8258632 14.9002118,13.1186036 14.8627242,14.2730942 L4.27731741,14.2730942 L4.27731741,10.8240797 Z" id="Fill-81" fill="#FFFFFF"></path>
                            <polygon id="Fill-83" fill="#C4E9FB" points="4.27737787 11.6513492 17.8545361 11.6513492 17.8545361 11.4703294 4.27737787 11.4703294"></polygon>
                            <polygon id="Fill-85" fill="#C4E9FB" points="4.27737787 12.3100685 17.8545361 12.3100685 17.8545361 12.1287475 4.27737787 12.1287475"></polygon>
                            <polygon id="Fill-87" fill="#C4E9FB" points="4.27737787 12.9684866 17.8545361 12.9684866 17.8545361 12.7871657 4.27737787 12.7871657"></polygon>
                            <polygon id="Fill-89" fill="#C4E9FB" points="4.27737787 13.6266036 17.8545361 13.6266036 17.8545361 13.4455838 4.27737787 13.4455838"></polygon>
                            <path d="M16.7018834,12.3753682 C16.7018834,10.6070367 15.6489054,9.81518797 14.5780906,9.81518797 L17.828325,9.81518797 C18.9747197,11.2220823 18.3966852,13.5364852 17.4661465,15.2816245 L14.5780906,15.2816245 C15.6489054,15.2816245 16.7018834,14.5491118 16.7018834,12.3753682" id="Fill-91" fill="#0D1D4E"></path>
                            <path d="M17.8284459,9.81518797 L27.7798892,9.81518797 C28.8510064,9.81518797 29.7192673,10.6805289 29.7192673,11.747371 L29.7192673,13.3494415 C29.7192673,14.4162836 28.8510064,15.2816245 27.7798892,15.2816245 L17.4662675,15.2816245 C18.3965038,13.5364852 18.9748406,11.2220823 17.8284459,9.81518797" id="Fill-93" fill="#293763"></path>
                            <path d="M3.60879882,14.7773293 C3.60879882,14.4990226 3.83523595,14.2731244 4.11488127,14.2731244 L16.6100388,14.2731244 C16.8896842,14.2731244 17.1161213,14.4990226 17.1161213,14.7773293 C17.1161213,15.0556359 16.8896842,15.2815342 16.6100388,15.2815342 L4.11488127,15.2815342 C3.83523595,15.2815342 3.60879882,15.0556359 3.60879882,14.7773293" id="Fill-95" fill="#0D1D4E"></path>
                            <path d="M3.60879882,10.3195736 C3.60879882,10.0409657 3.83523595,9.8150675 4.11488127,9.8150675 L16.6100388,9.8150675 C16.8896842,9.8150675 17.1161213,10.0409657 17.1161213,10.3195736 C17.1161213,10.5978802 16.8896842,10.8240797 16.6100388,10.8240797 L4.11488127,10.8240797 C3.83523595,10.8240797 3.60879882,10.5978802 3.60879882,10.3195736" id="Fill-97" fill="#0D1D4E"></path>
                            <path d="M11.714069,1.26852329 L14.5498237,1.26852329 L14.5498237,4.22297126 L12.6195152,4.22297126 C12.6515611,3.23383811 12.2537089,2.12693666 11.714069,1.26852329" id="Fill-99" fill="#D4DFE5"></path>
                            <path d="M3.55214419,1.26852329 L11.7141597,1.26852329 C12.2537996,2.12693666 12.6516518,3.23383811 12.6196059,4.22297126 L3.55214419,4.22297126 L3.55214419,1.26852329 Z" id="Fill-101" fill="#FFFFFF"></path>
                            <polygon id="Fill-103" fill="#C4E9FB" points="3.55211395 1.97718118 15.1814291 1.97718118 15.1814291 1.82206438 3.55211395 1.82206438"></polygon>
                            <polygon id="Fill-105" fill="#C4E9FB" points="3.55211395 2.54132442 15.1814291 2.54132442 15.1814291 2.38590642 3.55211395 2.38590642"></polygon>
                            <polygon id="Fill-107" fill="#C4E9FB" points="3.55211395 3.10546766 15.1814291 3.10546766 15.1814291 2.95004966 3.55211395 2.95004966"></polygon>
                            <polygon id="Fill-109" fill="#C4E9FB" points="3.55211395 3.6696109 15.1814291 3.6696109 15.1814291 3.5141929 3.55211395 3.5141929"></polygon>
                            <path d="M14.1943567,2.59770862 C14.1943567,1.08268433 13.2928407,0.404688368 12.3753017,0.404688368 L15.1599645,0.404688368 C16.1415951,1.61008145 15.6460939,3.59196214 14.8491803,5.08680619 L12.3753017,5.08680619 C13.2928407,5.08680619 14.1943567,4.45941144 14.1943567,2.59770862" id="Fill-111" fill="#0096DF"></path>
                            <path d="M15.159904,0.404628128 L23.684098,0.404628128 C24.6013347,0.404628128 25.3453424,1.1458756 25.3453424,2.06001054 L25.3453424,3.43166474 C25.3453424,4.34579968 24.6013347,5.08674595 23.684098,5.08674595 L14.8491198,5.08674595 C15.6460334,3.5919019 16.141837,1.61002121 15.159904,0.404628128" id="Fill-113" fill="#01ACE0"></path>
                            <path d="M2.97912825,4.65473813 C2.97912825,4.41649077 3.17321722,4.22282067 3.4129564,4.22282067 L14.1162677,4.22282067 C14.3557045,4.22282067 14.5497935,4.41649077 14.5497935,4.65473813 C14.5497935,4.89358788 14.3557045,5.08695679 14.1162677,5.08695679 L3.4129564,5.08695679 C3.17321722,5.08695679 2.97912825,4.89358788 2.97912825,4.65473813" id="Fill-115" fill="#0096DF"></path>
                            <path d="M2.97912825,0.83669619 C2.97912825,0.598147633 3.17321722,0.404477529 3.4129564,0.404477529 L14.1162677,0.404477529 C14.3557045,0.404477529 14.5497935,0.598147633 14.5497935,0.83669619 C14.5497935,1.07494355 14.3557045,1.26861365 14.1162677,1.26861365 L3.4129564,1.26861365 C3.17321722,1.26861365 2.97912825,1.07494355 2.97912825,0.83669619" id="Fill-117" fill="#0096DF"></path>
                            <path d="M10.4602301,5.94922549 L13.2956825,5.94922549 L13.2956825,8.90427585 L11.365374,8.90427585 C11.3977221,7.9151427 10.99987,6.80763885 10.4602301,5.94922549" id="Fill-119" fill="#D4DFE5"></path>
                            <path d="M0.78867401,5.94922549 L10.4601696,5.94922549 C10.9998095,6.80763885 11.3976617,7.9151427 11.3656158,8.90427585 L0.78867401,8.90427585 L0.78867401,5.94922549 Z" id="Fill-121" fill="#FFFFFF"></path>
                            <polygon id="Fill-123" fill="#C4E9FB" points="0.788613546 6.65839541 13.9277112 6.65839541 13.9277112 6.50327861 0.788613546 6.50327861"></polygon>
                            <polygon id="Fill-125" fill="#C4E9FB" points="0.788613546 7.22283985 13.9277112 7.22283985 13.9277112 7.06772304 0.788613546 7.06772304"></polygon>
                            <polygon id="Fill-127" fill="#C4E9FB" points="0.788613546 7.78638069 13.9277112 7.78638069 13.9277112 7.63156509 0.788613546 7.63156509"></polygon>
                            <polygon id="Fill-129" fill="#C4E9FB" points="0.788613546 8.35082513 13.9277112 8.35082513 13.9277112 8.19540713 0.788613546 8.19540713"></polygon>
                            <path d="M12.940669,7.27841082 C12.940669,5.76368772 12.0388506,5.08569176 11.1213116,5.08569176 L13.9059744,5.08569176 C14.8873027,6.29078365 14.3924061,8.27326673 13.5957948,9.76780958 L11.1213116,9.76780958 C12.0388506,9.76780958 12.940669,9.14071603 12.940669,7.27841082" id="Fill-131" fill="#01ACE0"></path>
                            <path d="M13.9059139,5.0856014 L27.8210651,5.0856014 C28.7389064,5.0856014 29.4826118,5.82684887 29.4826118,6.74098381 L29.4826118,8.11293921 C29.4826118,9.02677295 28.7389064,9.76771922 27.8210651,9.76771922 L13.5957344,9.76771922 C14.3923456,8.27317637 14.8872423,6.29099449 13.9059139,5.0856014" id="Fill-133" fill="#0096DF"></path>
                            <path d="M0.216051089,9.33613308 C0.216051089,9.09728332 0.409837738,8.90421561 0.649274597,8.90421561 L12.862066,8.90421561 C13.1018051,8.90421561 13.2955918,9.09728332 13.2955918,9.33613308 C13.2955918,9.57438044 13.1018051,9.76774934 12.862066,9.76774934 L0.649274597,9.76774934 C0.409837738,9.76774934 0.216051089,9.57438044 0.216051089,9.33613308" id="Fill-135" fill="#01ACE0"></path>
                            <path d="M0.216051089,5.5172779 C0.216051089,5.27903054 0.409837738,5.08566164 0.649274597,5.08566164 L12.862066,5.08566164 C13.1018051,5.08566164 13.2955918,5.27903054 13.2955918,5.5172779 C13.2955918,5.75642886 13.1018051,5.94919537 12.862066,5.94919537 L0.649274597,5.94919537 C0.409837738,5.94919537 0.216051089,5.75642886 0.216051089,5.5172779" id="Fill-137" fill="#01ACE0"></path>
                        </g>
                    </g>
                </g>
            </g>
        </g>
    </g>
</svg>