<?xml version="1.0" encoding="UTF-8"?>
<svg width="66px" height="66px" viewBox="0 0 66 66" version="1.1" xmlns="http://www.w3.org/2000/svg" xmlns:xlink="http://www.w3.org/1999/xlink">
    <!-- Generator: Sketch 41.2 (35397) - http://www.bohemiancoding.com/sketch -->
    <title>My Dashboard_Icon</title>
    <desc>Created with Sketch.</desc>
    <defs>
        <linearGradient x1="50%" y1="0%" x2="50%" y2="100%" id="linearGradient-1">
            <stop stop-color="#BFE6FB" offset="0%"></stop>
            <stop stop-color="#A4C7FC" offset="100%"></stop>
        </linearGradient>
        <rect id="path-2" x="0" y="0.647058824" width="38.8235294" height="38.8235294" rx="2.6"></rect>
        <filter x="-50%" y="-50%" width="200%" height="200%" filterUnits="objectBoundingBox" id="filter-3">
            <feOffset dx="-1" dy="1" in="SourceAlpha" result="shadowOffsetOuter1"></feOffset>
            <feGaussianBlur stdDeviation="0.5" in="shadowOffsetOuter1" result="shadowBlurOuter1"></feGaussianBlur>
            <feColorMatrix values="0 0 0 0 0   0 0 0 0 0   0 0 0 0 0  0 0 0 0.22 0" type="matrix" in="shadowBlurOuter1"></feColorMatrix>
        </filter>
    </defs>
    <g id="Page-1" stroke="none" stroke-width="1" fill="none" fill-rule="evenodd">
        <g id="01-Team-Dashboard-+Productivity-and-Workflows" transform="translate(-1299.000000, -935.000000)">
            <g id="Content" transform="translate(200.000000, 95.000000)">
                <g id="Apps" transform="translate(614.000000, 380.000000)">
                    <g id="Row-4" transform="translate(0.000000, 438.000000)">
                        <g id="03" transform="translate(450.000000, 0.000000)">
                            <g id="My-Dashboard_Icon" transform="translate(35.000000, 22.000000)">
                                <rect id="icon_bg" fill="url(#linearGradient-1)" x="0" y="0" width="66" height="66" rx="14.625"></rect>
                                <g id="browser" transform="translate(13.588235, 12.941176)">
                                    <g id="Rectangle">
                                        <use fill="black" fill-opacity="1" filter="url(#filter-3)" xlink:href="#path-2"></use>
                                        <use fill="#FCFCFD" fill-rule="evenodd" xlink:href="#path-2"></use>
                                    </g>
                                    <rect id="Rectangle" fill="#546A79" x="0" y="0.647058824" width="38.8235294" height="7.76470588" rx="2.6"></rect>
                                    <path d="M5.94660826,4.46140175 C5.94660826,5.55506884 5.05944931,6.44222778 3.96578223,6.44222778 C2.86881101,6.44222778 1.98082603,5.55506884 1.98082603,4.46140175 C1.98082603,3.36443054 2.86881101,2.47644556 3.96578223,2.47644556 C5.05944931,2.47644556 5.94660826,3.36443054 5.94660826,4.46140175 Z" id="Fill-3" fill="#ED7161"></path>
                                    <path d="M11.8932165,4.46140175 C11.8932165,5.55506884 11.0060576,6.44222778 9.91239049,6.44222778 C8.8187234,6.44222778 7.93156446,5.55506884 7.93156446,4.46140175 C7.93156446,3.36443054 8.8187234,2.47644556 9.91239049,2.47644556 C11.0060576,2.47644556 11.8932165,3.36443054 11.8932165,4.46140175 Z" id="Fill-4" fill="#F0C419"></path>
                                    <path d="M17.8439549,4.46140175 C17.8439549,5.55506884 16.95597,6.44222778 15.8589987,6.44222778 C14.7653317,6.44222778 13.8781727,5.55506884 13.8781727,4.46140175 C13.8781727,3.36443054 14.7653317,2.47644556 15.8589987,2.47644556 C16.95597,2.47644556 17.8439549,3.36443054 17.8439549,4.46140175 Z" id="Fill-5" fill="#4FBA6F"></path>
                                    <path d="M14.5398248,31.5560951 L23.1289111,31.5560951 C23.4931915,31.5560951 23.7905632,31.2587234 23.7905632,30.8944431 C23.7905632,30.5293367 23.4931915,30.232791 23.1289111,30.232791 L14.5398248,30.232791 C14.1714143,30.232791 13.8781727,30.5293367 13.8781727,30.8944431 C13.8781727,31.2587234 14.1714143,31.5560951 14.5398248,31.5560951 Z" id="Fill-6" fill="#BDC3C7"></path>
                                    <path d="M26.4330413,32.8752691 L11.2356946,32.8752691 C10.8672841,32.8752691 10.5740426,33.1726408 10.5740426,33.5369212 C10.5740426,33.9012015 10.8672841,34.1985732 11.2356946,34.1985732 L26.4330413,34.1985732 C26.7973217,34.1985732 27.0946934,33.9012015 27.0946934,33.5369212 C27.0946934,33.1726408 26.7973217,32.8752691 26.4330413,32.8752691 Z" id="Fill-7" fill="#BDC3C7"></path>
                                    <path d="M21.1026533,24.6603755 C20.8061076,24.5116896 20.6185982,24.2085357 20.6185982,23.8797747 L20.6185982,22.9827034 C20.6830288,22.9083605 20.7573717,22.8150188 20.8350188,22.7051564 C21.1480851,22.263229 21.3835044,21.779174 21.5478849,21.27199 C21.8386483,21.1819524 22.0542428,20.9110138 22.0542428,20.588035 L22.0542428,19.6298373 C22.0542428,19.420025 21.9609011,19.2300375 21.8155194,19.1003504 L21.8155194,17.7134418 C21.8155194,17.7134418 22.0996746,15.560801 19.1829537,15.560801 C16.2654068,15.560801 16.549562,17.7134418 16.549562,17.7134418 L16.549562,19.1003504 C16.4008761,19.2300375 16.3075344,19.420025 16.3075344,19.6298373 L16.3075344,20.588035 C16.3075344,20.839975 16.4430038,21.0621777 16.6404255,21.1918648 C16.8791489,22.2334919 17.5077597,22.9827034 17.5077597,22.9827034 L17.5077597,23.8566458 C17.5077597,24.1763204 17.3301627,24.469562 17.0534418,24.6248561 L14.9173217,25.789562 C14.7686358,25.867209 14.6397747,25.9671589 14.52,26.0803254 C15.8267835,27.0253066 17.4276345,27.5903129 19.1631289,27.5903129 C20.8961452,27.5903129 22.4961702,27.0286108 23.7996496,26.0836295 C23.6773967,25.9737672 23.5419274,25.8795995 23.3899374,25.8027785 L21.1026533,24.6603755 Z" id="Fill-8" fill="#FFFFFF"></path>
                                    <path d="M27.0946934,19.6587484 C27.0946934,15.2799499 23.5419274,11.7313141 19.1631289,11.7313141 C14.7843304,11.7313141 11.2356946,15.2799499 11.2356946,19.6587484 C11.2356946,22.3012265 12.5325657,24.6380726 14.52,26.0803254 C14.6397747,25.9671589 14.7686358,25.867209 14.9173217,25.789562 L17.0534418,24.6248561 C17.3301627,24.469562 17.5077597,24.1763204 17.5077597,23.8566458 L17.5077597,22.9827034 C17.5077597,22.9827034 16.8791489,22.2301877 16.6404255,21.1918648 C16.4430038,21.0621777 16.3075344,20.839975 16.3075344,20.588035 L16.3075344,19.6298373 C16.3075344,19.420025 16.4041802,19.2300375 16.549562,19.1003504 L16.549562,17.7134418 C16.549562,17.7134418 16.2654068,15.560801 19.1829537,15.560801 C22.0996746,15.560801 21.8155194,17.7134418 21.8155194,17.7134418 L21.8155194,19.1003504 C21.9642053,19.2300375 22.0542428,19.420025 22.0542428,19.6298373 L22.0542428,20.588035 C22.0542428,20.9110138 21.8386483,21.1819524 21.5478849,21.27199 C21.3835044,21.779174 21.1480851,22.263229 20.8350188,22.7051564 C20.7573717,22.8150188 20.6830288,22.9083605 20.6185982,22.9827034 L20.6185982,23.8797747 C20.6185982,24.2085357 20.8061076,24.5116896 21.1026533,24.6603755 L23.3866333,25.8027785 C23.5353191,25.8771214 23.6674844,25.9704631 23.7872591,26.0737171 C25.7813016,24.6347685 27.0946934,22.3078348 27.0946934,19.6587484 Z" id="Fill-9" fill="#556080"></path>
                                </g>
                            </g>
                        </g>
                    </g>
                </g>
            </g>
        </g>
    </g>
</svg>