<?xml version="1.0" encoding="UTF-8" standalone="no"?>
<svg width="66px" height="66px" viewBox="0 0 66 66" version="1.1" xmlns="http://www.w3.org/2000/svg" xmlns:xlink="http://www.w3.org/1999/xlink">
    <!-- Generator: Sketch 39 (31667) - http://www.bohemiancoding.com/sketch -->
    <title>Timezones Icon</title>
    <desc>Created with Sketch.</desc>
    <defs>
        <linearGradient x1="50%" y1="0%" x2="50%" y2="100%" id="linearGradient-1">
            <stop stop-color="#E3F6FF" offset="0%"></stop>
            <stop stop-color="#D2F1FF" offset="100%"></stop>
        </linearGradient>
        <circle id="path-2" cx="22.6470588" cy="22.6470588" r="22.6470588"></circle>
    </defs>
    <g id="Page-1" stroke="none" stroke-width="1" fill="none" fill-rule="evenodd">
        <g id="07-Apps" transform="translate(-565.000000, -248.000000)">
            <g id="Apps-01" transform="translate(80.000000, 80.000000)">
                <g id="Row-2" transform="translate(0.000000, 146.000000)">
                    <g id="04" transform="translate(450.000000, 0.000000)">
                        <g id="Timezones-Icon" transform="translate(35.000000, 22.000000)">
                            <rect id="icon_bg" fill="url(#linearGradient-1)" x="0" y="0" width="66" height="66" rx="14.625"></rect>
                            <g id="Earth" transform="translate(10.352941, 10.352941)">
                                <g id="Continents">
                                    <mask id="mask-3" fill="white">
                                        <use xlink:href="#path-2"></use>
                                    </mask>
                                    <use id="Mask" fill="#3C81BA" xlink:href="#path-2"></use>
                                    <path d="M16.9580719,23.5907641 C16.6869287,21.9607543 18.6034872,21.1714544 19.4966285,20.7771838 C20.3897698,20.3829132 21.0457009,19.5558873 21.1087819,19.1774015 C21.1718629,18.7989157 21.6735054,18.5470878 21.6735054,18.5470878 C21.6735054,18.5470878 22.2806231,18.4958528 22.5630285,18.4958528 C22.845434,18.4958528 24.0405293,18.488646 25.9777455,18.804897 C27.9149617,19.1211479 32.4493799,21.2292835 32.4493799,21.2292835 C32.4493799,21.2292835 34.6236309,22.1872272 34.8585068,23.7731212 C35.0933827,25.3590151 34.7684658,25.367973 34.4944345,26.3119404 C34.2204032,27.2559078 34.477279,28.5897401 35.3331608,29.1758217 C35.9912552,29.6264645 36.3753389,29.6516428 37.0004881,30.0051352 C37.6256374,30.3586276 38.5037519,30.6496176 38.5464383,31.3832183 C38.5891248,32.1168189 37.15431,32.9331072 36.5990691,33.4237499 C36.0438282,33.9143926 35.8072017,34.1744193 35.1849117,35.1237265 C34.8546115,35.6276016 34.612012,36.1107737 34.2204032,36.608726 C33.5556674,37.4539745 32.6856953,38.2832178 31.8562383,38.90307 C30.538132,39.8880892 28.0279644,41.7511973 26.0208693,41.4269218 C24.4903671,41.1796468 24.0480572,39.5729333 23.99548,39.108229 C23.9429028,38.6435248 23.8892315,37.3703513 24.0215353,36.6087264 C24.7578487,32.3700396 24.7542022,30.8295233 24.1413365,29.4280872 C23.5284708,28.026651 19.5848018,27.7475721 18.5201281,26.6114729 C17.4554545,25.4753737 17.229215,25.2207739 16.9580719,23.5907641 Z" id="Path-2" fill="#86CE4E" mask="url(#mask-3)"></path>
                                    <path d="M37.8271642,5.64755544 C37.8271642,5.64755544 37.9172604,5.76596065 37.5181054,5.96797874 C37.1189503,6.16999682 36.1109175,6.58525934 35.161774,6.76273472 C32.3479016,7.288886 30.2945607,8.12796205 30.261503,8.87352538 C30.2284453,9.61908871 30.4149164,9.76529534 30.4614247,10.1574652 C30.507933,10.5496351 30.4149163,11.3112167 30.5315666,11.8685583 C31.1443593,12.0768539 31.8902002,12.1773691 32.9654359,10.9916103 C33.1266688,11.3268556 33.173527,11.7662633 33.1072365,12.0768539 C33.0409461,12.3874445 32.5606324,13.1641982 31.4646808,13.1641982 C30.3687293,13.1641982 27.4604109,13.0238561 27.4604109,13.0238561 C27.4604109,13.0238561 26.5561531,13.1357504 26.6225603,14.0836864 C26.6889675,15.0316223 26.5068875,14.7848129 26.1862017,14.6118801 C25.8655158,14.4389472 25.4758406,13.8977113 25.3836992,13.2998135 C25.2915578,12.7019156 25.2765022,11.6081524 23.7046716,11.6081524 C22.132841,11.6081524 22.1319948,11.5344509 21.7385703,11.6548066 C21.3451459,11.7751623 20.4687523,12.3538032 21.0910422,13.3868489 C21.7133321,14.4198945 22.4993934,15.0555476 23.0732492,15.4564706 C23.6471051,15.8573936 23.9760191,16.4165442 24.2283721,16.6403912 C24.4807252,16.8642382 24.9190241,17.2665325 25.9965357,17.2062234 C27.0740473,17.1459142 27.4360775,16.7140051 28.2041653,16.9038024 C28.972253,17.0935996 29.8209285,17.8572236 30.9498207,18.8170347 C32.078713,19.7768457 33.8740693,19.9203972 35.0823534,20.4499914 C36.2906376,20.9795856 36.958649,22.593227 37.2823395,23.8179664 C37.60603,25.0427059 37.7655135,26.0374419 38.6444449,27.4031069 C38.6452492,27.4043567 39.6694376,28.9546302 40.7660311,29.2611652 C41.8626246,29.5677002 42.4335913,28.925278 42.5686237,28.7368521 C42.7036561,28.5484262 43.2569695,27.923131 43.4838515,26.7071155 C43.7107335,25.4911001 44.1763707,25.3336311 44.4810098,25.2893694 C44.7856489,25.2451076 45.2958683,25.2365296 45.2958683,25.2365296 C45.2958683,25.2365296 46.156361,20.1158256 44.120964,14.6277524 C42.0855671,9.13967921 37.8271642,5.64755544 37.8271642,5.64755544 Z" id="Path-3" fill="#86CE4E" mask="url(#mask-3)"></path>
                                    <path d="M13.6012133,1.68139076 L14.3128437,2.14323563 C14.3128437,2.14323563 13.6848058,3.09464365 13.5091157,3.47190401 C13.3334255,3.84916437 13.282742,4.17079297 13.3334255,4.43102938 C13.3682339,4.60975392 13.3487581,4.88279355 13.9839006,6.15307848 C14.619043,7.42336341 15.2120537,7.11758704 17.2386974,8.61670824 C17.3697027,8.74284099 17.9793881,8.31592115 17.7498224,7.02474539 C17.5202567,5.73356964 18.4462807,4.7625254 19.0678703,4.39098376 C19.68946,4.01944213 20.6112241,3.68177514 22.132462,3.61233356 C23.6536999,3.54289198 23.8217591,2.46123723 23.8217595,2.20587894 C23.8217598,1.95052066 23.8281198,1.37867799 23.1903663,0.641867794 C22.5526128,-0.0949423977 21.0793712,-0.0949423982 20.714161,-0.0949423977 C20.3489508,-0.0949423971 18.9345017,0.0749268789 17.3697027,0.40033947 C15.8049038,0.725752062 13.6012133,1.68139076 13.6012133,1.68139076 Z" id="Path-4" fill="#86CE4E" mask="url(#mask-3)"></path>
                                    <path d="M6.76973723,6.31416545 C6.76973723,6.31416545 6.9006988,6.61401884 7.47223511,7.09850517 C7.79469083,7.37184806 8.36938825,7.54783305 8.81401861,7.27750689 C9.25864897,7.00718074 9.89534135,6.42558471 10.2224573,6.1189558 C11.0973628,5.29884489 11.0384104,5.12227951 10.6088501,4.2572212 C10.1792897,3.39216289 9.3934911,4.15775634 9.3934911,4.15775634 C9.3934911,4.15775634 9.19339431,4.31643618 8.77225154,4.63464197 C8.35110878,4.95284775 6.76973723,6.31416545 6.76973723,6.31416545 Z" id="Path-5" fill="#86CE4E" mask="url(#mask-3)"></path>
                                    <path d="M5.72192796,7.39010148 C5.72192796,7.39010148 7.31771301,8.17910957 8.06380153,8.74917243 C8.80989005,9.3192353 9.89875155,10.1259831 10.5700007,10.6500044 C11.2412499,11.1740258 11.532321,11.9000696 11.532321,12.8972274 C11.532321,13.8943851 11.2191336,14.9950634 11.2191336,14.9950634 C11.2191336,14.9950634 9.95360457,14.7548772 9.72117951,13.4887646 C9.69066022,13.2735541 8.67018993,13.7738106 8.59389172,14.086998 C8.53326163,14.4395161 9.01278785,14.2134517 9.12153103,14.5756275 C9.23027421,14.9378033 9.2863089,15.4975228 7.75509285,16.4244221 C6.2238768,17.3513213 5.23652255,17.7408214 4.63776397,18.4005894 C4.0390054,19.0603574 3.61533881,20.3612637 3.03418863,20.9312099 C2.45303845,21.501156 1.57024047,21.4981654 1.2621591,20.7138986 C0.954077728,19.9296318 0.457730895,19.553874 0.287278072,19.553874 L0.0985603623,19.553874 C0.0985603623,19.553874 0.448861046,16.57909 1.04652548,14.9915038 C1.64418992,13.4039175 2.79575308,11.13948 3.231251,10.4810105 C3.66674892,9.82254088 5.49008644,7.60513696 5.49008644,7.60513696 L5.72192796,7.39010148 Z" id="Path-6" fill="#86CE4E" mask="url(#mask-3)"></path>
                                    <path d="M-0.131939005,22.7202351 C-0.131939005,22.7202351 0.480138935,23.1807086 0.952691814,23.9415316 C1.42524469,24.7023546 3.689696,27.0165698 4.53082977,27.2250097 C5.63241251,27.4979909 6.6107802,27.5494594 6.90681141,28.0646693 C7.20284263,28.5798791 7.07014502,29.4652301 7.5803364,29.694329 C8.09052778,29.9234278 8.46545397,29.6042883 8.94133304,31.1803205 C9.41721211,32.7563526 9.60960614,33.243319 10.2880329,33.4497764 C10.9664596,33.6562338 12.4353825,33.5651428 13.2106773,34.0598703 C13.9859722,34.5545978 14.0570768,34.8448811 14.282266,35.34346 C14.5074551,35.8420389 14.741835,36.6692398 13.866025,37.340664 C12.9902149,38.0120883 11.8921626,38.2116599 9.34885009,41.0017526 C7.97093071,40.3111298 6.28953994,38.5679711 6.28953994,38.5679711 C6.28953994,38.5679711 4.98018683,37.4338266 3.24782361,34.6173286 C1.5154604,31.8008306 0.66197084,29.0502729 0.302333474,27.2823136 C-0.0573038933,25.5143542 -0.130363439,22.9855136 -0.130363439,22.9855136 L-0.131939005,22.7202351 Z" id="Path-7" fill="#86CE4E" mask="url(#mask-3)"></path>
                                    <path d="M20.8554133,5.06892585 C20.8554133,5.06892585 21.3009571,4.928164 21.7582941,5.19738143 C22.2156311,5.46659886 22.2921919,5.64516293 22.661837,5.67810391 C23.0314821,5.71104489 23.3286366,5.67810391 23.3286366,5.67810391 C23.3286366,5.67810391 23.6253826,6.90176372 22.5366233,6.90176372 C21.447864,6.90176372 20.6451718,6.81488881 20.5455903,6.12234032 C20.4460087,5.42979183 20.7665689,5.13755047 20.7665689,5.13755047 L20.8554133,5.06892585 Z" id="Path-8" fill="#86CE4E" mask="url(#mask-3)"></path>
                                </g>
                                <path d="M29.6386569,1.10473458 C38.723053,4.0421206 45.2941176,12.5795844 45.2941176,22.6538856 C45.2941176,35.1577405 35.1714792,45.2941176 22.6845719,45.2941176 C17.7158418,45.2941176 13.1214617,43.6891592 9.3902439,40.9687178 C11.5810686,41.6771081 13.9180682,42.0597988 16.3443289,42.0597988 C28.8312362,42.0597988 38.9538747,31.9234216 38.9538747,19.4195668 C38.9538747,11.8911857 35.2843563,5.22102981 29.6386569,1.10473458 Z" id="Combined-Shape" fill="#000000" opacity="0.12" style="mix-blend-mode: luminosity;"></path>
                            </g>
                        </g>
                    </g>
                </g>
            </g>
        </g>
    </g>
</svg>