<svg xmlns="http://www.w3.org/2000/svg" xmlns:xlink="http://www.w3.org/1999/xlink" viewBox="0 0 32 32"><defs><clipPath id="clip-path"><rect width="32" height="32" rx="7.61" ry="7.61" fill="none"/></clipPath></defs><title>reports app_32px</title><g id="Layer_2" data-name="Layer 2"><g id="Layer_1-2" data-name="Layer 1"><g clip-path="url(#clip-path)"><rect width="32" height="32" rx="7.61" ry="7.61" fill="#40afff"/><rect x="6.55" y="7.02" width="21.91" height="24.98" fill="#333" opacity="0.15"/><g id="paper"><path d="M5.22,5.4H26.79l0,26.59H5.21Z" fill="#fff" fill-rule="evenodd"/><path d="M18.55,20.37a2.62,2.62,0,0,1-.57,1l2,2.73a6,6,0,0,0,2-3.34Z" fill="#a6dae9"/><path d="M16.55,16.92a2.68,2.68,0,0,1,2.12,2.37l3.35.37s0-.07,0-.11a6,6,0,0,0-5.47-6Z" fill="#f99b1c"/><path d="M14,17.75a2.66,2.66,0,0,1,1.44-.83V13.57A6,6,0,0,0,11.12,16Z" fill="#15b0bf"/><path d="M17.09,22a2.66,2.66,0,0,1-1.09.23,2.69,2.69,0,0,1-2.69-2.68,2.64,2.64,0,0,1,.15-.86L10.56,17A6,6,0,0,0,19,24.72Z" fill="#4c8eb4"/><rect x="7.45" y="7.45" width="2.7" height="0.78" fill="#f99b1c"/><rect x="7.45" y="9.23" width="2.7" height="0.78" fill="#15b0bf"/><rect x="11.98" y="7.49" width="12.57" height="0.88" fill="#ccc"/><rect x="11.98" y="10.12" width="12.57" height="0.88" fill="#ccc"/><rect x="11.98" y="8.8" width="12.57" height="0.88" fill="#ccc"/><rect x="10.95" y="29.7" width="1.53" height="2.29" fill="#15b0bf"/><rect x="10.95" y="28.56" width="1.53" height="1.14" fill="#a6dae9"/><rect x="13.81" y="28.71" width="1.53" height="3.28" fill="#15b0bf"/><rect x="13.81" y="28.06" width="1.53" height="1.12" fill="#a6dae9"/><rect x="16.66" y="30.33" width="1.53" height="1.67" fill="#15b0bf"/><rect x="16.66" y="29.13" width="1.53" height="1.2" fill="#a6dae9"/><rect x="19.52" y="31.04" width="1.53" height="0.95" fill="#15b0bf"/><rect x="19.52" y="30.08" width="1.53" height="0.95" fill="#a6dae9"/></g></g></g></g></svg>