<?xml version="1.0" encoding="UTF-8" standalone="no"?>
<svg width="66px" height="67px" viewBox="0 0 66 67" version="1.1" xmlns="http://www.w3.org/2000/svg" xmlns:xlink="http://www.w3.org/1999/xlink">
    <!-- Generator: Sketch 39 (31667) - http://www.bohemiancoding.com/sketch -->
    <title>Rank &amp; Review icon</title>
    <desc>Created with Sketch.</desc>
    <defs>
        <linearGradient x1="50%" y1="0%" x2="50%" y2="100%" id="linearGradient-1">
            <stop stop-color="#82F2BC" offset="0%"></stop>
            <stop stop-color="#96C7E2" offset="100%"></stop>
        </linearGradient>
        <ellipse id="path-2" cx="26.5294118" cy="27.1999376" rx="26.5294118" ry="26.3299425"></ellipse>
        <filter x="-50%" y="-50%" width="200%" height="200%" filterUnits="objectBoundingBox" id="filter-3">
            <feOffset dx="-1" dy="1" in="SourceAlpha" result="shadowOffsetOuter1"></feOffset>
            <feGaussianBlur stdDeviation="0.5" in="shadowOffsetOuter1" result="shadowBlurOuter1"></feGaussianBlur>
            <feColorMatrix values="0 0 0 0 0   0 0 0 0 0   0 0 0 0 0  0 0 0 0.219287817 0" type="matrix" in="shadowBlurOuter1"></feColorMatrix>
        </filter>
        <ellipse id="path-4" cx="9.94345294" cy="9.95400265" rx="9.94345294" ry="9.95400265"></ellipse>
        <mask id="mask-5" maskContentUnits="userSpaceOnUse" maskUnits="objectBoundingBox" x="-1.48473" y="-1.48473" width="22.8563659" height="22.8774653">
            <rect x="-1.48473" y="-1.48473" width="22.8563659" height="22.8774653" fill="white"></rect>
            <use xlink:href="#path-4" fill="black"></use>
        </mask>
        <path d="M9.23229941,12.6387955 L9.23229941,5.00550983 C9.23229941,4.45185911 9.67616423,4.00303653 10.2322994,4.00303653 C10.7845842,4.00303653 11.2322994,4.45879749 11.2322994,5.00550983 L11.2322994,12.6098725 L13.784153,10.0580189 C14.1735175,9.6686544 14.8030196,9.66687194 15.1962665,10.0601189 C15.5867908,10.4506432 15.5830283,11.0875707 15.1983666,11.4722325 L10.9515258,15.7190732 C10.7494469,15.9211521 10.482685,16.0188328 10.2178379,16.0110742 C9.9529908,16.0188328 9.6862289,15.9211521 9.48414994,15.7190732 L5.23730924,11.4722325 C4.85264751,11.0875707 4.84888495,10.4506432 5.23940924,10.0601189 C5.6326562,9.66687194 6.26215831,9.6686544 6.6515228,10.0580189 L9.23229941,12.6387955 Z" id="path-6"></path>
        <mask id="mask-7" maskContentUnits="userSpaceOnUse" maskUnits="objectBoundingBox" x="0" y="0" width="10.5403475" height="12.0084659" fill="white">
            <use xlink:href="#path-6"></use>
        </mask>
        <ellipse id="path-8" cx="9.94345294" cy="9.95400265" rx="9.94345294" ry="9.95400265"></ellipse>
        <mask id="mask-9" maskContentUnits="userSpaceOnUse" maskUnits="objectBoundingBox" x="-1.6497" y="-1.6497" width="23.1863059" height="23.2074053">
            <rect x="-1.6497" y="-1.6497" width="23.1863059" height="23.2074053" fill="white"></rect>
            <use xlink:href="#path-8" fill="black"></use>
        </mask>
        <path d="M8.6970175,12.635759 L8.6970175,5.00247329 C8.6970175,4.44882258 9.14088232,4 9.6970175,4 C10.2493023,4 10.6970175,4.45576096 10.6970175,5.00247329 L10.6970175,12.6068359 L13.2488711,10.0549824 C13.6382356,9.66561787 14.2677377,9.66383541 14.6609846,10.0570824 C15.0515089,10.4476067 15.0477464,11.0845342 14.6630846,11.4691959 L10.4162439,15.7160366 C10.214165,15.9181156 9.94740308,16.0157963 9.68255598,16.0080377 C9.41770889,16.0157963 9.15094699,15.9181156 8.94886803,15.7160366 L4.70202732,11.4691959 C4.3173656,11.0845342 4.31360304,10.4476067 4.70412733,10.0570824 C5.09737429,9.66383541 5.7268764,9.66561787 6.11624089,10.0549824 L8.6970175,12.635759 Z" id="path-10"></path>
        <mask id="mask-11" maskContentUnits="userSpaceOnUse" maskUnits="objectBoundingBox" x="0" y="0" width="10.5403475" height="12.0084659" fill="white">
            <use xlink:href="#path-10"></use>
        </mask>
    </defs>
    <g id="Page-1" stroke="none" stroke-width="1" fill="none" fill-rule="evenodd">
        <g id="07-Apps" transform="translate(-265.000000, -247.000000)">
            <g id="Apps-01" transform="translate(80.000000, 80.000000)">
                <g id="Row-2" transform="translate(0.000000, 146.000000)">
                    <g id="02" transform="translate(150.000000, 0.000000)">
                        <g id="Rank-&amp;-Review-icon" transform="translate(35.000000, 21.829956)">
                            <rect id="icon_bg" fill="url(#linearGradient-1)" x="0" y="0.165413534" width="66" height="66" rx="14.625"></rect>
                            <g id="Icon" transform="translate(6.469971, 5.765389)">
                                <g id="Oval-18">
                                    <use fill="black" fill-opacity="1" filter="url(#filter-3)" xlink:href="#path-2"></use>
                                    <use fill="#FFFFFF" fill-rule="evenodd" xlink:href="#path-2"></use>
                                </g>
                                <g id="Icon-Top-Performer" transform="translate(25.882353, 17.697037)">
                                    <g id="Oval">
                                        <use fill="#FFFFFF" fill-rule="evenodd" xlink:href="#path-4"></use>
                                        <use stroke="#1ED761" mask="url(#mask-5)" stroke-width="2.96946" xlink:href="#path-4"></use>
                                    </g>
                                    <use id="arrow" stroke="#FFFFFF" mask="url(#mask-7)" stroke-width="0.2" fill="#1ED761" transform="translate(10.217838, 10.007269) scale(1, -1) translate(-10.217838, -10.007269) " xlink:href="#path-6"></use>
                                </g>
                                <g id="Icon-Bottom-Performet" transform="translate(7.117647, 17.697037)">
                                    <g id="Oval">
                                        <use stroke="#FFFFFF" stroke-width="6.0489" fill="#FFFFFF" fill-rule="evenodd" xlink:href="#path-8"></use>
                                        <use stroke="#FE0024" mask="url(#mask-9)" stroke-width="3.2994" xlink:href="#path-8"></use>
                                    </g>
                                    <use id="arrow" stroke="#FFFFFF" mask="url(#mask-11)" stroke-width="0.2" fill="#F44336" xlink:href="#path-10"></use>
                                </g>
                            </g>
                        </g>
                    </g>
                </g>
            </g>
        </g>
    </g>
</svg>