<?xml version="1.0" encoding="UTF-8"?>
<svg width="68px" height="68px" viewBox="0 0 68 68" version="1.1" xmlns="http://www.w3.org/2000/svg" xmlns:xlink="http://www.w3.org/1999/xlink">
    <!-- Generator: Sketch 46.2 (44496) - http://www.bohemiancoding.com/sketch -->
    <title>Icon</title>
    <desc>Created with Sketch.</desc>
    <defs>
        <linearGradient x1="50%" y1="0%" x2="50%" y2="100%" id="linearGradient-1">
            <stop stop-color="#B8A6FF" offset="0%"></stop>
            <stop stop-color="#2AFFEA" offset="100%"></stop>
        </linearGradient>
        <linearGradient x1="50%" y1="30.2274816%" x2="92.578125%" y2="90.0735294%" id="linearGradient-2">
            <stop stop-color="#EBF6F5" stop-opacity="0" offset="0%"></stop>
            <stop stop-color="#627775" stop-opacity="0.5" offset="100%"></stop>
        </linearGradient>
        <rect id="path-3" x="0" y="0" width="68" height="68" rx="15"></rect>
        <filter x="-2.9%" y="-2.9%" width="105.9%" height="105.9%" filterUnits="objectBoundingBox" id="filter-4">
            <feGaussianBlur stdDeviation="1.5" in="SourceAlpha" result="shadowBlurInner1"></feGaussianBlur>
            <feOffset dx="0" dy="1" in="shadowBlurInner1" result="shadowOffsetInner1"></feOffset>
            <feComposite in="shadowOffsetInner1" in2="SourceAlpha" operator="arithmetic" k2="-1" k3="1" result="shadowInnerInner1"></feComposite>
            <feColorMatrix values="0 0 0 0 1   0 0 0 0 1   0 0 0 0 1  0 0 0 0.5 0" type="matrix" in="shadowInnerInner1"></feColorMatrix>
        </filter>
        <filter x="-9.3%" y="-4.3%" width="118.6%" height="117.0%" filterUnits="objectBoundingBox" id="filter-5">
            <feOffset dx="0" dy="2" in="SourceAlpha" result="shadowOffsetOuter1"></feOffset>
            <feGaussianBlur stdDeviation="1" in="shadowOffsetOuter1" result="shadowBlurOuter1"></feGaussianBlur>
            <feColorMatrix values="0 0 0 0 0   0 0 0 0 0   0 0 0 0 0  0 0 0 0.131453804 0" type="matrix" in="shadowBlurOuter1" result="shadowMatrixOuter1"></feColorMatrix>
            <feMerge>
                <feMergeNode in="shadowMatrixOuter1"></feMergeNode>
                <feMergeNode in="SourceGraphic"></feMergeNode>
            </feMerge>
        </filter>
    </defs>
    <g id="Icons" stroke="none" stroke-width="1" fill="none" fill-rule="evenodd">
        <g id="Icon">
            <g id="AccountsAppIcon">
                <g id="Rectangle">
                    <use fill="url(#linearGradient-1)" fill-rule="evenodd" xlink:href="#path-3"></use>
                    <use fill="url(#linearGradient-2)" fill-rule="evenodd" xlink:href="#path-3"></use>
                    <use fill="black" fill-opacity="1" filter="url(#filter-4)" xlink:href="#path-3"></use>
                </g>
                <g id="Group" filter="url(#filter-5)" transform="translate(13.000000, 11.000000)">
                    <path d="M15.4450625,22.1973309 C13.7376602,22.4424145 12.158082,21.2325491 11.916375,19.4959418 C11.6810508,17.8001818 12.8103047,16.2267927 14.4548867,15.9271891 C14.4923438,15.91796 14.5303047,15.9116364 14.5726328,15.9068509 C15.6185742,15.7566218 16.6415039,16.4542727 17.9281445,16.7718218 L16.9898711,10.0075818 L0.105316406,12.4320982 L2.488625,29.6120509 L9.19242578,28.6496618 C8.89898438,30.0307782 8.15454688,31.1104109 8.30756641,32.2167055 C8.31193359,32.2584073 8.31848438,32.2973745 8.32789063,32.3354873 C8.62284375,34.0085164 10.1674844,35.1571964 11.8352461,34.9180945 C13.5426484,34.6731818 14.7305234,33.0659527 14.4893203,31.3284909 C13.9791992,29.7292945 13.2218281,29.3920909 12.5245898,28.1702618 L19.3728438,27.1875345 L18.4152539,20.2781927 C17.3204336,20.96576 16.9554375,21.6972509 15.4450625,22.1973309 Z" id="Fill-3" fill="#C3FFFC"></path>
                    <path d="M20.2511523,34.2301855 L19.2855,27.2625636 L12.4940195,28.2369164 C13.1690859,29.3503891 13.889,29.7212618 14.3808125,31.2596145 C14.6215117,32.9960509 13.4331328,34.6034509 11.7257305,34.8487055 C10.0583047,35.0881491 8.51332812,33.9381018 8.21770312,32.26644 C8.21014453,32.2276436 8.20292187,32.1886764 8.19855469,32.1474873 C8.05074219,31.0816982 8.73639062,30.0413745 9.04931641,28.73204 L2.40044141,29.6869091 L4.78324609,46.8663491 L21.6678008,44.44132 L20.7218008,37.6213636 C22.0801641,37.9192582 23.1407187,38.6768982 24.2276445,38.5213709 C24.2676211,38.5159018 24.3072617,38.5095782 24.3442148,38.5001782 C25.988293,38.2009164 27.1182187,36.6282109 26.8823906,34.9309127 C26.6415234,33.1937927 25.0616094,31.9849527 23.3552148,32.2303782 C21.7843711,32.7501127 21.451793,33.5205709 20.2511523,34.2301855 Z" id="Fill-4" fill="#C3FFFC"></path>
                    <path d="M36.2604219,24.78404 L29.5566211,25.7471127 C29.8497266,24.3654836 30.594668,23.2858509 30.4411445,22.1797273 C30.4366094,22.1393927 30.4303945,22.0997418 30.4208203,22.0604327 C30.1262031,20.3880873 28.5813945,19.2395782 26.9132969,19.4791927 C25.2062305,19.7239345 24.0183555,21.3308218 24.2592227,23.0677709 C24.7698477,24.6671382 25.5270508,25.0048545 26.2241211,26.2254873 L19.3758672,27.2088982 L20.3342969,34.1180691 C21.4286133,33.4311855 21.7932734,32.6993527 23.3044883,32.1999564 C25.0117227,31.95436 26.5913008,33.1626873 26.831832,34.9001491 C27.0673242,36.5976182 25.9373984,38.1692982 24.2938242,38.4694145 C24.2568711,38.4783018 24.2177344,38.4856509 24.1764141,38.48924 C23.1309766,38.6394691 22.1077109,37.9428436 20.8207344,37.6242691 L21.7586719,44.3893636 L38.6438984,41.9646764 L36.2604219,24.78404 Z" id="Fill-5" fill="#C3FFFC"></path>
                    <path d="M25.880793,0.145956364 L25.7480977,7.03376364 C24.4540664,6.51898545 23.5250312,5.59881091 22.4276914,5.57744727 C22.3877148,5.57539636 22.3479062,5.57539636 22.3086016,5.57881455 C20.6389922,5.60821091 19.2786133,6.97736364 19.2455234,8.69124 C19.2119297,10.4449382 20.5818828,11.8942473 22.3049062,11.9282582 C23.9384023,11.6700145 24.386543,10.9634764 25.68175,10.4567309 L25.5458633,17.4932291 L32.4021797,17.6301273 C31.9103672,16.4221418 31.2581445,15.9389818 31.0140859,14.3411527 C31.0470078,12.5872836 32.4710469,11.1926655 34.1952461,11.2277018 C35.8796367,11.2610291 37.2247305,12.6464182 37.2544609,14.3450836 C37.2571484,14.3840509 37.2576523,14.4238727 37.2551328,14.4660873 C37.2344727,15.5404218 36.3958047,16.4571782 35.8819883,17.6995164 L42.5948594,17.8341927 L42.9297891,0.486407273" id="Fill-8" fill="#86FFFF"></path>
                </g>
            </g>
        </g>
    </g>
</svg>