<?xml version="1.0" encoding="UTF-8" standalone="no"?>
<svg width="66px" height="66px" viewBox="0 0 66 66" version="1.1" xmlns="http://www.w3.org/2000/svg" xmlns:xlink="http://www.w3.org/1999/xlink">
    <!-- Generator: Sketch 39 (31667) - http://www.bohemiancoding.com/sketch -->
    <title>Hire Icon</title>
    <desc>Created with Sketch.</desc>
    <defs>
        <linearGradient x1="50%" y1="0%" x2="50%" y2="100%" id="linearGradient-1">
            <stop stop-color="#00ECB2" offset="0%"></stop>
            <stop stop-color="#02B7CE" offset="100%"></stop>
        </linearGradient>
        <path d="M30.1899344,0.0666470588 L2.21843215,0.0666470588 C1.06494024,0.0666470588 0.120904617,1.01445882 0.120904617,2.17256471 L0.120904617,39.2773765 C0.120904617,40.436 1.06494024,41.3838118 2.21843215,41.3838118 L30.1546168,41.3838118 C31.3086243,41.3838118 32.2527888,40.436 32.2527888,39.2773765 L32.2527888,2.17256471 C32.2874619,1.01445882 31.3434263,0.0666470588 30.1899344,0.0666470588 L30.1899344,0.0666470588 Z" id="path-2"></path>
        <filter x="-50%" y="-50%" width="200%" height="200%" filterUnits="objectBoundingBox" id="filter-3">
            <feOffset dx="-1" dy="1" in="SourceAlpha" result="shadowOffsetOuter1"></feOffset>
            <feGaussianBlur stdDeviation="0.5" in="shadowOffsetOuter1" result="shadowBlurOuter1"></feGaussianBlur>
            <feColorMatrix values="0 0 0 0 0   0 0 0 0 0   0 0 0 0 0  0 0 0 0.22 0" type="matrix" in="shadowBlurOuter1"></feColorMatrix>
        </filter>
    </defs>
    <g id="Page-1" stroke="none" stroke-width="1" fill="none" fill-rule="evenodd">
        <g id="07-Apps" transform="translate(-115.000000, -394.000000)">
            <g id="Apps-01" transform="translate(80.000000, 80.000000)">
                <g id="Row-3" transform="translate(0.000000, 292.000000)">
                    <g id="01">
                        <g id="Hire-Icon" transform="translate(35.000000, 22.000000)">
                            <rect id="icon_bg" fill="url(#linearGradient-1)" x="0" y="0" width="66" height="66" rx="14.625"></rect>
                            <g id="id-card" transform="translate(16.823529, 12.294118)">
                                <g id="Fill-2">
                                    <use fill="black" fill-opacity="1" filter="url(#filter-3)" xlink:href="#path-2"></use>
                                    <use fill="#FCFCFD" fill-rule="evenodd" xlink:href="#path-2"></use>
                                </g>
                                <path d="M17.8476096,13.8620706 C19.7004921,13.1953412 20.9944809,11.4402588 20.9944809,9.33369412 C20.9944809,6.66612941 18.8616358,4.52475294 16.2041833,4.52475294 C13.5467307,4.52475294 11.4144012,6.66612941 11.4144012,9.33369412 C11.4144012,11.4048 12.7425475,13.1953412 14.560757,13.8620706 C10.4702367,14.5997176 7.32336536,18.1448235 7.18338411,22.4629059 L25.1901805,22.4629059 C25.0848723,18.1448235 21.9385165,14.5997176 17.8476096,13.8620706 L17.8476096,13.8620706 Z" id="Fill-3" fill="#6EB1E1"></path>
                                <polygon id="Fill-4" fill="#E7E9EE" points="7.18338411 27.6581412 25.1900516 27.6581412 25.1900516 25.9383882 7.18338411 25.9383882"></polygon>
                                <polygon id="Fill-5" fill="#E7E9ED" points="7.18338411 32.2922471 25.1900516 32.2922471 25.1900516 30.5719765 7.18338411 30.5719765"></polygon>
                                <polygon id="Fill-6" fill="#E7E9ED" points="7.18338411 36.9257059 19.5608976 36.9257059 19.5608976 35.2054353 7.18338411 35.2054353"></polygon>
                            </g>
                        </g>
                    </g>
                </g>
            </g>
        </g>
    </g>
</svg>