<?xml version="1.0" encoding="UTF-8" standalone="no"?>
<svg width="66px" height="66px" viewBox="0 0 66 66" version="1.1" xmlns="http://www.w3.org/2000/svg" xmlns:xlink="http://www.w3.org/1999/xlink">
    <!-- Generator: Sketch 39 (31667) - http://www.bohemiancoding.com/sketch -->
    <title>Team Summary Icon</title>
    <desc>Created with Sketch.</desc>
    <defs>
        <linearGradient x1="50%" y1="0%" x2="50%" y2="100%" id="linearGradient-1">
            <stop stop-color="#F9BE01" offset="0%"></stop>
            <stop stop-color="#FF9F02" offset="100%"></stop>
        </linearGradient>
        <rect id="path-2" x="0" y="0" width="66" height="66" rx="14.625"></rect>
        <linearGradient x1="50%" y1="0%" x2="50%" y2="100%" id="linearGradient-4">
            <stop stop-color="#FF385D" offset="0%"></stop>
            <stop stop-color="#FF3959" offset="100%"></stop>
        </linearGradient>
        <rect id="path-5" x="0" y="0" width="66" height="66" rx="14.625"></rect>
        <path d="M46.4545853,35.5769563 C46.4545853,35.9966034 46.3012324,36.4138134 45.9789971,36.7354941 C45.6582176,37.0581496 45.24135,37.2170403 44.8167176,37.2170403 L1.76773235,37.2170403 C1.34698235,37.2170403 0.931570588,37.0581496 0.610305882,36.7354941 C0.293408824,36.4138134 0.132776471,35.9966034 0.132776471,35.5769563 L0.132776471,8.37788067 L46.4545853,8.37788067 L46.4545853,35.5769563 Z" id="path-7"></path>
        <filter x="-50%" y="-50%" width="200%" height="200%" filterUnits="objectBoundingBox" id="filter-8">
            <feOffset dx="-1" dy="1" in="SourceAlpha" result="shadowOffsetOuter1"></feOffset>
            <feGaussianBlur stdDeviation="0.5" in="shadowOffsetOuter1" result="shadowBlurOuter1"></feGaussianBlur>
            <feColorMatrix values="0 0 0 0 0   0 0 0 0 0   0 0 0 0 0  0 0 0 0.219287817 0" type="matrix" in="shadowBlurOuter1"></feColorMatrix>
        </filter>
        <path d="M46.4545853,8.37802689 L0.132776471,8.37802689 L0.132776471,1.64417815 C0.132776471,1.21770756 0.293408824,0.801472269 0.610305882,0.478816807 C0.931570588,0.156161345 1.34698235,0.000194957983 1.76773235,0.000194957983 L44.8167176,0.000194957983 C45.24135,0.000194957983 45.6582176,0.156161345 45.9789971,0.478816807 C46.3012324,0.801472269 46.4545853,1.21770756 46.4545853,1.64417815 L46.4545853,8.37802689 Z" id="path-9"></path>
        <filter x="-50%" y="-50%" width="200%" height="200%" filterUnits="objectBoundingBox" id="filter-10">
            <feOffset dx="-1" dy="1" in="SourceAlpha" result="shadowOffsetOuter1"></feOffset>
            <feGaussianBlur stdDeviation="0.5" in="shadowOffsetOuter1" result="shadowBlurOuter1"></feGaussianBlur>
            <feColorMatrix values="0 0 0 0 0   0 0 0 0 0   0 0 0 0 0  0 0 0 0.219287817 0" type="matrix" in="shadowBlurOuter1"></feColorMatrix>
        </filter>
        <polygon id="path-11" points="0.00558680057 0.0374297426 0.00558680057 30.9690516 38.1385859 30.9690516 38.1385859 0.0374297426"></polygon>
    </defs>
    <g id="Page-1" stroke="none" stroke-width="1" fill="none" fill-rule="evenodd">
        <g id="07-Apps" transform="translate(-115.000000, -102.000000)">
            <g id="Apps-01" transform="translate(80.000000, 80.000000)">
                <g id="Row-1">
                    <g id="01">
                        <g id="Team-Summary-Icon" transform="translate(35.000000, 22.000000)">
                            <mask id="mask-3" fill="white">
                                <use xlink:href="#path-2"></use>
                            </mask>
                            <use id="Mask" fill="url(#linearGradient-1)" xlink:href="#path-2"></use>
                            <mask id="mask-6" fill="white">
                                <use xlink:href="#path-5"></use>
                            </mask>
                            <use id="Mask" fill="url(#linearGradient-4)" xlink:href="#path-5"></use>
                            <g id="Group-8" transform="translate(9.705882, 14.235294)">
                                <g id="Fill-10">
                                    <use fill="black" fill-opacity="1" filter="url(#filter-8)" xlink:href="#path-7"></use>
                                    <use fill="#FEFEFE" fill-rule="evenodd" xlink:href="#path-7"></use>
                                </g>
                                <g id="Fill-11">
                                    <use fill="black" fill-opacity="1" filter="url(#filter-10)" xlink:href="#path-9"></use>
                                    <use fill="#FEFEFE" fill-rule="evenodd" xlink:href="#path-9"></use>
                                </g>
                                <path d="M5.58136765,4.18852605 C5.58136765,4.94252605 4.97329412,5.55371933 4.21866176,5.55371933 C3.46645588,5.55371933 2.85789706,4.94252605 2.85789706,4.18852605 C2.85789706,3.42770252 3.46645588,2.81602185 4.21866176,2.81602185 C4.97329412,2.81602185 5.58136765,3.42770252 5.58136765,4.18852605" id="Fill-12" fill="#D65A38"></path>
                                <path d="M9.66701029,4.18852605 C9.66701029,4.94252605 9.05845147,5.55371933 8.30673088,5.55371933 C7.55598088,5.55371933 6.944025,4.94252605 6.944025,4.18852605 C6.944025,3.42770252 7.55598088,2.81602185 8.30673088,2.81602185 C9.05845147,2.81602185 9.66701029,3.42770252 9.66701029,4.18852605" id="Fill-13" fill="#F6B947"></path>
                                <path d="M13.7597868,4.18852605 C13.7597868,4.94252605 13.1473456,5.55371933 12.3931985,5.55371933 C11.6424485,5.55371933 11.0300074,4.94252605 11.0300074,4.18852605 C11.0300074,3.42770252 11.6424485,2.81602185 12.3931985,2.81602185 C13.1473456,2.81602185 13.7597868,3.42770252 13.7597868,4.18852605" id="Fill-14" fill="#71BF8C"></path>
                            </g>
                            <g id="line-chart" transform="translate(13.911765, 25.882353)">
                                <path d="M5.30746055,21.4073967 C5.30746055,21.5103966 5.18380603,21.5789941 4.9986967,21.5789941 C4.81349426,21.5789941 4.6902122,21.5103966 4.6902122,21.4073967 L4.6902122,1.04470918 C4.6902122,0.941709273 4.81349426,0.87311175 4.9986967,0.87311175 C5.18380603,0.87311175 5.30746055,0.941709273 5.30746055,1.04470918 L5.30746055,21.4073967 Z" id="Fill-1" fill="#BCCCD3"></path>
                                <path d="M5.86288164,0.996695239 C5.86288164,1.47506788 5.47618192,1.8629931 4.99906915,1.8629931 C4.52177016,1.8629931 4.13516356,1.47506788 4.13516356,0.996695239 C4.13516356,0.518322595 4.52177016,0.130770746 4.99906915,0.130770746 C5.47618192,0.130770746 5.86288164,0.518322595 5.86288164,0.996695239 L5.86288164,0.996695239 Z" id="Fill-2" fill="#BCCCD3"></path>
                                <path d="M12.1574367,21.4073967 C12.1574367,21.5103966 12.0337822,21.5789941 11.8490453,21.5789941 C11.663936,21.5789941 11.5402815,21.5103966 11.5402815,21.4073967 L11.5402815,1.04470918 C11.5402815,0.941709273 11.663936,0.87311175 11.8490453,0.87311175 C12.0337822,0.87311175 12.1574367,0.941709273 12.1574367,1.04470918 L12.1574367,21.4073967 Z" id="Fill-3" fill="#BCCCD3"></path>
                                <path d="M12.7124854,0.996695239 C12.7124854,1.47506788 12.3255063,1.8629931 11.8483004,1.8629931 C11.371467,1.8629931 10.9844879,1.47506788 10.9844879,0.996695239 C10.9844879,0.518322595 11.371467,0.130770746 11.8483004,0.130770746 C12.3255063,0.130770746 12.7124854,0.518322595 12.7124854,0.996695239 L12.7124854,0.996695239 Z" id="Fill-4" fill="#BCCCD3"></path>
                                <path d="M19.007506,21.4073967 C19.007506,21.5103966 18.8838515,21.5789941 18.6990215,21.5789941 C18.5139122,21.5789941 18.3902577,21.5103966 18.3902577,21.4073967 L18.3902577,1.04470918 C18.3902577,0.941709273 18.5139122,0.87311175 18.6990215,0.87311175 C18.8838515,0.87311175 19.007506,0.941709273 19.007506,1.04470918 L19.007506,21.4073967 Z" id="Fill-5" fill="#BCCCD3"></path>
                                <path d="M19.5625547,0.996695239 C19.5625547,1.47506788 19.1758549,1.8629931 18.6986491,1.8629931 C18.2214432,1.8629931 17.8344641,1.47506788 17.8344641,0.996695239 C17.8344641,0.518322595 18.2214432,0.130770746 18.6986491,0.130770746 C19.1758549,0.130770746 19.5625547,0.518322595 19.5625547,0.996695239 L19.5625547,0.996695239 Z" id="Fill-6" fill="#BCCCD3"></path>
                                <path d="M25.8574822,21.4073967 C25.8574822,21.5103966 25.7342001,21.5789941 25.5490908,21.5789941 C25.3638884,21.5789941 25.2402339,21.5103966 25.2402339,21.4073967 L25.2402339,1.04470918 C25.2402339,0.941709273 25.3638884,0.87311175 25.5490908,0.87311175 C25.7342001,0.87311175 25.8574822,0.941709273 25.8574822,1.04470918 L25.8574822,21.4073967 Z" id="Fill-7" fill="#12DB55"></path>
                                <path d="M26.4125308,0.996695239 C26.4125308,1.47506788 26.0259242,1.8629931 25.5487184,1.8629931 C25.0715125,1.8629931 24.6848128,1.47506788 24.6848128,0.996695239 C24.6848128,0.518322595 25.0715125,0.130770746 25.5487184,0.130770746 C26.0259242,0.130770746 26.4125308,0.518322595 26.4125308,0.996695239 L26.4125308,0.996695239 Z" id="Fill-8" fill="#12DB55"></path>
                                <path d="M32.7693788,21.4073967 C32.7693788,21.5103966 32.6457242,21.5789941 32.4608943,21.5789941 C32.2757849,21.5789941 32.1521304,21.5103966 32.1521304,21.4073967 L32.1521304,1.04470918 C32.1521304,0.941709273 32.2757849,0.87311175 32.4608943,0.87311175 C32.6457242,0.87311175 32.7693788,0.941709273 32.7693788,1.04470918 L32.7693788,21.4073967 Z" id="Fill-9" fill="#BCCCD3"></path>
                                <g id="Group-13" transform="translate(0.000000, 0.093341)">
                                    <mask id="mask-12" fill="white">
                                        <use xlink:href="#path-11"></use>
                                    </mask>
                                    <g id="Clip-11"></g>
                                    <path d="M33.3247999,0.903354236 C33.3247999,1.38172688 32.9377277,1.76965209 32.4608943,1.76965209 C31.9836884,1.76965209 31.5967093,1.38172688 31.5967093,0.903354236 C31.5967093,0.424981591 31.9836884,0.0374297426 32.4608943,0.0374297426 C32.9377277,0.0374297426 33.3247999,0.424981591 33.3247999,0.903354236 L33.3247999,0.903354236 Z" id="Fill-10" fill="#BCCCD3" mask="url(#mask-12)"></path>
                                    <path d="M11.7253908,19.9690516 C11.5602077,19.9690516 11.4031255,19.9034329 11.2874788,19.7860099 L4.68844304,13.1125015 L1.05367059,16.756441 C0.81222769,16.9981942 0.42226901,16.9981942 0.181105452,16.756441 C-0.0603374462,16.5143144 -0.0603374462,16.1234023 0.181105452,15.8817424 L4.25416241,11.7987269 C4.36980918,11.6827974 4.52689139,11.617552 4.6902122,11.617552 L4.69170201,11.617552 C4.85567461,11.6179254 5.01284993,11.6835441 5.1284967,11.8005937 L11.7261357,18.4722353 L25.2959156,4.80879246 C25.4119349,4.69248957 25.5687377,4.62677751 25.7327103,4.62677751 L25.7342001,4.62677751 C25.8982659,4.62677751 26.0549756,4.69174284 26.170343,4.80804574 L32.463129,11.1162175 L37.0871376,6.53774788 C37.3304428,6.2978615 37.7204014,6.29963498 37.9604476,6.543255 C38.2001214,6.78640831 38.1976073,7.17797382 37.9549539,7.41832691 L32.89443,12.429152 C32.6526146,12.668385 32.2645182,12.6672649 32.024472,12.4258851 L25.7353175,6.12135366 L12.1629304,19.7870367 C12.0469112,19.9034329 11.8894565,19.9690516 11.7253908,19.9690516 L11.7253908,19.9690516 Z" id="Fill-12" fill="#FF5B00" mask="url(#mask-12)"></path>
                                </g>
                                <path d="M6.97372382,12.0197584 C6.97372382,13.1131549 6.08979885,13.9996144 4.99906915,13.9996144 C3.90824634,13.9996144 3.02432138,13.1131549 3.02432138,12.0197584 C3.02432138,10.9266419 3.90824634,10.0402757 4.99906915,10.0402757 C6.08979885,10.0402757 6.97372382,10.9266419 6.97372382,12.0197584 L6.97372382,12.0197584 Z" id="Fill-14" fill="#FF5B00"></path>
                                <path d="M2.96212166,12.0200384 C2.96212166,10.9065736 3.88785452,10.0402757 4.93714878,10.0402757" id="Fill-15" fill="#FF8500"></path>
                                <path d="M27.6474,5.09170905 C27.6474,6.18482554 26.7631957,7.07119172 25.6723729,7.07119172 C24.5819225,7.07119172 23.6977182,6.18482554 23.6977182,5.09170905 C23.6977182,3.99821919 24.5819225,3.11185301 25.6723729,3.11185301 C26.7631957,3.11185301 27.6474,3.99821919 27.6474,5.09170905 L27.6474,5.09170905 Z" id="Fill-16" fill="#FF5B00"></path>
                                <path d="M23.635891,5.09133568 C23.635891,3.97777751 24.5615307,3.11185301 25.6105456,3.11185301" id="Fill-17" fill="#FF8500"></path>
                                <path d="M13.8233275,19.1343964 C13.8233275,20.2278862 12.9391232,21.1142524 11.8483004,21.1142524 C10.7578501,21.1142524 9.87364577,20.2278862 9.87364577,19.1343964 C9.87364577,18.0412799 10.7578501,17.1549137 11.8483004,17.1549137 C12.9391232,17.1549137 13.8233275,18.0412799 13.8233275,19.1343964 L13.8233275,19.1343964 Z" id="Fill-18" fill="#FF5B00"></path>
                                <path d="M9.81219096,19.1343964 C9.81219096,18.0209315 10.7378307,17.1545403 11.7872181,17.1545403" id="Fill-19" fill="#FF8500"></path>
                                <path d="M34.4355489,11.5873095 C34.4355489,12.6807994 33.5513446,13.5671655 32.4608943,13.5671655 C31.3700714,13.5671655 30.4858671,12.6807994 30.4858671,11.5873095 C30.4858671,10.494193 31.3700714,9.60782684 32.4608943,9.60782684 C33.5513446,9.60782684 34.4355489,10.494193 34.4355489,11.5873095 L34.4355489,11.5873095 Z" id="Fill-20" fill="#FF5B00"></path>
                                <path d="M30.4244123,11.5869361 C30.4244123,10.473378 31.3501452,9.60745347 32.399067,9.60745347" id="Fill-21" fill="#FF8500"></path>
                            </g>
                        </g>
                    </g>
                </g>
            </g>
        </g>
    </g>
</svg>