<?xml version="1.0" encoding="UTF-8"?>
<svg width="66px" height="66px" viewBox="0 0 66 66" version="1.1" xmlns="http://www.w3.org/2000/svg" xmlns:xlink="http://www.w3.org/1999/xlink">
    <!-- Generator: Sketch 40.3 (33839) - http://www.bohemiancoding.com/sketch -->
    <title>Gemba Walk icon_Team Dashboard</title>
    <desc>Created with Sketch.</desc>
    <defs>
        <linearGradient x1="50%" y1="0%" x2="50%" y2="100%" id="linearGradient-1">
            <stop stop-color="#82F2BC" offset="0%"></stop>
            <stop stop-color="#96C7E2" offset="100%"></stop>
        </linearGradient>
        <filter x="-50%" y="-50%" width="200%" height="200%" filterUnits="objectBoundingBox" id="filter-2">
            <feOffset dx="-1" dy="1" in="SourceAlpha" result="shadowOffsetOuter1"></feOffset>
            <feGaussianBlur stdDeviation="0.5" in="shadowOffsetOuter1" result="shadowBlurOuter1"></feGaussianBlur>
            <feColorMatrix values="0 0 0 0 0   0 0 0 0 0   0 0 0 0 0  0 0 0 0.15 0" type="matrix" in="shadowBlurOuter1" result="shadowMatrixOuter1"></feColorMatrix>
            <feMerge>
                <feMergeNode in="shadowMatrixOuter1"></feMergeNode>
                <feMergeNode in="SourceGraphic"></feMergeNode>
            </feMerge>
        </filter>
        <polygon id="path-3" points="0.00523207721 30.4117647 44.6470588 30.4117647 44.6470588 0.0638206309 0.00523207721 0.0638206309"></polygon>
    </defs>
    <g id="Page-1" stroke="none" stroke-width="1" fill="none" fill-rule="evenodd">
        <g id="02-Team-Dashboard-+Drop-down-user" transform="translate(-999.000000, -935.000000)">
            <g id="Content" transform="translate(200.000000, 95.000000)">
                <g id="Apps" transform="translate(614.000000, 380.000000)">
                    <g id="Row-4" transform="translate(0.000000, 438.000000)">
                        <g id="02" transform="translate(150.000000, 0.000000)">
                            <g id="Gemba-Walk-icon_Team-Dashboard" transform="translate(35.000000, 22.000000)">
                                <rect id="icon_bg" fill="url(#linearGradient-1)" x="0" y="0" width="66" height="66" rx="14.625"></rect>
                                <g id="computer" filter="url(#filter-2)" transform="translate(11.000000, 18.117647)">
                                    <g id="Group-4">
                                        <mask id="mask-4" fill="white">
                                            <use xlink:href="#path-3"></use>
                                        </mask>
                                        <g id="Clip-2"></g>
                                        <path d="M16.1652873,26.5209981 L16.1652873,28.0772871 L28.4817715,28.0772871 L28.4817715,26.5209981 L41.5679814,26.5209981 L41.5679814,1.62010963 C41.5679814,0.760294118 40.879004,0.0638206309 40.0283555,0.0638206309 L4.61870335,0.0638206309 C3.7680548,0.0638206309 3.07907744,0.760294118 3.07907744,1.62010963 L3.07907744,26.5209981 L16.1652873,26.5209981" id="Fill-1" fill="#343E43" mask="url(#mask-4)"></path>
                                        <path d="M28.4817715,26.5209981 L28.4817715,28.0772871 L16.1652873,28.0772871 L16.1652873,26.5209981 L0,26.5209981 L0,28.8554757 C0,29.7152912 0.688977367,30.4117647 1.53953872,30.4117647 L43.1075201,30.4117647 C43.9580815,30.4117647 44.6470588,29.7152912 44.6470588,28.8554757 L44.6470588,26.5209981 L28.4817715,26.5209981" id="Fill-3" fill="#E4E7E7" mask="url(#mask-4)"></path>
                                    </g>
                                    <polygon id="Fill-5" fill="#FFFFFF" points="4.63865546 25.0991244 40.0483076 25.0991244 40.0483076 1.75452489 4.63865546 1.75452489"></polygon>
                                    <g id="Group" transform="translate(11.596639, 6.433258)">
                                        <path d="M0.672959307,0.246757934 L5.95284974,0.246757934 C6.16986089,0.246757934 6.33874087,0.405648817 6.33874087,0.609823961 L6.33874087,5.91765776 C6.33874087,6.12183291 6.16986089,6.28072379 5.95284974,6.28072379 L0.672959307,6.28072379 C0.455948158,6.28072379 0.287068184,6.12183291 0.287068184,5.91765776 L0.287068184,0.587001845 C0.287068184,0.405648817 0.455948158,0.246757934 0.672959307,0.246757934 L0.672959307,0.246757934 Z" id="Fill-7" fill="#4CAF50"></path>
                                        <path d="M8.26077209,0.246757934 L13.5406625,0.246757934 C13.7576737,0.246757934 13.9265537,0.405648817 13.9265537,0.609823961 L13.9265537,5.91765776 C13.9265537,6.12183291 13.7576737,6.28072379 13.5406625,6.28072379 L8.26077209,6.28072379 C8.04376094,6.28072379 7.87488097,6.12183291 7.87488097,5.91765776 L7.87488097,0.587001845 C7.87488097,0.405648817 8.04376094,0.246757934 8.26077209,0.246757934 L8.26077209,0.246757934 Z" id="Fill-7" fill="#4CAF50"></path>
                                        <path d="M15.8485849,0.246757934 L21.1284753,0.246757934 C21.3454865,0.246757934 21.5143664,0.405648817 21.5143664,0.609823961 L21.5143664,5.91765776 C21.5143664,6.12183291 21.3454865,6.28072379 21.1284753,6.28072379 L15.8485849,6.28072379 C15.6315737,6.28072379 15.4626938,6.12183291 15.4626938,5.91765776 L15.4626938,0.587001845 C15.4626938,0.405648817 15.6315737,0.246757934 15.8485849,0.246757934 L15.8485849,0.246757934 Z" id="Fill-7" fill="#FFD54F"></path>
                                        <path d="M0.672959307,7.681457 L5.95284974,7.681457 C6.16986089,7.681457 6.33874087,7.84034788 6.33874087,8.04452302 L6.33874087,13.3523568 C6.33874087,13.556532 6.16986089,13.7154229 5.95284974,13.7154229 L0.672959307,13.7154229 C0.455948158,13.7154229 0.287068184,13.556532 0.287068184,13.3523568 L0.287068184,8.02170091 C0.287068184,7.84034788 0.455948158,7.681457 0.672959307,7.681457 L0.672959307,7.681457 Z" id="Fill-7" fill="#F44336"></path>
                                        <path d="M8.26077209,7.681457 L13.5406625,7.681457 C13.7576737,7.681457 13.9265537,7.84034788 13.9265537,8.04452302 L13.9265537,13.3523568 C13.9265537,13.556532 13.7576737,13.7154229 13.5406625,13.7154229 L8.26077209,13.7154229 C8.04376094,13.7154229 7.87488097,13.556532 7.87488097,13.3523568 L7.87488097,8.02170091 C7.87488097,7.84034788 8.04376094,7.681457 8.26077209,7.681457 L8.26077209,7.681457 Z" id="Fill-7" fill="#4CAF50"></path>
                                        <path d="M15.8485849,7.681457 L21.1284753,7.681457 C21.3454865,7.681457 21.5143664,7.84034788 21.5143664,8.04452302 L21.5143664,13.3523568 C21.5143664,13.556532 21.3454865,13.7154229 21.1284753,13.7154229 L15.8485849,13.7154229 C15.6315737,13.7154229 15.4626938,13.556532 15.4626938,13.3523568 L15.4626938,8.02170091 C15.4626938,7.84034788 15.6315737,7.681457 15.8485849,7.681457 L15.8485849,7.681457 Z" id="Fill-7" fill="#4CAF50"></path>
                                    </g>
                                </g>
                            </g>
                        </g>
                    </g>
                </g>
            </g>
        </g>
    </g>
</svg>