<?xml version="1.0" encoding="UTF-8" standalone="no"?>
<svg width="66px" height="66px" viewBox="0 0 66 66" version="1.1" xmlns="http://www.w3.org/2000/svg" xmlns:xlink="http://www.w3.org/1999/xlink">
    <!-- Generator: Sketch 40 (33762) - http://www.bohemiancoding.com/sketch -->
    <title>Settings icon</title>
    <desc>Created with Sketch.</desc>
    <defs>
        <linearGradient x1="50%" y1="0%" x2="50%" y2="100%" id="linearGradient-1">
            <stop stop-color="#16E48C" offset="0%"></stop>
            <stop stop-color="#23BB76" offset="100%"></stop>
        </linearGradient>
        <polygon id="path-2" points="19.0831994 0.0424995231 0.00307049361 0.0424995231 0.00307049361 29.9798802 38.1633282 29.9798802 38.1633282 0.0424995231"></polygon>
        <path d="M2.50557396,13.7073134 C2.7060772,14.3887765 2.98451979,15.046099 3.33655188,15.6628493 L2.3336775,16.9164331 C2.00600465,17.3263151 2.0430041,17.9105568 2.41141216,18.2798157 L4.13897422,19.9918669 C4.51157862,20.3611259 5.10111339,20.3936345 5.51470888,20.0689037 L6.77146191,19.083148 C7.41836374,19.4522041 8.10600079,19.7402677 8.8224493,19.9431294 L9.01077291,21.5458382 C9.0723363,22.0650626 9.51453856,22.4547092 10.0384671,22.4547092 L12.4826824,22.4547092 C13.0066109,22.4547092 13.4488132,22.0650626 13.5101719,21.5458382 L13.6903075,19.9999814 C14.4599267,19.8012784 15.1969476,19.5051003 15.8887809,19.1196124 L17.1045941,20.0730623 C17.5181896,20.3975903 18.1077243,20.3611259 18.4803287,19.9960256 L20.2078908,18.2837715 C20.5804952,17.9145126 20.6132983,17.3302709 20.2856255,16.9205917 L19.3401181,15.7317715 C19.7331413,15.05822 20.0401907,14.3402418 20.2448902,13.5896536 L21.7021465,13.4232056 C22.2262798,13.3623978 22.6193029,12.9242165 22.6193029,12.4049413 L22.6193029,9.9827221 C22.6193029,9.4634469 22.2262798,9.02526566 21.7021465,8.96440715 L20.2652578,8.79800986 C20.0687463,8.05553609 19.7738765,7.34552019 19.3972805,6.68003243 L20.2816338,5.57245835 C20.609102,5.16272846 20.5723072,4.57853752 20.2038991,4.20927854 L18.4803287,2.50118315 C18.1077243,2.13192417 17.5181896,2.09941558 17.1045941,2.42409571 L16.0197375,3.2761655 C15.3156733,2.86628347 14.5622765,2.55387647 13.7722385,2.34290032 L13.60853,0.951370588 C13.5469666,0.431943243 13.1047644,0.0424995231 12.5808358,0.0424995231 L10.1366206,0.0424995231 C9.612692,0.0424995231 9.17048975,0.431943243 9.10913105,0.951370588 L8.94542257,2.34290032 C8.13481225,2.55803514 7.36099669,2.88256312 6.64055654,3.30847122 L5.51470888,2.42409571 C5.10111339,2.09941558 4.51157862,2.13608283 4.13897422,2.50118315 L2.41141216,4.21323434 C2.03880776,4.58249332 2.00600465,5.16673498 2.3336775,5.57661701 L3.27519319,6.75711987 C2.89859715,7.43067138 2.61191539,8.14880175 2.42359178,8.89528203 L0.917156442,9.065838 C0.393023182,9.1266965 0,9.56487774 0,10.0841529 L0,12.5063722 C0,13.0256474 0.393023182,13.4638286 0.917156442,13.5246364 L2.50557396,13.7073134 Z M11.3608264,7.15472878 C13.5879577,7.15472878 15.4016471,8.95213402 15.4016471,11.1592692 C15.4016471,13.3663536 13.5879577,15.1638095 11.3608264,15.1638095 C9.133695,15.1638095 7.3200056,13.3663536 7.3200056,11.1592692 C7.3200056,8.95213402 9.133695,7.15472878 11.3608264,7.15472878 L11.3608264,7.15472878 Z" id="path-4"></path>
        <filter x="-50%" y="-50%" width="200%" height="200%" filterUnits="objectBoundingBox" id="filter-5">
            <feOffset dx="-1" dy="1" in="SourceAlpha" result="shadowOffsetOuter1"></feOffset>
            <feGaussianBlur stdDeviation="0.5" in="shadowOffsetOuter1" result="shadowBlurOuter1"></feGaussianBlur>
            <feColorMatrix values="0 0 0 0 0   0 0 0 0 0   0 0 0 0 0  0 0 0 0.219287817 0" type="matrix" in="shadowBlurOuter1"></feColorMatrix>
        </filter>
        <path d="M35.5235641,14.3036253 L34.234008,13.2245025 C33.8367884,12.8917079 33.2515012,12.9079369 32.8746493,13.2609669 L32.1623971,13.9222453 C31.5605292,13.6342324 30.9218153,13.4313707 30.2627339,13.3136603 L30.0622306,12.3399749 C29.9598809,11.8367765 29.4889183,11.4879051 28.9731777,11.5285281 L27.2905984,11.670582 C26.7746531,11.7151609 26.3694503,12.1329545 26.3530744,12.6482232 L26.3202713,13.6381882 C25.6734206,13.869552 25.0635182,14.1859148 24.5065818,14.5835237 L23.6549804,14.0236762 C23.221222,13.7396191 22.6438669,13.8208145 22.3082619,14.2144676 L21.219209,15.5005599 C20.8833482,15.8940102 20.8997242,16.474296 21.2559526,16.8475108 L22.0012126,17.6345634 C21.7431376,18.2106906 21.5590103,18.8153199 21.4524642,19.4359752 L20.3879752,19.65111 C19.8804226,19.7525409 19.5284417,20.219072 19.5691769,20.7303849 L19.7125178,22.3978572 C19.7575006,22.9089672 20.179284,23.3107348 20.6992209,23.3270145 L21.8496837,23.3634281 C22.0583749,23.9070467 22.3326212,24.4223154 22.6642857,24.9051262 L22.0215802,25.8667413 C21.7349496,26.2968081 21.8168806,26.8689288 22.2138954,27.2015712 L23.5036563,28.2808461 C23.9006711,28.6134886 24.4861631,28.5972596 24.8628103,28.2442296 L25.7061725,27.4612849 C26.2589126,27.7168399 26.8402082,27.9076313 27.4379309,28.0211324 L27.6712373,29.1652216 C27.7735871,29.66842 28.2445496,30.0172914 28.7602902,29.9766684 L30.4428695,29.8348173 C30.9588148,29.7900356 31.3640176,29.372242 31.3803935,28.8569733 L31.417393,27.7370754 C32.0314917,27.5220927 32.6127873,27.2299211 33.1491514,26.8689288 L34.0784875,27.4775138 C34.5122459,27.7614188 35.089601,27.6803755 35.425206,27.2867731 L36.51431,26.0087952 C36.849915,25.6151421 36.8337437,25.0350591 36.4775153,24.6618444 L35.7282637,23.874741 C36.0025611,23.2984617 36.2032179,22.6898766 36.3177985,22.0650626 L37.3412963,21.8582452 C37.8490536,21.7568143 38.2010345,21.2902324 38.1600946,20.7789196 L38.0167537,19.1114979 C37.971771,18.6003372 37.5501922,18.1986203 37.0302553,18.1823407 L36.0025611,18.1498828 C35.7896224,17.5575267 35.5031965,16.9976792 35.1469681,16.4782518 L35.7078961,15.6426138 C36.0025611,15.2125471 35.9207836,14.6364199 35.5235641,14.3036253 L35.5235641,14.3036253 Z M29.1818689,23.943714 C27.3641879,24.0978382 25.7593432,22.7548431 25.6078144,20.953482 C25.4522939,19.1520703 26.8074562,17.5616854 28.6251373,17.411517 C30.4428695,17.2573928 32.047663,18.6003372 32.1991918,20.401749 C32.3547123,22.20311 30.9998059,23.7935456 29.1818689,23.943714 L29.1818689,23.943714 Z" id="path-6"></path>
        <filter x="-50%" y="-50%" width="200%" height="200%" filterUnits="objectBoundingBox" id="filter-7">
            <feOffset dx="-1" dy="1" in="SourceAlpha" result="shadowOffsetOuter1"></feOffset>
            <feGaussianBlur stdDeviation="0.5" in="shadowOffsetOuter1" result="shadowBlurOuter1"></feGaussianBlur>
            <feColorMatrix values="0 0 0 0 0   0 0 0 0 0   0 0 0 0 0  0 0 0 0.219287817 0" type="matrix" in="shadowBlurOuter1"></feColorMatrix>
        </filter>
        <path d="M8.39268254,28.4310145 C7.87694196,28.4837078 7.47972244,28.9138253 7.4755261,29.429094 L7.46334648,30.4554727 C7.45515849,30.9707413 7.83994252,31.4089733 8.35588779,31.4739397 L9.11731903,31.5712119 C9.24428395,32.0296286 9.4243684,32.4678606 9.65767474,32.8816984 L9.16649811,33.482169 C8.83887644,33.8839366 8.86344039,34.460013 9.2278568,34.829272 L9.9524933,35.5634792 C10.3169609,35.9327382 10.8982565,35.9733612 11.3116473,35.6567955 L11.9217544,35.1902644 C12.3515211,35.4418636 12.805903,35.6407188 13.2809084,35.778614 L13.3628394,36.5576029 C13.4160101,37.0687129 13.8500244,37.4623153 14.3699613,37.4664739 L15.4056388,37.4785949 C15.9255757,37.4867094 16.367778,37.1053294 16.433333,36.5940165 L16.5274948,35.8557014 C17.0432354,35.7298765 17.5346167,35.5392879 18.0013829,35.2876887 L18.5744905,35.7461561 C18.9796933,36.0706334 19.560989,36.0464421 19.9336445,35.6852976 L20.674657,34.9671672 C21.0472614,34.6060227 21.0880478,34.0299463 20.7688188,33.6200642 L20.3308129,33.0562102 C20.600914,32.6099145 20.8098099,32.1352181 20.9530996,31.6361784 L21.6325998,31.5672561 C22.1485451,31.5143599 22.5455599,31.0842932 22.5497563,30.5691766 L22.5619359,29.5425951 C22.5701239,29.0273264 22.1853399,28.5890944 21.6695481,28.5243308 L21.0062703,28.4391289 C20.8793566,27.9440957 20.691033,27.4652407 20.4453935,27.0190971 L20.858989,26.5159494 C21.1864059,26.1141819 21.161842,25.5380547 20.7973744,25.1689986 L20.0727379,24.4345886 C19.7085262,24.0653296 19.1272306,24.0247065 18.7136351,24.3413229 L18.2182621,24.7184935 C17.7514959,24.4385951 17.2521313,24.2236124 16.727998,24.0776027 L16.6626477,23.4405156 C16.6092723,22.9294056 16.175258,22.5357525 15.6555258,22.5317967 L14.6196436,22.5195235 C14.0997067,22.5114091 13.6575044,22.8927383 13.5921541,23.4040512 L13.5101719,24.0370304 C12.9698162,24.1748749 12.4498793,24.3859017 11.9667371,24.6618444 L11.4549882,24.2480065 C11.0497854,23.9232757 10.468285,23.9476698 10.0958342,24.3088143 L9.35062537,25.0309005 C8.9781745,25.392045 8.93723458,25.9681722 9.25646357,26.3780542 L9.69462301,26.9379017 C9.44074436,27.3842482 9.2400876,27.8588938 9.10913105,28.3579335 L8.39268254,28.4310145 Z M15.0782218,27.2704935 C16.5642895,27.2867731 17.7556922,28.4999874 17.7393163,29.9727126 C17.7228891,31.4454377 16.4986833,32.6261434 15.0126156,32.6099145 C13.5265479,32.5936348 12.3351452,31.3806234 12.3515211,29.9076954 C12.3679483,28.4349703 13.5921541,27.2542645 15.0782218,27.2704935 L15.0782218,27.2704935 Z" id="path-8"></path>
        <filter x="-50%" y="-50%" width="200%" height="200%" filterUnits="objectBoundingBox" id="filter-9">
            <feOffset dx="-1" dy="1" in="SourceAlpha" result="shadowOffsetOuter1"></feOffset>
            <feGaussianBlur stdDeviation="0.5" in="shadowOffsetOuter1" result="shadowBlurOuter1"></feGaussianBlur>
            <feColorMatrix values="0 0 0 0 0   0 0 0 0 0   0 0 0 0 0  0 0 0 0.219287817 0" type="matrix" in="shadowBlurOuter1"></feColorMatrix>
        </filter>
    </defs>
    <g id="Page-1" stroke="none" stroke-width="1" fill="none" fill-rule="evenodd">
        <g id="01-Team-Dashboard-+Productivity-and-Workflows" transform="translate(-1299.000000, -789.000000)">
            <g id="Apps-01" transform="translate(814.000000, 475.000000)">
                <g id="Row-3" transform="translate(0.000000, 292.000000)">
                    <g id="04" transform="translate(450.000000, 0.000000)">
                        <g id="Settings-icon" transform="translate(35.000000, 22.000000)">
                            <rect id="icon_bg" fill="url(#linearGradient-1)" x="0" y="0" width="66" height="66" rx="14.625"></rect>
                            <g id="three-icons" transform="translate(14.235294, 14.235294)">
                                <g id="Icon">
                                    <mask id="mask-3" fill="white">
                                        <use xlink:href="#path-2"></use>
                                    </mask>
                                    <g id="Clip-2"></g>
                                    <g id="Fill-1" mask="url(#mask-3)">
                                        <use fill="black" fill-opacity="1" filter="url(#filter-5)" xlink:href="#path-4"></use>
                                        <use fill="#FEFEFE" fill-rule="evenodd" xlink:href="#path-4"></use>
                                    </g>
                                    <g id="Fill-3" mask="url(#mask-3)">
                                        <use fill="black" fill-opacity="1" filter="url(#filter-7)" xlink:href="#path-6"></use>
                                        <use fill="#FEFEFE" fill-rule="evenodd" xlink:href="#path-6"></use>
                                    </g>
                                </g>
                                <g id="Fill-5">
                                    <use fill="black" fill-opacity="1" filter="url(#filter-9)" xlink:href="#path-8"></use>
                                    <use fill="#FEFEFE" fill-rule="evenodd" xlink:href="#path-8"></use>
                                </g>
                            </g>
                        </g>
                    </g>
                </g>
            </g>
        </g>
    </g>
</svg>