<?xml version="1.0" encoding="UTF-8" standalone="no"?>
<svg width="66px" height="66px" viewBox="0 0 66 66" version="1.1" xmlns="http://www.w3.org/2000/svg" xmlns:xlink="http://www.w3.org/1999/xlink">
    <!-- Generator: Sketch 39 (31667) - http://www.bohemiancoding.com/sketch -->
    <title>Organization Icon</title>
    <desc>Created with Sketch.</desc>
    <defs>
        <circle id="path-1" cx="33" cy="33" r="26.5294118"></circle>
        <filter x="-50%" y="-50%" width="200%" height="200%" filterUnits="objectBoundingBox" id="filter-2">
            <feOffset dx="-1" dy="1" in="SourceAlpha" result="shadowOffsetOuter1"></feOffset>
            <feGaussianBlur stdDeviation="0.5" in="shadowOffsetOuter1" result="shadowBlurOuter1"></feGaussianBlur>
            <feColorMatrix values="0 0 0 0 0   0 0 0 0 0   0 0 0 0 0  0 0 0 0.219287817 0" type="matrix" in="shadowBlurOuter1"></feColorMatrix>
        </filter>
    </defs>
    <g id="Page-1" stroke="none" stroke-width="1" fill="none" fill-rule="evenodd">
        <g id="07-Apps" transform="translate(-265.000000, -394.000000)">
            <g id="Apps-01" transform="translate(80.000000, 80.000000)">
                <g id="Row-3" transform="translate(0.000000, 292.000000)">
                    <g id="02" transform="translate(150.000000, 0.000000)">
                        <g id="Organization-Icon" transform="translate(35.000000, 22.000000)">
                            <rect id="icon_bg" fill="#37ACE8" x="0" y="0" width="66" height="66" rx="14.625"></rect>
                            <g id="Oval">
                                <use fill="black" fill-opacity="1" filter="url(#filter-2)" xlink:href="#path-1"></use>
                                <use fill="#FEFEFE" fill-rule="evenodd" xlink:href="#path-1"></use>
                            </g>
                            <g id="network" transform="translate(16.176471, 16.823529)">
                                <polygon id="Fill-1" fill="#424A60" points="16.9033434 29.2651163 18.153762 29.2651163 18.153762 17.995699 16.9033434 17.995699"></polygon>
                                <polygon id="Fill-2" fill="#424A60" points="28.3527332 3.7825554 29.2392941 4.66598632 19.8494172 14.0558632 18.9628564 13.1724323"></polygon>
                                <polygon id="Fill-3" fill="#424A60" points="15.8328974 16.3023912 16.7194583 17.1889521 4.19962244 29.705658 3.31306156 28.8222271"></polygon>
                                <polygon id="Fill-4" fill="#424A60" points="8.58 5.65974829 15.4666922 12.5464405 14.5801313 13.4322189 7.69656908 6.54630917"></polygon>
                                <polygon id="Fill-5" fill="#424A60" points="19.222643 16.3023912 28.6125198 25.6922681 27.7267415 26.575699 18.3368646 17.1858222"></polygon>
                                <path d="M33.176,3.5994528 C33.176,5.32953762 31.7761259,6.72941176 30.046041,6.72941176 C28.3190862,6.72941176 26.9160821,5.32953762 26.9160821,3.5994528 C26.9160821,1.86936799 28.3190862,0.469493844 30.046041,0.469493844 C31.7761259,0.469493844 33.176,1.86936799 33.176,3.5994528 L33.176,3.5994528 Z" id="Fill-6" fill="#43B05C"></path>
                                <path d="M20.6561642,30.5155349 C20.6561642,32.2456197 19.25629,33.6454938 17.5262052,33.6454938 C15.7992503,33.6454938 14.3962462,32.2456197 14.3962462,30.5155349 C14.3962462,28.78858 15.7992503,27.3855759 17.5262052,27.3855759 C19.25629,27.3855759 20.6561642,28.78858 20.6561642,30.5155349 L20.6561642,30.5155349 Z" id="Fill-7" fill="#7383BF"></path>
                                <path d="M6.25991792,29.2658988 C6.25991792,30.9928536 4.86004378,32.3958577 3.12995896,32.3958577 C1.39987415,32.3958577 0,30.9928536 0,29.2658988 C0,27.535814 1.39987415,26.1359398 3.12995896,26.1359398 C4.86004378,26.1359398 6.25991792,27.535814 6.25991792,29.2658988 L6.25991792,29.2658988 Z" id="Fill-8" fill="#57D8AB"></path>
                                <path d="M9.38987688,5.4758632 C9.38987688,6.51579207 8.5494829,7.35618605 7.51346648,7.35618605 C6.47353762,7.35618605 5.63314364,6.51579207 5.63314364,5.4758632 C5.63314364,4.43984679 6.47353762,3.5994528 7.51346648,3.5994528 C8.5494829,3.5994528 9.38987688,4.43984679 9.38987688,5.4758632 L9.38987688,5.4758632 Z" id="Fill-9" fill="#D75A4A"></path>
                                <path d="M29.4231792,25.5091655 C29.4231792,26.5451819 28.5820027,27.3855759 27.5428564,27.3855759 C26.5068399,27.3855759 25.666446,26.5451819 25.666446,25.5091655 C25.666446,24.4731491 26.5068399,23.6327551 27.5428564,23.6327551 C28.5820027,23.6327551 29.4231792,24.4731491 29.4231792,25.5091655 L29.4231792,25.5091655 Z" id="Fill-10" fill="#ECBA16"></path>
                                <path d="M21.9097127,15.4925144 C21.9097127,17.9135376 19.9472285,19.8760219 17.5262052,19.8760219 C15.1090944,19.8760219 13.1466101,17.9135376 13.1466101,15.4925144 C13.1466101,13.0714911 15.1090944,11.1129193 17.5262052,11.1129193 C19.9472285,11.1129193 21.9097127,13.0714911 21.9097127,15.4925144 L21.9097127,15.4925144 Z" id="Fill-11" fill="#4B6DAA"></path>
                            </g>
                        </g>
                    </g>
                </g>
            </g>
        </g>
    </g>
</svg>