<?xml version="1.0" encoding="UTF-8" standalone="no"?>
<svg width="66px" height="66px" viewBox="0 0 66 66" version="1.1" xmlns="http://www.w3.org/2000/svg" xmlns:xlink="http://www.w3.org/1999/xlink">
    <!-- Generator: Sketch 39 (31667) - http://www.bohemiancoding.com/sketch -->
    <title>Timesheet Icon</title>
    <desc>Created with Sketch.</desc>
    <defs>
        <linearGradient x1="50%" y1="0%" x2="50%" y2="100%" id="linearGradient-1">
            <stop stop-color="#C0C8FF" offset="0%"></stop>
            <stop stop-color="#6170CC" offset="100%"></stop>
        </linearGradient>
    </defs>
    <g id="Page-1" stroke="none" stroke-width="1" fill="none" fill-rule="evenodd">
        <g id="07-Apps" transform="translate(-265.000000, -102.000000)">
            <g id="Apps-01" transform="translate(80.000000, 80.000000)">
                <g id="Row-1">
                    <g id="02" transform="translate(150.000000, 0.000000)">
                        <g id="Timesheet-Icon" transform="translate(35.000000, 22.000000)">
                            <rect id="icon_bg" fill="url(#linearGradient-1)" x="0" y="0" width="66" height="66" rx="14.625"></rect>
                            <g id="time-passing" transform="translate(11.647059, 11.000000)" fill="#FFFFFF">
                                <path d="M0.723452206,22.4808492 C1.12175735,22.4808492 1.44690441,22.1568462 1.44690441,21.7599425 C1.44690441,10.6430403 10.5203137,1.60155711 21.6764706,1.60155711 C26.2483995,1.60155711 30.6198211,3.12347111 34.1765686,5.91799681 L30.3488652,5.91799681 C29.9496569,5.91799681 29.625413,6.24199979 29.625413,6.63890344 C29.625413,7.0367071 29.9496569,7.35981008 30.3488652,7.35981008 L36.0678407,7.35981008 C36.113,7.36341011 36.1590625,7.36341011 36.205125,7.35981008 L36.8509032,7.35981008 L36.8509032,0.880650474 C36.8509032,0.482846815 36.5257561,0.159743842 36.127451,0.159743842 C35.7291458,0.159743842 35.4039988,0.482846815 35.4039988,0.880650474 L35.4039988,5.06388896 C31.5338456,1.89315979 26.7216691,0.159743842 21.6764706,0.159743842 C9.72370343,0.159743842 0,9.84923298 0,21.7599425 C0,22.1568462 0.324243873,22.4808492 0.723452206,22.4808492 L0.723452206,22.4808492 Z" id="Fill-1"></path>
                                <path d="M21.6764706,5.91799681 C12.9128542,5.91799681 5.77858578,13.0271622 5.77858578,21.7599425 C5.77858578,30.4927229 12.9128542,37.6018883 21.6764706,37.6018883 C30.440087,37.6018883 37.5743554,30.4927229 37.5743554,21.7599425 C37.5743554,13.0271622 30.440087,5.91799681 21.6764706,5.91799681 L21.6764706,5.91799681 Z M21.6764706,36.160075 C13.7067549,36.160075 7.2254902,29.7016156 7.2254902,21.7599425 C7.2254902,13.8182695 13.7067549,7.35981008 21.6764706,7.35981008 C29.6461863,7.35981008 36.127451,13.8182695 36.127451,21.7599425 C36.127451,29.7016156 29.6461863,36.160075 21.6764706,36.160075 L21.6764706,36.160075 Z" id="Fill-2"></path>
                                <path d="M21.6764706,10.9598432 C22.0747757,10.9598432 22.3999228,10.6367402 22.3999228,10.2389366 L22.3999228,8.80162334 C22.3999228,8.40021965 22.0747757,8.08071671 21.6764706,8.08071671 C21.2781654,8.08071671 20.9530184,8.40021965 20.9530184,8.80162334 L20.9530184,10.2389366 C20.9530184,10.6367402 21.2781654,10.9598432 21.6764706,10.9598432 L21.6764706,10.9598432 Z" id="Fill-3"></path>
                                <path d="M21.6764706,32.5600419 C21.2781654,32.5600419 20.9530184,32.8831449 20.9530184,33.2809485 L20.9530184,34.7182617 C20.9530184,35.1196654 21.2781654,35.4391684 21.6764706,35.4391684 C22.0747757,35.4391684 22.3999228,35.1196654 22.3999228,34.7182617 L22.3999228,33.2809485 C22.3999228,32.8831449 22.0747757,32.5600419 21.6764706,32.5600419 L21.6764706,32.5600419 Z" id="Fill-4"></path>
                                <path d="M33.2381581,22.4808492 L34.6805466,22.4808492 C35.0797549,22.4808492 35.4039988,22.1568462 35.4039988,21.7599425 C35.4039988,21.3630389 35.0797549,21.0390359 34.6805466,21.0390359 L33.2381581,21.0390359 C32.8389498,21.0390359 32.5147059,21.3630389 32.5147059,21.7599425 C32.5147059,22.1568462 32.8389498,22.4808492 33.2381581,22.4808492 L33.2381581,22.4808492 Z" id="Fill-5"></path>
                                <path d="M10.1147831,21.0390359 L8.67239461,21.0390359 C8.27318627,21.0390359 7.9489424,21.3630389 7.9489424,21.7599425 C7.9489424,22.1568462 8.27318627,22.4808492 8.67239461,22.4808492 L10.1147831,22.4808492 C10.5139914,22.4808492 10.8382353,22.1568462 10.8382353,21.7599425 C10.8382353,21.3630389 10.5139914,21.0390359 10.1147831,21.0390359 L10.1147831,21.0390359 Z" id="Fill-6"></path>
                                <path d="M22.3999228,18.2616104 L22.3999228,14.5598763 C22.3999228,14.1629727 22.0747757,13.8389697 21.6764706,13.8389697 C21.2781654,13.8389697 20.9530184,14.1629727 20.9530184,14.5598763 L20.9530184,18.2616104 C19.7111373,18.5856133 18.7871777,19.6998236 18.7871777,21.0390359 C18.7871777,21.5736408 18.9425257,22.0659454 19.1963211,22.4943493 L13.2163248,28.4506041 C12.9336275,28.7314067 12.9336275,29.1886109 13.2163248,29.4694135 C13.3572218,29.6107148 13.5441814,29.6809154 13.7275282,29.6809154 C13.9144877,29.6809154 14.0978346,29.6107148 14.2396348,29.4694135 L20.2196311,23.5104586 C20.645935,23.764261 21.1399779,23.9181624 21.6764706,23.9181624 C23.2714975,23.9181624 24.5657635,22.6284505 24.5657635,21.0390359 C24.5657635,19.6998236 23.6418039,18.5856133 22.3999228,18.2616104 L22.3999228,18.2616104 Z M21.6764706,22.4808492 C20.8789571,22.4808492 20.2295662,21.8337432 20.2295662,21.0390359 C20.2295662,20.2443286 20.8789571,19.6017227 21.6764706,19.6017227 C22.4739841,19.6017227 23.123375,20.2443286 23.123375,21.0390359 C23.123375,21.8337432 22.4739841,22.4808492 21.6764706,22.4808492 L21.6764706,22.4808492 Z" id="Fill-7"></path>
                                <path d="M8.59110784,38.0761926 C8.35086029,38.3920955 8.41769608,38.8456997 8.74284314,39.0815019 C8.86567647,39.1769028 9.01741176,39.2183031 9.16914706,39.2183031 C9.39133088,39.2183031 9.61080515,39.1274023 9.75531495,38.9303005 C9.98472426,38.6143976 9.92059804,38.1607934 9.60357966,37.9249912 C9.28204534,37.685589 8.83045221,37.7530897 8.59110784,38.0761926 L8.59110784,38.0761926 Z" id="Fill-8"></path>
                                <path d="M5.2249326,33.4744503 C4.99191054,33.1576474 4.53670466,33.0766466 4.21246078,33.3088488 C3.88821691,33.548251 3.81415564,33.9946551 4.04627451,34.3177581 C4.1916875,34.5112598 4.40664583,34.6201608 4.63966789,34.6201608 C4.7841777,34.6201608 4.9286875,34.5742604 5.05964951,34.4833596 C5.38389338,34.2511574 5.45434191,33.7975533 5.2249326,33.4744503 L5.2249326,33.4744503 Z" id="Fill-9"></path>
                                <path d="M5.50401716,35.0458648 C5.20777206,35.3095672 5.1788701,35.7631714 5.44711642,36.0583741 C5.58530392,36.2230756 5.78581127,36.3040763 5.99083456,36.3040763 C6.15611765,36.3040763 6.32952941,36.2482758 6.46681373,36.1249747 C6.76305882,35.8576722 6.79196078,35.4040681 6.52371446,35.1088653 C6.26630637,34.8064626 5.81110049,34.7857624 5.50401716,35.0458648 L5.50401716,35.0458648 Z" id="Fill-10"></path>
                                <path d="M7.99139216,36.592079 C7.70146936,36.3256765 7.23994118,36.3463767 6.97169485,36.6343794 C6.69622304,36.9295821 6.72060907,37.3831863 7.01775735,37.6576888 C7.15504167,37.7809899 7.32755025,37.8439905 7.50096201,37.8439905 C7.69514706,37.8439905 7.88842892,37.7665898 8.03384191,37.6153884 C8.30118505,37.3201857 8.28763725,36.8665815 7.99139216,36.599279 L7.99139216,36.592079 Z" id="Fill-11"></path>
                                <path d="M4.09594975,31.7230342 L4.08872426,31.7230342 C3.89453922,31.378331 3.45378431,31.2559299 3.10786397,31.4593318 C2.75923407,31.6528335 2.63911029,32.0920376 2.84052083,32.4367408 C2.97057966,32.6689429 3.21443995,32.7994441 3.46823529,32.7994441 C3.58474632,32.7994441 3.71480515,32.7670438 3.82047794,32.7040432 C4.17001103,32.5105414 4.29374755,32.0713374 4.09594975,31.7230342 L4.09594975,31.7230342 Z" id="Fill-12"></path>
                                <path d="M42.5870392,23.2854566 L42.6159412,23.2854566 C43.0070208,23.2854566 43.3249424,22.9767537 43.3384902,22.5969502 C43.3529412,22.1919465 43.0422451,21.8580434 42.64394,21.8481434 C42.2483444,21.8301432 41.9060368,22.1433461 41.892489,22.5366497 C41.878038,22.9344533 42.1887341,23.2719565 42.5870392,23.2854566 L42.5870392,23.2854566 Z" id="Fill-13"></path>
                                <path d="M0.910411765,24.631869 C1.30871691,24.5904686 1.59863971,24.2349653 1.55257721,23.8407617 C1.51012745,23.443858 1.15698162,23.1558554 0.758676471,23.1981558 C0.359468137,23.2368561 0.0704485294,23.5950594 0.116511029,23.985663 C0.151735294,24.3582664 0.469656863,24.631869 0.832737745,24.631869 L0.910411765,24.631869 L0.910411765,24.631869 Z" id="Fill-14"></path>
                                <path d="M1.3159424,26.7486884 C1.7043125,26.6712877 1.95810784,26.2878842 1.86959559,25.9017806 C1.79192157,25.5111771 1.4080674,25.2582747 1.0196973,25.3455755 C0.627714461,25.4229762 0.373919118,25.8063798 0.462431373,26.1969834 C0.529267157,26.5344865 0.832737745,26.7630886 1.16420711,26.7630886 C1.21388235,26.7630886 1.26265441,26.7630886 1.3159424,26.7486884 L1.3159424,26.7486884 Z" id="Fill-15"></path>
                                <path d="M3.15031373,29.8600171 C2.99135294,29.5018138 2.56504902,29.3326122 2.19835539,29.4946137 C1.83437132,29.6530152 1.66908824,30.074219 1.82714583,30.4432224 C1.95088235,30.7069248 2.21190319,30.8761264 2.49460049,30.8761264 C2.5858223,30.8761264 2.68878554,30.8545262 2.78000735,30.8095258 C3.14308824,30.6511243 3.30927451,30.2254204 3.15031373,29.8600171 L3.15031373,29.8600171 Z" id="Fill-16"></path>
                                <path d="M2.40608824,27.9159992 C2.28957721,27.5325956 1.87682108,27.3255937 1.50290196,27.4479949 C1.11814461,27.571296 0.910411765,27.9717997 1.03414828,28.3552032 C1.13259559,28.657606 1.41438971,28.8511078 1.71786029,28.8511078 C1.79192157,28.8511078 1.86959559,28.8439077 1.94365686,28.8232075 C2.31757598,28.6999064 2.52982475,28.2886026 2.40608824,27.9159992 L2.40608824,27.9159992 Z" id="Fill-17"></path>
                                <path d="M21.2844877,41.9120279 C20.8897953,41.9048279 20.558326,42.2207308 20.5511005,42.6185344 C20.5402623,43.0226381 20.8617966,43.3457411 21.256489,43.3529412 L21.27094,43.3529412 C21.6692451,43.3529412 21.9871667,43.0433383 21.9943922,42.6464347 C22.0007145,42.2531311 21.6836961,41.918328 21.2844877,41.9120279 L21.2844877,41.9120279 Z" id="Fill-18"></path>
                                <path d="M37.6655772,34.0999561 C37.4226201,34.4095589 37.4786176,34.8658631 37.7893137,35.1088653 C37.926598,35.2105663 38.0783333,35.2600667 38.2372941,35.2600667 C38.445027,35.2600667 38.6645012,35.1655659 38.809011,34.9783641 C39.0519681,34.6696613 38.9959706,34.2160571 38.678049,33.9694549 C38.3610306,33.7273526 37.9130502,33.7831531 37.6655772,34.0999561 L37.6655772,34.0999561 Z" id="Fill-19"></path>
                                <path d="M33.1144216,38.3785954 C32.7901777,38.5999975 32.7016654,39.0536016 32.9346875,39.3767046 C33.0683591,39.5810065 33.2941556,39.6899075 33.5271777,39.6899075 C33.6680748,39.6899075 33.8062623,39.6512071 33.9363211,39.5666063 C34.2614681,39.3416043 34.3490772,38.8880001 34.1160551,38.5648971 C33.8938713,38.2345941 33.4458909,38.1535933 33.1144216,38.3785954 L33.1144216,38.3785954 Z" id="Fill-20"></path>
                                <path d="M34.7762843,37.1095837 C34.4728137,37.3696861 34.4375895,37.8232903 34.6949975,38.1256931 C34.8395074,38.2903946 35.0445306,38.3785954 35.245038,38.3785954 C35.4112243,38.3785954 35.5774105,38.3182949 35.7146949,38.2057938 C36.0181654,37.9456914 36.0570025,37.4920873 35.7959816,37.1905845 C35.5349608,36.8881817 35.0797549,36.8530814 34.7762843,37.1095837 L34.7762843,37.1095837 Z" id="Fill-21"></path>
                                <path d="M39.8567071,32.1559382 C39.5143995,31.9480363 39.0664191,32.0533372 38.8577831,32.3881403 C38.6500502,32.7256434 38.7484975,33.1720475 39.0871924,33.3790494 C39.2109289,33.4528501 39.3418909,33.4879504 39.4719498,33.4879504 C39.7121973,33.4879504 39.9479289,33.3718494 40.0861164,33.1504473 C40.297462,32.8129442 40.195402,32.3629401 39.8567071,32.1559382 L39.8567071,32.1559382 Z" id="Fill-22"></path>
                                <path d="M36.2999596,35.6785706 C36.0181654,35.9629732 36.0326164,36.4201774 36.321636,36.6946799 C36.4589203,36.8278812 36.6386544,36.8944818 36.8229044,36.8944818 C37.009864,36.8944818 37.2031458,36.8206811 37.3413333,36.6694797 C37.615902,36.381477 37.6095797,35.9278729 37.3196569,35.6533703 C37.0306373,35.3833679 36.5754314,35.3905679 36.2999596,35.6785706 L36.2999596,35.6785706 Z" id="Fill-23"></path>
                                <path d="M42.5202034,23.9991631 C42.1318333,23.9433626 41.761527,24.2205652 41.7055294,24.6111688 C41.6450159,25.0080724 41.9204877,25.3671757 42.3187929,25.4229762 C42.3549203,25.4301763 42.3901446,25.4301763 42.4217561,25.4301763 C42.7739988,25.4301763 43.0846949,25.1736739 43.1343701,24.8154707 C43.1939804,24.4248671 42.9194118,24.0558637 42.5202034,23.9991631 L42.5202034,23.9991631 Z" id="Fill-24"></path>
                                <path d="M42.1815086,26.1294827 C41.7931385,26.0349819 41.4020588,26.2743841 41.2999988,26.6532876 C41.2078738,27.0438911 41.4445086,27.4344947 41.8283627,27.5325956 C41.8852635,27.5505958 41.9448738,27.5532958 42.0017745,27.5532958 C42.3260184,27.5532958 42.6222635,27.3318938 42.7035502,27.0087908 C42.8029007,26.6181872 42.5662659,26.2320837 42.1815086,26.1294827 L42.1815086,26.1294827 Z" id="Fill-25"></path>
                                <path d="M11.3431164,39.0815019 C10.9971961,38.8808 10.5564412,38.990601 10.3550306,39.3344042 C10.1427819,39.6755073 10.2592929,40.1219115 10.5979877,40.3226133 C10.7144988,40.3928139 10.8454608,40.4243142 10.9691973,40.4243142 C11.2121544,40.4243142 11.452402,40.3019131 11.5896863,40.069711 C11.7974191,39.7322079 11.685424,39.2921038 11.3431164,39.0815019 L11.3431164,39.0815019 Z" id="Fill-26"></path>
                                <path d="M41.6170172,28.218402 C41.243098,28.0807007 40.8231164,28.2742025 40.6930576,28.6504059 C40.5548701,29.0266094 40.7418297,29.4343131 41.1193615,29.5720144 C41.1970355,29.5999147 41.2855478,29.6170148 41.3668346,29.6170148 C41.6630797,29.6170148 41.9421642,29.4343131 42.0442243,29.1391104 C42.1815086,28.762907 41.994549,28.3552032 41.6170172,28.218402 L41.6170172,28.218402 Z" id="Fill-27"></path>
                                <path d="M40.8375674,30.2326205 C40.4844216,30.0643189 40.0436667,30.2047202 39.8711581,30.5665236 C39.6977463,30.9256269 39.8494816,31.3576308 40.2026275,31.5295324 C40.3046875,31.5790329 40.4103603,31.6033331 40.5196458,31.6033331 C40.7878922,31.6033331 41.048913,31.4530317 41.1726495,31.1992294 C41.3451581,30.837426 41.2006483,30.4081221 40.8375674,30.2326205 L40.8375674,30.2326205 Z" id="Fill-28"></path>
                                <path d="M19.1999338,41.7671266 C18.8007255,41.7185261 18.4484828,41.9993287 18.3951949,42.3971324 C18.3455196,42.790436 18.6282169,43.1531393 19.0229093,43.1945397 L19.0229093,43.2017398 L19.1114216,43.2017398 C19.4717929,43.2017398 19.7815858,42.9344373 19.8276483,42.569034 C19.8773235,42.1721303 19.5946262,41.8202271 19.1999338,41.7671266 L19.1999338,41.7671266 Z" id="Fill-29"></path>
                                <path d="M15.1319828,40.8392181 C14.754451,40.7096169 14.3416949,40.9058187 14.2107328,41.2856222 C14.0842868,41.6618256 14.2847941,42.0695294 14.6587132,42.2000306 C14.74,42.2207308 14.817674,42.2387309 14.8989608,42.2387309 C15.1952059,42.2387309 15.4779032,42.0488292 15.5763505,41.7536265 C15.7073125,41.373823 15.505902,40.9625192 15.1319828,40.8392181 L15.1319828,40.8392181 Z" id="Fill-30"></path>
                                <path d="M17.1397659,41.4089233 C16.7477831,41.3207225 16.3666385,41.5601247 16.2718039,41.9507283 C16.1869044,42.3368318 16.4298615,42.7274354 16.8146189,42.8120362 C16.8715196,42.8255363 16.9202917,42.8255363 16.9808051,42.8255363 C17.305049,42.8255363 17.6085196,42.6041343 17.6789681,42.2738312 C17.7747059,41.8832277 17.5272328,41.4971241 17.1397659,41.4089233 L17.1397659,41.4089233 Z" id="Fill-31"></path>
                                <path d="M13.1946483,40.0625109 C12.8243419,39.8906093 12.398038,40.0481108 12.2318517,40.4072141 C12.0656654,40.7690174 12.2174007,41.2019214 12.5813848,41.3630229 C12.6798321,41.4089233 12.7818922,41.4296235 12.8848554,41.4296235 C13.1558113,41.4296235 13.4168321,41.2784221 13.5405686,41.0120196 C13.7067549,40.6529163 13.5550196,40.2281124 13.1946483,40.0625109 L13.1946483,40.0625109 Z" id="Fill-32"></path>
                                <path d="M25.4481765,41.5673248 C25.0561936,41.6411254 24.7987855,42.0209289 24.8692341,42.4106325 C24.9360699,42.7553357 25.2467659,42.9947379 25.5854608,42.9947379 C25.6279105,42.9947379 25.673973,42.9947379 25.7164228,42.9875378 C26.1038897,42.9065371 26.3649105,42.5303336 26.294462,42.14333 C26.2204007,41.7464264 25.8392561,41.4971241 25.4481765,41.5673248 L25.4481765,41.5673248 Z" id="Fill-33"></path>
                                <path d="M27.4803456,41.0786203 C27.0955882,41.1839212 26.8806299,41.5880249 26.9935282,41.9714285 C27.0883627,42.2810313 27.3773824,42.4808332 27.6880784,42.4808332 C27.7522047,42.4808332 27.8262659,42.4745331 27.8967145,42.4529329 C28.2805686,42.3368318 28.4964301,41.9327281 28.3835319,41.5529246 C28.2670208,41.1767212 27.8614902,40.9625192 27.4803456,41.0786203 L27.4803456,41.0786203 Z" id="Fill-34"></path>
                                <path d="M29.4520012,40.3721138 C29.0816949,40.5233151 28.9091863,40.9481191 29.0609216,41.3171224 C29.1774326,41.5880249 29.4456789,41.7536265 29.7238603,41.7536265 C29.819598,41.7536265 29.9144326,41.7392263 30.0065576,41.704126 C30.376864,41.5457246 30.5493725,41.1281207 30.3976373,40.7618173 C30.2386765,40.3928139 29.819598,40.2209124 29.4520012,40.3721138 L29.4520012,40.3721138 Z" id="Fill-35"></path>
                                <path d="M23.3735576,41.8481273 C22.9752525,41.8832277 22.6781042,42.2279308 22.7169412,42.6257345 C22.7458431,43.0019379 23.0628615,43.2863406 23.4403934,43.2863406 L23.4972941,43.2863406 L23.4972941,43.2791405 C23.8955993,43.2512402 24.1882316,42.9065371 24.1530074,42.5096334 C24.1250086,42.1154298 23.7718627,41.8202271 23.3735576,41.8481273 L23.3735576,41.8481273 Z" id="Fill-36"></path>
                                <path d="M31.3360478,39.4721055 C30.9838051,39.6584072 30.8528431,40.0976112 31.0470282,40.4459144 C31.1779902,40.6880167 31.42456,40.8257179 31.6819681,40.8257179 C31.7984792,40.8257179 31.9149902,40.7969177 32.0242757,40.7303171 C32.3774216,40.5440153 32.5074804,40.1048113 32.3096826,39.7601081 C32.122723,39.4082049 31.6819681,39.2786037 31.3360478,39.4721055 L31.3360478,39.4721055 Z" id="Fill-37"></path>
                            </g>
                        </g>
                    </g>
                </g>
            </g>
        </g>
    </g>
</svg>