<?xml version="1.0" encoding="UTF-8"?>
<svg width="99px" height="99px" viewBox="0 0 99 99" version="1.1" xmlns="http://www.w3.org/2000/svg" xmlns:xlink="http://www.w3.org/1999/xlink">
    <!-- Generator: Sketch 45.2 (43514) - http://www.bohemiancoding.com/sketch -->
    <title>Group</title>
    <desc>Created with Sketch.</desc>
    <defs>
        <linearGradient x1="100%" y1="-31.6258778%" x2="-20.3603159%" y2="138.225103%" id="linearGradient-1">
            <stop stop-color="#02A8F3" offset="0%"></stop>
            <stop stop-color="#78D1F9" offset="57.651543%"></stop>
            <stop stop-color="#78E5F9" offset="100%"></stop>
        </linearGradient>
    </defs>
    <g id="Page-1" stroke="none" stroke-width="1" fill="none" fill-rule="evenodd">
        <g id="assets" transform="translate(-657.000000, -395.000000)">
            <g id="Group" transform="translate(657.000000, 395.000000)">
                <g id="Group-15-Copy" transform="translate(0.397096, 0.874268)">
                    <g id="Group-14-Copy">
                        <path d="M10,0 L87.6327132,0 L87.6327132,0 C93.1555607,-1.01453063e-15 97.6327132,4.4771525 97.6327132,10 L97.6327132,87.6327132 L97.6327132,87.6327132 C97.6327132,93.1555607 93.1555607,97.6327132 87.6327132,97.6327132 L10,97.6327132 L10,97.6327132 C4.4771525,97.6327132 8.0342647e-15,93.1555607 0,87.6327132 L0,10 L0,10 C-6.76353751e-16,4.4771525 4.4771525,1.01453063e-15 10,0 Z" id="Rectangle-9-Copy" fill="url(#linearGradient-1)"></path>
                        <path d="M79.7614139,40.9585639 L56.0485611,40.9585639 L56.0485611,17.2457111 C69.1448081,17.2457111 79.7614139,27.8623169 79.7614139,40.9585639 Z M72.7389468,26.9496826 C72.7389468,26.6948392 72.649753,26.4782256 72.4713627,26.2998353 L71.171668,25.0001407 C70.9932777,24.8217503 70.7766641,24.7325565 70.5218207,24.7325565 C70.2669774,24.7325565 70.0503637,24.8217503 69.8719734,25.0001407 L63.6028581,31.2788125 L60.7932241,28.459622 C60.6148338,28.2812316 60.3982202,28.1920378 60.1433768,28.1920378 C59.8885335,28.1920378 59.6719199,28.2812316 59.4935295,28.459622 L58.1938349,29.7593166 C58.0154445,29.9377069 57.9262507,30.1543205 57.9262507,30.4091639 C57.9262507,30.6640073 58.0154445,30.8806209 58.1938349,31.0590112 L62.9530108,35.8181872 C63.1314011,35.9965775 63.3480148,36.0857713 63.6028581,36.0857713 C63.8577015,36.0857713 64.0743151,35.9965775 64.2527054,35.8181872 L72.4713627,27.5995299 C72.649753,27.4211396 72.7389468,27.204526 72.7389468,26.9496826 Z" id="Combined-Shape" stroke="#FFFFFF" fill="#FFFFFF" stroke-linecap="round" stroke-linejoin="round"></path>
                        <path d="M73.2942723,45.7577221 C74.2154741,45.7577221 74.9622557,46.5045038 74.9622557,47.4257056 C74.9622557,61.4431544 63.5988683,72.8065418 49.5814195,72.8065418 C35.5639707,72.8065418 24.2005832,61.4431544 24.2005832,47.4257056 C24.2005832,33.4082568 35.5639707,22.0448693 49.5814195,22.0448693 C50.5026213,22.0448693 51.2494029,22.791651 51.2494029,23.7128528 L51.2494029,45.7577221 L73.2942723,45.7577221 Z M27.5365501,47.4257056 C27.5365501,59.6007507 37.4063743,69.4705749 49.5814195,69.4705749 C61.1953265,69.4705749 70.7116073,60.4895698 71.5641325,49.093689 L49.5814195,49.093689 C48.6602176,49.093689 47.913436,48.3469074 47.913436,47.4257056 L47.913436,25.4429925 C36.5175553,26.2955177 27.5365501,35.8117986 27.5365501,47.4257056 Z" id="Combined-Shape" fill="#FFFFFF" fill-rule="nonzero"></path>
                        <path d="M55.6625339,19.0004669 C56.1001122,17.5050534 57.0761669,16.7819264 58.5906978,16.8310857 C60.1052287,16.8802449 61.1943573,16.6473832 61.8580836,16.1325003 L54.9120581,14.6046933 C53.4702799,16.5587751 52.7672186,17.560737 52.8028743,17.610579 C52.83853,17.6604211 53.7917498,18.123717 55.6625339,19.0004669 Z" id="Path-10" fill="#3DBCF6"></path>
                        <path d="M78.5987276,41.891663 C79.036306,40.3962496 80.0123606,39.6731225 81.5268915,39.7222818 C83.0414225,39.7714411 84.1305511,39.5385793 84.7942773,39.0236965 L77.8482519,37.4958895 C76.4064736,39.4499712 75.7034124,40.4519331 75.739068,40.5017752 C75.7747237,40.5516172 76.7279435,41.0149132 78.5987276,41.891663 Z" id="Path-10-Copy" fill="#47C0F6" transform="translate(80.266027, 39.693776) scale(-1, 1) rotate(266.000000) translate(-80.266027, -39.693776) "></path>
                    </g>
                </g>
            </g>
        </g>
    </g>
</svg>