<?xml version="1.0" encoding="utf-8"?>
<!-- Generator: Adobe Illustrator 21.1.0, SVG Export Plug-In . SVG Version: 6.00 Build 0)  -->
<svg version="1.1" id="Layer_1" xmlns="http://www.w3.org/2000/svg" xmlns:xlink="http://www.w3.org/1999/xlink" x="0px" y="0px"
	 viewBox="0 0 144 144" style="enable-background:new 0 0 144 144;" xml:space="preserve">
<style type="text/css">
	.st0{fill:#FFFFFF;stroke:#383738;stroke-width:2.6757;stroke-miterlimit:10;}
	.st1{fill:#383738;}
</style>
<g>
	<path class="st0" d="M115.6,133.7H28.4c-10.1,0-18.2-8.3-18.2-18.2V28.3c0-10.1,8.3-18.2,18.2-18.2h87.1c10.1,0,18.2,8.3,18.2,18.2
		v87.1C133.8,125.6,125.7,133.7,115.6,133.7z"/>
	<g id="Layer_2_15_">
		<g id="Camada_1_15_">
			<path class="st1" d="M26.6,59.8h3.6l8.5,24.7l8.1-24.9h2.7l8.1,24.9l8.7-24.7h3.6l-10.8,30h-2.7l-8.1-24l-8.3,24h-2.9L26.6,59.8z
				"/>
			<path class="st1" d="M88.4,85.6l2.2-2.5c2.7,2.7,6.3,4.2,10.1,4.2c4,0,6.7-2.2,6.7-5.1c0-2.9-1.4-4.3-7.8-5.6
				c-6.9-1.4-9.9-3.6-9.9-8.7c0-4.7,4.2-8.1,9.7-8.1c3.8-0.2,7.6,1.1,10.5,3.6l-2,2.5c-2.3-2.2-5.4-3.2-8.7-3.2
				c-3.8,0-6.3,2.2-6.3,4.9c0,2.7,1.4,4.3,8.1,5.8c6.5,1.4,9.7,3.8,9.7,8.5c0,5.1-4.2,8.3-10.1,8.3C95.9,90.3,91.6,88.7,88.4,85.6z"
				/>
			<rect x="76.8" y="27.8" class="st1" width="2.5" height="92.8"/>
		</g>
	</g>
</g>
</svg>
