<?xml version="1.0" encoding="utf-8"?>
<!-- Generator: Adobe Illustrator 22.0.1, SVG Export Plug-In . SVG Version: 6.00 Build 0)  -->
<svg version="1.1" id="Слой_1" xmlns="http://www.w3.org/2000/svg" xmlns:xlink="http://www.w3.org/1999/xlink" x="0px" y="0px"
	 viewBox="0 0 303.2 82.4" style="enable-background:new 0 0 303.2 82.4;" xml:space="preserve">
<style type="text/css">
	.st0{fill:#FFFFFF;}
</style>
<path class="st0" d="M13.6,52.4c3.7,0,6.1-1.4,8.7-3.9l2,2.1c-2.8,2.9-5.9,4.6-10.8,4.6C5.7,55.2,0,49.1,0,41.3
	c0-7.6,5.7-13.9,13.6-13.9c4.9,0,7.7,1.8,10.4,4.4l-2,2.2c-2.3-2.2-4.8-3.7-8.5-3.7c-6,0-10.4,4.9-10.4,11.1
	C3.2,47.5,7.7,52.4,13.6,52.4L13.6,52.4z M55.6,35.9c0,4.5-3.1,7.1-7.3,7.9l8.3,11h-3.7L45,44.3h-7.7v10.5h-3v-27h11.6
	c3.3,0,6,1,7.7,2.7C54.8,31.8,55.6,33.7,55.6,35.9L55.6,35.9z M37.3,41.5h8.3c4,0,6.9-2.1,6.9-5.6c0-3.3-2.5-5.3-6.9-5.3h-8.3
	L37.3,41.5L37.3,41.5z M79.3,27.3c8.2,0,13.7,6.4,13.7,13.9c0,7.4-5.6,14-13.8,14c-8.2,0-13.7-6.4-13.7-14
	C65.5,33.8,71.1,27.3,79.3,27.3L79.3,27.3z M79.3,52.4c6.2,0,10.6-4.9,10.6-11.1c0-6.1-4.5-11.1-10.6-11.1
	c-6.2,0-10.5,4.9-10.5,11.1C68.7,47.4,73.1,52.4,79.3,52.4L79.3,52.4z M113.7,39.8c6,1.3,8.8,3.5,8.8,7.7c0,4.6-3.9,7.6-9.2,7.6
	c-4.3,0-7.8-1.4-11-4.3l1.9-2.2c2.8,2.5,5.5,3.8,9.2,3.8c3.6,0,6-1.9,6-4.6c0-2.5-1.3-3.9-7-5.1c-6.2-1.4-9-3.3-9-7.9
	c0-4.2,3.7-7.4,8.8-7.4c3.9,0,6.7,1.1,9.5,3.3l-1.8,2.4c-2.5-2-5-2.9-7.8-2.9c-3.5,0-5.7,1.9-5.7,4.4
	C106.4,37.1,107.8,38.5,113.7,39.8L113.7,39.8z M142.6,39.8c6,1.3,8.8,3.5,8.8,7.7c0,4.6-3.9,7.6-9.2,7.6c-4.3,0-7.8-1.4-11-4.3
	l1.9-2.2c2.8,2.5,5.5,3.8,9.2,3.8c3.6,0,6-1.9,6-4.6c0-2.5-1.4-3.9-7-5.1c-6.2-1.4-9.1-3.3-9.1-7.9c0-4.2,3.7-7.4,8.9-7.4
	c3.9,0,6.7,1.1,9.5,3.3l-1.8,2.4c-2.5-2-5-2.9-7.8-2.9c-3.5,0-5.7,1.9-5.7,4.4C135.3,37.1,136.7,38.5,142.6,39.8L142.6,39.8z
	 M207.5,41.3c0,7.4-5.6,14-13.8,14c-8.2,0-13.7-6.4-13.7-14c0-7.4,5.6-13.9,13.8-13.9C202,27.3,207.5,33.8,207.5,41.3z M204.3,41.3
	c0-6.1-4.5-11.1-10.6-11.1c-6.2,0-10.6,4.9-10.6,11.1c0,6.1,4.5,11.1,10.6,11.1C199.9,52.4,204.3,47.5,204.3,41.3z M237.2,27.8h3.3
	L228.9,55h-2.7l-11.6-27.2h3.4l9.6,23.2L237.2,27.8z M253.5,52h16.6v2.8h-19.7V27.8h19.5v2.8h-16.4v9.2h14.7v2.8h-14.7L253.5,52
	L253.5,52z M294.9,43.7l8.3,11h-3.7l-7.8-10.5h-7.7v10.5h-3v-27h11.6c3.3,0,6,1,7.7,2.7c1.3,1.3,2.1,3.2,2.1,5.4
	C302.2,40.4,299.1,43,294.9,43.7L294.9,43.7z M283.9,41.5h8.3c4,0,6.9-2.1,6.9-5.6c0-3.3-2.5-5.3-6.9-5.3h-8.3V41.5L283.9,41.5z
	 M165.3,82.4h2.2V0h-2.2V82.4z"/>
</svg>
