<?xml version="1.0" encoding="utf-8"?>
<!-- Generator: Adobe Illustrator 16.0.0, SVG Export Plug-In . SVG Version: 6.00 Build 0)  -->
<!DOCTYPE svg PUBLIC "-//W3C//DTD SVG 1.1//EN" "http://www.w3.org/Graphics/SVG/1.1/DTD/svg11.dtd">
<svg version="1.1" id="Слой_1" xmlns="http://www.w3.org/2000/svg" xmlns:xlink="http://www.w3.org/1999/xlink" x="0px" y="0px"
	 width="306.66px" height="306.66px" viewBox="0 0 306.66 306.66" enable-background="new 0 0 306.66 306.66" xml:space="preserve">
<path d="M15.346,164.521c3.692,0,6.12-1.413,8.701-3.896l2.003,2.125c-2.81,2.854-5.889,4.595-10.779,4.595
	c-7.78,0-13.517-6.124-13.517-13.956c0-7.616,5.695-13.933,13.628-13.933c4.891,0,7.742,1.813,10.439,4.352l-2.007,2.158
	c-2.271-2.158-4.808-3.7-8.468-3.7c-5.972,0-10.434,4.85-10.434,11.122C4.912,159.631,9.418,164.521,15.346,164.521L15.346,164.521z
	 M57.316,148.002c0,4.467-3.08,7.091-7.313,7.854l8.276,11.017h-3.73l-7.821-10.479h-7.699v10.494h-3.043v-26.965h11.593
	c3.307,0,5.965,0.993,7.657,2.692C56.548,143.92,57.316,145.81,57.316,148.002L57.316,148.002z M39.029,153.664h8.277
	c4.043,0,6.93-2.088,6.93-5.615c0-3.313-2.538-5.316-6.892-5.316h-8.315V153.664L39.029,153.664z M81.038,139.457
	c8.204,0,13.706,6.429,13.706,13.933c0,7.444-5.583,13.956-13.782,13.956c-8.2,0-13.712-6.448-13.712-13.955
	C67.248,145.961,72.836,139.457,81.038,139.457L81.038,139.457z M81.038,164.521c6.16,0,10.552-4.92,10.552-11.133
	c0-6.114-4.47-11.122-10.631-11.122c-6.156,0-10.547,4.925-10.547,11.122C70.411,159.526,74.878,164.521,81.038,164.521
	L81.038,164.521z M115.462,151.934c6.009,1.309,8.781,3.5,8.784,7.697c0,4.621-3.854,7.627-9.199,7.627
	c-4.279,0-7.783-1.43-11.014-4.313l1.884-2.229c2.81,2.541,5.509,3.804,9.241,3.804c3.62,0,6.007-1.915,6.007-4.649
	c0-2.511-1.347-3.938-7.009-5.127c-6.198-1.354-9.045-3.346-9.045-7.854c0-4.23,3.73-7.353,8.85-7.353
	c3.928,0,6.742,1.112,9.473,3.311l-1.768,2.351c-2.505-2.041-5.005-2.93-7.781-2.93c-3.502,0-5.736,1.928-5.736,4.434
	C108.146,149.234,109.535,150.653,115.462,151.934L115.462,151.934z M144.344,151.934c6.004,1.309,8.78,3.5,8.78,7.697
	c0,4.621-3.851,7.627-9.204,7.627c-4.273,0-7.777-1.43-11.009-4.313l1.888-2.229c2.805,2.541,5.508,3.804,9.24,3.804
	c3.617,0,6.005-1.915,6.005-4.649c0-2.511-1.351-3.938-7.003-5.127c-6.203-1.354-9.055-3.346-9.055-7.854
	c0-4.23,3.736-7.353,8.857-7.353c3.926,0,6.74,1.112,9.473,3.311l-1.777,2.351c-2.494-2.041-5.001-2.928-7.771-2.928
	c-3.506,0-5.739,1.928-5.739,4.432C137.027,149.234,138.413,150.653,144.344,151.934L144.344,151.934z M209.223,153.39
	c0,7.442-5.59,13.956-13.793,13.956c-8.205,0-13.701-6.449-13.701-13.956c0-7.428,5.588-13.934,13.775-13.934
	C203.709,139.457,209.223,145.884,209.223,153.39z M206.059,153.39c0-6.114-4.459-11.122-10.629-11.122
	c-6.168,0-10.552,4.925-10.552,11.122c0,6.14,4.474,11.132,10.627,11.132C201.672,164.521,206.059,159.602,206.059,153.39z
	 M238.991,139.922h3.271l-11.592,27.156h-2.691l-11.592-27.155h3.389l9.57,23.217L238.991,139.922z M255.236,164.092h16.632v2.777
	h-19.681v-26.947h19.483v2.771h-16.438v9.203h14.715v2.771h-14.715L255.236,164.092L255.236,164.092z M296.628,155.855l8.278,11.016
	h-3.73l-7.816-10.479h-7.695v10.494h-3.047v-26.963h11.591c3.313,0,5.96,0.994,7.671,2.691c1.292,1.307,2.063,3.193,2.063,5.389
	C303.939,152.47,300.864,155.094,296.628,155.855L296.628,155.855z M285.661,153.664h8.262c4.042,0,6.941-2.088,6.941-5.615
	c0-3.313-2.542-5.316-6.878-5.316h-8.325V153.664L285.661,153.664z M167.072,194.543h2.184v-82.426h-2.184V194.543z"/>
</svg>
