<svg xmlns="http://www.w3.org/2000/svg" viewBox="0 0 276.32 3099"><defs><style>.cls-1,.cls-2{fill:none;stroke:#02a8f3;stroke-linecap:round;stroke-miterlimit:10;}.cls-1{stroke-width:6px;}.cls-2{stroke-width:5px;stroke-dasharray:12 20;}</style></defs><title>road</title><g id="Layer_2" data-name="Layer 2"><g id="Layer_1-2" data-name="Layer 1"><path class="cls-1" d="M57.54,3s94.61,263,25.61,411c-76.21,163.48,6,468.73,64,617C209.48,1190.33,8.09,1533.83,3.09,1739.83-2,1947.76,212.15,2203,168.15,2484c-28.89,184.51-142,517-105,612"/><path class="cls-1" d="M156.75,3s94.61,263,25.61,411c-76.21,163.48,6,468.73,64,617,62.33,159.33-139.06,502.83-144.06,708.83C97.25,1947.76,311.36,2203,267.36,2484c-28.89,184.51-142,517-105,612"/><path class="cls-2" d="M107.15,3s94.61,263,25.61,411c-76.21,163.48,6,468.73,64,617,62.33,159.33-139.06,502.83-144.06,708.83C47.65,1947.76,261.75,2203,217.75,2484c-28.89,184.51-142,517-105,612"/></g></g></svg>