<?xml version="1.0" encoding="UTF-8"?>
<svg width="74px" height="74px" viewBox="0 0 74 74" version="1.1" xmlns="http://www.w3.org/2000/svg" xmlns:xlink="http://www.w3.org/1999/xlink">
    <!-- Generator: Sketch 41.2 (35397) - http://www.bohemiancoding.com/sketch -->
    <title>05 Icon complete profile</title>
    <desc>Created with Sketch.</desc>
    <defs></defs>
    <g id="Page-1" stroke="none" stroke-width="1" fill="none" fill-rule="evenodd">
        <g id="05---Fill-Profile-Details-Intro" transform="translate(-309.000000, -702.000000)">
            <g id="Timeline" transform="translate(173.000000, 162.000000)">
                <g id="05-Icon-complete-profile" transform="translate(136.000000, 540.000000)">
                    <path d="M37,0 C57.4345361,0 74,16.5654639 74,37 C74,57.4345361 57.4345361,74 37,74 C16.5654639,74 0,57.4345361 0,37 C0,16.5654639 16.5654639,0 37,0" id="Page-1" fill="#6EB1E1"></path>
                    <g id="Group-9" transform="translate(9.866667, 14.800000)">
                        <g id="Page-1">
                            <path d="M53.3077733,2.06163975 C53.3077733,1.06901848 52.504309,0.312808627 51.5589422,0.312808627 L2.21489007,0.312808627 C1.2222688,0.312808627 0.46605895,1.11627289 0.46605895,2.06163975 L0.46605895,8.15871238 L53.3551671,8.15871238 L53.3551671,2.06163975 L53.3077733,2.06163975" id="Fill-3" fill="#4F5565"></path>
                            <path d="M9.96628502,2.91235841 C10.6710587,2.91235841 11.2424327,3.48373246 11.2424327,4.1885061 C11.2424327,4.89327975 10.6710587,5.46465379 9.96628502,5.46465379 C9.26151138,5.46465379 8.69013733,4.89327975 8.69013733,4.1885061 C8.69013733,3.48373246 9.26151138,2.91235841 9.96628502,2.91235841" id="Fill-7" fill="#F1F3F7"></path>
                            <path d="M14.2672721,2.91235841 C14.9720458,2.91235841 15.5434198,3.48373246 15.5434198,4.1885061 C15.5434198,4.89327975 14.9720458,5.46465379 14.2672721,5.46465379 C13.5624985,5.46465379 12.9911244,4.89327975 12.9911244,4.1885061 C12.9911244,3.48373246 13.5624985,2.91235841 14.2672721,2.91235841" id="Fill-9" fill="#F1F3F7"></path>
                            <path d="M44.1857218,2.91235841 L20.6480106,2.91235841 C19.9390551,2.91235841 19.3718629,3.47955065 19.3718629,4.1885061 C19.3718629,4.89746155 19.9390551,5.46465379 20.6480106,5.46465379 L44.1857218,5.46465379 C44.8946773,5.46465379 45.4618695,4.89746155 45.4618695,4.1885061 C45.4618695,3.52680505 44.8946773,2.91235841 44.1857218,2.91235841" id="Fill-11" fill="#333842"></path>
                            <path d="M0.46605895,8.15871238 L0.46605895,39.8259932 C0.46605895,40.8186145 1.26952321,41.5748243 2.21489007,41.5748243 L51.5590816,41.5748243 C52.5517028,41.5748243 53.3079127,40.7713601 53.3079127,39.8259932 L53.3079127,8.15871238 L0.46605895,8.15871238 Z" id="Fill-13" fill="#F1F3F8"></path>
                            <path d="M13.9233883,11.514472 C18.4653868,11.514472 22.1474667,15.1965519 22.1474667,19.7385504 C22.1474667,24.2805489 18.4653868,27.9626288 13.9233883,27.9626288 C9.3813898,27.9626288 5.69930993,24.2805489 5.69930993,19.7385504 C5.69930993,15.1965519 9.3813898,11.514472 13.9233883,11.514472" id="Fill-15" fill="#6EB1E1"></path>
                            <path d="M13.9233883,12.8378741 C15.5418865,12.8378741 16.8538583,14.1498459 16.8538583,15.7683441 C16.8538583,17.3868423 15.5418865,18.6988141 13.9233883,18.6988141 C12.3048901,18.6988141 10.9929183,17.3868423 10.9929183,15.7683441 C10.9929183,14.1498459 12.3048901,12.8378741 13.9233883,12.8378741" id="Fill-17" fill="#FCFCFD"></path>
                            <path d="M13.9233883,27.9626288 C16.3811749,27.9626288 18.60255,26.8754987 20.1151091,25.1740614 C19.9733459,21.8655561 17.2792873,19.218752 13.9233883,19.218752 C10.5674893,19.218752 7.87357008,21.8655561 7.73166748,25.1740614 C9.24408719,26.8754987 11.4656017,27.9626288 13.9233883,27.9626288" id="Fill-19" fill="#FCFCFD"></path>
                            <polygon id="Fill-21" fill="#646B79" points="7.73166748 32.5000273 20.0677153 32.5000273 20.0677153 30.7984506 7.73166748 30.7984506"></polygon>
                            <polygon id="Fill-23" fill="#646B79" points="10.9929183 36.4702336 16.9009733 36.4702336 16.9009733 34.7686569 10.9929183 34.7686569"></polygon>
                            <polygon id="Fill-24" fill="#FFFFFC" points="26.3453026 37.1864375 47.2251976 37.1864375 47.2251976 12.2114396 26.3453026 12.2114396"></polygon>
                            <polygon id="Fill-25" fill="#6EB1E1" points="28.5194234 15.7091019 34.5692416 15.7091019 34.5692416 14.3856998 28.5194234 14.3856998"></polygon>
                            <polygon id="Fill-26" fill="#DEDEDF" points="28.5194234 18.8757045 44.7789807 18.8757045 44.7789807 17.5523024 28.5194234 17.5523024"></polygon>
                            <polygon id="Fill-27" fill="#DEDEDF" points="28.5194234 22.0897009 44.7789807 22.0897009 44.7789807 20.7662988 28.5194234 20.7662988"></polygon>
                            <polygon id="Fill-28" fill="#DEDEDF" points="28.5194234 25.256443 44.7789807 25.256443 44.7789807 23.9330409 28.5194234 23.9330409"></polygon>
                            <polygon id="Fill-29" fill="#DEDEDF" points="28.5194234 28.423185 44.7789807 28.423185 44.7789807 27.0997829 28.5194234 27.0997829"></polygon>
                            <polygon id="Fill-30" fill="#DEDEDF" points="28.5194234 31.6371814 44.7789807 31.6371814 44.7789807 30.3137793 28.5194234 30.3137793"></polygon>
                            <polygon id="Fill-31" fill="#DEDEDF" points="28.5194234 34.7038389 44.7789807 34.7038389 44.7789807 33.3804368 28.5194234 33.3804368"></polygon>
                            <path d="M5.71241292,2.91235841 C6.41718657,2.91235841 6.98856061,3.48373246 6.98856061,4.1885061 C6.98856061,4.89327975 6.41718657,5.46465379 5.71241292,5.46465379 C5.00763928,5.46465379 4.43626523,4.89327975 4.43626523,4.1885061 C4.43626523,3.48373246 5.00763928,2.91235841 5.71241292,2.91235841" id="Combined-Shape" fill="#F1F3F7"></path>
                        </g>
                    </g>
                </g>
            </g>
        </g>
    </g>
</svg>