<?xml version="1.0" encoding="UTF-8"?>
<svg width="74px" height="74px" viewBox="0 0 74 74" version="1.1" xmlns="http://www.w3.org/2000/svg" xmlns:xlink="http://www.w3.org/1999/xlink">
    <!-- Generator: Sketch 41.2 (35397) - http://www.bohemiancoding.com/sketch -->
    <title>02 Icon create basic profile</title>
    <desc>Created with Sketch.</desc>
    <defs>
        <polygon id="path-1" points="0.0108292683 0.072195122 0.0108292683 74.000361 73.9281659 74.000361 73.9281659 0.072195122 0.0108292683 0.072195122"></polygon>
    </defs>
    <g id="Page-1" stroke="none" stroke-width="1" fill="none" fill-rule="evenodd">
        <g id="01-Verify-Email" transform="translate(-294.000000, -362.000000)">
            <g id="Timeline" transform="translate(173.000000, 162.000000)">
                <g id="02-Icon-create-basic-profile" transform="translate(121.000000, 200.000000)">
                    <g id="Group-3">
                        <mask id="mask-2" fill="white">
                            <use xlink:href="#path-1"></use>
                        </mask>
                        <g id="Clip-2"></g>
                        <path d="M36.9640829,73.9281659 C57.3232878,73.9281659 73.9281659,57.3232878 73.9281659,36.9640829 C73.9281659,16.604878 57.3232878,0 36.9640829,0 C16.604878,0 0,16.604878 0,36.9640829 C0,57.3232878 16.604878,73.9281659 36.9640829,73.9281659 Z" id="Fill-1" fill="#FFCA4F" mask="url(#mask-2)"></path>
                    </g>
                    <path d="M38.2267756,0.0962 L33.8929024,25.6541756 L39.8208439,25.6541756 L44.0426341,0.752634146 C42.1509415,0.385882927 40.2085317,0.162439024 38.2267756,0.0962 Z" id="Fill-4" fill="#EC4B53"></path>
                    <path d="M15.8406927,28.755678 L29.5837561,28.755678 L29.5837561,26.8782439 C29.5837561,25.286161 30.8859756,23.6935366 32.4786,23.6935366 L41.4493854,23.6935366 C43.0414683,23.6935366 44.3442293,25.286161 44.3442293,26.8782439 L44.3442293,28.755678 L58.0867512,28.755678 C59.6730585,28.755678 60.9704049,30.0528439 60.9704049,31.6398732 L60.9704049,57.4277902 C60.9704049,59.0148195 59.6730585,60.3128878 58.0867512,60.3128878 L15.8406927,60.3128878 C14.2543854,60.3128878 12.9563171,59.0148195 12.9563171,57.4277902 L12.9563171,31.6398732 C12.9563171,30.0528439 14.2543854,28.755678 15.8406927,28.755678 Z M32.1289951,28.755678 L41.7984488,28.755678 L41.7984488,26.5919902 C41.7984488,25.6992976 40.9452829,25.5090634 39.9018829,25.5090634 L34.025561,25.5090634 C32.9819805,25.5090634 32.1282732,25.6992976 32.1282732,26.5919902 L32.1282732,28.755678 L32.1289951,28.755678 Z" id="Fill-5" fill="#FFFFFF"></path>
                    <path d="M17.5946732,30.7063902 L56.3333122,30.7063902 C57.7878634,30.7063902 58.9785415,31.8436439 58.9785415,33.2346634 L58.9785415,55.833 C58.9785415,57.2240195 57.7885854,58.3605512 56.3333122,58.3605512 L17.5946732,58.3605512 C16.1395805,58.3605512 14.9494439,57.2240195 14.9494439,55.833 L14.9494439,33.2346634 C14.9494439,31.8436439 16.1395805,30.7063902 17.5946732,30.7063902 Z" id="Fill-6" fill="#1FD0C2"></path>
                    <polygon id="Fill-7" fill="#F0B97D" points="25.056039 42.8682 28.1427415 42.8682 28.3936195 45.4697512 28.837078 45.8265756 29.7741707 46.4223659 26.5993902 53.9203707 23.4253317 46.4223659 24.3622439 45.8265756 24.8064244 45.4697512"></polygon>
                    <polygon id="Fill-8" fill="#ECF0F1" points="24.0380878 46.0189756 21.4802146 46.8355024 26.6001122 53.9203707 30.9565463 46.597078 29.1487805 46.0247512 27.556878 47.1477463 25.6482195 47.1477463 24.0380878 46.0182537"></polygon>
                    <polygon id="Fill-9" fill="#FF5B61" points="26.0290488 47.0448683 26.2476195 47.5841659 25.7617463 53.7333854 26.6001122 54.3750195 27.4390195 53.7333854 26.9533268 47.5841659 27.1711756 47.0448683 26.6001122 47.0223073 26.0283268 47.0448683"></polygon>
                    <path d="M24.0824878,46.0048976 L19.5567561,47.449522 C19.5567561,47.449522 18.9708927,47.7534634 18.7940146,48.6804488 C18.6247171,49.5673659 18.537361,50.4741366 18.404161,51.6973024 C20.5622537,53.6777951 23.4401317,54.8876049 26.6001122,54.8876049 C29.7615366,54.8876049 32.6386927,53.6777951 34.7975073,51.6973024 C34.6643073,50.4741366 34.5760488,49.5668244 34.4062098,48.6804488 C34.2298732,47.7541854 33.6440098,47.449522 33.6440098,47.449522 L29.1495024,46.0247512 L26.6008341,53.4994732 L24.0832098,46.0048976 L24.0824878,46.0048976 Z" id="Fill-10" fill="#797979"></path>
                    <path d="M24.0824878,46.0048976 L23.1060488,46.3166 L22.9183415,48.7932537 C22.9183415,48.7932537 22.9706829,48.9970244 23.125,48.9787951 L24.006322,49.3101707 C24.006322,49.3101707 24.0633561,49.3679268 24.012639,49.4404829 L23.2582,49.9574 L25.863361,54.8672098 C26.1072,54.8805659 26.3533854,54.8876049 26.6001122,54.8876049 C26.847561,54.8876049 27.0935659,54.8805659 27.3375854,54.8672098 L29.9425659,49.9574 L29.1883073,49.4404829 C29.1368683,49.3679268 29.1946244,49.3101707 29.1946244,49.3101707 L30.0759463,48.9787951 C30.2309854,48.9970244 30.2824244,48.7932537 30.2824244,48.7932537 L30.0956195,46.324361 L29.1487805,46.0247512 L26.6001122,53.4994732 L24.0832098,46.0041756 L24.0824878,46.0048976 Z" id="Fill-11" fill="#807D7D"></path>
                    <path d="M23.0051561,37.5777415 C23.0051561,37.8195951 22.917078,38.0563951 22.9233951,38.288322 C22.0964,38.1354488 22.4954585,40.5917073 22.9634634,40.930122 C23.0010049,40.9568341 23.0917902,40.8969122 23.170122,40.847639 C23.3322,41.751522 24.7176244,44.1669902 25.5982244,45.1822341 C25.8429659,45.464878 27.3390293,45.4600049 27.5807024,45.1927024 C28.4831415,44.1992976 29.867122,41.7563951 30.0301024,40.847639 C30.1075317,40.8969122 30.1992195,40.9568341 30.2365805,40.930122 C30.7047659,40.5924293 31.1038244,38.1354488 30.2768293,38.288322 C30.2838683,38.0563951 30.1957902,37.8195951 30.1957902,37.5777415 C30.1499463,35.6698049 28.4205122,34.7173707 26.6008341,34.7096098 C24.7804341,34.7173707 23.051722,35.6698049 23.005878,37.5777415 L23.0051561,37.5777415 Z" id="Fill-12" fill="#FED198"></path>
                    <path d="M24.1140732,35.1319512 C23.8525463,35.1016293 22.910761,35.3900488 22.7972341,36.3876049 C22.6844293,37.384439 22.7385756,38.303122 22.7385756,38.303122 C22.7385756,38.303122 23.2906878,38.4420976 23.3598146,39.0082878 C23.4294829,39.5735756 23.3802098,39.5735756 23.3802098,39.5735756 L23.5798293,39.5291756 L23.7222341,38.5583317 C24.5485073,38.0415951 23.7164585,37.274522 24.5421902,37.095478 C26.773561,38.6852146 28.741961,38.4132195 29.6296,37.6650976 C29.6296,37.6650976 29.4224,38.4476927 29.5823122,38.7261854 C29.7416829,39.0054 29.6458439,39.4447073 29.6458439,39.4447073 L29.8537659,39.4347805 C29.8537659,39.4347805 29.8156829,38.2827268 30.2768293,38.2876 C32.0266585,35.3978098 26.4858634,31.8084488 24.1140732,35.1312293 L24.1140732,35.1319512 Z" id="Fill-13" fill="#797979"></path>
                    <path d="M24.7853073,45.0983073 C24.8502829,45.1031805 24.0296049,46.0281805 24.0296049,46.0281805 L24.7275512,48.418922 L26.6001122,47.0223073 C25.5700683,46.516761 24.9553268,45.8624927 24.7853073,45.0983073 Z" id="Fill-14" fill="#FFFFFF"></path>
                    <path d="M28.4149171,45.0983073 C28.3506634,45.1031805 29.1706195,46.0281805 29.1706195,46.0281805 L28.4726732,48.418922 L26.6001122,47.0223073 C27.6301561,46.5174829 28.2441756,45.8624927 28.4149171,45.0983073 Z" id="Fill-15" fill="#FFFFFF"></path>
                    <path d="M36.9640829,35.9089512 L56.1338732,35.9089512 L56.1338732,34.8422683 L36.9640829,34.8422683 L36.9640829,35.9089512 Z M44.7228927,55.3339512 L56.1338732,55.3339512 L56.1338732,54.2903707 L44.7228927,54.2903707 L44.7228927,55.3339512 Z M36.9640829,43.3863805 L47.8835951,43.3863805 L47.8835951,42.3196976 L36.9640829,42.3196976 L36.9640829,43.3863805 Z M36.9640829,40.8942049 L56.1338732,40.8942049 L56.1338732,39.827522 L36.9640829,39.827522 L36.9640829,40.8942049 Z M36.9640829,38.4018488 L56.1338732,38.4018488 L56.1338732,37.3351659 L36.9640829,37.3351659 L36.9640829,38.4018488 Z" id="Fill-16" fill="#FFFFFF"></path>
                    <path d="M35.5941805,0.10035122 L39.9273317,25.6541756 L34.0001122,25.6541756 L29.7804878,0.773029268 C31.6707366,0.400682927 33.6122439,0.173087805 35.5934585,0.101073171 L35.5941805,0.10035122 Z" id="Fill-17" fill="#FF5B61"></path>
                </g>
            </g>
        </g>
    </g>
</svg>