<?xml version="1.0" encoding="UTF-8"?>
<svg width="74px" height="74px" viewBox="0 0 74 74" version="1.1" xmlns="http://www.w3.org/2000/svg" xmlns:xlink="http://www.w3.org/1999/xlink">
    <!-- Generator: Sketch 41.2 (35397) - http://www.bohemiancoding.com/sketch -->
    <title>09 Icon Hired</title>
    <desc>Created with Sketch.</desc>
    <defs>
        <polygon id="path-1" points="0.0108292683 0.0718394161 0.0108292683 73.8201314 73.9281659 73.8201314 73.9281659 0.0718394161 0.0108292683 0.0718394161"></polygon>
    </defs>
    <g id="Page-1" stroke="none" stroke-width="1" fill="none" fill-rule="evenodd">
        <g id="01-Timeline" transform="translate(-299.000000, -1047.000000)">
            <g id="Timeline" transform="translate(190.000000, 100.000000)">
                <g id="09-Icon-Hired" transform="translate(109.000000, 947.000000)">
                    <g id="Group-3">
                        <mask id="mask-2" fill="white">
                            <use xlink:href="#path-1"></use>
                        </mask>
                        <g id="Clip-2"></g>
                        <path d="M36.9640829,0 C57.3781561,0 73.9281659,16.5090219 73.9281659,36.874146 C73.9281659,57.2385499 57.3781561,73.748292 36.9640829,73.748292 C16.5491073,73.748292 0,57.2385499 0,36.874146 C0,16.5090219 16.5491073,0 36.9640829,0 Z" id="Fill-1" fill="#5DDDD3" mask="url(#mask-2)"></path>
                    </g>
                    <path d="M26.1023268,57.3928516 L22.5828146,72.5034355 C22.3734488,73.4157421 21.4625268,73.9854161 20.5481756,73.7772798 C19.6336439,73.5682433 19.0625805,72.6595377 19.2712244,71.7474112 L23.2089268,54.8424623 C24.154322,55.7695328 25.1217366,56.621163 26.1023268,57.3933917 L26.1023268,57.3928516 Z M34.6134098,61.9734696 L36.4388634,68.4966326 C36.6882976,69.3975961 36.1589268,70.3302482 35.2557659,70.5792555 C34.3526049,70.8282628 33.417678,70.2992798 33.1682439,69.3990365 L30.635639,60.3487105 C31.9681805,61.0436983 33.300722,61.5887056 34.6134098,61.9734696 Z" id="Fill-4" fill="#797979"></path>
                    <path d="M44.2469463,26.192219 C52.9188439,39.1987543 53.797278,54.7574793 46.2090293,60.9423309 C38.6207805,67.1280827 25.4388537,61.5986083 16.7669561,48.5929732 C8.09451707,35.5857178 7.21590244,20.0277129 14.8048732,13.8421411 C22.3924,7.65710949 35.5750488,13.1865839 44.2469463,26.1929392 L44.2469463,26.192219 Z" id="Fill-5" fill="#14BDB1"></path>
                    <path d="M44.421839,25.9588759 C52.8814829,38.7619562 53.7388,54.0759951 46.3353707,60.1652409 C38.9324829,66.2537664 26.0734488,60.8108954 17.6138049,48.0078151 C9.15416098,35.2052749 8.2968439,19.891236 15.6995512,13.8027105 C23.102439,7.71346472 35.9621951,13.157056 44.421839,25.9594161 L44.421839,25.9588759 Z" id="Fill-6" fill="#FF757C"></path>
                    <path d="M43.2423512,26.5953479 C50.1812049,37.4052895 50.8898,50.2899319 44.8245073,55.3748662 C38.7597561,60.4599805 28.2181854,55.8201265 21.2798732,45.0109051 C14.3410195,34.2009635 13.6324244,21.3161411 19.6978976,16.2312068 C25.7624683,11.1455523 36.3042195,15.7861265 43.2430732,26.5953479 L43.2423512,26.5953479 Z M40.5857512,29.8853771 C37.1375317,24.5127251 31.8976098,22.2059416 28.8836439,24.7336448 C25.8689561,27.2613479 26.2207268,33.6649586 29.6698488,39.0383309 C33.1180683,44.4102628 38.3585317,46.7172263 41.372678,44.1893431 C44.3866439,41.6616399 44.0348732,35.2580292 40.5857512,29.8853771 Z M39.9787707,30.891129 C37.4257707,26.9124136 33.5460049,25.2055523 31.3139122,27.076438 C29.0818195,28.9478637 29.3426244,33.6903455 31.8963463,37.6683406 C34.4491659,41.6461557 38.3289317,43.3546375 40.5610244,41.4823114 C42.7925756,39.6108856 42.5323122,34.8691241 39.9787707,30.891129 Z M41.8562049,28.0679659 C36.8624683,20.2878832 29.2749415,16.9479805 24.9094829,20.6080097 C20.5445659,24.2687591 21.0542634,33.5427056 26.048722,41.3227883 C31.0424585,49.102871 38.6299854,52.4427737 42.9956244,48.7827445 C47.360361,45.1227153 46.8506634,35.8480487 41.8562049,28.0679659 Z" id="Fill-7" fill="#FFFFFF"></path>
                    <path d="M37.932761,32.7717372 C39.0227268,34.4703163 39.1340878,36.4951436 38.1816537,37.2941995 C37.2284976,38.0930754 35.5723415,37.3636983 34.4823756,35.6652993 C33.3924098,33.9667202 33.2803268,31.9426131 34.2334829,31.1435572 C35.186639,30.3446813 36.8420732,31.0733382 37.932761,32.7717372 Z" id="Fill-8" fill="#FFFFFF"></path>
                    <path d="M40.0845366,30.8516983 L70.7160244,13.0621703 C71.2165171,12.7715718 71.8644683,12.942618 72.1555951,13.4418929 C72.4469024,13.9406277 72.276161,14.5875426 71.7756683,14.8781411 L41.1434585,32.6669489 C40.6429659,32.9575474 39.9950146,32.7865012 39.7037073,32.2879465 L39.7031659,32.2879465 C39.4118585,31.7884915 39.5831415,31.1422968 40.0838146,30.8516983 L40.0845366,30.8516983 Z" id="Fill-9" fill="#0E7886"></path>
                    <path d="M59.251439,22.1510268 L71.980161,14.7585888 L73.9274439,18.0965109 L63.8609171,23.9430511 L59.251439,22.1510268 Z M58.1917951,20.335056 L70.9210585,12.9433382 L68.9725122,9.60523601 L58.9059854,15.4519562 L58.1917951,20.335056 Z" id="Fill-10" fill="#FF5B61"></path>
                    <polygon id="Fill-11" fill="#FF5B61" points="36.6058146 34.0862725 39.4401951 28.0575231 43.2613024 34.6053528"></polygon>
                </g>
            </g>
        </g>
    </g>
</svg>