<?xml version="1.0" encoding="UTF-8"?>
<svg width="74px" height="74px" viewBox="0 0 74 74" version="1.1" xmlns="http://www.w3.org/2000/svg" xmlns:xlink="http://www.w3.org/1999/xlink">
    <!-- Generator: Sketch 41.2 (35397) - http://www.bohemiancoding.com/sketch -->
    <title>07 Icon direct interviews</title>
    <desc>Created with Sketch.</desc>
    <defs>
        <polygon id="path-1" points="0.0108292683 0.0725560976 0.0108292683 73.9998195 73.9281659 73.9998195 73.9281659 0.0725560976 0.0108292683 0.0725560976"></polygon>
    </defs>
    <g id="Page-1" stroke="none" stroke-width="1" fill="none" fill-rule="evenodd">
        <g id="01-Timeline" transform="translate(-299.000000, -821.000000)">
            <g id="Timeline" transform="translate(190.000000, 100.000000)">
                <g id="07-Icon-direct-interviews" transform="translate(109.000000, 721.000000)">
                    <g id="Group-3">
                        <mask id="mask-2" fill="white">
                            <use xlink:href="#path-1"></use>
                        </mask>
                        <g id="Clip-2"></g>
                        <path d="M36.9640829,73.9272634 C57.3232878,73.9272634 73.9281659,57.3223854 73.9281659,36.9631805 C73.9281659,16.604878 57.3232878,0 36.9640829,0 C16.604878,0 0,16.604878 0,36.9631805 C0,57.3223854 16.604878,73.9272634 36.9640829,73.9272634 Z" id="Fill-1" fill="#FFCA4F" mask="url(#mask-2)"></path>
                    </g>
                    <path d="M33.6694585,26.2714439 L67.9310976,26.2714439 C69.0253951,26.2714439 69.9200732,27.1668439 69.9200732,28.260961 L69.9200732,47.1966585 C69.9200732,48.2909561 69.0253951,49.1856341 67.9310976,49.1856341 L33.6694585,49.1856341 C32.5758829,49.1856341 31.6804829,48.2909561 31.6804829,47.1966585 L31.6804829,28.260961 C31.6804829,27.1668439 32.5758829,26.2714439 33.6694585,26.2714439 Z" id="Fill-4" fill="#797979"></path>
                    <polygon id="Fill-5" fill="#FFFFFF" points="33.5503366 47.6980537 68.0509415 47.6980537 68.0509415 27.7597463 33.5503366 27.7597463"></polygon>
                    <path d="M40.3559902,49.9561366 L42.8665756,49.9561366 L42.8665756,49.1856341 L40.3559902,49.1856341 L40.3559902,49.9561366 Z M58.7347024,49.9561366 L61.2452878,49.9561366 L61.2452878,49.1856341 L58.7347024,49.1856341 L58.7347024,49.9561366 Z" id="Fill-6" fill="#797979"></path>
                    <polygon id="Fill-7" fill="#F0B97D" points="55.3243854 33.7236049 50.2447366 33.7236049 49.8330439 38.0045951 49.1026098 38.5904585 47.5607024 39.5717707 51.000439 47.6980537 54.567239 47.6980537 58.007878 39.5717707 56.4665122 38.5904585 55.7355366 38.0045951"></polygon>
                    <polygon id="Fill-8" fill="#ECF0F1" points="57.0002146 38.9077561 61.2108146 40.2507659 55.8284878 47.6980537 50.2784878 47.6980537 45.6154049 39.8601902 48.5900244 38.9167805 51.2098049 40.7660585 54.3501122 40.7660585"></polygon>
                    <polygon id="Fill-9" fill="#FF5B61" points="53.724 40.5969415 53.3637463 41.4845805 53.8559366 47.6980537 51.711922 47.6980537 52.2039317 41.4845805 51.843678 40.5969415 52.783478 40.5588585"></polygon>
                    <path d="M56.9276585,38.8844732 L64.3749463,41.2618585 C64.3749463,41.2618585 65.3387512,41.7623512 65.629878,43.2872927 C65.8822,44.6099073 66.0240634,45.9594146 66.2128537,47.6980537 L53.9665756,47.6980537 L56.9276585,38.8844732 Z M39.3548244,47.6980537 C39.5437951,45.9586927 39.685478,44.6091854 39.938522,43.2872927 C40.2291073,41.7623512 41.1934537,41.2618585 41.1934537,41.2618585 L48.5900244,38.9167805 L51.5843171,47.6980537 L39.3548244,47.6980537 Z" id="Fill-10" fill="#14BDB1"></path>
                    <path d="M56.9276585,38.8844732 L58.534361,39.3970585 L58.8431756,43.4733756 C58.8431756,43.4733756 58.7572634,43.808361 58.5027756,43.778039 L57.0530976,44.3229317 C57.0530976,44.3229317 56.9579805,44.4182293 57.0426293,44.5380732 L58.2834829,45.3883512 L57.0581512,47.6980537 L53.9665756,47.6980537 L56.9276585,38.8844732 Z M48.5102488,47.6980537 L47.2849171,45.3883512 L48.5250488,44.5380732 C48.6104195,44.4182293 48.5153024,44.3229317 48.5153024,44.3229317 L47.0658049,43.778039 C46.8104146,43.808361 46.7259463,43.4728341 46.7259463,43.4728341 L47.0333171,39.4104146 L48.5900244,38.9167805 L51.5843171,47.6980537 L48.5102488,47.6980537 Z" id="Fill-11" fill="#1FD0C2"></path>
                    <path d="M58.7000488,25.0172341 C58.7000488,25.4148488 58.8453415,25.8039805 58.8341512,26.1860732 C60.1955707,25.9337512 59.5384146,29.977039 58.7677317,30.5325805 C58.7072683,30.5769805 58.5563805,30.4782537 58.4293171,30.3972146 C58.1621951,31.8842537 55.8820927,35.8584146 54.4325951,37.5308146 C54.0299268,37.9946683 51.5673512,37.9869073 51.1690146,37.548322 C49.6848634,35.9141854 47.4069268,31.8925561 47.138361,30.3972146 C47.011478,30.4782537 46.8613122,30.5769805 46.7999463,30.5325805 C46.0299854,29.977039 45.3722878,25.9337512 46.7337073,26.1860732 C46.7230585,25.8039805 46.8683512,25.4148488 46.8683512,25.0172341 C46.9437951,21.8769268 49.7884634,20.3097512 52.7842,20.2962146 C55.7799366,20.3097512 58.6246049,21.8769268 58.7000488,25.0172341 Z" id="Fill-12" fill="#FED198"></path>
                    <path d="M56.8762195,20.9921756 C57.304878,20.9421805 58.8559902,21.4172244 59.0420732,23.0578585 C59.2281561,24.6984927 59.1393561,26.210078 59.1393561,26.210078 C59.1393561,26.210078 58.2306,26.439839 58.1163512,27.3706146 C58.0021024,28.3019317 58.0838634,28.3019317 58.0838634,28.3019317 L57.7546537,28.2279317 L57.520561,26.6316976 C56.1613073,25.7799756 57.5304878,24.5180049 56.1712341,24.2232683 C52.4993902,26.8396195 49.2605366,26.3920098 47.7996683,25.1610829 C47.7996683,25.1610829 48.1409707,26.448322 47.878,26.9073024 C47.6148488,27.3662829 47.7715122,28.089678 47.7715122,28.089678 L47.4302098,28.0734341 C47.4302098,28.0734341 47.4922976,26.1775902 46.7344293,26.1860732 C43.8536634,21.430761 52.9717268,15.5232146 56.8762195,20.9921756 Z" id="Fill-13" fill="#797979"></path>
                    <path d="M55.7707317,37.3932829 C55.6642439,37.400322 57.0137512,38.923278 57.0137512,38.923278 L55.8651268,42.8579122 L52.7842,40.5588585 C54.478439,39.7277122 55.4900732,38.6503805 55.7707317,37.3932829 Z" id="Fill-14" fill="#FFFFFF"></path>
                    <path d="M49.7969463,37.3932829 C49.9034341,37.400322 48.5541073,38.923278 48.5541073,38.923278 L49.7032732,42.8579122 L52.7842,40.5588585 C51.089239,39.7277122 50.0783268,38.6503805 49.7969463,37.3932829 Z" id="Fill-15" fill="#FFFFFF"></path>
                    <path d="M59.422722,27.0271463 C60.0672439,23.8122976 58.8213366,21.5661268 56.8655707,20.3202195 C55.6543171,19.5489951 54.1696244,19.1555317 52.6905268,19.1492146 C51.2126927,19.1421756 49.7413561,19.5213805 48.5541073,20.2942293 C46.6716195,21.519561 45.501878,23.7516537 46.1583122,27.0271463 L45.6578195,27.1265951 C44.9526537,23.6099707 46.2296049,21.2000976 48.276878,19.8675561 C49.5487756,19.039839 51.1190195,18.6337415 52.6925122,18.640961 C54.2647415,18.647278 55.8447317,19.0674537 57.1384683,19.891561 C59.2613659,21.2430537 60.6164683,23.6691707 59.9233951,27.1265951 L59.422722,27.0271463 Z" id="Fill-16" fill="#FF757C"></path>
                    <path d="M46.1633659,26.4504878 C45.8523854,26.4864049 45.6282195,26.7704927 45.6648585,27.0814732 L46.1075951,30.8554732 C46.1435122,31.1664537 46.4276,31.3906195 46.7385805,31.3539805 C47.048839,31.3180634 47.2737268,31.0339756 47.2370878,30.7229951 L46.7943512,26.9489951 C46.7575317,26.6380146 46.4741659,26.4138488 46.1633659,26.4504878 Z" id="Fill-17" fill="#807D7D"></path>
                    <path d="M45.1149122,27.1569171 L45.6655805,27.092122 L46.0983902,30.7780439 L45.5428488,30.843561 C45.2417951,30.8787561 44.9669122,30.6609073 44.9315366,30.3598537 L44.6284976,27.7731024 C44.5924,27.4693415 44.8116927,27.1921122 45.1149122,27.1569171 Z" id="Fill-18" fill="#FF757C"></path>
                    <path d="M59.4052146,26.4504878 C59.7152927,26.4864049 59.940361,26.7704927 59.903,27.0814732 L59.4608049,30.8554732 C59.4241659,31.1664537 59.140078,31.3906195 58.8290976,31.3539805 C58.5190195,31.3180634 58.2946732,31.0339756 58.3314927,30.7229951 L58.7742293,26.9489951 C58.8101463,26.6380146 59.0942341,26.4138488 59.4052146,26.4504878 Z" id="Fill-19" fill="#807D7D"></path>
                    <path d="M60.4534878,27.1569171 L59.902278,27.092122 L59.4700098,30.7780439 L60.0248293,30.843561 C60.3258829,30.8787561 60.6009463,30.6609073 60.6361415,30.3598537 L60.9400829,27.7731024 C60.975278,27.4693415 60.7567073,27.1921122 60.4534878,27.1569171 Z" id="Fill-20" fill="#FF757C"></path>
                    <path d="M59.6948976,30.4656195 C59.3332,32.0696146 58.3737268,33.2731073 57.1243902,34.0683366 C56.1965024,34.6592537 55.1094244,35.0278098 53.9862488,35.1716585 L53.9862488,35.6842439 C55.2045415,35.5369659 56.388361,35.1400732 57.3980098,34.4977171 C58.7897512,33.611522 59.8506585,32.2634585 60.2222829,30.4656195 L59.6948976,30.4656195 Z" id="Fill-21" fill="#FF757C"></path>
                    <path d="M52.5331415,34.7022098 L54.2669073,34.7022098 C54.390361,34.7022098 54.4917951,34.8036439 54.4917951,34.9270976 L54.4917951,35.8280927 C54.4917951,35.9522683 54.3909024,36.0529805 54.2669073,36.0529805 L52.5331415,36.0529805 C52.4091463,36.0529805 52.3075317,35.9522683 52.3075317,35.8280927 L52.3075317,34.9270976 C52.3075317,34.8036439 52.4091463,34.7022098 52.5331415,34.7022098 Z" id="Fill-22" fill="#797979"></path>
                    <path d="M31.235039,49.9561366 L72.8620244,49.9561366 L72.8620244,51.3634 C72.8620244,52.1375122 72.1606488,52.7706634 71.3026098,52.7706634 L32.7944537,52.7706634 C31.9364146,52.7706634 31.235039,52.1375122 31.235039,51.3634 L31.235039,49.9561366 Z" id="Fill-23" fill="#807D7D"></path>
                    <path d="M31.368961,51.9332 L72.7281024,51.9332 C72.4842634,52.4252098 71.9355805,52.7706634 71.3026098,52.7706634 L32.7944537,52.7706634 C32.1613024,52.7706634 31.6128,52.4252098 31.368961,51.9332 Z" id="Fill-24" fill="#797979"></path>
                    <path d="M14.0258878,19.8641268 C14.0258878,20.600878 13.757322,24.8620146 13.7777171,25.5691659 C11.255761,25.1017024 12.980322,32.5919463 14.4058146,33.6192829 C14.5173561,33.700322 14.7978341,33.5183902 15.0333707,33.3689463 C15.4077024,35.4552049 17.4163512,38.1533171 19.7811024,40.6864634 L18.7969024,48.9396293 L24.9876341,48.5651171 L31.1785463,48.9396293 L30.1965122,40.7055951 C32.5758829,38.1899561 34.5585415,35.4564683 34.9335951,33.3689463 C35.1689512,33.5191122 35.4488878,33.700322 35.5602488,33.6200049 C36.9866439,32.5919463 38.7104829,25.1017024 36.1892488,25.5691659 C36.208922,24.8620146 35.9403561,20.600878 35.9403561,19.8641268 C35.8006585,14.0489902 30.532039,11.1456634 24.9834829,11.1209366 C19.4349268,11.1456634 14.1654049,14.0489902 14.0258878,19.8641268 Z" id="Fill-25" fill="#FED198"></path>
                    <polygon id="Fill-26" fill="#D6D6D6" points="17.1744976 46.9690634 9.37688293 49.4578098 24.982761 71.0528146 38.2612488 48.7329707 32.7514976 46.9865707 27.8994439 50.4116878 22.0835854 50.4116878"></polygon>
                    <path d="M23.2419561,50.097278 L23.909039,51.7420634 L22.4270537,70.4824732 L23.932322,71.6345268 C24.4073659,71.8135707 24.886922,71.9826878 25.3704488,72.1427805 L27.5399122,70.4824732 L26.0579268,51.7420634 L26.7248293,50.097278 L24.9834829,50.0281512 L23.2419561,50.097278 Z" id="Fill-27" fill="#0E5E9A"></path>
                    <path d="M17.3084195,46.9266488 L3.51536098,51.3289268 C3.51536098,51.3289268 3.31086829,51.4354146 3.01956098,51.6855707 C8.69229268,64.8126293 21.7543756,73.9998195 36.9640829,73.9998195 C42.0444537,73.9998195 46.8853171,72.9741073 51.2917463,71.1197756 C50.2700049,64.2958927 49.0820341,56.6870683 48.7753854,55.0803659 C48.247278,52.3167366 46.4508829,51.3289268 46.4508829,51.3289268 L32.7514976,46.9865707 C27.5491171,44.4929512 22.3974537,44.2884585 17.3084195,46.9266488 Z" id="Fill-28" fill="#0E7886"></path>
                    <path d="M19.7866976,42.1691707 C17.9085415,43.053922 18.0543756,43.9614146 18.0543756,43.9614146 L17.8428439,46.6995951 C22.304322,44.4823024 27.6612,44.4823024 32.1239415,46.6995951 L31.9118683,43.9614146 C31.9118683,43.9614146 32.0077073,43.1526488 30.1795463,42.1691707 C27.5962244,40.7795951 22.8436195,40.7294195 19.7866976,42.1691707 Z" id="Fill-29" fill="#FFFFFF"></path>
                    <path d="M17.3394634,12.8195073 C14.614639,14.8055951 11.2460146,17.3104049 12.4684585,21.1930585 L14.9460146,29.0598 C16.0711756,32.633639 16.2375854,39.1346293 21.5090927,39.0683902 L24.9898,39.0247122 L28.4697854,39.0683902 C33.7412927,39.1346293 33.9077024,32.634361 35.0330439,29.0598 L37.5104195,21.1930585 C38.7330439,17.3098634 35.3636976,14.8055951 32.6394146,12.8195073 C29.533039,10.5549268 20.445839,10.5549268 17.3394634,12.8195073 Z" id="Fill-30" fill="#797979"></path>
                    <path d="M13.046561,25.2469951 L13.045839,25.2469951 C12.4854244,25.3365171 12.099722,25.8687756 12.1892439,26.4293707 L13.2757805,33.2449512 C13.3653024,33.8053659 13.897561,34.1910683 14.4579756,34.1015463 C15.0192927,34.0120244 15.4049951,33.4803073 15.3152927,32.9191707 L14.2289366,26.1043122 C14.1394146,25.5431756 13.6071561,25.1574732 13.046561,25.2469951 Z" id="Fill-31" fill="#807D7D"></path>
                    <path d="M11.196561,26.6076927 L12.1921317,26.4490439 L13.2532195,33.1045317 L12.2513317,33.2639024 C11.7077024,33.3507171 11.1916878,32.9769268 11.1055951,32.4332976 L10.360361,27.7619122 C10.2730049,27.2141317 10.6495024,26.6952293 11.196561,26.6076927 Z" id="Fill-32" fill="#1FD0C2"></path>
                    <path d="M37.2030488,25.2469951 C37.7641854,25.3365171 38.1498878,25.8687756 38.0603659,26.4293707 L36.9738293,33.2449512 C36.8843073,33.8053659 36.3520488,34.1910683 35.7916341,34.1015463 L35.7909122,34.1015463 C35.2303171,34.0120244 34.8447951,33.4803073 34.9343171,32.9191707 L36.0206732,26.1043122 C36.1101951,25.5431756 36.6419122,25.1574732 37.2030488,25.2469951 Z" id="Fill-33" fill="#807D7D"></path>
                    <path d="M39.0523268,26.6076927 L38.0567561,26.4490439 L36.9958488,33.1045317 L37.998278,33.2639024 C38.5419073,33.3507171 39.0572,32.9769268 39.1440146,32.4332976 L39.8892488,27.7619122 C39.9766049,27.2141317 39.6001073,26.6952293 39.0523268,26.6076927 Z" id="Fill-34" fill="#1FD0C2"></path>
                    <path d="M38.1379756,26.4456146 C39.4021122,20.1375659 36.9556,15.7284293 33.115361,13.283361 C30.739239,11.7703317 27.8295951,10.9991073 24.929878,10.9862927 C22.0321463,10.9729366 19.1479512,11.7167268 16.8185756,13.2326439 C13.1220049,15.6389073 10.8236732,20.0191659 12.1116341,26.4456146 L11.2776,26.6120244 C9.90914146,19.7838098 12.3845317,15.1064683 16.3567073,12.521161 C18.8265024,10.9130146 21.8756634,10.1248244 24.9334878,10.1389024 C27.987522,10.1522585 31.0572585,10.9687854 33.5707317,12.5684488 C37.6894634,15.1911171 40.3171854,19.8986 38.9720098,26.6120244 L38.1379756,26.4456146 Z" id="Fill-35" fill="#1FD0C2"></path>
                </g>
            </g>
        </g>
    </g>
</svg>