<?xml version="1.0" encoding="UTF-8"?>
<svg width="74px" height="74px" viewBox="0 0 74 74" version="1.1" xmlns="http://www.w3.org/2000/svg" xmlns:xlink="http://www.w3.org/1999/xlink">
    <!-- Generator: Sketch 41.2 (35397) - http://www.bohemiancoding.com/sketch -->
    <title>06 Icon Marketplace</title>
    <desc>Created with Sketch.</desc>
    <defs>
        <polygon id="path-1" points="0.0108029197 0.108029197 0.0108029197 73.9996399 73.8916107 73.9996399 73.8916107 0.108029197 0.0108029197 0.108029197"></polygon>
    </defs>
    <g id="Page-1" stroke="none" stroke-width="1" fill="none" fill-rule="evenodd">
        <g id="01-Verify-Email" transform="translate(-294.000000, -814.000000)">
            <g id="Timeline" transform="translate(173.000000, 162.000000)">
                <g id="06-Icon-Marketplace" transform="translate(121.000000, 652.000000)">
                    <g id="Group-3">
                        <mask id="mask-2" fill="white">
                            <use xlink:href="#path-1"></use>
                        </mask>
                        <g id="Clip-2"></g>
                        <path d="M36.9458054,73.8916107 C57.2956253,73.8916107 73.8916107,57.2949051 73.8916107,36.9458054 C73.8916107,16.5968856 57.2956253,0 36.9458054,0 C16.5968856,0 0,16.5968856 0,36.9458054 C0,57.2949051 16.5968856,73.8916107 36.9458054,73.8916107 Z" id="Fill-1" fill="#FF757C" mask="url(#mask-2)"></path>
                    </g>
                    <path d="M11.562545,47.3715231 L15.9132409,47.3715231 L16.2663163,51.037854 L17.3304039,51.8199854 L23.665236,53.8278881 C23.665236,53.8278881 24.4958005,54.2843114 24.7397664,55.5622968 C24.8467153,56.1227883 25.0739367,67.3378394 25.3101606,72.1282141 C16.0214501,69.0477616 8.36740146,62.3823601 3.98987835,53.7702725 L10.1889538,51.792618 L11.21091,51.0385742 L11.562545,47.3715231 Z" id="Fill-5" fill="#F0B97D"></path>
                    <path d="M16.9485207,52.9404282 C15.8984769,54.1661995 12.3923893,54.6959027 10.4611873,52.6006764 L13.7378929,62.3549927 L16.9485207,52.9404282 Z" id="Fill-6" fill="#FFFFFF"></path>
                    <path d="M8.30618491,41.802618 C6.94177616,41.5606326 8.10507056,45.635674 9.1016399,45.0280097 L9.63674453,46.5985742 C10.1185547,48.0128564 11.3338832,49.3021849 12.2595134,50.3219805 C12.6203309,50.7193479 14.8315085,50.7130462 15.1880049,50.3367445 C16.2128418,49.2598735 17.4296107,48.0495864 17.8867543,46.5908321 L18.3755864,45.0280097 C19.3741363,45.6349538 20.5347299,41.5613528 19.1710414,41.802618 C19.265927,38.6307007 17.0223406,35.5529489 13.7393333,35.5396253 C10.4554258,35.5529489 8.21255961,38.6307007 8.30690511,41.802618 L8.30618491,41.802618 Z" id="Fill-7" fill="#FED198"></path>
                    <path d="M10.189674,51.7918978 L3.99059854,53.7702725 C8.38144526,62.4097275 16.0707835,69.0898929 25.3994647,72.1570219 C25.1322725,69.0252555 24.8600389,56.191747 24.7397664,55.5622968 C24.4965207,54.2843114 23.6657762,53.8278881 23.6657762,53.8278881 L17.3311241,51.8199854 L13.7386131,62.3549927 L10.1903942,51.7918978 L10.189674,51.7918978 Z" id="Fill-8" fill="#FBB429"></path>
                    <path d="M17.6546715,36.1642141 C18.0399757,36.1184818 19.4319319,37.3907056 19.5991971,38.8642238 C19.7666423,40.3363017 19.4459757,41.820983 19.4459757,41.820983 C18.4661509,41.77309 18.7749343,43.2710949 18.5619367,43.508219 L18.285562,43.5138005 L18.1827543,42.5087689 C16.9618443,41.7442822 18.6638443,38.7228856 17.4429343,38.4569538 C15.3540097,40.1787591 12.254472,40.8152311 9.55104136,40.3728516 C8.79141606,40.4733187 9.8963747,41.4333382 9.57570803,42.5375766 C9.33930414,42.9489878 9.47992214,43.5989635 9.47992214,43.5989635 L9.12684672,43.6432555 C9.12684672,43.6432555 8.90394647,41.7801119 8.22318248,41.7871338 C8.05789781,40.9284818 7.98965937,40.4164234 8.03539173,39.6553577 C8.26819465,35.7625255 13.5014891,33.5464866 17.6539513,36.1642141 L17.6546715,36.1642141 Z" id="Fill-9" fill="#797979"></path>
                    <path d="M54.563927,51.3219708 C55.544292,49.6734453 57.0894696,47.7604282 55.5203455,44.851562 C53.2099611,34.7511922 63.8567786,32.7024185 65.4665937,36.8718054 C68.0857616,37.8591922 68.0162628,43.2964818 66.6685985,46.1414307 C66.6088224,47.3124672 65.3915134,48.3337032 67.5913479,51.3550998 L67.7503309,51.3199903 L67.7496107,51.3199903 C64.8956594,52.147674 57.5797421,51.7657908 54.563927,51.3219708 Z" id="Fill-15" fill="#797979"></path>
                    <path d="M59.4574696,49.1930754 C59.3598832,51.0013041 58.7176496,51.6849489 57.827309,52.1609976 C57.3750268,52.5605255 53.3991922,53.039455 52.861927,54.4919075 C52.7479562,54.7999708 52.4040633,64.4100681 52.0783552,70.7679465 C59.6890122,67.3463017 65.9316594,61.4230608 69.759674,54.0444866 C68.6174453,52.8291582 65.2860049,52.5387397 64.8934988,52.2110511 C64.0227835,51.7236594 63.3967543,51.0068856 63.299708,49.1930754 C63.299708,49.1930754 61.9986764,50.2024282 61.1898978,50.0468662 C60.380219,49.8914842 59.4574696,49.1930754 59.4574696,49.1930754 Z" id="Fill-16" fill="#F0B97D"></path>
                    <path d="M57.3617032,46.2258735 C58.16418,47.9453382 58.4609002,48.6163796 59.4574696,49.3900487 C59.4574696,49.3900487 60.380219,50.101781 61.1891776,50.2600438 C61.9986764,50.4190268 63.299708,49.3900487 63.299708,49.3900487 C64.2969976,48.6170998 64.5938978,47.9460584 65.3963747,46.2258735 C65.5926277,46.3306618 65.7986034,46.4734404 65.9583066,46.2897908 C66.1180097,46.1068613 66.8788954,43.7284185 66.7418783,43.4075718 C66.6046813,43.0869051 66.4710852,43.2916204 66.26709,43.4370998 C66.2775328,43.367601 66.1052263,44.2966521 66.1081071,44.1553139 C66.1277324,43.0327105 65.3387591,42.8541022 65.0911922,39.8832993 C61.4527689,43.493455 58.0538102,41.8371873 56.8692701,42.0782725 C56.5260973,42.1486715 56.4256302,43.027129 56.4888273,43.4370998 C55.2052603,42.5208321 56.7652019,46.2525207 56.7983309,46.2897908 C56.9580341,46.4734404 57.1632895,46.331382 57.3602628,46.2258735 L57.3617032,46.2258735 Z" id="Fill-17" fill="#FED198"></path>
                    <path d="M57.8265888,52.1604574 C56.3235426,52.7891873 53.9850706,52.8172749 52.8147543,54.3484088 C52.5925742,54.6381071 51.5403698,64.9747007 50.7553577,71.3305985 C58.9652165,68.0195036 65.71218,61.8458151 69.759674,54.0452068 C68.524,52.6534307 66.0841606,52.7800049 64.920146,52.1554161 L61.5062433,59.1337421 L57.8265888,52.1604574 Z" id="Fill-18" fill="#FBB429"></path>
                    <path d="M59.4378443,55.2085012 C60.5004915,55.5862433 62.3067397,55.5884039 63.4270024,55.2070608 L61.5062433,59.1337421 L59.4371241,55.2085012 L59.4378443,55.2085012 Z" id="Fill-20" fill="#FFFFFF"></path>
                    <path d="M33.4060487,42.14309 L41.7628273,42.14309 L42.4401703,49.1860535 L44.4846229,50.6869392 L56.6533917,54.5439416 C56.6533917,54.5439416 58.2493431,55.4216788 58.7176496,57.8770024 C58.9652165,59.1731727 59.5462336,62.5047932 60.0941217,65.8468564 C53.7607299,70.9460146 45.709854,73.9996399 36.9458054,73.9996399 C28.5553577,73.9996399 20.8195669,71.2006034 14.6163504,66.4876496 C15.3484282,62.9261071 16.2227445,59.0788273 16.4519465,57.8762822 C16.8457129,55.8127445 18.5162044,54.5432214 18.5162044,54.5432214 L30.7672555,50.6327445 L32.7287056,49.1853333 L33.4053285,42.1416496 L33.4060487,42.14309 Z" id="Fill-25" fill="#F0B97D"></path>
                    <path d="M43.7511046,52.8390608 C41.7340195,55.1951776 34.9998394,56.2120925 31.2897567,52.1878248 L37.5851582,70.9235085 L43.7518248,52.8390608 L43.7511046,52.8390608 Z" id="Fill-26" fill="#1FD0C2"></path>
                    <path d="M27.1500779,31.4456788 C24.5294696,30.9807932 26.7633333,38.8078686 28.6776107,37.6404331 L29.7044282,40.6576886 C30.6300584,43.3753431 32.9643893,45.850292 34.7409294,47.8090414 C35.4344769,48.5728078 39.6818248,48.5607445 40.3681703,47.8378491 C42.335382,45.7687299 44.6731338,43.445562 45.5501509,40.6422044 L46.4898248,37.6404331 C48.406983,38.8066083 50.6365255,30.9815134 48.0180779,31.4456788 C48.1995669,25.3528321 43.8910024,19.4414745 37.5837178,19.4146472 C31.2764331,19.4414745 26.9685888,25.3528321 27.1500779,31.4456788 Z" id="Fill-27" fill="#FED198"></path>
                    <path d="M30.7672555,50.6341849 L18.5162044,54.5446618 C18.5162044,54.5446618 16.8457129,55.8134647 16.4519465,57.8770024 C16.2227445,59.0788273 15.3484282,62.9266472 14.6170706,66.4883698 C20.8195669,71.2011436 28.5560779,73.9996399 36.9458054,73.9996399 C45.709854,73.9996399 53.7607299,70.9465547 60.0941217,65.8468564 C59.5462336,62.504073 58.9652165,59.1731727 58.7176496,57.8762822 C58.2486229,55.422399 56.6533917,54.5446618 56.6533917,54.5446618 L44.4853431,50.6876594 L37.584438,70.9240487 L30.7672555,50.6341849 Z" id="Fill-28" fill="#0E7886"></path>
                    <path d="M45.1077713,20.6146715 C45.8477713,20.5287883 48.5223942,22.9706083 48.8430608,25.8007932 C49.1639075,28.6295377 48.547781,31.4815085 48.547781,31.4815085 C46.6664526,31.3893236 47.2586326,34.2674015 46.8484818,34.7216642 L46.3196788,34.7337275 L46.1219854,32.8023455 C43.7779319,31.3338686 47.0461752,25.5292798 44.7019416,25.0208224 C40.688837,28.3265158 34.7360681,29.5495864 29.5420243,28.6999367 C28.0839903,28.8940292 30.2053236,30.7373674 29.5899173,32.8572603 C29.1361946,33.6491144 29.4069878,34.8968516 29.4069878,34.8968516 L28.7289246,34.9812944 C28.7289246,34.9812944 28.3007689,31.4028273 26.9932555,31.4175912 C26.6752895,29.7674453 26.5452944,28.7836594 26.632438,27.3227445 C27.080399,19.8444234 37.1335961,15.5866326 45.1084915,20.6152117 L45.1077713,20.6146715 Z" id="Fill-29" fill="#797979"></path>
                </g>
            </g>
        </g>
    </g>
</svg>