<?xml version="1.0" encoding="UTF-8"?>
<svg width="74px" height="74px" viewBox="0 0 74 74" version="1.1" xmlns="http://www.w3.org/2000/svg" xmlns:xlink="http://www.w3.org/1999/xlink">
    <!-- Generator: Sketch 41.2 (35397) - http://www.bohemiancoding.com/sketch -->
    <title>04 Icon meet your advocate</title>
    <desc>Created with Sketch.</desc>
    <defs>
        <polygon id="path-1" points="0.0108292683 0.0712992701 0.0108292683 73.8195912 73.9281659 73.8195912 73.9281659 0.0712992701 0.0108292683 0.0712992701"></polygon>
    </defs>
    <g id="Page-1" stroke="none" stroke-width="1" fill="none" fill-rule="evenodd">
        <g id="01-Verify-Email" transform="translate(-294.000000, -589.000000)">
            <g id="Timeline" transform="translate(173.000000, 162.000000)">
                <g id="04-Icon-meet-your-advocate" transform="translate(121.000000, 427.000000)">
                    <g id="Group-3">
                        <mask id="mask-2" fill="white">
                            <use xlink:href="#path-1"></use>
                        </mask>
                        <g id="Clip-2"></g>
                        <path d="M36.9640829,73.748292 C57.3232878,73.748292 73.9281659,57.1830949 73.9281659,36.874146 C73.9281659,16.5644769 57.3232878,0 36.9640829,0 C16.604878,0 0,16.5644769 0,36.874146 C0,57.1838151 16.6056,73.748292 36.9640829,73.748292 Z" id="Fill-1" fill="#5DDDD3" mask="url(#mask-2)"></path>
                    </g>
                    <path d="M50.6345902,38.8935718 C51.7732878,36.9848759 53.5675171,34.7679367 51.7449512,31.3990462 C49.0630829,19.6980438 61.4257756,17.3250024 63.2954488,22.1539075 C66.3370293,23.2982968 66.2559902,29.5971192 64.691522,32.89291 C64.6216732,34.2495766 63.2088146,35.4324964 65.763078,38.931562 L65.9471756,38.8921314 C62.6334195,39.8501703 54.1385805,39.4083309 50.6345902,38.8935718 Z" id="Fill-4" fill="#797979"></path>
                    <path d="M53.8833707,32.8331338 C54.8154098,34.7863017 55.1594195,35.5493479 56.3185122,36.4270852 C56.0477805,41.4023698 52.2180098,39.0251873 49.4177415,43.5354063 C49.1758878,43.9250316 48.4187415,45.8711776 47.7509366,47.7638491 C50.8546049,49.790837 54.5630878,50.9701557 58.5493415,50.9701557 C62.5348732,50.9701557 66.2438976,49.790837 69.3475659,47.7638491 C68.679761,45.8704574 67.9226146,43.9250316 67.680761,43.5354063 C64.8804927,39.0251873 61.05,41.4023698 60.7799902,36.4270852 C61.937639,35.5486277 62.2823707,34.7863017 63.2151317,32.8331338 C63.4429073,32.9519659 63.6825951,33.1138297 63.8679561,32.9055134 C64.0534976,32.6973771 64.9360829,29.9952068 64.7774341,29.629528 C64.6187854,29.2652895 64.4644683,29.4973723 64.2269463,29.6631971 C64.2395805,29.5845158 64.039961,30.6394209 64.0428488,30.4791776 C64.0654098,29.204073 63.1488927,28.0794891 62.8619171,24.7035766 C60.2026098,29.6091825 52.5452341,27.5920973 52.8717366,29.6631971 C51.3805463,28.6216156 53.1931854,32.863382 53.2305463,32.9055134 C53.4159073,33.1138297 53.6541512,32.9519659 53.8833707,32.8331338 Z" id="Fill-5" fill="#FED198"></path>
                    <path d="M55.700161,38.750073 C55.3716732,39.264292 54.9330878,39.5934209 54.4233902,39.8642141 L54.4241122,39.8656545 L58.6966195,47.9431776 L62.6610341,39.8591727 C62.0934,39.5554307 61.6140244,39.1776886 61.279761,38.5496788 L61.2792195,38.5489586 L58.5682927,39.8944623 L58.4850878,39.9000438 L56.0802683,38.6164769 L55.700161,38.7507932 L55.700161,38.750073 Z" id="Fill-6" fill="#ECF0F1"></path>
                    <polygon id="Fill-7" fill="#FFCA4F" points="57.8822585 39.9259708 58.134761 40.6771338 57.5734439 49.2449294 58.5428439 50.138871 59.5129659 49.2449294 58.9503854 40.6771338 59.2036098 39.9259708 58.5428439 39.8937421 57.8829805 39.9259708"></polygon>
                    <path d="M54.4241122,39.8642141 C53.0042146,40.6209586 51.0378,40.9254209 49.4170195,43.5354063 C49.1751659,43.9250316 48.4180195,45.8711776 47.7502146,47.7638491 C50.8538829,49.790837 54.5623659,50.9701557 58.5486195,50.9701557 C62.5341512,50.9701557 66.2431756,49.790837 69.346122,47.7638491 C68.6792195,45.8704574 67.9218927,43.9250316 67.6793171,43.5354063 C66.0543854,40.9176788 64.0823756,40.6195182 62.6603122,39.8584526 L58.5782195,47.8432506 L54.4241122,39.8649343 L54.4233902,39.8642141 L54.4241122,39.8642141 Z" id="Fill-8" fill="#14BDB1"></path>
                    <path d="M56.0062683,37.7922141 L55.3624683,39.1319562 L57.2774439,42.3406034 L58.5294878,39.8937421 L56.0069902,37.7922141 L56.0062683,37.7922141 Z M61.0909707,37.7922141 L61.7457805,39.1009878 L59.8205171,42.3406034 L58.5682927,39.8937421 L61.0909707,37.7922141 Z" id="Fill-9" fill="#FFFFFF"></path>
                    <path d="M54.7498927,39.674983 L58.5789415,47.1153139 L62.3507756,39.6784039 C62.5404683,39.7986764 62.7427951,39.9049051 62.9543268,40.0069927 L58.5789415,48.5367981 L54.1618634,39.99709 C54.3683415,39.8978832 54.5650732,39.7930949 54.7498927,39.6757032 L54.7498927,39.674983 Z" id="Fill-10" fill="#1FD0C2"></path>
                    <polygon id="Fill-11" fill="#F0B97D" points="18.4056049 35.1541411 25.9041512 35.1541411 26.5120341 41.4599854 27.5913512 42.3236788 29.8665805 43.7689294 22.1541561 61.9412409 14.4426341 43.7689294 16.7176829 42.3236788 17.797722 41.4607056 18.4048829 35.1546813"></polygon>
                    <polygon id="Fill-12" fill="#ECF0F1" points="15.9309366 42.7900049 9.71457561 44.7690998 22.1556 61.9412409 32.7395854 44.1931241 28.3477756 42.8040487 24.4801024 45.5272847 19.8437317 45.5272847 15.9309366 42.7892847"></polygon>
                    <polygon id="Fill-13" fill="#FFCA4F" points="20.7672878 45.2775572 21.2990049 46.5857908 20.1180732 61.4882384 22.156322 63.0440389 24.1931268 61.4882384 23.0121951 46.5857908 23.5437317 45.2775572 22.1556 45.2226423 20.7680098 45.2775572"></polygon>
                    <path d="M16.0379659,42.7561557 L5.04300976,46.257382 C5.04300976,46.257382 3.61047805,47.0429343 3.19030244,49.2407883 C3.11052683,49.6599416 3.06757073,50.508871 3.04861951,51.6264331 C8.29467805,63.6698881 19.7966244,72.372 33.4628,73.6535864 L34.0918,63.2114842 L34.6875902,73.7477518 C35.4404049,73.7942044 36.1989951,73.8201314 36.963361,73.8201314 C38.821122,73.8201314 40.6456732,73.681674 42.4301561,73.4171825 C42.0854244,68.2555474 41.5044341,51.2501314 41.1201756,49.2407883 C40.699278,47.0429343 39.2672878,46.257382 39.2672878,46.257382 L28.3477756,42.8047689 L22.245122,62.7626229 L16.0379659,42.7568759 L16.0379659,42.7561557 Z" id="Fill-14" fill="#14BDB1"></path>
                    <path d="M16.0379659,42.7561557 L13.6663561,43.5116399 L13.2108049,49.5142822 C13.2108049,49.5142822 13.3364244,50.0074355 13.712922,49.9636837 L15.8533268,50.7661606 C15.8533268,50.7661606 15.9935659,50.9062384 15.8688488,51.0834063 L14.0365366,52.3352847 L22.378322,67.4404672 L30.2746634,52.3352847 L28.4430732,51.0834063 C28.3176341,50.9062384 28.4578732,50.7661606 28.4578732,50.7661606 L30.5975561,49.9636837 C30.9747756,50.0081557 31.1002146,49.5142822 31.1002146,49.5142822 L30.6462878,43.530545 L28.3472341,42.8040487 L22.245122,62.7619027 L16.0372439,42.7561557 L16.0379659,42.7561557 Z" id="Fill-15" fill="#1FD0C2"></path>
                    <path d="M12.9992732,22.096292 C12.9992732,22.7102579 12.7743854,23.3116204 12.7913512,23.9010998 C10.6846976,23.5112944 11.7021073,29.7532214 12.8936878,30.6120535 C12.9888049,30.6795718 13.2221756,30.5283309 13.4181854,30.4031971 C13.831322,32.6988175 17.360039,38.8345158 19.6040439,41.4164136 C20.2272683,42.1330073 24.0373659,42.1211241 24.6542732,41.4430608 C26.9518829,38.9189586 30.4769902,32.7114209 30.8922927,30.4024769 C31.0890244,30.5276107 31.3216732,30.6788516 31.4160683,30.6113333 C32.6083707,29.7532214 33.6257805,23.5107543 31.5191268,23.9003796 C31.5360927,23.3109002 31.3110244,22.7095377 31.3110244,22.0955718 C31.1940683,17.2483017 26.7912488,14.8282676 22.154878,14.8072019 C17.5185073,14.8275474 13.1156878,17.2483017 12.9987317,22.0955718 L12.9992732,22.096292 Z" id="Fill-16" fill="#FED198"></path>
                    <path d="M15.8222829,15.8817324 C15.1580878,15.8044915 12.758322,16.5380097 12.4699024,19.0712944 C12.1814829,21.6040389 12.3190146,23.9383698 12.3190146,23.9383698 C12.3190146,23.9383698 13.7248341,24.2919854 13.9024341,25.729674 C14.0787707,27.1671825 13.9533317,27.1671825 13.9533317,27.1671825 L14.4623073,27.0532117 L14.8254488,24.5881655 C16.9292146,23.27291 14.8092049,21.3255036 16.9136927,20.8690803 C22.5954488,24.9088321 27.609039,24.2174453 29.8700098,22.3172117 C29.8700098,22.3172117 29.3419024,24.3047689 29.7494439,25.0129002 C30.1562634,25.7226521 29.9129659,26.8387737 29.9129659,26.8387737 L30.4425171,26.8133869 C30.4425171,26.8133869 30.346678,23.8863358 31.5198488,23.8996594 C35.9777171,16.5569148 21.8651951,7.43709002 15.8230049,15.880472 L15.8222829,15.8817324 Z" id="Fill-17" fill="#797979"></path>
                    <path d="M17.7462829,40.5597421 C17.9034878,40.5709051 15.9110829,42.8132311 15.9110829,42.8132311 L17.6074878,48.6084574 L22.156322,45.2226423 C19.6534976,43.9983114 18.1615854,42.4115426 17.7462829,40.5597421 Z" id="Fill-18" fill="#FFFFFF"></path>
                    <path d="M26.5649171,40.5597421 C26.4075317,40.5709051 28.4001171,42.8132311 28.4001171,42.8132311 L26.7037122,48.6084574 L22.1556,45.2226423 C24.6569805,43.9983114 26.1510585,42.4115426 26.5649171,40.5597421 Z" id="Fill-19" fill="#FFFFFF"></path>
                    <path d="M47.308922,24.3919124 L50.7107561,27.8747737 L49.7828683,24.3919124 L50.0635268,24.3919124 C50.4907415,24.3919124 50.8398049,24.0431582 50.8398049,23.6175231 L50.8398049,17.2969148 C50.8398049,16.8707397 50.4914634,16.5225255 50.0635268,16.5225255 L38.3606976,16.5225255 C37.9342049,16.5225255 37.5844195,16.8707397 37.5844195,17.2969148 L37.5844195,23.6175231 C37.5844195,24.0431582 37.9334829,24.3919124 38.3606976,24.3919124 L47.308922,24.3919124 Z" id="Fill-20" fill="#FFFFFF"></path>
                    <path d="M39.3060927,18.0655426 L48.3129756,18.0655426 L48.3129756,17.6071387 L39.3060927,17.6071387 L39.3060927,18.0655426 Z M39.3060927,21.2376399 L44.6425756,21.2376399 L44.6425756,20.7783358 L39.3060927,20.7783358 L39.3060927,21.2376399 Z M39.3060927,20.1803942 L48.3129756,20.1803942 L48.3129756,19.7212701 L39.3060927,19.7212701 L39.3060927,20.1803942 Z M39.3060927,19.1226083 L48.3129756,19.1226083 L48.3129756,18.6642044 L39.3060927,18.6642044 L39.3060927,19.1226083 Z" id="Fill-21" fill="#C8CACC"></path>
                    <path d="M37.8185122,37.5313236 L33.8082537,41.6364331 L34.9011073,37.5313236 L34.5697317,37.5313236 C34.0663512,37.5313236 33.6553805,37.1204526 33.6553805,36.619017 L33.6553805,29.1687835 C33.6553805,28.6673479 34.0670732,28.2566569 34.5697317,28.2566569 L48.3636927,28.2566569 C48.8670732,28.2566569 49.2780439,28.6673479 49.2780439,29.1687835 L49.2780439,36.619017 C49.2780439,37.1211727 48.8663512,37.5313236 48.3636927,37.5313236 L37.8177902,37.5313236 L37.8185122,37.5313236 Z" id="Fill-22" fill="#FFFFFF"></path>
                    <path d="M36.6348732,30.0747883 L47.2511659,30.0747883 L47.2511659,29.5339221 L36.6348732,29.5339221 L36.6348732,30.0747883 Z M40.9608049,33.8127786 L47.2511659,33.8127786 L47.2511659,33.2719124 L40.9608049,33.2719124 L40.9608049,33.8127786 Z M36.6348732,32.5672019 L47.2511659,32.5672019 L47.2511659,32.0263358 L36.6348732,32.0263358 L36.6348732,32.5672019 Z M36.6348732,31.3209051 L47.2511659,31.3209051 L47.2511659,30.780219 L36.6348732,30.780219 L36.6348732,31.3209051 Z" id="Fill-23" fill="#C8CACC"></path>
                </g>
            </g>
        </g>
    </g>
</svg>