<?xml version="1.0" encoding="UTF-8"?>
<svg width="85px" height="85px" viewBox="0 0 85 85" version="1.1" xmlns="http://www.w3.org/2000/svg" xmlns:xlink="http://www.w3.org/1999/xlink">
    <!-- Generator: Sketch 41.2 (35397) - http://www.bohemiancoding.com/sketch -->
    <title>ninja</title>
    <desc>Created with Sketch.</desc>
    <defs>
        <path d="M0.0739130435,40.0182866 C0.63762054,30.4125093 4.39529343,21.6648817 10.3002528,14.8221711 C18.0791774,6.02061597 29.4529468,0.47057971 42.1230435,0.47057971 C65.5707246,0.47057971 84.5786957,19.4785507 84.5786957,42.9262319 C84.5786957,53.4760113 80.7308051,63.1270351 74.3619237,70.5524036 L74.3619237,70.5524036 C66.5811247,79.4095857 55.1710865,85 42.4556522,85 C19.8560725,85 1.3808431,67.3421963 0.0739130435,45.070538 L0.0739130435,40.0182866 L0.0739130435,40.0182866 Z" id="path-1"></path>
        <path d="M0.0739130435,40.0182866 C0.63762054,30.4125093 4.39529343,21.6648817 10.3002528,14.8221711 C18.0791774,6.02061597 29.4529468,0.47057971 42.1230435,0.47057971 C65.5707246,0.47057971 84.5786957,19.4785507 84.5786957,42.9262319 C84.5786957,53.4760113 80.7308051,63.1270351 74.3619237,70.5524036 L74.3619237,70.5524036 C66.5811247,79.4095857 55.1710865,85 42.4556522,85 C19.8560725,85 1.3808431,67.3421963 0.0739130435,45.070538 L0.0739130435,40.0182866 L0.0739130435,40.0182866 Z" id="path-3"></path>
        <path d="M75.2200853,58.4574702 C67.433281,67.8963855 55.6469299,73.9130435 42.4556522,73.9130435 C19.8560725,73.9130435 1.3808431,56.2552398 0.0739130435,33.9835815 L0.0739130435,28.9313301 C0.723393737,17.8639469 5.6127692,7.93573193 13.1411888,0.747671176 L71.769052,0.747671176 C72.9912307,1.9146196 74.1438586,3.15378759 75.2200853,4.45832488 L75.2200853,58.4574702 L75.2200853,58.4574702 Z" id="path-5"></path>
    </defs>
    <g id="Page-1" stroke="none" stroke-width="1" fill="none" fill-rule="evenodd">
        <g id="04.1.1---Phone-Screen-Rejected" transform="translate(-943.000000, -380.000000)">
            <g id="First-tab" transform="translate(569.000000, 202.000000)">
                <g id="Content" transform="translate(114.000000, 178.000000)">
                    <g id="ninja" transform="translate(260.000000, 0.000000)">
                        <g id="Group-3">
                            <mask id="mask-2" fill="white">
                                <use xlink:href="#path-1"></use>
                            </mask>
                            <g id="Clip-2"></g>
                            <polygon id="Fill-1" fill="#72BF93" mask="url(#mask-2)" points="0.0739130435 85 84.6304348 85 84.6304348 0.443478261 0.0739130435 0.443478261"></polygon>
                        </g>
                        <g id="Group-29">
                            <mask id="mask-4" fill="white">
                                <use xlink:href="#path-3"></use>
                            </mask>
                            <g id="Clip-5"></g>
                            <polyline id="Fill-4" fill="#B2D593" mask="url(#mask-4)" points="22.9906522 40.6755797 163.033696 -1257.24486 18.5681884 -1257.24486 22.7960145 40.7445652"></polyline>
                            <polyline id="Fill-6" fill="#B2D593" mask="url(#mask-4)" points="22.9906522 40.5376087 -177.700507 -1249.53326 -317.243406 -1212.14681 22.8021739 40.5881159"></polyline>
                            <polyline id="Fill-7" fill="#B2D593" mask="url(#mask-4)" points="22.9906522 40.5376087 -504.757101 -1153.63601 -629.868478 -1081.40449 22.8231159 40.6349275"></polyline>
                            <polyline id="Fill-8" fill="#B2D593" mask="url(#mask-4)" points="22.9906522 40.5376087 -795.848841 -976.354348 -898.002826 -874.202826 22.853913 40.6755797"></polyline>
                            <polyline id="Fill-9" fill="#B2D593" mask="url(#mask-4)" points="22.9906522 40.5376087 -1031.13746 -729.773043 -1103.37268 -604.662899 22.8957971 40.7076087"></polyline>
                            <polyline id="Fill-10" fill="#B2D593" mask="url(#mask-4)" points="22.9906522 40.5376087 -1194.59123 -430.697464 -1231.98261 -291.153333 22.9426087 40.726087"></polyline>
                            <polyline id="Fill-11" fill="#B2D593" mask="url(#mask-4)" points="23.1618841 40.5376087 -1274.72899 -99.5066667 -1274.72899 44.9600725 23.2505797 40.7322464"></polyline>
                            <polyline id="Fill-12" fill="#B2D593" mask="url(#mask-4)" points="22.8982609 40.5634783 -1267.27609 241.278043 -1229.88225 380.822174 22.9019565 40.7630435"></polyline>
                            <polyline id="Fill-13" fill="#B2D593" mask="url(#mask-4)" points="22.9081159 40.5868841 -1171.35174 568.382681 -1099.11899 693.494058 22.9635507 40.7778261"></polyline>
                            <polyline id="Fill-14" fill="#B2D593" mask="url(#mask-4)" points="22.9241304 40.6065942 -994.039275 859.515072 -891.88529 961.667826 23.0251449 40.7765942"></polyline>
                            <polyline id="Fill-15" fill="#B2D593" mask="url(#mask-4)" points="22.9450725 40.6226087 -747.418551 1094.83572 -622.307174 1167.06848 23.0855072 40.7581159"></polyline>
                            <polyline id="Fill-16" fill="#B2D593" mask="url(#mask-4)" points="22.9684783 40.6312319 -448.294928 1258.31167 -308.750797 1295.69935 23.1397101 40.726087"></polyline>
                            <polyline id="Fill-17" fill="#B2D593" mask="url(#mask-4)" points="22.9931159 39.791087 -117.054855 1337.10297 27.4131159 1337.10297 23.1828261 39.4165942"></polyline>
                            <polyline id="Fill-18" fill="#B2D593" mask="url(#mask-4)" points="22.9931159 40.5388406 223.679348 1330.61094 363.22471 1293.22326 23.1766667 40.4883333"></polyline>
                            <polyline id="Fill-19" fill="#B2D593" mask="url(#mask-4)" points="22.9931159 40.5388406 550.738406 1234.70877 675.849783 1162.47848 23.1581884 40.4415217"></polyline>
                            <polyline id="Fill-20" fill="#B2D593" mask="url(#mask-4)" points="22.9931159 40.5388406 841.832609 1057.43203 943.986594 955.278043 23.1286232 40.4008696"></polyline>
                            <polyline id="Fill-21" fill="#B2D593" mask="url(#mask-4)" points="22.9931159 40.5388406 1077.12123 810.851957 1149.35645 685.738116 23.0892029 40.3700725"></polyline>
                            <polyline id="Fill-22" fill="#B2D593" mask="url(#mask-4)" points="22.9931159 40.5388406 1240.58116 511.773913 1277.96884 372.228551 23.0423913 40.3503623"></polyline>
                            <polyline id="Fill-23" fill="#B2D593" mask="url(#mask-4)" points="22.8933333 40.5388406 1320.85072 180.583116 1320.85072 36.1151449 22.8452899 40.3442029"></polyline>
                            <polyline id="Fill-24" fill="#B2D593" mask="url(#mask-4)" points="22.8982609 40.5647101 1312.88043 -160.101812 1275.49275 -299.64471 22.800942 40.3873188"></polyline>
                            <polyline id="Fill-25" fill="#B2D593" mask="url(#mask-4)" points="22.9081159 40.5868841 1216.9992 -487.112826 1144.76399 -612.222971 22.7701449 40.4415217"></polyline>
                            <polyline id="Fill-26" fill="#B2D593" mask="url(#mask-4)" points="22.9241304 40.6065942 1039.74833 -778.165145 937.594348 -880.315435 22.7528986 40.5031159"></polyline>
                            <polyline id="Fill-27" fill="#B2D593" mask="url(#mask-4)" points="22.9450725 40.6226087 793.207681 -1013.42543 668.096304 -1085.65572 22.7528986 40.565942"></polyline>
                            <polyline id="Fill-28" fill="#B2D593" mask="url(#mask-4)" points="22.9684783 40.6312319 494.177681 -1176.85949 354.634783 -1214.24717 22.7701449 40.6263043"></polyline>
                        </g>
                        <g id="Group-60" transform="translate(0.000000, 11.086957)">
                            <mask id="mask-6" fill="white">
                                <use xlink:href="#path-5"></use>
                            </mask>
                            <g id="Clip-31"></g>
                            <path d="M18.8946377,77.3204348 C18.8946377,77.3204348 8.77224638,81.1207971 15.3357246,84.4025362 C21.9004348,87.6842754 14.3551449,92.5218841 27.3687681,92.5218841 C40.3836232,92.5218841 49.9984783,98.0493478 52.2725362,89.0664493 C54.5478261,80.0835507 67.797971,92.852029 70.3578261,87.8419565 C72.9164493,82.8318841 66.3615942,70.2383333 52.2725362,73.7048551 C37.5367391,77.3327536 24.5268116,69.7197101 18.8946377,77.3204348" id="Fill-30" fill="#1D92B6" mask="url(#mask-6)"></path>
                            <path d="M61.572029,85.3055072 C61.572029,85.3055072 65.2664493,73.8132609 63.7401449,73.7085507 C62.2113768,73.6050725 57.8591304,75.8557246 61.572029,85.3055072" id="Fill-34" fill="#2D2D2D" mask="url(#mask-6)"></path>
                            <path d="M62.8236232,58.2792029 C62.8236232,58.2792029 59.4593478,64.802029 52.9032609,62.8753623 L52.3686232,58.6857246 C52.3686232,58.6857246 58.7621014,62.4651449 62.3357971,57.2234783 C62.3357971,57.2234783 63.0983333,57.8135507 62.8236232,58.2792029" id="Fill-35" fill="#2D2D2D" mask="url(#mask-6)"></path>
                            <path d="M53.4822464,60.1492029 C52.4228261,76.0257246 52.6630435,78.2825362 50.1832609,80.7524638 C38.1797826,92.7115942 16.7992029,93.001087 16.7992029,49.4034783 C16.7992029,30.0542754 30.5482609,15.0388406 47.4792754,14.3674638 C77.7158696,13.1676087 54.7695652,40.8418841 53.4822464,60.1492029" id="Fill-36" fill="#3A3A39" mask="url(#mask-6)"></path>
                            <path d="M18.902029,37.5773913 C18.902029,37.5773913 31.2221014,58.415942 53.4822464,54.452971 C53.4822464,54.452971 43.1984783,61.1408696 33.4715217,55.9164493 C23.7445652,50.692029 30.2723188,85.17 40.6755797,86.8638406 C40.6755797,86.8638406 25.8634058,91.5363768 20.4677536,77.86 C15.6683333,65.6963768 15.1250725,44.2406522 18.902029,37.5773913" id="Fill-37" fill="#2D2D2D" mask="url(#mask-6)"></path>
                            <path d="M15.3369565,17.7625362 C15.3369565,17.7625362 5.60876812,17.691087 6.28384058,23.788913 C6.95768116,29.8867391 -7.60195652,24.8766667 -7.60195652,24.8766667 C-7.60195652,24.8766667 -5.17391304,32.6855797 1.87615942,33.3113768 C8.92746377,33.935942 9.33028986,30.9436957 9.33028986,30.9436957 C9.33028986,30.9436957 1.43268116,41.427029 5.23797101,45.5292029 C5.23797101,45.5292029 8.89050725,37.2324638 12.6502174,38.2364493 C16.4086957,39.2392029 23.0300725,19.8271739 15.3369565,17.7625362" id="Fill-38" fill="#2D2D2D" mask="url(#mask-6)"></path>
                            <path d="M71.5650725,19.4157246 C74.8172464,38.4902174 70.2888406,50.2263768 46.389058,54.3002174 C29.685942,57.1483333 14.3292754,48.8023188 11.0771014,29.7278261 C7.82492754,10.6521014 21.5407246,4.74152174 38.2450725,1.89463768 C54.9481884,-0.953478261 68.3128986,0.34 71.5650725,19.4157246" id="Fill-39" fill="#3A3A39" mask="url(#mask-6)"></path>
                            <path d="M17.1786232,26.4448551 C17.1786232,26.4448551 49.9972464,11.3826087 71.0033333,18.3612319 C71.0033333,18.3612319 76.1501449,27.5732609 48.9784783,32.2051449 C16.8263043,37.687029 17.1786232,26.4448551 17.1786232,26.4448551" id="Fill-40" fill="#F0AF88" mask="url(#mask-6)"></path>
                            <path d="M71.0033333,18.3612319 C71.0033333,18.3612319 38.0368841,14.4857246 22.366087,26.2982609 C19.2026087,32.0376087 30.377029,33.6131884 30.377029,33.6131884 C30.377029,33.6131884 18.2663768,33.9002174 17.0012319,26.4756522 C17.0012319,26.4756522 47.4041304,10.4476087 71.0033333,18.3612319" id="Fill-41" fill="#E88754" mask="url(#mask-6)"></path>
                            <path d="M25.0294203,29.665 C25.0294203,29.665 27.1544203,24.8815942 30.8513043,24.5576087 C30.8513043,24.5576087 24.3494203,23.3097101 25.0294203,29.665" id="Fill-42" fill="#2D2D2D" mask="url(#mask-6)"></path>
                            <path d="M58.0106522,20.804058 C58.0106522,20.804058 63.1784058,19.9663768 65.4721739,22.8822464 C65.4721739,22.8822464 62.9591304,16.7573188 58.0106522,20.804058" id="Fill-43" fill="#2D2D2D" mask="url(#mask-6)"></path>
                            <path d="M62.2569565,57.3355797 C62.2569565,57.3355797 62.0943478,56.4621739 62.5797101,56.1702174 C63.0663043,55.8782609 63.357029,56.428913 63.357029,56.428913 C63.357029,56.428913 64.2316667,56.9167391 64.1343478,57.2234783 C64.0382609,57.5302174 63.122971,58.1461594 62.8839855,58.1461594 C62.645,58.1461594 61.9637681,57.7568841 62.2569565,57.3355797" id="Fill-44" fill="#2D2D2D" mask="url(#mask-6)"></path>
                            <path d="M64.7256522,24.7904348 C64.5014493,24.808913 68.7194203,22.5200725 70.8961594,26.7478986 C72.1095652,29.1044928 68.1515217,24.5107971 64.7256522,24.7904348" id="Fill-45" fill="#1D92B6" mask="url(#mask-6)"></path>
                            <path d="M64.7773913,23.5043478 C64.6566667,23.5647101 66.4897101,21.3473188 68.6467391,23.2111594 C69.849058,24.2496377 66.6202899,22.5816667 64.7773913,23.5043478" id="Fill-46" fill="#1D92B6" mask="url(#mask-6)"></path>
                            <path d="M60.9757971,25.0047826 C60.8427536,24.9801449 63.6366667,24.2952174 64.2563043,27.0768116 C64.6012319,28.6277536 63.0047101,25.362029 60.9757971,25.0047826" id="Fill-47" fill="#1D92B6" mask="url(#mask-6)"></path>
                            <path d="M66.3615942,27.1556522 C66.3615942,27.1556522 70.6633333,29.2757246 70.3405797,30.5692029 C70.0165942,31.8614493 68.9904348,29.4297101 66.3615942,27.1556522" id="Fill-48" fill="#1D92B6" mask="url(#mask-6)"></path>
                            <path d="M72.0294928,25.1008696 C72.0294928,25.1008696 75.2274638,25.819058 75.2200725,26.7306522 C75.2126812,27.6422464 74.1397101,26.1898551 72.0294928,25.1008696" id="Fill-49" fill="#1D92B6" mask="url(#mask-6)"></path>
                            <path d="M28.017971,31.4068841 C28.2360145,31.3489855 23.4969565,30.5864493 22.844058,35.2971739 C22.4794203,37.9223188 24.6918841,32.2765942 28.017971,31.4068841" id="Fill-50" fill="#1D92B6" mask="url(#mask-6)"></path>
                            <path d="M27.5424638,30.2094928 C27.6767391,30.2255072 25.2117391,28.7423188 23.7950725,31.2147101 C23.0042029,32.5931884 25.4987681,29.9495652 27.5424638,30.2094928" id="Fill-51" fill="#1D92B6" mask="url(#mask-6)"></path>
                            <path d="M31.6273913,30.3647101 C31.7444203,30.2981884 28.8815217,30.5765942 29.2178261,33.4074638 C29.4063043,34.9855072 29.8313043,31.3748551 31.6273913,30.3647101" id="Fill-52" fill="#1D92B6" mask="url(#mask-6)"></path>
                            <path d="M27.2578986,34.1786232 C27.2578986,34.1786232 23.9010145,37.6044928 24.6352174,38.7181159 C25.3681884,39.8305072 25.5307971,37.1955072 27.2578986,34.1786232" id="Fill-53" fill="#1D92B6" mask="url(#mask-6)"></path>
                            <path d="M21.229058,34.1182609 C21.229058,34.1182609 18.4499275,35.8564493 18.7578986,36.7138406 C19.0683333,37.57 19.5992754,35.8453623 21.229058,34.1182609" id="Fill-54" fill="#1D92B6" mask="url(#mask-6)"></path>
                            <path d="M59.3595652,23.4821739 C59.3595652,23.4821739 63.5073188,23.6398551 63.5110145,24.2792029 C63.5147101,24.9197826 60.2662319,24.3913043 59.3595652,23.4821739" id="Fill-55" fill="#2D2D2D" mask="url(#mask-6)"></path>
                            <path d="M31.0286957,27.9391304 C31.0286957,27.9391304 27.1692029,29.4617391 27.3773913,30.0678261 C27.5855797,30.6726812 30.4755797,29.0971014 31.0286957,27.9391304" id="Fill-56" fill="#2D2D2D" mask="url(#mask-6)"></path>
                            <path d="M36.198913,61.7444928 C36.198913,61.7444928 32.8334058,68.2673188 26.2773188,66.3418841 L25.7426812,62.1510145 C25.7426812,62.1510145 32.1373913,65.9316667 35.711087,60.69 C35.711087,60.69 36.4736232,61.2800725 36.198913,61.7444928" id="Fill-57" fill="#2D2D2D" mask="url(#mask-6)"></path>
                            <path d="M35.6310145,60.8021014 C35.6310145,60.8021014 35.4696377,59.9274638 35.955,59.6355072 C36.4415942,59.3447826 36.7323188,59.8954348 36.7323188,59.8954348 C36.7323188,59.8954348 37.6069565,60.3832609 37.5096377,60.69 C37.4123188,60.9967391 36.497029,61.6114493 36.2580435,61.6114493 C36.0202899,61.6114493 35.339058,61.2221739 35.6310145,60.8021014" id="Fill-58" fill="#2D2D2D" mask="url(#mask-6)"></path>
                            <path d="M54.8065217,72.3965942 C54.8065217,72.3965942 65.6902174,71.5330435 68.9719565,76.9742754 C68.9719565,76.9742754 65.8626812,69.4610145 54.8065217,72.3965942" id="Fill-59" fill="#217D9C" mask="url(#mask-6)"></path>
                        </g>
                    </g>
                </g>
            </g>
        </g>
    </g>
</svg>