<svg xmlns="http://www.w3.org/2000/svg" viewBox="0 0 300.55 333.15"><defs><style>.cls-1,.cls-10,.cls-11,.cls-16{fill:#fff;}.cls-19,.cls-2{fill:#d9d9d9;}.cls-15,.cls-3{fill:#f9f9f9;}.cls-13,.cls-14,.cls-17,.cls-4,.cls-5,.cls-9{fill:none;}.cls-11,.cls-15,.cls-16,.cls-4,.cls-9{stroke:#adadad;}.cls-10,.cls-11,.cls-13,.cls-14,.cls-15,.cls-16,.cls-17,.cls-4,.cls-5,.cls-9{stroke-miterlimit:10;}.cls-4{stroke-width:19px;}.cls-5{stroke:#ececec;stroke-width:9px;}.cls-6{fill:#adadad;}.cls-7{fill:#dcdfe2;}.cls-8{opacity:0.2;}.cls-11,.cls-15,.cls-9{stroke-width:5px;}.cls-10{stroke:#d3d3d3;}.cls-10,.cls-11,.cls-13,.cls-14,.cls-16,.cls-17{stroke-linecap:round;}.cls-10,.cls-13,.cls-14{stroke-width:4px;}.cls-12{fill:#ececec;}.cls-13{stroke:#d4d4d4;}.cls-14{stroke:#b5b5b5;}.cls-16{stroke-width:17px;}.cls-17{stroke:#fff;stroke-width:7px;}.cls-18{fill:#b3b3b3;}.cls-19{font-size:30.2px;font-family:Dosis-Bold, Dosis;font-weight:700;}</style></defs><title>static</title><g id="Layer_2" data-name="Layer 2"><g id="Layer_1-2" data-name="Layer 1"><polygon class="cls-1" points="106.12 14.87 118.75 26.9 103.19 32.63 106.12 14.87"/><path class="cls-2" d="M107.14,17.91,116,26.32l-10.88,4,2-12.42m-1.35-5.07a1,1,0,0,0-1,.84l-3.22,19.56a1,1,0,0,0,1.37,1.09L120.07,28a1,1,0,0,0,.17-1.76L106.34,13a1,1,0,0,0-.55-.17Z"/><polygon class="cls-1" points="260.86 100.76 271.57 102.09 264.67 109.94 260.86 100.76"/><path class="cls-2" d="M263.23,102.57l5.34.66-3.44,3.91-1.9-4.57m-3.65-3.47a.69.69,0,0,0-.62,1l4.84,11.67a.69.69,0,0,0,1.22.07l8.77-10a.69.69,0,0,0-.51-1L259.67,99.1Z"/><ellipse class="cls-3" cx="156.05" cy="321.65" rx="67" ry="11.5"/><path class="cls-4" d="M41.12,263.65A42,42,0,0,1,83,224.15"/><path class="cls-5" d="M41.12,263.65A42,42,0,0,1,83,224.15"/><path class="cls-1" d="M126.43,295.65a14.8,14.8,0,0,1-14.78-14.78V258.65h86.89v22.22a14.8,14.8,0,0,1-14.78,14.78Z"/><path class="cls-6" d="M196,261.15v19.72a12.29,12.29,0,0,1-12.28,12.28H126.43a12.29,12.29,0,0,1-12.28-12.28V261.15H196m5-5H109.16v24.72a17.28,17.28,0,0,0,17.28,17.28h57.33A17.28,17.28,0,0,0,201,280.87V256.15Z"/><rect class="cls-7" x="128.55" y="244.65" width="53" height="78" rx="19.01" ry="19.01"/><path class="cls-6" d="M162.53,247.15A16.53,16.53,0,0,1,179,263.66v40a16.53,16.53,0,0,1-16.51,16.51h-15A16.53,16.53,0,0,1,131,303.64v-40a16.53,16.53,0,0,1,16.51-16.51h15m0-5h-15A21.58,21.58,0,0,0,126,263.66v40a21.58,21.58,0,0,0,21.51,21.51h15A21.58,21.58,0,0,0,184,303.64v-40a21.58,21.58,0,0,0-21.51-21.51Z"/><g class="cls-8"><path class="cls-6" d="M156.81,241.15H150c13.33,0,24.24,9.56,24.24,21.25V301.9c0,11.69-10.91,21.25-24.24,21.25h6.76c13.33,0,24.24-9.56,24.24-21.25V262.4C181,250.71,170.14,241.15,156.81,241.15Z"/></g><path class="cls-9" d="M89.41,153.62,75,140.84l3-13.48a2,2,0,0,0-.35-1.63l-7.59-10.12a2,2,0,0,1,.71-3L83,106.5A2,2,0,0,0,84,104L78.23,88.14"/><circle class="cls-6" cx="77.43" cy="85.74" r="5.59"/><path class="cls-1" d="M86.44,159.5a15.11,15.11,0,1,1,15.11-15.11A15.13,15.13,0,0,1,86.44,159.5Z"/><path class="cls-6" d="M86.44,131.78a12.61,12.61,0,1,1-12.61,12.61,12.62,12.62,0,0,1,12.61-12.61m0-5A17.61,17.61,0,1,0,104,144.39a17.61,17.61,0,0,0-17.61-17.61Z"/><path class="cls-9" d="M223,151.65l12-24a2,2,0,0,0,.09-1.57l-7.22-20.22a2,2,0,0,1,0-1.36l6-16.38"/><circle class="cls-6" cx="234.6" cy="85.76" r="5.43"/><rect class="cls-3" x="119.1" y="183.65" width="72" height="20"/><path class="cls-6" d="M188.6,186.15v15h-67v-15h67m5-5h-77v25h77v-25Z"/><g class="cls-8"><polygon class="cls-6" points="193.05 191.15 117.05 188.42 116.6 181.15 193.6 181.15 193.05 191.15"/></g><path class="cls-1" d="M94.7,276.15A24.62,24.62,0,0,1,70.1,251.56V202.93a1.78,1.78,0,0,1,1.77-1.77H238.33a1.78,1.78,0,0,1,1.77,1.77v48.63a24.62,24.62,0,0,1-24.59,24.59Z"/><path class="cls-6" d="M237.1,204.15v47.41a21.62,21.62,0,0,1-21.59,21.59H94.7A21.62,21.62,0,0,1,73.1,251.56V204.15h164m1.23-6H71.88a4.77,4.77,0,0,0-4.77,4.77v48.63A27.59,27.59,0,0,0,94.7,279.15H215.51a27.59,27.59,0,0,0,27.59-27.59V202.92a4.77,4.77,0,0,0-4.77-4.77Z"/><path class="cls-1" d="M94.17,183.15a7,7,0,0,1-7-7V130.43a67.36,67.36,0,0,1,67.28-67.28h1.31A67.36,67.36,0,0,1,223,130.43v45.72a7,7,0,0,1-7,7Z"/><path class="cls-6" d="M155.76,66.15A64.35,64.35,0,0,1,220,130.43v45.72a4,4,0,0,1-4,4H94.17a4,4,0,0,1-4-4V130.43a64.35,64.35,0,0,1,64.28-64.28h1.31m0-6h-1.31a70.28,70.28,0,0,0-70.28,70.28v45.72a10,10,0,0,0,10,10H216a10,10,0,0,0,10-10V130.43a70.28,70.28,0,0,0-70.28-70.28Z"/><g class="cls-8"><path class="cls-6" d="M214.32,124.13v59H223V133.26c0-33.46-25.13-61.51-59-69.11C193,71.14,214.32,95.35,214.32,124.13Z"/></g><rect class="cls-10" x="196.05" y="226.32" width="25.5" height="21.83" rx="2" ry="2"/><circle class="cls-10" cx="211.8" cy="235.32" r="3.75"/><circle class="cls-11" cx="125.97" cy="130.68" r="7.07"/><circle class="cls-11" cx="175.58" cy="130.68" r="7.07"/><path class="cls-11" d="M170,154.54c-.92.85-12.3,9.59-25.38,3.45"/><path class="cls-12" d="M153.28,101.21c-8.16,0-14.8-5.47-14.8-12.2V65.51a104.74,104.74,0,0,1,33.24.3V89c0,6.73-6.64,12.2-14.8,12.2Z"/><path class="cls-6" d="M154.23,66.82a102.11,102.11,0,0,1,15,1.11V89c0,5.26-5.63,9.7-12.3,9.7h-3.65c-6.67,0-12.3-4.44-12.3-9.7V67.68a103,103,0,0,1,13.25-.86m0-5h0a107.31,107.31,0,0,0-18.17,1.54A12.49,12.49,0,0,0,136,64.7V89c0,8.09,7.78,14.7,17.3,14.7h3.65c9.51,0,17.3-6.62,17.3-14.7V64.7c0-.34,0-.67-.06-1a107,107,0,0,0-19.93-1.88Z"/><path class="cls-12" d="M154.44,80.65c-4.24,0-8-2.33-8-5V64.81a74.41,74.41,0,0,1,18.13.14V75.66c0,2.66-3.72,5-8,5Z"/><path class="cls-6" d="M155,66.82c2.36,0,4.73.12,7.09.35v8.49c0,.76-2.06,2.49-5.46,2.49h-2.21c-3.4,0-5.46-1.73-5.46-2.49V67.07c2-.17,4-.25,6-.25m0-5h0a76.78,76.78,0,0,0-11,.79,5.37,5.37,0,0,0,0,.68V75.66c0,4.12,4.71,7.49,10.46,7.49h2.21c5.75,0,10.46-3.37,10.46-7.49V63.29c0-.17,0-.34,0-.51a76.5,76.5,0,0,0-12.05-1Z"/><line class="cls-13" x1="83.05" y1="216.15" x2="91.66" y2="216.15"/><line class="cls-1" x1="83.05" y1="216.15" x2="91.66" y2="216.15"/><line class="cls-13" x1="90.43" y1="223.15" x2="99.05" y2="223.15"/><line class="cls-1" x1="90.43" y1="223.15" x2="99.05" y2="223.15"/><line class="cls-13" x1="87.97" y1="231.15" x2="96.58" y2="231.15"/><line class="cls-1" x1="87.97" y1="231.15" x2="96.58" y2="231.15"/><line class="cls-14" x1="140.05" y1="301.15" x2="161.05" y2="301.15"/><line class="cls-14" x1="140.05" y1="291.15" x2="161.05" y2="291.15"/><path class="cls-15" d="M77.55,224.65"/><path class="cls-16" d="M27.7,274.22A15.79,15.79,0,1,1,42,279"/><path class="cls-17" d="M27.7,274.22A15.79,15.79,0,1,1,42,279"/><g class="cls-8"><path class="cls-6" d="M206,275.43s20-6.15,22.78-22.36c1.88-11,0-51.42,0-51.42h10.72v54.77s-1.34,6.71-13.4,15.65S206,275.43,206,275.43Z"/></g><g id="_Group_" data-name="&lt;Group&gt;"><path class="cls-1" d="M87.44,63.93A1.93,1.93,0,0,1,88,66.6a2,2,0,0,1-2.69.61C75.41,61,67.6,70,67.28,70.42a2,2,0,0,1-2.74.25,1.93,1.93,0,0,1-.25-2.72C67.79,63.73,77.15,57.46,87.44,63.93Zm4.49-6.2c-10.53-6.28-19.26-4.26-24.72-1.45a29.06,29.06,0,0,0-9.33,7.63,1.93,1.93,0,0,0,.41,2.71A2,2,0,0,0,61,66.21a25.23,25.23,0,0,1,8-6.49c6.67-3.42,13.71-3,20.93,1.33a1.94,1.94,0,1,0,2-3.33ZM70.52,72.47a1.93,1.93,0,0,0,.17,2.74A2,2,0,0,0,73.44,75c.15-.17,3.64-4,7.68-1.44A2,2,0,0,0,83.82,73a1.93,1.93,0,0,0-.59-2.68C77.77,66.85,72.53,70.21,70.52,72.47Z"/><path class="cls-2" d="M78.06,53.6a23.73,23.73,0,0,0-10.85,2.68,29.06,29.06,0,0,0-9.33,7.63A1.94,1.94,0,0,0,59.44,67,2,2,0,0,0,61,66.21a25.23,25.23,0,0,1,8-6.49A19.65,19.65,0,0,1,78,57.46a23.13,23.13,0,0,1,11.88,3.6,2,2,0,0,0,1,.28,2,2,0,0,0,1.68-.94,1.93,1.93,0,0,0-.66-2.66A26.85,26.85,0,0,0,78.06,53.6Zm.23,7.55c-6.38,0-11.59,3.89-14,6.8a1.94,1.94,0,0,0,1.5,3.17,2,2,0,0,0,1.5-.7c.24-.29,4.64-5.4,11-5.4a13.18,13.18,0,0,1,7.09,2.19,2,2,0,0,0,1,.3,2,2,0,0,0,.35,0A2,2,0,0,0,88,66.6a1.93,1.93,0,0,0-.6-2.67,17,17,0,0,0-9.14-2.78Zm0,7.68a11,11,0,0,0-7.78,3.64A1.94,1.94,0,0,0,72,75.69,2,2,0,0,0,73.44,75a7.16,7.16,0,0,1,4.8-2.32,5.29,5.29,0,0,1,2.88.88,2,2,0,0,0,1,.31,2,2,0,0,0,.35,0A2,2,0,0,0,83.82,73a1.93,1.93,0,0,0-.59-2.68,9.06,9.06,0,0,0-4.93-1.5Z"/></g><g id="_Group_2" data-name="&lt;Group&gt;"><path class="cls-1" d="M237.43,15.11h-.12a.92.92,0,0,1-.76-1,.94.94,0,0,1,.36-.6.91.91,0,0,1,.54-.18h.13a.9.9,0,0,1,.76,1,.92.92,0,0,1-.36.59A1,1,0,0,1,237.43,15.11Z"/><path class="cls-2" d="M243,1.9c-9.46,0-17.19,4.29-22.79,10a11.81,11.81,0,0,0-5.32-1.26,13.08,13.08,0,0,0-4.68.89,18.34,18.34,0,0,0-8.5,7,2.1,2.1,0,0,0,2.44,3.14,9.78,9.78,0,0,1,3.23-.56,7.27,7.27,0,0,1,6,2.77l7.78,10.5,0,.06c1.91,2.58,1.68,6.36-.57,9.41a2.1,2.1,0,0,0,1.38,3.32l.31,0a2.1,2.1,0,0,0,.6-.09A18.35,18.35,0,0,0,232.07,41a12.19,12.19,0,0,0,2.56-9.72,35.67,35.67,0,0,0,7.07-4.73A30.12,30.12,0,0,0,252.16,5a2.1,2.1,0,0,0-1.62-2.18A33.69,33.69,0,0,0,243,1.9ZM223.69,30.84l-6.22-8.4C222,14.22,230.94,6.11,243.05,6.11a28.43,28.43,0,0,1,4.75.41C245.7,24,230.23,29.34,223.69,30.84ZM214.5,19.21A11.62,11.62,0,0,0,208.83,17a10.3,10.3,0,0,1,6-2.2,7.57,7.57,0,0,1,2.41.39,39.81,39.81,0,0,0-2.77,4Zm11.91,21.52a11.61,11.61,0,0,0-.48-6.12,43.13,43.13,0,0,0,4.68-1.5c.11,3.06-1.64,5.73-4.2,7.62Zm11-29.94a3.41,3.41,0,0,0-2,.67,3.41,3.41,0,0,0,1.52,6.11,3.34,3.34,0,0,0,.49,0,3.41,3.41,0,0,0,.51-6.78,3.37,3.37,0,0,0-.5,0ZM211.3,28.14a6,6,0,0,0-3.54,1.22c-2.74,2-3.55,6.78-3.68,7.71a2.12,2.12,0,0,0,1.75,2.4h.07a18,18,0,0,0,2.55.18,10.08,10.08,0,0,0,5.81-1.49,5.6,5.6,0,0,0,2.37-3.69,5.48,5.48,0,0,0-1.1-4.07,5.16,5.16,0,0,0-4.23-2.27Zm-2.52,7.25a5.93,5.93,0,0,1,1.47-2.66,1.73,1.73,0,0,1,1-.42h.12a1.28,1.28,0,0,1,.81.58,1.36,1.36,0,0,1,.32.94,1.67,1.67,0,0,1-.71.92,5.88,5.88,0,0,1-3,.63Z"/></g><path class="cls-18" d="M126.79,246.51V226.85a1,1,0,0,1,.55-.85,2.49,2.49,0,0,1,1.4-.36h6a9.42,9.42,0,0,1,5.84,1.66q2.19,1.66,2.19,5.26v8.25q0,3.59-2.19,5.26a9.42,9.42,0,0,1-5.84,1.66h-6a2.49,2.49,0,0,1-1.4-.36A1,1,0,0,1,126.79,246.51Zm4.44-2.24h3.55q3.59,0,3.59-3.47v-8.25q0-3.47-3.59-3.47h-3.55Z"/><path class="cls-18" d="M146.6,246.48v-19.6a1,1,0,0,1,.65-.92,3.55,3.55,0,0,1,1.57-.32,3.67,3.67,0,0,1,1.88.39,5,5,0,0,1,1.43,1.69L158.72,239V226.85a1,1,0,0,1,.65-.91,4.24,4.24,0,0,1,3.14,0,1,1,0,0,1,.65.91v19.63a1,1,0,0,1-.67.91,3.44,3.44,0,0,1-1.55.33,2.75,2.75,0,0,1-2.56-1.24L151,234.34v12.14a1,1,0,0,1-.67.91,3.84,3.84,0,0,1-3.13,0A1,1,0,0,1,146.6,246.48Z"/><path class="cls-18" d="M166,244.25a2.2,2.2,0,0,1,.6-1.4,1.74,1.74,0,0,1,1.35-.71,1.88,1.88,0,0,1,1,.38,11.49,11.49,0,0,1,1.09.83,5.16,5.16,0,0,0,1.52.83,6.11,6.11,0,0,0,2.19.38,5.18,5.18,0,0,0,2.73-.66,2.16,2.16,0,0,0,1.09-2,2.44,2.44,0,0,0-.6-1.62,4.65,4.65,0,0,0-1.57-1.18q-1-.47-2.13-.91t-2.34-1a14,14,0,0,1-2.15-1.22,5,5,0,0,1-1.57-1.81,5.44,5.44,0,0,1-.6-2.58,5.52,5.52,0,0,1,.73-2.87,5.2,5.2,0,0,1,2-1.93,9.86,9.86,0,0,1,2.63-1,13.25,13.25,0,0,1,3-.32,17.45,17.45,0,0,1,1.88.11,19.5,19.5,0,0,1,2.1.36,4.68,4.68,0,0,1,1.81.78,1.53,1.53,0,0,1,.7,1.24,2.52,2.52,0,0,1-.48,1.39,1.49,1.49,0,0,1-1.3.72,7,7,0,0,1-1.67-.57,7.78,7.78,0,0,0-3-.57,5.47,5.47,0,0,0-2.85.62,1.89,1.89,0,0,0-.19,3.23,6.67,6.67,0,0,0,2,1.06q1.21.41,2.63,1a23.35,23.35,0,0,1,2.63,1.34,5.91,5.91,0,0,1,2,2.1,6.16,6.16,0,0,1,.82,3.22,5.63,5.63,0,0,1-2.24,4.78,9.56,9.56,0,0,1-5.89,1.68,12.18,12.18,0,0,1-5.57-1.18Q166,245.64,166,244.25Z"/><path class="cls-1" d="M8.53,94.89A14.63,14.63,0,0,0,1.29,114.2a13.27,13.27,0,0,0,10,8.16l1.94,4.32a2.09,2.09,0,0,0,2.67.92l.16-.08,11.69-6.42a2,2,0,0,0,.91-2.52l-1.49-3.32a14.34,14.34,0,0,0,.55-12.94A14.62,14.62,0,0,0,8.53,94.89Zm14.86,19a1.87,1.87,0,0,0-.16,1.94l1.21,2.69-8.51,4.65L14.4,119.8a1.86,1.86,0,0,0-1.48-1.17,9.44,9.44,0,0,1-8.08-6,10.71,10.71,0,0,1,5.25-14.18,10.73,10.73,0,0,1,14.1,5.5A9.61,9.61,0,0,1,23.39,113.9ZM31,124.16a1.93,1.93,0,0,1-.78,2.61l-11.65,6.28-.13.06a1.93,1.93,0,0,1-1.71-3.47l11.65-6.28A1.93,1.93,0,0,1,31,124.16Zm-1.34,7.29a1.93,1.93,0,0,1-.76,2.62l-4.22,2.3-.13.07A1.93,1.93,0,0,1,22.83,133l4.22-2.3A1.93,1.93,0,0,1,29.66,131.46Zm-8.13-26.38a1.69,1.69,0,0,1-.9,2.08l-.15.06a1.69,1.69,0,0,1-2.13-1.07,3.71,3.71,0,0,0-3.79-2.52,1.7,1.7,0,0,1-1.8-1.56,1.67,1.67,0,0,1,1.52-1.81A7.1,7.1,0,0,1,21.54,105.08Z"/><path class="cls-2" d="M14.36,93.64a14.22,14.22,0,0,0-5.84,1.25A14.63,14.63,0,0,0,1.29,114.2a13.27,13.27,0,0,0,10,8.16l1.94,4.32a2,2,0,0,0,1.23,1,1.86,1.86,0,0,0,.59.09,2.09,2.09,0,0,0,.85-.18l.16-.08,11.69-6.42a2,2,0,0,0,.91-2.52l-1.49-3.32a14.34,14.34,0,0,0,.55-12.94,14.71,14.71,0,0,0-13.39-8.69Zm1.56,29.55L14.4,119.8a1.86,1.86,0,0,0-1.48-1.17,9.44,9.44,0,0,1-8.08-6,10.71,10.71,0,0,1,5.25-14.18,10.38,10.38,0,0,1,4.26-.91,10.83,10.83,0,0,1,9.84,6.41,9.61,9.61,0,0,1-.8,10,1.87,1.87,0,0,0-.16,1.94l1.21,2.69-8.51,4.65Zm-1.18-23-.46,0a1.67,1.67,0,0,0-1.52,1.81,1.7,1.7,0,0,0,1.69,1.56h.29a3.67,3.67,0,0,1,3.61,2.53A1.69,1.69,0,0,0,20,107.3a1.67,1.67,0,0,0,.53-.09l.15-.06a1.69,1.69,0,0,0,.9-2.08,7.07,7.07,0,0,0-6.8-4.84ZM29.3,123.15a1.9,1.9,0,0,0-.91.23l-11.65,6.28a1.94,1.94,0,0,0,.93,3.63,1.9,1.9,0,0,0,.78-.17l.13-.06,11.65-6.28a1.94,1.94,0,0,0-.93-3.63ZM28,130.45a1.92,1.92,0,0,0-.91.23L22.83,133a1.94,1.94,0,0,0,.93,3.63,1.9,1.9,0,0,0,.78-.17l.13-.07,4.22-2.3a1.94,1.94,0,0,0-.93-3.63Z"/><text class="cls-19" transform="translate(256.05 69.95) scale(1.13 1)">+</text><path class="cls-2" d="M17.76,67.41a2,2,0,0,1,.38-1.24,1.18,1.18,0,0,1,1-.5h2.65V63.07a1.27,1.27,0,0,1,.55-1,2,2,0,0,1,1.3-.44,1.93,1.93,0,0,1,1.3.44,1.29,1.29,0,0,1,.51,1v2.59h2.62a1.29,1.29,0,0,1,1,.52,1.83,1.83,0,0,1,.44,1.23,1.79,1.79,0,0,1-.43,1.23,1.3,1.3,0,0,1-1,.48H25.44v2.63a1.23,1.23,0,0,1-.5,1,2.08,2.08,0,0,1-1.32.39,2.17,2.17,0,0,1-1.31-.39,1.2,1.2,0,0,1-.53-1V69.12H19.13a1.21,1.21,0,0,1-1-.47A1.93,1.93,0,0,1,17.76,67.41Z"/><path class="cls-1" d="M67.83,20.8a.49.49,0,0,1-.19,0L54.7,15.39a.5.5,0,0,1-.27-.65L59.81,1.81a.5.5,0,0,1,.46-.31.49.49,0,0,1,.19,0L73.39,6.91a.5.5,0,0,1,.27.65L68.29,20.49A.5.5,0,0,1,67.83,20.8Z"/><path class="cls-2" d="M60.81,3.31l11.08,4.6L67.29,19,56.2,14.39l4.6-11.08M60.27,0a2,2,0,0,0-1.85,1.23L53,14.16a2,2,0,0,0,1.08,2.61l12.93,5.37a2,2,0,0,0,2.61-1.08L75,8.14A2,2,0,0,0,74,5.52L61,.15A2,2,0,0,0,60.27,0Z"/><g class="cls-8"><path class="cls-6" d="M72.42,243.15S76.4,267,93.12,271,109,273.41,109,273.41,79.58,278.19,75.6,267,71.62,251.91,72.42,243.15Z"/></g><path class="cls-4" d="M274.36,181.48A42,42,0,0,1,232.44,221"/><path class="cls-5" d="M274.36,181.48A42,42,0,0,1,232.44,221"/><path class="cls-16" d="M287.79,170.92a15.79,15.79,0,1,1-14.29-4.77"/><path class="cls-17" d="M287.79,170.92a15.79,15.79,0,1,1-14.29-4.77"/><path class="cls-1" d="M224.87,158.91a14,14,0,1,1,14-14A14,14,0,0,1,224.87,158.91Z"/><path class="cls-6" d="M224.87,133.39a11.51,11.51,0,1,1-11.51,11.51,11.52,11.52,0,0,1,11.51-11.51m0-5a16.51,16.51,0,1,0,16.51,16.51,16.51,16.51,0,0,0-16.51-16.51Z"/></g></g></svg>