<svg xmlns="http://www.w3.org/2000/svg" viewBox="0 0 291.14 334.31"><defs><style>.cls-1,.cls-16,.cls-17,.cls-4,.cls-5,.cls-7{fill:none;}.cls-1,.cls-18,.cls-4,.cls-6{stroke:#adadad;}.cls-1,.cls-12,.cls-16,.cls-17,.cls-18,.cls-4,.cls-5,.cls-6,.cls-7{stroke-miterlimit:10;}.cls-1,.cls-18{stroke-width:5px;}.cls-12,.cls-2,.cls-6{fill:#fff;}.cls-3{fill:#adadad;}.cls-4{stroke-width:19px;}.cls-5{stroke:#ececec;stroke-width:9px;}.cls-12,.cls-16,.cls-17,.cls-6,.cls-7{stroke-linecap:round;}.cls-6{stroke-width:17px;}.cls-7{stroke:#fff;stroke-width:7px;}.cls-8{fill:#d9d9d9;}.cls-18,.cls-9{fill:#f9f9f9;}.cls-10{fill:#dcdfe2;}.cls-11{opacity:0.2;}.cls-12{stroke:#d3d3d3;}.cls-12,.cls-16,.cls-17{stroke-width:4px;}.cls-13{opacity:0.5;}.cls-14,.cls-19{fill:#02a8f3;}.cls-15{fill:#ececec;}.cls-16{stroke:#d4d4d4;}.cls-17{stroke:#b5b5b5;}.cls-19{opacity:0.3;}.cls-20{fill:#3fa9f5;}.cls-21{opacity:0.52;}.cls-22{fill:#ffd54f;}.cls-23{opacity:0.58;}</style></defs><title>active</title><g id="Layer_2" data-name="Layer 2"><g id="Layer_1-2" data-name="Layer 1"><path class="cls-1" d="M216.57,152.81l12-24a2,2,0,0,0,.09-1.57L221.47,107a2,2,0,0,1,0-1.36l6-16.38"/><path class="cls-2" d="M218.47,160.07a14,14,0,1,1,14-14A14,14,0,0,1,218.47,160.07Z"/><path class="cls-3" d="M218.47,134.55A11.51,11.51,0,1,1,207,146.06a11.52,11.52,0,0,1,11.51-11.51m0-5A16.51,16.51,0,1,0,235,146.06a16.51,16.51,0,0,0-16.51-16.51Z"/><path class="cls-4" d="M265,264.82A42,42,0,0,0,223,225.31"/><path class="cls-5" d="M265,264.82A42,42,0,0,0,223,225.31"/><path class="cls-6" d="M278.38,275.38a15.79,15.79,0,1,0-14.29,4.77"/><path class="cls-7" d="M278.38,275.38a15.79,15.79,0,1,0-14.29,4.77"/><polygon class="cls-2" points="143.72 2.03 156.35 14.06 140.79 19.79 143.72 2.03"/><path class="cls-8" d="M144.73,5.07l8.83,8.41-10.88,4,2-12.42M143.38,0a1,1,0,0,0-1,.84L139.17,20.4a1,1,0,0,0,1.37,1.09l17.13-6.32a1,1,0,0,0,.17-1.76L143.93.17a1,1,0,0,0-.55-.17Z"/><polygon class="cls-2" points="254.45 101.92 265.16 103.25 258.26 111.11 254.45 101.92"/><path class="cls-8" d="M256.83,103.73l5.34.66-3.44,3.91-1.9-4.57m-3.65-3.47a.69.69,0,0,0-.62,1l4.84,11.67a.69.69,0,0,0,1.22.07l8.77-10a.69.69,0,0,0-.51-1l-13.61-1.69Z"/><ellipse class="cls-9" cx="149.64" cy="322.81" rx="67" ry="11.5"/><path class="cls-4" d="M34.72,264.82a42,42,0,0,1,41.93-39.5"/><path class="cls-5" d="M34.72,264.82a42,42,0,0,1,41.93-39.5"/><path class="cls-2" d="M120,296.81A14.8,14.8,0,0,1,105.25,282V259.81h86.89V282a14.8,14.8,0,0,1-14.78,14.78Z"/><path class="cls-3" d="M189.64,262.31V282a12.29,12.29,0,0,1-12.28,12.28H120A12.29,12.29,0,0,1,107.75,282V262.31h81.89m5-5H102.75V282A17.28,17.28,0,0,0,120,299.31h57.33A17.28,17.28,0,0,0,194.64,282V257.31Z"/><rect class="cls-10" x="122.14" y="245.81" width="53" height="78" rx="19.01" ry="19.01"/><path class="cls-3" d="M156.13,248.31a16.53,16.53,0,0,1,16.51,16.51v40a16.53,16.53,0,0,1-16.51,16.51h-15a16.53,16.53,0,0,1-16.51-16.51v-40a16.53,16.53,0,0,1,16.51-16.51h15m0-5h-15a21.58,21.58,0,0,0-21.51,21.51v40a21.58,21.58,0,0,0,21.51,21.51h15a21.58,21.58,0,0,0,21.51-21.51v-40a21.58,21.58,0,0,0-21.51-21.51Z"/><g class="cls-11"><path class="cls-3" d="M150.4,242.31h-6.76c13.33,0,24.24,9.56,24.24,21.25v39.49c0,11.69-10.91,21.25-24.24,21.25h6.76c13.33,0,24.24-9.56,24.24-21.25V263.57C174.64,251.88,163.73,242.31,150.4,242.31Z"/></g><path class="cls-1" d="M83,154.78,68.63,142l3-13.48a2,2,0,0,0-.35-1.63l-7.59-10.12a2,2,0,0,1,.71-3l12.23-6.12a2,2,0,0,0,1-2.47L71.83,89.3"/><circle class="cls-3" cx="71.03" cy="86.9" r="5.59"/><path class="cls-2" d="M80,160.66a15.11,15.11,0,1,1,15.11-15.11A15.13,15.13,0,0,1,80,160.66Z"/><path class="cls-3" d="M80,132.94a12.61,12.61,0,1,1-12.61,12.61A12.62,12.62,0,0,1,80,132.94m0-5a17.61,17.61,0,1,0,17.61,17.61A17.61,17.61,0,0,0,80,127.94Z"/><circle class="cls-3" cx="228.2" cy="86.92" r="5.43"/><rect class="cls-9" x="112.7" y="184.81" width="72" height="20"/><path class="cls-3" d="M182.2,187.31v15h-67v-15h67m5-5h-77v25h77v-25Z"/><g class="cls-11"><polygon class="cls-3" points="186.64 192.31 110.64 189.58 110.2 182.31 187.2 182.31 186.64 192.31"/></g><path class="cls-2" d="M88.29,277.31A24.62,24.62,0,0,1,63.7,252.72V204.09a1.78,1.78,0,0,1,1.77-1.77H231.92a1.78,1.78,0,0,1,1.77,1.77v48.63a24.62,24.62,0,0,1-24.59,24.59Z"/><path class="cls-3" d="M230.7,205.31v47.41a21.62,21.62,0,0,1-21.59,21.59H88.29A21.62,21.62,0,0,1,66.7,252.72V205.31h164m1.23-6H65.47a4.77,4.77,0,0,0-4.77,4.77v48.63a27.59,27.59,0,0,0,27.59,27.59H209.1a27.59,27.59,0,0,0,27.59-27.59V204.09a4.77,4.77,0,0,0-4.77-4.77Z"/><path class="cls-2" d="M87.76,184.31a7,7,0,0,1-7-7V131.59A67.36,67.36,0,0,1,148,64.31h1.31a67.36,67.36,0,0,1,67.28,67.28v45.72a7,7,0,0,1-7,7Z"/><path class="cls-3" d="M149.35,67.31a64.35,64.35,0,0,1,64.28,64.28v45.72a4,4,0,0,1-4,4H87.76a4,4,0,0,1-4-4V131.59A64.35,64.35,0,0,1,148,67.31h1.31m0-6H148a70.28,70.28,0,0,0-70.28,70.28v45.72a10,10,0,0,0,10,10H209.63a10,10,0,0,0,10-10V131.59a70.28,70.28,0,0,0-70.28-70.28Z"/><g class="cls-11"><path class="cls-3" d="M207.91,125.29v59h8.72V134.42c0-33.46-25.13-61.51-59-69.11C186.57,72.31,207.91,96.51,207.91,125.29Z"/></g><rect class="cls-12" x="189.64" y="227.48" width="25.5" height="21.83" rx="2" ry="2"/><circle class="cls-12" cx="205.4" cy="236.48" r="3.75"/><g class="cls-13"><circle class="cls-14" cx="124.57" cy="138.84" r="9.53"/><circle class="cls-14" cx="174.57" cy="138.84" r="9.53"/></g><path class="cls-15" d="M146.87,102.37c-8.16,0-14.8-5.47-14.8-12.2V66.67a104.74,104.74,0,0,1,33.24.3v23.2c0,6.73-6.64,12.2-14.8,12.2Z"/><path class="cls-3" d="M147.83,68a102.11,102.11,0,0,1,15,1.11V90.16c0,5.26-5.63,9.7-12.3,9.7h-3.65c-6.67,0-12.3-4.44-12.3-9.7V68.84A103,103,0,0,1,147.83,68m0-5h0a107.31,107.31,0,0,0-18.17,1.54,12.49,12.49,0,0,0-.08,1.34v24.3c0,8.09,7.78,14.7,17.3,14.7h3.65c9.51,0,17.3-6.62,17.3-14.7V65.86c0-.34,0-.67-.06-1A107,107,0,0,0,147.83,63Z"/><path class="cls-15" d="M148,81.81c-4.24,0-8-2.33-8-5V66a74.41,74.41,0,0,1,18.13.14V76.82c0,2.66-3.72,5-8,5Z"/><path class="cls-3" d="M148.61,68c2.36,0,4.73.12,7.09.35v8.49c0,.76-2.06,2.49-5.46,2.49H148c-3.4,0-5.46-1.73-5.46-2.49V68.23c2-.17,4-.25,6-.25m0-5h0a76.78,76.78,0,0,0-11,.79,5.37,5.37,0,0,0,0,.68V76.82c0,4.12,4.71,7.49,10.46,7.49h2.21c5.75,0,10.46-3.37,10.46-7.49V64.45c0-.17,0-.34,0-.51a76.5,76.5,0,0,0-12.05-1Z"/><line class="cls-16" x1="76.64" y1="217.31" x2="85.26" y2="217.31"/><line class="cls-2" x1="76.64" y1="217.31" x2="85.26" y2="217.31"/><line class="cls-16" x1="84.03" y1="224.31" x2="92.64" y2="224.31"/><line class="cls-2" x1="84.03" y1="224.31" x2="92.64" y2="224.31"/><line class="cls-16" x1="81.57" y1="232.31" x2="90.18" y2="232.31"/><line class="cls-2" x1="81.57" y1="232.31" x2="90.18" y2="232.31"/><line class="cls-17" x1="137.64" y1="302.31" x2="158.64" y2="302.31"/><line class="cls-17" x1="137.64" y1="292.31" x2="158.64" y2="292.31"/><path class="cls-18" d="M71.14,225.81"/><path class="cls-6" d="M21.29,275.38a15.79,15.79,0,1,1,14.29,4.77"/><path class="cls-7" d="M21.29,275.38a15.79,15.79,0,1,1,14.29,4.77"/><g class="cls-11"><path class="cls-3" d="M199.64,276.59s20-6.15,22.78-22.36c1.88-11,0-51.42,0-51.42h10.72v54.77s-1.34,6.71-13.4,15.65S199.64,276.59,199.64,276.59Z"/></g><path id="_Compound_Path_" data-name="&lt;Compound Path&gt;" class="cls-19" d="M81,65.09a1.93,1.93,0,0,1,.6,2.67,2,2,0,0,1-2.69.61C69,62.12,61.2,71.19,60.87,71.58a2,2,0,0,1-2.74.25,1.93,1.93,0,0,1-.25-2.72C61.38,64.89,70.74,58.62,81,65.09Zm4.49-6.2C75,52.61,66.27,54.64,60.81,57.44a29.06,29.06,0,0,0-9.33,7.63,1.93,1.93,0,0,0,.41,2.71,2,2,0,0,0,2.73-.41,25.23,25.23,0,0,1,8-6.49c6.67-3.42,13.71-3,20.93,1.33a1.94,1.94,0,1,0,2-3.33ZM64.12,73.63a1.93,1.93,0,0,0,.17,2.74A2,2,0,0,0,67,76.2c.15-.17,3.64-4,7.68-1.44a2,2,0,0,0,2.69-.59,1.93,1.93,0,0,0-.59-2.68C71.37,68,66.13,71.37,64.12,73.63Z"/><path id="_Compound_Path_2" data-name="&lt;Compound Path&gt;" class="cls-19" d="M248.16,75a1.93,1.93,0,0,1-1,2.54,2,2,0,0,1-2.55-1c-4.56-10.82-16.15-7.88-16.64-7.74a2,2,0,0,1-2.39-1.37A1.93,1.93,0,0,1,226.89,65C232.18,63.54,243.44,63.78,248.16,75Zm7.24-2.49c-5-11.19-13.33-14.54-19.41-15.38A29.06,29.06,0,0,0,224,58a1.93,1.93,0,0,0-1.22,2.45,2,2,0,0,0,2.47,1.23A25.23,25.23,0,0,1,235.47,61c7.42,1,12.93,5.44,16.37,13.11a1.94,1.94,0,1,0,3.56-1.57Zm-26-.22A1.93,1.93,0,0,0,228,74.6,2,2,0,0,0,230.32,76c.21-.05,5.28-1.2,7.12,3.23A2,2,0,0,0,240,80.34,1.93,1.93,0,0,0,241,77.81C238.57,71.83,232.35,71.57,229.4,72.27Z"/><g id="_Group_" data-name="&lt;Group&gt;"><path class="cls-2" d="M231,16.28h-.12a.92.92,0,0,1-.76-1,.94.94,0,0,1,.36-.6.91.91,0,0,1,.54-.18h.13a.9.9,0,0,1,.76,1,.92.92,0,0,1-.36.59A1,1,0,0,1,231,16.28Z"/><path class="cls-8" d="M236.57,3.06c-9.46,0-17.19,4.29-22.79,10a11.81,11.81,0,0,0-5.32-1.26,13.08,13.08,0,0,0-4.68.89,18.34,18.34,0,0,0-8.5,7,2.1,2.1,0,0,0,2.44,3.14,9.78,9.78,0,0,1,3.23-.56,7.27,7.27,0,0,1,6,2.77l7.78,10.5,0,.06c1.91,2.58,1.68,6.36-.57,9.41a2.1,2.1,0,0,0,1.38,3.32l.31,0a2.1,2.1,0,0,0,.6-.09,18.35,18.35,0,0,0,9.21-6.06,12.19,12.19,0,0,0,2.56-9.72,35.67,35.67,0,0,0,7.07-4.73A30.12,30.12,0,0,0,245.75,6.12a2.1,2.1,0,0,0-1.62-2.18,33.69,33.69,0,0,0-7.56-.88ZM217.29,32l-6.22-8.4c4.55-8.23,13.47-16.34,25.58-16.34a28.43,28.43,0,0,1,4.75.41C239.3,25.12,223.83,30.5,217.29,32ZM208.1,20.38a11.62,11.62,0,0,0-5.67-2.21,10.3,10.3,0,0,1,6-2.2,7.57,7.57,0,0,1,2.41.39,39.81,39.81,0,0,0-2.77,4ZM220,41.9a11.61,11.61,0,0,0-.48-6.12,43.13,43.13,0,0,0,4.68-1.5c.11,3.06-1.64,5.73-4.2,7.62ZM231,12a3.41,3.41,0,0,0-2,.67,3.41,3.41,0,0,0,1.52,6.11,3.34,3.34,0,0,0,.49,0,3.41,3.41,0,0,0,.51-6.78,3.37,3.37,0,0,0-.5,0ZM204.89,29.3a6,6,0,0,0-3.54,1.22c-2.74,2-3.55,6.78-3.68,7.71a2.12,2.12,0,0,0,1.75,2.4h.07a18,18,0,0,0,2.55.18,10.08,10.08,0,0,0,5.81-1.49,5.6,5.6,0,0,0,2.37-3.69,5.48,5.48,0,0,0-1.1-4.07,5.16,5.16,0,0,0-4.23-2.27Zm-2.52,7.25a5.93,5.93,0,0,1,1.47-2.66,1.73,1.73,0,0,1,1-.42h.12a1.28,1.28,0,0,1,.81.58,1.36,1.36,0,0,1,.32.94,1.67,1.67,0,0,1-.71.92,5.88,5.88,0,0,1-3,.63Z"/></g><g class="cls-13"><path class="cls-20" d="M120.38,247.67V228a1,1,0,0,1,.55-.85,2.49,2.49,0,0,1,1.4-.36h6a9.42,9.42,0,0,1,5.84,1.66q2.19,1.66,2.19,5.26V242q0,3.59-2.19,5.26a9.42,9.42,0,0,1-5.84,1.66h-6a2.49,2.49,0,0,1-1.4-.36A1,1,0,0,1,120.38,247.67Zm4.44-2.24h3.55q3.59,0,3.59-3.47v-8.25q0-3.47-3.59-3.47h-3.55Z"/><path class="cls-20" d="M140.19,247.64V228a1,1,0,0,1,.65-.92,3.55,3.55,0,0,1,1.57-.32,3.67,3.67,0,0,1,1.88.39,5,5,0,0,1,1.43,1.69l6.59,11.27V228a1,1,0,0,1,.65-.91,4.24,4.24,0,0,1,3.14,0,1,1,0,0,1,.65.91v19.63a1,1,0,0,1-.67.91,3.44,3.44,0,0,1-1.55.33,2.75,2.75,0,0,1-2.56-1.24l-7.34-12.14v12.14a1,1,0,0,1-.67.91,3.84,3.84,0,0,1-3.13,0A1,1,0,0,1,140.19,247.64Z"/><path class="cls-20" d="M159.63,245.41a2.2,2.2,0,0,1,.6-1.4,1.74,1.74,0,0,1,1.35-.71,1.88,1.88,0,0,1,1,.38,11.49,11.49,0,0,1,1.09.83,5.16,5.16,0,0,0,1.52.83,6.11,6.11,0,0,0,2.19.38,5.18,5.18,0,0,0,2.73-.66,2.16,2.16,0,0,0,1.09-2,2.44,2.44,0,0,0-.6-1.62,4.65,4.65,0,0,0-1.57-1.18q-1-.47-2.13-.91t-2.34-1a14,14,0,0,1-2.15-1.22,5,5,0,0,1-1.57-1.81,5.44,5.44,0,0,1-.6-2.58,5.52,5.52,0,0,1,.73-2.87,5.2,5.2,0,0,1,2-1.93,9.86,9.86,0,0,1,2.63-1,13.25,13.25,0,0,1,3-.32,17.45,17.45,0,0,1,1.88.11,19.5,19.5,0,0,1,2.1.36,4.68,4.68,0,0,1,1.81.78,1.53,1.53,0,0,1,.7,1.24,2.52,2.52,0,0,1-.48,1.39,1.49,1.49,0,0,1-1.3.72,7,7,0,0,1-1.67-.57,7.78,7.78,0,0,0-3-.57,5.47,5.47,0,0,0-2.85.62,1.89,1.89,0,0,0-.19,3.23,6.67,6.67,0,0,0,2,1.06q1.21.41,2.63,1a23.35,23.35,0,0,1,2.63,1.34,5.91,5.91,0,0,1,2,2.1,6.16,6.16,0,0,1,.82,3.22,5.63,5.63,0,0,1-2.24,4.78,9.56,9.56,0,0,1-5.89,1.68A12.18,12.18,0,0,1,162,248Q159.63,246.8,159.63,245.41Z"/></g><g class="cls-21"><path class="cls-2" d="M6,94.3A10.33,10.33,0,0,0,.91,107.93,9.36,9.36,0,0,0,8,113.69l1.37,3.05a1.47,1.47,0,0,0,1.89.65l.11-.06,8.25-4.53a1.42,1.42,0,0,0,.64-1.78l-1-2.34a10.12,10.12,0,0,0,.39-9.13A10.32,10.32,0,0,0,6,94.3ZM16.5,107.72a1.32,1.32,0,0,0-.12,1.37l.85,1.9-6,3.28-1.07-2.39a1.32,1.32,0,0,0-1-.82,6.66,6.66,0,0,1-5.7-4.26,7.56,7.56,0,0,1,3.7-10,7.57,7.57,0,0,1,10,3.88A6.78,6.78,0,0,1,16.5,107.72ZM21.88,115a1.36,1.36,0,0,1-.55,1.85l-8.22,4.43-.09,0a1.36,1.36,0,0,1-1.2-2.45L20,114.4A1.36,1.36,0,0,1,21.88,115Zm-.94,5.15a1.36,1.36,0,0,1-.54,1.85l-3,1.62-.09,0a1.36,1.36,0,0,1-1.21-2.44l3-1.62A1.36,1.36,0,0,1,20.93,120.11ZM15.2,101.49a1.19,1.19,0,0,1-.63,1.47l-.11,0a1.19,1.19,0,0,1-1.51-.75,2.62,2.62,0,0,0-2.67-1.78A1.2,1.2,0,0,1,9,99.37a1.18,1.18,0,0,1,1.07-1.28A5,5,0,0,1,15.2,101.49Z"/><path class="cls-22" d="M10.13,93.42A10,10,0,0,0,6,94.3,10.33,10.33,0,0,0,.91,107.93,9.36,9.36,0,0,0,8,113.69l1.37,3.05a1.44,1.44,0,0,0,.87.71,1.31,1.31,0,0,0,.42.07,1.48,1.48,0,0,0,.6-.13l.11-.06,8.25-4.53a1.42,1.42,0,0,0,.64-1.78l-1-2.34a10.12,10.12,0,0,0,.39-9.13,10.38,10.38,0,0,0-9.45-6.13Zm1.1,20.85-1.07-2.39a1.32,1.32,0,0,0-1-.82,6.66,6.66,0,0,1-5.7-4.26,7.56,7.56,0,0,1,3.7-10,7.33,7.33,0,0,1,3-.64,7.64,7.64,0,0,1,6.95,4.52,6.78,6.78,0,0,1-.57,7,1.32,1.32,0,0,0-.12,1.37l.85,1.9-6,3.28ZM10.4,98.08h-.33A1.18,1.18,0,0,0,9,99.37a1.2,1.2,0,0,0,1.19,1.1h.21a2.59,2.59,0,0,1,2.54,1.78,1.2,1.2,0,0,0,1.13.82,1.18,1.18,0,0,0,.38-.06l.11,0a1.19,1.19,0,0,0,.63-1.47,5,5,0,0,0-4.79-3.42Zm10.27,16.17a1.34,1.34,0,0,0-.64.16l-8.22,4.43a1.37,1.37,0,0,0,.65,2.56,1.34,1.34,0,0,0,.55-.12l.09,0,8.22-4.43a1.37,1.37,0,0,0-.65-2.56Zm-.94,5.15a1.36,1.36,0,0,0-.65.16l-3,1.62a1.37,1.37,0,0,0,.66,2.56,1.34,1.34,0,0,0,.55-.12l.09,0,3-1.62a1.37,1.37,0,0,0-.66-2.56Z"/></g><g class="cls-23"><path class="cls-8" d="M20.36,65.57a2,2,0,0,1,.38-1.24,1.18,1.18,0,0,1,1-.5h2.65V61.23a1.27,1.27,0,0,1,.55-1,2,2,0,0,1,1.3-.44,1.93,1.93,0,0,1,1.3.44,1.29,1.29,0,0,1,.51,1v2.59h2.62a1.29,1.29,0,0,1,1,.52,1.83,1.83,0,0,1,.44,1.23,1.79,1.79,0,0,1-.43,1.23,1.3,1.3,0,0,1-1,.48H28v2.63a1.23,1.23,0,0,1-.5,1,2.08,2.08,0,0,1-1.32.39,2.17,2.17,0,0,1-1.31-.39,1.2,1.2,0,0,1-.53-1V67.28H21.73a1.21,1.21,0,0,1-1-.47A1.93,1.93,0,0,1,20.36,65.57Z"/></g><path class="cls-2" d="M105.42,31a.49.49,0,0,1-.19,0L92.3,25.55A.5.5,0,0,1,92,24.9L97.4,12a.5.5,0,0,1,.46-.31.49.49,0,0,1,.19,0L111,17.07a.5.5,0,0,1,.27.65l-5.37,12.93A.5.5,0,0,1,105.42,31Z"/><path class="cls-8" d="M98.4,13.47l11.08,4.6-4.6,11.08L93.8,24.55l4.6-11.08m-.54-3.31A2,2,0,0,0,96,11.39L90.65,24.32a2,2,0,0,0,1.08,2.61l12.93,5.37a2,2,0,0,0,2.61-1.08l5.37-12.93a2,2,0,0,0-1.08-2.61L98.63,10.31a2,2,0,0,0-.77-.15Z"/><g class="cls-11"><path class="cls-3" d="M66,244.31s4,23.89,20.7,27.87,15.93,2.39,15.93,2.39-29.46,4.78-33.45-6.37S65.22,253.07,66,244.31Z"/></g></g></g></svg>