<svg xmlns="http://www.w3.org/2000/svg" viewBox="0 0 619.84 607.56"><defs><style>.cls-1{fill:#100e40;}.cls-15,.cls-2{fill:#337fc2;}.cls-3{fill:#183c81;}.cls-4{fill:#70c5ed;}.cls-5{fill:#c7eaf9;}.cls-6{fill:#754c29;}.cls-7{fill:#262262;}.cls-8{fill:#fff;}.cls-9{fill:#00a0d2;}.cls-10{fill:#00ade8;}.cls-11{fill:#009ddb;}.cls-12{fill:#f1f2f2;}.cls-13{fill:#160734;}.cls-14{fill:#362d79;}.cls-15{opacity:0.33;}.cls-16{fill:#f89e1c;}.cls-17{fill:#f9dece;}.cls-18{fill:#d8c1b5;}.cls-19{fill:#e6cec0;}.cls-20{fill:#272a63;}.cls-21{fill:#27aae1;}.cls-22{fill:#ed1c24;}</style></defs><title>skype call illustration</title><g id="Layer_2" data-name="Layer 2"><g id="Layer_4" data-name="Layer 4"><polygon class="cls-1" points="121.11 478.05 121.11 473.01 182.74 437.43 182.74 442.47 121.11 478.05"/><polygon class="cls-2" points="111.58 396.34 49.95 431.93 121.11 473.01 182.74 437.43 111.58 396.34"/><polygon class="cls-3" points="49.95 431.93 49.95 436.96 121.11 478.05 121.11 473.01 49.95 431.93"/><path class="cls-4" d="M140.34,385.21l-7.16,49.47c0,6.73-8.29,12.18-18.52,12.18s-18.52-5.45-18.52-12.18L89,385.21Z"/><path class="cls-5" d="M114.67,403.15a32.45,32.45,0,0,0,17.67-4.86c5.16-3.4,8-8,8-13.08s-2.84-9.69-8-13.08a32.44,32.44,0,0,0-17.67-4.86A32.45,32.45,0,0,0,97,372.13c-5.16,3.4-8,8-8,13.08s2.84,9.69,8,13.08A32.45,32.45,0,0,0,114.67,403.15Z"/><ellipse class="cls-2" cx="114.67" cy="385.21" rx="21.28" ry="14"/><path class="cls-6" d="M114.67,399.21c-8,0-15-2.91-18.62-7.21,1.73-5.72,9.41-10,18.62-10s16.89,4.32,18.62,10C129.65,396.29,122.68,399.21,114.67,399.21Z"/><path class="cls-1" d="M0,468.63s0-2.57,0-5.35a5.34,5.34,0,0,0,1.24,2.88A13.41,13.41,0,0,0,2.9,468l2.75,1.6C16.73,476,57.77,499.9,61.87,502.34c5,3,10.21,1.66,14.7.61,0,0,23.47-13.52,28.17-16.28l.87-.47a18,18,0,0,0,3-2,4.16,4.16,0,0,0,1.53-2.09v4.89h0c0,1.06-.75,2.3-2.77,3.65C96.55,497,77,508.3,77,508.3s-7.5,3.13-14.37,0C48.86,500,48.84,500,3.23,473.72c0,0-3.45-2.27-3.21-5.09Z"/><path class="cls-3" d="M77,502.79s-7.5,3.13-14.37,0C51,495.71,3.25,468.22,3.25,468.22s-6.67-4.37-.83-8.54c14.79-8.54,30.83-18.12,30.83-18.12s5-3.33,14.17,1.46c13.12,7.29,60,34.79,60,34.79s6.25,3.13,0,7.29C96.57,491.55,77,502.79,77,502.79Z"/><polygon class="cls-7" points="66.56 499.58 102.03 479.06 42.35 444.54 7.04 465.08 66.56 499.58"/><polygon class="cls-2" points="75.01 470.43 75.01 472.01 74.9 472.01 75.01 472.08 54.57 484.37 38.4 475 38.4 473.37 75.01 470.43"/><polygon class="cls-4" points="38.4 473.36 59.12 461.3 75.01 470.43 54.57 482.73 38.4 473.36"/><polygon class="cls-5" points="58.37 472.01 59.3 461.3 38.4 473.37 58.37 472.01"/><path class="cls-3" d="M46.55,458a13,13,0,0,1,2.31.39v1c0,.76-1,1.38-2.31,1.38s-2.31-.62-2.31-1.38v-1A13.06,13.06,0,0,1,46.55,458Z"/><ellipse class="cls-8" cx="46.55" cy="458.36" rx="2.31" ry="1.38"/><path class="cls-3" d="M40.9,461.18a13,13,0,0,1,2.31.39v1c0,.76-1,1.38-2.31,1.38s-2.31-.62-2.31-1.38v-1A13,13,0,0,1,40.9,461.18Z"/><ellipse class="cls-8" cx="40.9" cy="461.57" rx="2.31" ry="1.38"/><path class="cls-3" d="M35.07,464.6a13,13,0,0,1,2.31.39v1c0,.77-1,1.38-2.31,1.38s-2.31-.62-2.31-1.38v-1A13,13,0,0,1,35.07,464.6Z"/><ellipse class="cls-8" cx="35.07" cy="464.98" rx="2.31" ry="1.38"/><path class="cls-9" d="M242.74,512.2c1.61-.95,19.62-11.37,37-21.45,14.07-8.14,27.37-15.83,29.19-16.9a46.31,46.31,0,0,1,21.52-6.46A43.24,43.24,0,0,1,352.45,472l128.88,74.41c12.83,6.57,24.45,6.09,37.68-1.54l.1-.06c1.27-.66,7.57-5.79,8.58-11.64.69-4-1.27-7.32-5.82-9.94l-.15-.09c-1-.55-94.41-54.67-128.79-74.52l-1.35-.78.14-.08c-4.73-3.54-14.37-13.3,4.17-24.14,23.32-13,43.26-1.93,43.46-1.82l128.93,74.44c.71.41,17.72,9.89,37.65-1.56,6-3.44,9.25-7.06,9.72-10.75.81-6.37-6.94-10.93-7-11L302.1,296l3.12-1.8,306.54,177c.37.21,8.95,5.26,8,12.61-.55,4.35-4.3,8.55-11.14,12.48-23.07,13.26-43.26,1.92-43.46,1.8L436.25,423.66c-.69-.39-17.52-9.63-37.67,1.58-16.59,9.71-7.41,18.27-2.69,21.5l.21.16c34.42,19.87,127.8,73.95,128.73,74.49,5.46,3.08,7.78,7,7,11.73-1.08,6.24-7.62,12-10.13,13.38-14.86,8.56-29,9.16-43.34,1.81l-.07,0L349.33,473.85a38.76,38.76,0,0,0-19.15-4.08,39.89,39.89,0,0,0-18.48,5.63l-29.21,16.91c-16.6,9.6-35.42,20.49-37,21.43Z"/><polygon class="cls-10" points="100.43 528.06 100.43 519.26 238.14 598.77 238.14 607.56 100.43 528.06"/><polygon class="cls-11" points="238.14 598.77 238.14 607.56 315.33 563 315.33 554.21 238.14 598.77"/><polygon class="cls-4" points="238.14 598.77 100.43 519.26 177.62 474.7 315.33 554.21 238.14 598.77"/><polygon class="cls-8" points="175.08 499.97 164.6 493.92 176.7 486.94 187.17 492.99 175.08 499.97"/><polygon class="cls-8" points="188.45 507.69 177.98 501.64 190.07 494.66 200.54 500.71 188.45 507.69"/><polygon class="cls-8" points="201.82 515.41 191.34 509.36 203.44 502.38 213.91 508.43 201.82 515.41"/><polygon class="cls-8" points="215.19 523.13 204.71 517.08 216.81 510.1 227.28 516.14 215.19 523.13"/><polygon class="cls-8" points="228.56 530.85 218.09 524.8 230.18 517.82 240.65 523.86 228.56 530.85"/><polygon class="cls-8" points="241.93 538.56 231.45 532.52 243.55 525.54 254.02 531.58 241.93 538.56"/><polygon class="cls-8" points="255.3 546.28 244.82 540.24 256.92 533.25 267.39 539.3 255.3 546.28"/><polygon class="cls-8" points="268.67 554 258.19 547.96 270.29 540.97 280.76 547.02 268.67 554"/><polygon class="cls-8" points="282.04 561.72 271.56 555.68 283.66 548.7 294.13 554.74 282.04 561.72"/><polygon class="cls-8" points="159.64 508.88 149.17 502.84 161.26 495.85 171.73 501.9 159.64 508.88"/><polygon class="cls-8" points="173.01 516.6 162.54 510.55 174.63 503.57 185.1 509.62 173.01 516.6"/><polygon class="cls-8" points="186.38 524.32 175.91 518.27 188 511.29 198.47 517.34 186.38 524.32"/><polygon class="cls-8" points="199.75 532.04 189.28 525.99 201.37 519.01 211.84 525.06 199.75 532.04"/><polygon class="cls-8" points="213.12 539.76 202.65 533.71 214.74 526.73 225.21 532.78 213.12 539.76"/><polygon class="cls-8" points="226.49 547.48 216.01 541.43 228.11 534.45 238.58 540.5 226.49 547.48"/><polygon class="cls-8" points="239.86 555.2 229.38 549.15 241.48 542.17 251.95 548.22 239.86 555.2"/><polygon class="cls-8" points="253.23 562.92 242.75 556.87 254.85 549.89 265.32 555.93 253.23 562.92"/><polygon class="cls-8" points="266.6 570.64 256.13 564.59 268.22 557.61 278.69 563.65 266.6 570.64"/><polygon class="cls-8" points="144.2 517.8 133.73 511.75 145.82 504.77 156.29 510.81 144.2 517.8"/><polygon class="cls-8" points="157.57 525.52 147.1 519.47 159.19 512.49 169.66 518.53 157.57 525.52"/><polygon class="cls-8" points="237.79 571.83 227.32 565.78 239.41 558.8 249.88 564.85 237.79 571.83"/><polygon class="cls-8" points="251.16 579.55 240.69 573.5 252.78 566.52 263.25 572.57 251.16 579.55"/><polygon class="cls-8" points="224.42 564.11 160.47 527.19 172.56 520.21 236.51 557.13 224.42 564.11"/><path class="cls-2" d="M254.86,9.08l7.79-4.63c2.49-1.34,5.7-1.16,9.2.86l37.9,21.88c8,4.59,14.4,16.91,14.4,27.5V84.6c0,5.83-2,9.91-5,11.65l0,0-7.68,4.47V96.32a14.56,14.56,0,0,1-1.71-.84l-10.64-6.14-5.84,5.17h0l-2.47,2.19-7.3,4.34,6.57-5.82-7.59-15.47L271.85,73.6C263.91,69,257.46,56.69,257.46,46.1V16.19a19.24,19.24,0,0,1,1-6.55Z"/><path class="cls-11" d="M264.56,9.63l37.9,21.89c8,4.59,14.39,16.91,14.39,27.5V88.93c0,10.59-6.44,15.48-14.39,10.88l-10.64-6.14L283.51,101l-8.31-17-10.64-6.14c-7.95-4.58-14.39-16.91-14.39-27.5V20.52C250.17,9.92,256.61,5.05,264.56,9.63Z"/><path class="cls-12" d="M289.19,77.68A6,6,0,0,1,284.87,75a9.63,9.63,0,0,1-2.92.25c-7.47-.57-12.82-10.21-12-21.55a32.55,32.55,0,0,1,.64-4.35,15.26,15.26,0,0,1-1-6.94c.47-6.18,4.15-10.95,8.22-10.64a6,6,0,0,1,4.32,2.67,9.63,9.63,0,0,1,2.92-.25c7.47.57,12.82,10.21,12,21.55a32.55,32.55,0,0,1-.64,4.35,15.26,15.26,0,0,1,1,6.94C296.94,73.22,293.26,78,289.19,77.68ZM285.53,52l-1.94-.85c-1.42-.64-2.49-1.1-2.36-2.79s1.25-2.16,2.93-2c3,.23,2.82,3.59,4.68,3.73,1.25.09,2.11-1.34,2.24-3,.25-3.35-3.25-5.82-6.88-6.09-3.32-.25-7.35,1.64-7.8,7.56-.37,4.9,1.65,6.81,4.37,8l2.72,1.26c1.66.77,2.69,1.14,2.55,3a2.6,2.6,0,0,1-3,2.41c-3.55-.27-3.4-4.77-5.46-4.93-1.34-.1-2.05,1.31-2.17,2.92-.27,3.59,3.12,6.78,7.44,7.1,3.61.27,7.58-2.18,8-8.1C291.3,55.11,288.19,53.12,285.53,52Z"/><path class="cls-13" d="M354.06,92.17l3.75-2.23a4.48,4.48,0,0,1,4.44.42L380.5,100.9c3.83,2.21,6.94,8.15,6.94,13.25v14.41c0,2.81-.94,4.77-2.42,5.62h0l-3.7,2.15v-2.13a6.73,6.73,0,0,1-.82-.4l-5.12-3-2.81,2.49h0l-1.19,1.05-3.51,2.09,3.16-2.81-3.65-7.46-5.12-3c-3.83-2.21-6.94-8.15-6.94-13.25V95.6a9.19,9.19,0,0,1,.5-3.16Z"/><path class="cls-14" d="M358.73,92.45,377,103c3.83,2.21,6.94,8.15,6.94,13.25v14.41c0,5.1-3.1,7.45-6.94,5.24l-5.13-3-4,3.55-4-8.17-5.13-3c-3.83-2.21-6.94-8.15-6.94-13.25V97.69C351.8,92.58,354.9,90.24,358.73,92.45Z"/><polygon class="cls-8" points="357.9 101.94 377.82 113.44 377.82 109.85 357.9 98.34 357.9 101.94"/><polygon class="cls-8" points="357.9 107.76 377.82 119.26 377.82 115.67 357.9 104.16 357.9 107.76"/><polygon class="cls-8" points="357.9 113.43 377.82 124.93 377.82 121.34 357.9 109.84 357.9 113.43"/><polygon class="cls-8" points="357.9 119.01 377.82 130.51 377.82 126.92 357.9 115.42 357.9 119.01"/><polygon class="cls-2" points="423.69 291.25 426.31 289.72 426.41 289.91 426.41 289.66 466.58 311.63 466.71 347.5 464.01 349.08 423.69 291.25"/><polygon class="cls-4" points="463.99 349.09 423.94 326.42 423.69 291.25 463.86 313.22 463.99 349.09"/><polygon class="cls-5" points="441.73 322.17 463.92 313.38 423.69 291.25 441.73 322.17"/><polygon class="cls-2" points="423.69 232.38 426.31 230.85 426.42 231.04 426.42 230.79 466.58 252.76 466.71 288.63 464.01 290.21 423.69 232.38"/><polygon class="cls-4" points="463.99 290.22 423.94 267.56 423.69 232.38 463.86 254.35 463.99 290.22"/><polygon class="cls-5" points="441.73 263.3 463.92 254.51 423.69 232.38 441.73 263.3"/><path class="cls-13" d="M197.95,2.63,201.67.41a4.44,4.44,0,0,1,4.41.41l18.11,10.46c3.8,2.2,6.88,8.08,6.88,13.15V38.72c0,2.79-.94,4.74-2.4,5.57h0L225,46.44V44.33a7.47,7.47,0,0,1-.82-.4L219.1,41l-2.79,2.47h0l-1.18,1-3.49,2.07,3.14-2.78-3.62-7.4-5.08-2.93c-3.8-2.19-6.88-8.09-6.88-13.15V6a9.16,9.16,0,0,1,.5-3.13Z"/><path class="cls-14" d="M202.59,2.89l18.11,10.46c3.8,2.19,6.88,8.08,6.88,13.14V40.79c0,5.06-3.08,7.4-6.88,5.2l-5.08-2.94-4,3.52-4-8.11-5.08-2.93c-3.8-2.19-6.88-8.09-6.88-13.15V8.1C195.7,3,198.79.7,202.59,2.89Z"/><path class="cls-8" d="M205.85,18.07c-3.08-1.78-3.08,4.59,0,6.37S208.93,19.85,205.85,18.07Z"/><path class="cls-8" d="M211.69,21.44c-3.08-1.78-3.08,4.6,0,6.37S214.77,23.22,211.69,21.44Z"/><path class="cls-8" d="M217.43,24.75c-3.09-1.78-3.09,4.59,0,6.37S220.51,26.53,217.43,24.75Z"/><polygon class="cls-2" points="101.5 107.2 104.12 105.67 104.23 105.86 104.23 105.61 144.4 127.58 144.53 163.45 141.82 165.03 101.5 107.2"/><polygon class="cls-4" points="141.8 165.04 101.75 142.37 101.5 107.2 141.68 129.17 141.8 165.04"/><polygon class="cls-5" points="119.54 138.12 141.74 129.33 101.5 107.2 119.54 138.12"/><polygon class="cls-2" points="101.5 48.33 104.12 46.8 104.23 46.99 104.23 46.74 144.4 68.71 144.53 104.58 141.82 106.16 101.5 48.33"/><polygon class="cls-4" points="141.8 106.17 101.75 83.5 101.5 48.33 141.68 70.3 141.8 106.17"/><polygon class="cls-5" points="119.55 79.25 141.74 70.46 101.5 48.33 119.55 79.25"/><path class="cls-1" d="M170.18,69.5l10.65-6.12v0c4.11-2.31,9.43-2.09,15.25,1.26L378.9,170.23c13,7.49,23.51,27.63,23.51,44.92V375.34c0,9.58-3.25,16.29-8.35,19.1h.09l-11.29,6.44v-6a22.85,22.85,0,0,1-4-1.81l-78.52-45.33-.06,17.38c.37,22.27,11.9,32.12,11.9,32.12l21,12.11c7.21,4.16,13.06,15.33,13.06,24.95v3.92l-10.95,6.29-1.74-13.61L228.73,370.39v-3.92a19.23,19.23,0,0,1,.39-3.94l-6.26-.62,10.28-6v0c2.3-1.38,5.32-1.3,8.64.61l21,12.11s11.53,3.46,11.9-18.37c0,.06,0,.14,0,.21l0-17.59-78.66-45.41c-13-7.48-23.5-27.63-23.5-44.91V82.45a28.58,28.58,0,0,1,2.69-12.94Z"/><path class="cls-3" d="M368,399.39c13,7.49,23.5-.49,23.5-17.77V221.43c0-17.28-10.54-37.43-23.5-44.92L185.13,71c-13-7.48-23.51.49-23.51,17.78V248.92c0,17.28,10.54,37.43,23.51,44.91Z"/><path class="cls-11" d="M172.07,255c0,9.62,5.85,20.79,13.06,25L368,385.46c7.21,4.16,13.05-.26,13.05-9.88V215.4c0-9.62-5.84-20.79-13.05-25L185.13,84.89c-7.21-4.16-13.06.26-13.06,9.87Z"/><path class="cls-3" d="M230.84,362.89l21,12.11s11.53,3.46,11.9-18.37c0,.06,0,.14,0,.21V339.29L289.37,354v17.41c.37,22.27,11.9,32.12,11.9,32.12l21,12.11c7.21,4.16,13.05,15.33,13.05,25v3.92L217.78,376.68v-3.92C217.77,363.14,223.62,358.72,230.84,362.89Z"/><path class="cls-15" d="M172.07,255V94.76c0-4.21,1.17-7.35,3-9.28L316.58,355.8,185.13,279.91C177.91,275.74,172.07,264.57,172.07,255Z"/><path class="cls-8" d="M272.74,338a4.85,4.85,0,0,0,2,3.87l3.55,2c1.13.65,2,0,2-1.52v-1.91a4.85,4.85,0,0,0-2-3.87l-3.55-2.05c-1.12-.65-2,0-2,1.53Z"/><path class="cls-8" d="M274,129.46a3.32,3.32,0,0,0,1.38,2.64l2.42,1.4c.77.44,1.38,0,1.38-1v-1.3a3.3,3.3,0,0,0-1.38-2.64l-2.42-1.4c-.77-.44-1.39,0-1.38,1Z"/><path class="cls-16" d="M222.81,209.83c0,46.84,20.08,96.4,44.84,110.7s44.84-12.08,44.84-58.91-20.07-96.4-44.84-110.7S222.81,163,222.81,209.83Z"/><path class="cls-17" d="M219.61,288.72c0-13.48,8.2-19.67,18.31-13.83L295.26,308c10.11,5.84,18.31,21.49,18.31,35v11l-94-54.25Z"/><path class="cls-17" d="M258.35,267.36v-14c0-4.49,2.73-6.56,6.1-4.62l6.41,3.7c3.37,1.95,6.1,7.17,6.1,11.66v14s1.83,19,15.1,28c-1.53,9.9-18,7.1-24.4,2.18-6.41-2.48-22.88-18.7-24.41-30.36C256.52,284.2,258.35,267.36,258.35,267.36Z"/><path class="cls-18" d="M219.61,288.18c0-13.48,8.2-19.68,18.31-13.84l5.34,3.08c13.27,6.24,15.1-10.6,15.1-10.6v-14c0-4.49,2.73-6.56,6.1-4.62l6.41,3.7c3.37,1.95,6.1,7.17,6.1,11.66v4.15l-48.84,36.93-8.51-4.91Z"/><path class="cls-17" d="M242.18,202.3c0,26.4,11.41,54.38,25.47,62.5s25.48-6.69,25.48-33.08-11.41-54.38-25.48-62.5S242.18,175.91,242.18,202.3Z"/><path class="cls-19" d="M267.65,169.21V264.8c-14.07-8.12-25.47-36.1-25.47-62.5S253.59,161.09,267.65,169.21Z"/><path class="cls-16" d="M267.65,150.91c18.62,10.75,34.58,41.45,41.36,75.94L226.3,179.09C233.07,152.43,249,140.16,267.65,150.91Z"/><path class="cls-20" d="M234.13,272.7c8.21,21.93,20.31,40.2,33.52,47.82,13.06,7.54,24.8,3.77,33-8.34,7.48,7.39,12.92,19.81,12.92,30.79v11l-94-54.25v-11C219.61,276.11,225.52,269.91,234.13,272.7Z"/><path class="cls-21" d="M241.57,295.72c0,3.73,2.27,8.07,5.07,9.68s5.07-.1,5.07-3.83-2.27-8.07-5.07-9.68S241.57,292,241.57,295.72Z"/><path class="cls-22" d="M257.4,304c0,3.73,2.27,8.07,5.07,9.68s5.07-.1,5.07-3.83-2.27-8.07-5.07-9.68S257.4,300.27,257.4,304Z"/><path class="cls-21" d="M273.34,312.32c0,3.73,2.27,8.07,5.07,9.68s5.07-.1,5.07-3.83-2.27-8.07-5.07-9.68S273.34,308.59,273.34,312.32Z"/></g></g></svg>