<?xml version="1.0" encoding="UTF-8"?>
<svg width="32px" height="32px" viewBox="0 0 32 32" version="1.1" xmlns="http://www.w3.org/2000/svg" xmlns:xlink="http://www.w3.org/1999/xlink">
    <!-- Generator: Sketch 41.2 (35397) - http://www.bohemiancoding.com/sketch -->
    <title>Locked</title>
    <desc>Created with Sketch.</desc>
    <defs>
        <circle id="path-1" cx="14" cy="14" r="14"></circle>
        <mask id="mask-2" maskContentUnits="userSpaceOnUse" maskUnits="objectBoundingBox" x="-2" y="-2" width="32" height="32">
            <rect x="-2" y="-2" width="32" height="32" fill="white"></rect>
            <use xlink:href="#path-1" fill="black"></use>
        </mask>
    </defs>
    <g id="Page-1" stroke="none" stroke-width="1" fill="none" fill-rule="evenodd">
        <g id="01-Verify-Email" transform="translate(-255.000000, -384.000000)">
            <g id="Timeline" transform="translate(173.000000, 162.000000)">
                <g id="Status" transform="translate(84.000000, 111.000000)">
                    <g id="Locked" transform="translate(0.000000, 113.000000)">
                        <g id="Border">
                            <use fill="#FFFFFF" fill-rule="evenodd" xlink:href="#path-1"></use>
                            <use stroke="#DBE3EA" mask="url(#mask-2)" stroke-width="4" xlink:href="#path-1"></use>
                        </g>
                        <path d="M14.5,16.952381 C15.2593915,16.952381 15.875,16.3954019 15.875,15.7083333 C15.875,15.0178869 15.25625,14.4642857 14.5,14.4642857 C13.7406085,14.4642857 13.125,15.0212648 13.125,15.7083333 C13.125,16.3954019 13.7406085,16.952381 14.5,16.952381 L14.5,16.952381 Z M18.625,11.3541667 C19.3843915,11.3541667 20,11.9111458 20,12.5982143 L20,18.8184524 C20,19.5055209 19.3843915,20.0625 18.625,20.0625 L10.375,20.0625 C9.61560847,20.0625 9,19.5055209 9,18.8184524 L9,12.5982143 C9,11.9077679 9.61875,11.3541667 10.375,11.3541667 L11.0625,11.3541667 L11.0625,10.110119 C11.0625,8.39244773 12.6015212,7 14.5,7 C15.4116817,7 16.2860233,7.32767232 16.9306796,7.91093278 C17.5753359,8.49419324 17.9375,9.28526419 17.9375,10.110119 L17.9375,11.3541667 L18.625,11.3541667 L18.625,11.3541667 Z M14.5,8.24404762 C13.3609127,8.24404762 12.4375,9.07951626 12.4375,10.110119 L12.4375,11.3541667 L16.5625,11.3541667 L16.5625,10.110119 C16.5625,9.07951626 15.6390873,8.24404762 14.5,8.24404762 Z" id="Lock" fill="#CDD6DE"></path>
                    </g>
                </g>
            </g>
        </g>
    </g>
</svg>