<?xml version="1.0" encoding="UTF-8"?>
<svg width="32px" height="32px" viewBox="0 0 32 32" version="1.1" xmlns="http://www.w3.org/2000/svg" xmlns:xlink="http://www.w3.org/1999/xlink">
    <!-- Generator: Sketch 42 (36781) - http://www.bohemiancoding.com/sketch -->
    <title>unlocked</title>
    <desc>Created with Sketch.</desc>
    <defs>
        <circle id="path-1" cx="14" cy="14" r="14"></circle>
        <mask id="mask-2" maskContentUnits="userSpaceOnUse" maskUnits="objectBoundingBox" x="-2" y="-2" width="32" height="32">
            <rect x="-2" y="-2" width="32" height="32" fill="white"></rect>
            <use xlink:href="#path-1" fill="black"></use>
        </mask>
    </defs>
    <g id="Page-1" stroke="none" stroke-width="1" fill="none" fill-rule="evenodd">
        <g id="unlocked" transform="translate(2.000000, 2.000000)">
            <g id="Border">
                <use fill="#FFFFFF" fill-rule="evenodd" xlink:href="#path-1"></use>
                <use stroke="#DBE3EA" mask="url(#mask-2)" stroke-width="4" xlink:href="#path-1"></use>
            </g>
            <path d="M6.19999695,10.4532455 C6.19999695,10.4532455 6.19999695,10.1785326 6.27599904,9.78194592 C6.35200112,9.38535925 7.18214029,6.9032455 9.7306054,6.9032455" id="Path-3" stroke="#CDD6DE" stroke-width="1.3"></path>
            <path d="M12.8405538,10.4532455 C12.8405538,10.4532455 12.8405538,6.9032455 9.30994537,6.9032455" id="Path-3" stroke="#CDD6DE" stroke-width="1.3"></path>
            <path d="M15.9697587,15.3734877 C15.9697587,14.7046521 15.3703755,14.1683786 14.637796,14.1683786 C13.9021734,14.1683786 13.3058334,14.7079243 13.3058334,15.3734877 C13.3058334,16.039051 13.9021734,16.5785967 14.637796,16.5785967 C15.3734187,16.5785967 15.9697587,16.039051 15.9697587,15.3734877 Z M19.9656467,12.360715 L19.9656467,18.3862604 C19.9656467,19.0518237 19.3693067,19.5913694 18.633684,19.5913694 L10.641908,19.5913694 C9.90628537,19.5913694 9.30994537,19.0518237 9.30994537,18.3862604 L9.30994537,12.360715 C9.30994537,11.6918794 9.90932857,11.1556059 10.641908,11.1556059 L17.9677027,11.1556059 L18.633684,11.1556059 C19.3693067,11.1556059 19.9656467,11.6951516 19.9656467,12.360715 Z" id="Lock" fill="#CDD6DE"></path>
        </g>
    </g>
</svg>