<?xml version="1.0" encoding="UTF-8"?>
<svg width="74px" height="74px" viewBox="0 0 74 74" version="1.1" xmlns="http://www.w3.org/2000/svg" xmlns:xlink="http://www.w3.org/1999/xlink">
    <!-- Generator: Sketch 41.2 (35397) - http://www.bohemiancoding.com/sketch -->
    <title>03 Icon first challenge</title>
    <desc>Created with Sketch.</desc>
    <defs>
        <polygon id="path-1" points="0.0108292683 0.0720194647 0.0108292683 73.8203114 73.9281659 73.8203114 73.9281659 0.0720194647 0.0108292683 0.0720194647"></polygon>
    </defs>
    <g id="Page-1" stroke="none" stroke-width="1" fill="none" fill-rule="evenodd">
        <g id="01-Verify-Email" transform="translate(-309.000000, -476.000000)">
            <g id="Timeline" transform="translate(173.000000, 162.000000)">
                <g id="03-Icon-first-challenge" transform="translate(136.000000, 314.000000)">
                    <g id="Group-3">
                        <mask id="mask-2" fill="white">
                            <use xlink:href="#path-1"></use>
                        </mask>
                        <g id="Clip-2"></g>
                        <path d="M36.9640829,0 C57.3781561,0 73.9281659,16.5088418 73.9281659,36.874146 C73.9281659,57.2385499 57.3781561,73.748292 36.9640829,73.748292 C16.5498293,73.748292 0,57.2385499 0,36.874146 C0,16.5088418 16.5491073,0 36.9640829,0 Z" id="Fill-1" fill="#FF757C" mask="url(#mask-2)"></path>
                    </g>
                    <path d="M36.9640829,54.9087202 C37.6084244,54.9087202 38.1309366,55.4306813 38.1309366,56.073455 C38.1309366,56.7169489 37.6084244,57.2381898 36.9640829,57.2381898 C36.319561,57.2381898 35.7965073,56.7169489 35.7965073,56.073455 C35.7965073,55.4306813 36.319561,54.9087202 36.9640829,54.9087202 Z" id="Fill-4" fill="#E74E4E"></path>
                    <path d="M13.985639,22.4536886 L59.9416244,22.4536886 C61.834039,22.4536886 63.3822634,23.998146 63.3822634,25.8857762 L63.3822634,53.6519805 L63.3652976,53.6519805 L63.3667415,53.701854 C63.3667415,54.4621995 63.3793756,55.9807299 63.3793756,56.7367543 C63.3793756,57.3662044 62.863361,57.8809635 62.2323756,57.8809635 L42.9849756,57.8809635 L42.9849756,62.6938443 L46.5178439,62.6938443 C47.0670683,62.6938443 47.5163024,63.1418054 47.5163024,63.6896934 C47.5163024,64.2375815 47.0670683,64.6855426 46.5178439,64.6855426 L27.4101415,64.6855426 C26.8609171,64.6855426 26.4118634,64.2375815 26.4118634,63.6896934 C26.4118634,63.1418054 26.8609171,62.6938443 27.4101415,62.6938443 L30.9430098,62.6938443 L30.9430098,57.8809635 L11.7091463,57.8809635 C11.078161,57.8809635 10.5621463,57.3669246 10.5621463,56.7367543 L10.5621463,53.701854 L10.5634098,53.6519805 L10.5451805,53.6519805 L10.5451805,25.8857762 C10.5451805,23.998146 12.0941268,22.4536886 13.985639,22.4536886 Z" id="Fill-5" fill="#797979"></path>
                    <polygon id="Fill-6" fill="#1FD0C2" points="13.2784878 50.8597859 60.6494976 50.8597859 60.6494976 24.8153869 13.2784878 24.8153869"></polygon>
                    <path d="M36.9640829,54.9087202 C37.6084244,54.9087202 38.1309366,55.4306813 38.1309366,56.073455 C38.1309366,56.7169489 37.6084244,57.2381898 36.9640829,57.2381898 C36.319561,57.2381898 35.7972293,56.7169489 35.7972293,56.073455 C35.7972293,55.4306813 36.319561,54.9087202 36.9640829,54.9087202 Z" id="Fill-7" fill="#807D7D"></path>
                    <polygon id="Fill-8" fill="#FFFFFF" points="20.6968976 9.20588808 46.4460098 9.20588808 53.2312683 15.9746375 53.2312683 50.8597859 20.6968976 50.8597859"></polygon>
                    <polygon id="Fill-9" fill="#FFBA1B" points="46.4460098 9.20588808 46.4460098 15.9746375 53.2312683 15.9746375"></polygon>
                    <polygon id="Fill-10" fill="#FFBA1B" points="53.4872 57.745927 49.9987317 52.9564526 47.5903024 54.6696156 45.6126976 44.6754745 54.574278 49.6979319 52.1672927 51.4119951 55.6564829 56.2014696"></polygon>
                    <path d="M24.6710585,27.34309 L46.9733951,27.34309 L46.9733951,26.60309 L24.6710585,26.60309 L24.6710585,27.34309 Z M24.6710585,24.6501022 L41.7540488,24.6501022 L41.7540488,23.9101022 L24.6710585,23.9101022 L24.6710585,24.6501022 Z M24.6710585,23.2772311 L46.9741171,23.2772311 L46.9741171,22.5372311 L24.6710585,22.5372311 L24.6710585,23.2772311 Z M24.6710585,21.9043601 L46.9733951,21.9043601 L46.9733951,21.16382 L24.6710585,21.16382 L24.6710585,21.9043601 Z M24.6710585,20.5322092 L46.9733951,20.5322092 L46.9733951,19.7914891 L24.6710585,19.7914891 L24.6710585,20.5322092 Z M24.6710585,19.158618 L46.9733951,19.158618 L46.9733951,18.418618 L24.6710585,18.418618 L24.6710585,19.158618 Z M24.6710585,32.8352944 L41.7540488,32.8352944 L41.7540488,32.0952944 L24.6710585,32.0952944 L24.6710585,32.8352944 Z M24.6710585,31.4624234 L46.9741171,31.4624234 L46.9741171,30.7217032 L24.6710585,30.7217032 L24.6710585,31.4624234 Z M24.6710585,30.0895523 L46.9733951,30.0895523 L46.9733951,29.3488321 L24.6710585,29.3488321 L24.6710585,30.0895523 Z M24.6710585,28.7166813 L46.9733951,28.7166813 L46.9733951,27.9759611 L24.6710585,27.9759611 L24.6710585,28.7166813 Z" id="Fill-11" fill="#D0D1D4"></path>
                    <path d="M44.0271122,56.8464039 L43.2472244,56.3977226 L44.7553805,53.7911582 L45.5358098,54.2400195 L44.0271122,56.8464039 Z M53.0859756,39.7572652 L53.8656829,40.2066667 L52.3569854,42.8132311 L51.5765561,42.3638297 L53.0852537,39.756545 L53.0859756,39.7572652 Z M56.7612488,43.1612652 L57.2117463,43.9399757 L54.5990049,45.4450024 L54.1485073,44.666472 L56.7619707,43.1612652 L56.7612488,43.1612652 Z M55.2215073,48.8412603 L58.2390829,48.8412603 L58.2390829,47.9424574 L55.2215073,47.9424574 L55.2215073,48.8412603 Z M40.3516585,53.4424039 L39.901161,52.6645937 L42.5140829,51.1593869 L42.9645805,51.9371971 L40.3509366,53.4424039 L40.3516585,53.4424039 Z M38.8740049,48.6612117 L41.8915805,48.6612117 L41.8915805,47.763129 L38.8740049,47.763129 L38.8740049,48.6612117 Z M39.9906829,43.7836934 L40.4411805,43.0058832 L43.0541024,44.5101898 L42.6043268,45.2889002 L39.9906829,43.7836934 Z M43.4031659,40.1166423 L44.1835951,39.6679611 L45.6922927,42.2745255 L44.9118634,42.723927 L43.4031659,40.1166423 Z M48.195839,41.6526375 L49.0968341,41.6526375 L49.0968341,38.6433041 L48.195839,38.6433041 L48.195839,41.6526375 Z" id="Fill-12" fill="#FBB429"></path>
                </g>
            </g>
        </g>
    </g>
</svg>